<?xml version="1.0" encoding="UTF-8"?>
<svg xmlns="http://www.w3.org/2000/svg" xmlns:xlink="http://www.w3.org/1999/xlink" width="512pt" height="512pt" viewBox="0 0 512 512" version="1.1">
<defs>
<linearGradient id="linear0" gradientUnits="userSpaceOnUse" x1="37" y1="23.8328" x2="37" y2="34.1101" spreadMethod="reflect" gradientTransform="matrix(8,0,0,8,0,0)">
<stop offset="0" style="stop-color:#6DC7FF;stop-opacity:1;"/>
<stop offset="1" style="stop-color:#E6ABFF;stop-opacity:1;"/>
</linearGradient>
<linearGradient id="linear1" gradientUnits="userSpaceOnUse" x1="32" y1="5.7495" x2="32" y2="58.3661" spreadMethod="reflect" gradientTransform="matrix(8,0,0,8,0,0)">
<stop offset="0" style="stop-color:#1A6DFF;stop-opacity:1;"/>
<stop offset="1" style="stop-color:#C822FF;stop-opacity:1;"/>
</linearGradient>
<linearGradient id="linear2" gradientUnits="userSpaceOnUse" x1="35" y1="5.7503" x2="35" y2="58.3659" spreadMethod="reflect" gradientTransform="matrix(8,0,0,8,0,0)">
<stop offset="0" style="stop-color:#1A6DFF;stop-opacity:1;"/>
<stop offset="1" style="stop-color:#C822FF;stop-opacity:1;"/>
</linearGradient>
<linearGradient id="linear3" gradientUnits="userSpaceOnUse" x1="32" y1="5.7494" x2="32" y2="58.3697" spreadMethod="reflect" gradientTransform="matrix(8,0,0,8,0,0)">
<stop offset="0" style="stop-color:#1A6DFF;stop-opacity:1;"/>
<stop offset="1" style="stop-color:#C822FF;stop-opacity:1;"/>
</linearGradient>
<linearGradient id="linear4" gradientUnits="userSpaceOnUse" x1="32" y1="5.7495" x2="32" y2="58.3661" spreadMethod="reflect" gradientTransform="matrix(8,0,0,8,0,0)">
<stop offset="0" style="stop-color:#1A6DFF;stop-opacity:1;"/>
<stop offset="1" style="stop-color:#C822FF;stop-opacity:1;"/>
</linearGradient>
<linearGradient id="linear5" gradientUnits="userSpaceOnUse" x1="27" y1="5.7514" x2="27" y2="58.3653" spreadMethod="reflect" gradientTransform="matrix(8,0,0,8,0,0)">
<stop offset="0" style="stop-color:#1A6DFF;stop-opacity:1;"/>
<stop offset="1" style="stop-color:#C822FF;stop-opacity:1;"/>
</linearGradient>
</defs>
<g id="surface1">
<path style=" stroke:none;fill-rule:nonzero;fill:url(#linear0);" d="M 336 272 L 280 272 C 280 256 269.28125 248 256 248 L 256 192 C 300.160156 192 336 224 336 272 Z "/>
<path style=" stroke:none;fill-rule:nonzero;fill:url(#linear1);" d="M 256 160 C 194.238281 160 144 210.238281 144 272 C 144 333.761719 194.238281 384 256 384 C 317.761719 384 368 333.761719 368 272 C 368 210.238281 317.761719 160 256 160 Z M 256 368 C 203.0625 368 160 324.9375 160 272 C 160 219.0625 203.0625 176 256 176 C 308.9375 176 352 219.0625 352 272 C 352 324.9375 308.9375 368 256 368 Z "/>
<path style=" stroke:none;fill-rule:nonzero;fill:url(#linear2);" d="M 264 241.136719 L 264 192 L 248 192 L 248 241.136719 C 234.238281 244.710938 224 257.128906 224 272 C 224 289.648438 238.351563 304 256 304 C 270.871094 304 283.289063 292 286.863281 280 L 336 280 L 336 264 L 286.863281 264 C 283.960938 252 275.191406 244.039063 264 241.136719 Z M 256 288 C 247.175781 288 240 280.824219 240 272 C 240 263.175781 247.175781 256 256 256 C 264.824219 256 272 263.175781 272 272 C 272 280.824219 264.824219 288 256 288 Z "/>
<path style=" stroke:none;fill-rule:nonzero;fill:url(#linear3);" d="M 304 104 C 304 76.632813 283.367188 56 256 56 C 228.632813 56 208 76.632813 208 104 L 208 112 L 304 112 Z M 224.878906 96 C 228.160156 80 240.246094 72 256 72 C 271.753906 72 283.832031 80 287.121094 96 Z "/>
<path style=" stroke:none;fill-rule:nonzero;fill:url(#linear4);" d="M 440 248 C 429.585938 248 420.785156 256 417.472656 264 L 399.59375 264 C 398.441406 244 392.929688 223.511719 383.816406 205.953125 C 398.792969 195.550781 408 178.390625 408 160 C 408 129.128906 382.871094 104 352 104 C 330.433594 104 311.03125 116.496094 301.742188 135.574219 C 287.351563 130.726563 272 128 256 128 C 240 128 224.648438 130.734375 210.246094 135.574219 C 200.976563 116.503906 181.566406 104 160 104 C 129.128906 104 104 129.128906 104 160 C 104 178.390625 113.207031 195.550781 128.183594 205.953125 C 119.070313 223.511719 113.558594 244 112.40625 264 L 94.527344 264 C 91.214844 256 82.414063 248 72 248 C 58.769531 248 48 258.769531 48 272 C 48 285.230469 58.769531 296 72 296 C 82.414063 296 91.214844 288 94.527344 280 L 112.40625 280 C 114.609375 320 132.945313 355.238281 161.070313 379.992188 L 143.273438 408.550781 C 134.910156 423.601563 139.945313 442.945313 154.488281 451.679688 C 159.265625 454.542969 164.574219 456.007813 169.96875 456.007813 C 172.566406 456.007813 175.191406 455.664063 177.785156 454.976563 C 185.878906 452.808594 192.617188 447.488281 196.96875 439.617188 L 211.753906 408.96875 C 225.703125 413.488281 240.558594 416 256 416 C 271.441406 416 286.296875 413.496094 300.257813 408.976563 L 315.257813 440.023438 C 319.40625 447.496094 326.136719 452.808594 334.230469 454.976563 C 336.816406 455.664063 339.441406 456 342.039063 456 C 347.425781 456 352.742188 454.535156 357.519531 451.671875 C 372.0625 442.9375 377.097656 423.59375 368.625 408.335938 L 351.6875 379.894531 L 349.800781 381.023438 C 378.566406 356.238281 397.359375 320 399.59375 280 L 417.472656 280 C 420.785156 288 429.585938 296 440 296 C 453.230469 296 464 285.230469 464 272 C 464 258.769531 453.230469 248 440 248 Z M 352 120 C 374.054688 120 392 137.945313 392 160 C 392 172.726563 385.847656 184.648438 375.734375 192.144531 C 361.105469 170.28125 340.601563 152.742188 316.558594 141.535156 C 323.367188 128.472656 336.96875 120 352 120 Z M 120 160 C 120 137.945313 137.945313 120 160 120 C 175.03125 120 188.632813 128.480469 195.441406 141.535156 C 171.398438 152.742188 150.894531 170.28125 136.265625 192.144531 C 126.152344 184.648438 120 172.71875 120 160 Z M 72 280 C 67.585938 280 64 276.414063 64 272 C 64 267.585938 67.585938 264 72 264 C 76.414063 264 80 267.585938 80 272 C 80 276.414063 76.414063 280 72 280 Z M 182.769531 432.257813 C 180.742188 435.902344 177.496094 438.480469 173.632813 439.519531 C 169.9375 440.496094 166.046875 439.960938 162.71875 437.960938 C 155.488281 433.617188 153.03125 423.910156 157.046875 416.671875 L 173.695313 389.992188 C 180.945313 395.0625 188.679688 399.441406 196.808594 403.128906 Z M 354.753906 416.320313 C 358.96875 423.910156 356.519531 433.617188 349.28125 437.960938 C 345.9375 439.960938 342.046875 440.496094 338.367188 439.519531 C 334.511719 438.480469 331.257813 435.902344 329.449219 432.664063 L 315.191406 403.128906 C 323.527344 399.351563 331.433594 394.824219 338.824219 389.601563 Z M 256 400 C 185.425781 400 128 342.574219 128 272 C 128 201.425781 185.425781 144 256 144 C 326.574219 144 384 201.425781 384 272 C 384 342.574219 326.574219 400 256 400 Z M 440 280 C 435.585938 280 432 276.414063 432 272 C 432 267.585938 435.585938 264 440 264 C 444.414063 264 448 267.585938 448 272 C 448 276.414063 444.414063 280 440 280 Z "/>
<path style=" stroke:none;fill-rule:nonzero;fill:url(#linear5);" d="M 192 272 L 176 272 C 176 316 211.886719 352 256 352 L 256 336 C 220.710938 336 192 308 192 272 Z "/>
</g>
</svg>
