<?xml version="1.0" encoding="UTF-8"?>
<svg xmlns="http://www.w3.org/2000/svg" xmlns:xlink="http://www.w3.org/1999/xlink" width="480pt" height="480pt" viewBox="0 0 480 480" version="1.1">
<g id="surface1">
<path style=" stroke:none;fill-rule:nonzero;fill:#F6851F;fill-opacity:1;" d="M 272.0625 417 C 271.40625 416.15625 271.03125 415.3125 270.9375 414.46875 C 265.125 414.9375 259.3125 415.40625 253.40625 415.59375 C 249 415.6875 244.6875 415.78125 240.28125 415.875 C 241.3125 424.3125 250.3125 429.375 258.84375 427.6875 C 262.125 426.9375 275.71875 421.5 272.0625 417 Z "/>
<path style=" stroke:none;fill-rule:nonzero;fill:#F6851F;fill-opacity:1;" d="M 359.8125 386.71875 C 338.4375 393.28125 315.84375 395.0625 293.53125 396.28125 C 264.1875 397.875 234.84375 396.9375 205.40625 397.96875 C 183.75 398.71875 162.09375 400.5 140.4375 398.90625 C 132.5625 398.34375 117.5625 397.5 109.5 391.3125 C 109.59375 392.0625 109.78125 392.71875 109.96875 393.375 C 112.78125 403.21875 123.28125 405.84375 132.375 407.4375 C 145.59375 409.875 158.53125 411.09375 172.03125 409.96875 C 186.65625 408.84375 201.1875 406.5 215.8125 405.9375 C 231.09375 405.375 246.375 405.65625 261.65625 404.71875 C 269.34375 404.25 277.03125 403.125 284.71875 402.65625 C 291.75 402.28125 298.78125 402.1875 305.8125 402 C 319.78125 401.71875 333 400.3125 346.59375 397.125 C 356.0625 394.96875 368.53125 392.90625 375.5625 385.59375 C 376.6875 384.375 379.125 381.84375 381.09375 379.03125 C 373.125 383.15625 363.09375 385.6875 359.8125 386.71875 Z "/>
<path style=" stroke:none;fill-rule:nonzero;fill:#F6851F;fill-opacity:1;" d="M 220.40625 54.84375 C 229.78125 55.21875 239.15625 55.6875 248.4375 54.9375 C 243.75 46.5 226.21875 46.875 220.40625 54.84375 Z "/>
<path style=" stroke:none;fill-rule:nonzero;fill:#F6851F;fill-opacity:1;" d="M 269.625 96.09375 C 267.375 87.375 267.375 78.46875 267.5625 69.5625 C 267.65625 67.6875 267.65625 65.8125 267.5625 63.9375 C 267.46875 63.1875 267.09375 61.96875 267.1875 61.78125 C 265.96875 61.96875 258.9375 64.03125 257.8125 64.21875 C 242.625 66.75 227.0625 65.0625 211.6875 64.96875 C 211.5 65.34375 211.21875 65.71875 210.84375 66 C 210.1875 66.65625 210 69.46875 210 71.53125 C 210.1875 75.375 210.65625 79.3125 211.21875 83.15625 C 211.78125 87.09375 212.71875 91.125 213.28125 95.0625 C 214.21875 95.8125 214.875 96.9375 214.875 98.53125 C 226.96875 97.875 239.34375 98.71875 251.4375 98.625 C 255.46875 98.625 259.59375 98.53125 263.625 98.25 C 265.59375 98.0625 267.46875 97.96875 269.4375 97.59375 C 269.71875 97.59375 269.90625 97.5 270.09375 97.5 C 269.90625 97.125 269.71875 96.65625 269.625 96.09375 Z "/>
<path style=" stroke:none;fill-rule:nonzero;fill:#FEBF10;fill-opacity:1;" d="M 382.03125 362.90625 C 381.9375 362.8125 381.75 362.71875 381.65625 362.625 C 375.1875 356.625 366.9375 352.875 361.40625 345.65625 C 357.65625 340.6875 355.59375 335.53125 354.28125 330.09375 C 349.5 335.71875 340.59375 339.09375 334.21875 342.09375 C 331.6875 343.3125 328.5 341.34375 327.65625 338.90625 C 326.625 336 328.3125 333.5625 330.84375 332.34375 C 334.40625 330.5625 338.15625 329.25 341.53125 327.1875 C 343.21875 326.15625 348 323.625 347.34375 321.09375 C 346.40625 317.4375 349.21875 314.8125 352.03125 314.34375 C 352.03125 313.875 351.9375 313.3125 351.9375 312.84375 C 349.40625 283.96875 345.75 255 341.53125 226.3125 C 337.78125 200.71875 334.5 173.4375 323.625 149.71875 C 318.75 139.125 312.1875 129.28125 303.84375 121.03125 C 296.34375 113.625 286.96875 106.125 275.8125 106.96875 C 275.4375 106.96875 275.0625 106.96875 274.6875 106.96875 C 268.875 109.5 259.96875 108.75 255 108.84375 C 241.3125 109.03125 227.53125 108 213.9375 108.84375 C 213.65625 108.84375 213.375 108.84375 213.1875 108.84375 C 213.09375 108.84375 213.09375 108.84375 213 108.84375 C 205.40625 108.75 197.8125 109.78125 190.875 112.96875 C 172.875 121.21875 162.65625 140.34375 156.75 158.34375 C 148.21875 184.3125 144.09375 211.6875 142.03125 238.875 C 140.90625 253.59375 140.34375 268.40625 140.15625 283.21875 C 139.96875 297.28125 140.4375 311.4375 139.78125 325.5 C 139.78125 325.6875 139.78125 325.875 139.78125 326.0625 C 140.25 326.25 140.625 326.4375 141 326.71875 C 153.65625 335.4375 169.78125 336.84375 184.5 339.5625 C 191.0625 340.78125 189.09375 350.90625 182.53125 349.6875 C 167.34375 346.875 151.96875 344.8125 138.46875 337.125 C 135.5625 353.71875 127.96875 369.09375 114.28125 379.40625 C 114.375 379.875 114.46875 380.34375 114.5625 380.8125 C 114.5625 381.5625 114.46875 381.65625 115.21875 382.3125 C 116.34375 383.25 117.5625 383.90625 118.875 384.46875 C 122.34375 385.875 126 386.71875 129.65625 387.28125 C 147.84375 390.28125 166.6875 389.25 185.0625 388.40625 C 214.40625 387.09375 243.84375 387.65625 273.1875 386.71875 C 288 386.25 302.8125 385.5 317.53125 383.90625 C 328.3125 382.78125 339.46875 381.84375 349.78125 378.84375 C 356.8125 376.78125 363.75 374.71875 370.59375 372.09375 C 373.875 370.875 377.15625 369.65625 380.15625 367.875 C 380.4375 367.6875 381.09375 367.21875 381.65625 366.84375 C 381.5625 366.375 381.5625 365.8125 381.65625 365.34375 C 381.5625 364.59375 381.75 363.75 382.03125 362.90625 Z M 234 349.59375 C 224.8125 353.71875 214.3125 351.84375 204.5625 351.75 C 198 351.65625 197.15625 341.4375 203.8125 341.4375 C 212.53125 341.53125 222.375 343.59375 230.625 339.84375 C 236.625 337.125 240 346.875 234 349.59375 Z M 295.96875 344.15625 C 286.3125 343.5 276.84375 346.875 267.75 349.59375 C 261.375 351.46875 258 341.8125 264.375 339.84375 C 275.4375 336.46875 286.3125 333.28125 298.03125 334.03125 C 304.59375 334.5 302.53125 344.625 295.96875 344.15625 Z "/>
<path style=" stroke:none;fill-rule:nonzero;fill:#000000;fill-opacity:1;" d="M 390.375 360.5625 C 390.1875 360.46875 390.09375 360.28125 389.90625 360.1875 C 390.46875 358.5 390.1875 356.53125 388.5 354.9375 C 382.125 349.03125 373.6875 345.5625 368.71875 338.15625 C 361.40625 327.1875 362.25 312.375 360.84375 299.625 C 357.375 269.53125 354.1875 239.34375 349.3125 209.4375 C 345.1875 184.125 340.59375 158.25 327.84375 135.65625 C 318.28125 118.59375 300 97.40625 278.8125 96.75 C 279.46875 95.625 279.75 94.3125 279.28125 92.8125 C 276.84375 83.53125 278.0625 73.875 277.78125 64.3125 C 277.59375 54.9375 271.78125 50.25 262.59375 52.59375 C 261.375 52.875 260.15625 53.15625 258.84375 53.4375 C 251.71875 33.46875 213.75 33.5625 208.78125 54.75 C 207.1875 55.125 206.25 56.25 205.78125 57.65625 C 204.75 57.84375 203.8125 58.3125 202.875 59.15625 C 197.90625 63.9375 199.40625 73.40625 200.15625 79.5 C 200.90625 86.0625 202.59375 92.625 203.25 99.1875 C 186 101.4375 171.28125 111 161.0625 125.71875 C 148.3125 144.09375 142.59375 166.6875 138.1875 188.25 C 132.28125 216.84375 130.5 246.1875 129.75 275.34375 C 129.375 289.875 129.375 304.5 129.375 319.03125 C 129.375 330.5625 127.875 342 123 352.59375 C 120.46875 358.21875 116.8125 363.1875 112.40625 367.59375 C 109.03125 370.875 103.59375 372.84375 101.8125 377.0625 C 96.9375 383.8125 98.4375 395.25 102.09375 402.09375 C 107.0625 411.1875 117.09375 414.84375 126.65625 417.09375 C 138.84375 419.90625 151.3125 421.3125 163.78125 421.03125 C 178.5 420.75 193.03125 418.21875 207.65625 417 C 214.96875 416.4375 222.375 416.25 229.6875 416.0625 C 230.15625 430.78125 246.09375 440.71875 260.15625 437.90625 C 270 435.9375 288.1875 425.53125 281.90625 413.71875 C 287.15625 413.34375 292.40625 412.96875 297.65625 412.875 C 311.8125 412.59375 326.15625 412.6875 340.03125 409.5 C 351.84375 406.78125 364.03125 404.71875 374.8125 399 C 385.78125 393.1875 404.25 371.4375 390.375 360.5625 Z M 248.53125 54.84375 C 239.25 55.59375 229.78125 55.125 220.5 54.75 C 226.21875 46.875 243.75 46.5 248.53125 54.84375 Z M 210.84375 65.90625 C 211.21875 65.53125 211.5 65.15625 211.6875 64.875 C 227.0625 64.96875 242.53125 66.65625 257.8125 64.125 C 258.9375 63.9375 265.96875 61.875 267.1875 61.6875 C 267.09375 61.96875 267.46875 63.1875 267.5625 63.84375 C 267.75 65.71875 267.65625 67.59375 267.5625 69.46875 C 267.28125 78.375 267.375 87.28125 269.625 96 C 269.71875 96.5625 270 97.03125 270.1875 97.40625 C 270 97.40625 269.71875 97.5 269.53125 97.5 C 267.65625 97.875 265.6875 97.96875 263.71875 98.15625 C 259.6875 98.4375 255.5625 98.53125 251.53125 98.53125 C 239.34375 98.625 227.0625 97.78125 214.96875 98.4375 C 214.96875 96.84375 214.3125 95.625 213.375 94.96875 C 212.8125 90.9375 211.96875 87 211.3125 83.0625 C 210.75 79.21875 210.28125 75.375 210.09375 71.4375 C 209.90625 69.375 210.1875 66.5625 210.84375 65.90625 Z M 258.84375 427.59375 C 250.3125 429.28125 241.3125 424.21875 240.28125 415.78125 C 244.6875 415.6875 249.09375 415.6875 253.40625 415.5 C 259.21875 415.3125 265.125 414.84375 270.9375 414.375 C 271.03125 415.21875 271.3125 416.0625 272.0625 416.90625 C 275.71875 421.5 262.125 426.9375 258.84375 427.59375 Z M 375.65625 385.78125 C 368.625 393.09375 356.15625 395.15625 346.6875 397.3125 C 333.09375 400.5 319.875 401.8125 305.90625 402.1875 C 298.875 402.375 291.84375 402.46875 284.8125 402.84375 C 277.125 403.21875 269.4375 404.4375 261.75 404.90625 C 246.46875 405.84375 231.1875 405.5625 215.90625 406.125 C 201.1875 406.6875 186.75 409.03125 172.125 410.15625 C 158.625 411.1875 145.6875 409.96875 132.46875 407.625 C 123.46875 405.9375 112.875 403.40625 110.0625 393.5625 C 109.875 392.90625 109.6875 392.25 109.59375 391.5 C 117.5625 397.6875 132.65625 398.53125 140.53125 399.09375 C 162.1875 400.6875 183.84375 398.90625 205.5 398.15625 C 234.84375 397.125 264.1875 398.0625 293.625 396.46875 C 315.84375 395.25 338.4375 393.46875 359.90625 386.90625 C 363.1875 385.875 373.21875 383.34375 381.375 379.40625 C 379.21875 382.03125 376.78125 384.5625 375.65625 385.78125 Z M 381.75 365.4375 C 381.65625 365.90625 381.65625 366.375 381.75 366.9375 C 381.1875 367.3125 380.625 367.78125 380.25 367.96875 C 377.25 369.75 373.96875 370.96875 370.6875 372.1875 C 363.84375 374.8125 356.90625 376.875 349.875 378.9375 C 339.46875 382.03125 328.3125 382.875 317.625 384 C 302.90625 385.59375 288.09375 386.34375 273.28125 386.8125 C 243.84375 387.75 214.5 387.1875 185.15625 388.5 C 166.78125 389.34375 147.9375 390.375 129.75 387.375 C 126.09375 386.8125 122.34375 385.96875 118.96875 384.5625 C 117.65625 384 116.4375 383.34375 115.3125 382.40625 C 114.5625 381.75 114.65625 381.65625 114.65625 380.90625 C 114.65625 380.34375 114.5625 379.875 114.375 379.5 C 127.96875 369.1875 135.65625 353.90625 138.5625 337.21875 C 152.0625 344.90625 167.4375 346.96875 182.625 349.78125 C 189.1875 351 191.15625 340.875 184.59375 339.65625 C 169.875 336.9375 153.75 335.53125 141.09375 326.8125 C 140.71875 326.53125 140.25 326.34375 139.875 326.15625 C 139.875 325.96875 139.875 325.78125 139.875 325.59375 C 140.53125 311.53125 139.96875 297.375 140.25 283.3125 C 140.4375 268.5 141 253.6875 142.125 238.96875 C 144.1875 211.78125 148.3125 184.40625 156.84375 158.4375 C 162.75 140.4375 172.96875 121.3125 190.96875 113.0625 C 197.90625 109.875 205.5 108.84375 213.09375 108.9375 C 213.1875 108.9375 213.1875 108.9375 213.28125 108.9375 C 213.5625 108.9375 213.75 108.9375 214.03125 108.9375 C 227.625 108 241.5 109.125 255.09375 108.9375 C 260.0625 108.84375 268.96875 109.59375 274.78125 107.0625 C 275.15625 107.0625 275.53125 107.15625 275.90625 107.0625 C 287.0625 106.125 296.4375 113.71875 303.9375 121.125 C 312.28125 129.375 318.84375 139.125 323.71875 149.8125 C 334.59375 173.53125 337.96875 200.90625 341.625 226.40625 C 345.84375 255.09375 349.5 284.0625 352.03125 312.9375 C 352.03125 313.40625 352.125 313.96875 352.125 314.4375 C 349.3125 314.90625 346.59375 317.625 347.4375 321.1875 C 348.09375 323.71875 343.21875 326.25 341.625 327.28125 C 338.25 329.34375 334.5 330.65625 330.9375 332.4375 C 328.40625 333.65625 326.71875 336.09375 327.75 339 C 328.59375 341.4375 331.78125 343.40625 334.3125 342.1875 C 340.59375 339.09375 349.59375 335.8125 354.375 330.1875 C 355.6875 335.625 357.84375 340.875 361.5 345.75 C 366.9375 352.96875 375.28125 356.71875 381.75 362.71875 C 381.84375 362.8125 381.9375 362.90625 382.125 363 C 381.75 363.75 381.5625 364.59375 381.75 365.4375 Z "/>
<path style=" stroke:none;fill-rule:nonzero;fill:#000000;fill-opacity:1;" d="M 230.53125 339.84375 C 222.28125 343.59375 212.4375 341.53125 203.71875 341.4375 C 197.0625 341.34375 197.90625 351.65625 204.46875 351.75 C 214.21875 351.84375 224.71875 353.71875 233.90625 349.59375 C 240 346.875 236.625 337.125 230.53125 339.84375 Z "/>
<path style=" stroke:none;fill-rule:nonzero;fill:#000000;fill-opacity:1;" d="M 297.9375 334.03125 C 286.3125 333.28125 275.34375 336.5625 264.28125 339.84375 C 257.90625 341.71875 261.375 351.46875 267.65625 349.59375 C 276.75 346.875 286.21875 343.5 295.875 344.15625 C 302.53125 344.625 304.59375 334.5 297.9375 334.03125 Z "/>
<path style=" stroke:none;fill-rule:nonzero;fill:#000000;fill-opacity:1;" d="M 385.6875 211.78125 C 384.9375 200.90625 385.59375 190.125 384 179.25 C 381.46875 162.75 374.8125 144 359.25 135.75 C 353.34375 132.65625 348.84375 141.84375 354.65625 145.03125 C 367.40625 151.78125 372 168.75 373.96875 181.96875 C 375.375 191.25 375.09375 200.625 375.28125 210 C 375.28125 212.71875 375.65625 215.4375 375.75 218.15625 C 375.84375 219.65625 376.40625 224.15625 375.5625 225.1875 C 371.4375 230.34375 379.125 237.1875 383.34375 232.03125 C 387.65625 226.5 386.15625 218.0625 385.6875 211.78125 Z "/>
<path style=" stroke:none;fill-rule:nonzero;fill:#000000;fill-opacity:1;" d="M 422.0625 175.40625 C 420.1875 163.96875 415.875 153.46875 410.25 143.34375 C 407.53125 138.375 404.34375 133.5 400.6875 129.1875 C 397.21875 125.0625 392.90625 121.59375 390.28125 116.71875 C 387.09375 110.90625 378.5625 116.71875 381.75 122.53125 C 384.09375 126.75 387.65625 130.21875 390.9375 133.6875 C 394.5 137.4375 397.3125 141.84375 400.03125 146.34375 C 405.65625 155.4375 409.875 165.65625 411.65625 176.15625 C 415.5 197.625 414.28125 220.5 408.09375 241.5 C 406.21875 247.875 416.34375 249.75 418.21875 243.46875 C 424.78125 221.625 425.71875 197.90625 422.0625 175.40625 Z "/>
<path style=" stroke:none;fill-rule:nonzero;fill:#000000;fill-opacity:1;" d="M 460.21875 174.28125 C 454.78125 140.15625 441.28125 100.03125 409.875 81.375 C 404.15625 78 399.65625 87.28125 405.28125 90.65625 C 432.28125 106.78125 444 142.59375 449.34375 171.75 C 452.90625 190.875 455.0625 210.5625 452.0625 229.875 C 451.21875 235.40625 450.28125 240.9375 449.25 246.46875 C 448.6875 249.375 448.03125 252.1875 447.1875 255 C 446.90625 256.03125 446.4375 257.0625 446.0625 258.09375 C 445.96875 258.375 445.875 258.5625 445.78125 258.65625 C 441.375 261 442.59375 269.0625 448.5 268.3125 C 454.40625 267.5625 456.1875 261 457.59375 256.03125 C 459.46875 249.46875 460.59375 242.625 461.625 235.875 C 464.8125 215.0625 463.5 195 460.21875 174.28125 Z "/>
<path style=" stroke:none;fill-rule:nonzero;fill:#000000;fill-opacity:1;" d="M 130.5 145.125 C 119.0625 137.71875 112.59375 169.59375 111.28125 175.3125 C 109.21875 184.21875 108 193.5 107.4375 202.6875 C 106.875 211.5 107.71875 220.03125 108.09375 228.84375 C 108.28125 235.5 118.59375 234.65625 118.40625 228.09375 C 118.21875 222.1875 117.46875 216.28125 117.46875 210.375 C 117.46875 204.46875 118.03125 198.65625 118.78125 192.84375 C 119.15625 190.03125 119.625 187.3125 120.1875 184.59375 C 121.03125 180.28125 120.09375 185.25 120.28125 183.5625 C 120.375 183.09375 120.375 182.625 120.46875 182.15625 C 121.40625 176.34375 123.09375 170.625 124.875 165 C 125.71875 162.375 126.65625 159.75 127.875 157.21875 C 128.15625 156.5625 128.53125 155.90625 128.90625 155.25 C 132.75 154.78125 135 148.03125 130.5 145.125 Z "/>
<path style=" stroke:none;fill-rule:nonzero;fill:#000000;fill-opacity:1;" d="M 98.0625 125.71875 C 86.53125 139.40625 82.96875 158.71875 80.4375 175.96875 C 77.53125 196.03125 77.0625 216.1875 77.0625 236.4375 L 77.0625 237.84375 C 77.0625 244.5 87.375 243.65625 87.375 237.09375 C 87.375 218.15625 87.75 199.21875 90.28125 180.375 C 92.34375 164.34375 95.15625 145.40625 105.84375 132.5625 C 110.0625 127.40625 102.375 120.5625 98.0625 125.71875 Z "/>
<path style=" stroke:none;fill-rule:nonzero;fill:#000000;fill-opacity:1;" d="M 97.78125 77.0625 C 84 79.6875 73.6875 93 65.625 103.5 C 54.75 117.5625 47.53125 133.5 42.28125 150.375 C 36.1875 169.96875 33.28125 190.875 30.84375 211.21875 C 29.8125 219.65625 29.34375 228.09375 28.78125 236.53125 C 28.40625 243.375 28.59375 250.6875 33.84375 255.75 C 38.625 260.34375 45.46875 252.5625 40.6875 247.96875 C 37.40625 244.78125 39 236.90625 39.375 232.875 C 40.125 224.4375 40.59375 216.09375 41.625 207.75 C 43.96875 189.65625 46.875 171.375 51.9375 153.84375 C 56.25 139.03125 62.71875 124.5 72 112.125 C 75.9375 106.78125 80.25 101.625 84.9375 96.84375 C 88.5 93.1875 93.375 88.3125 98.71875 87.28125 C 105.09375 86.15625 104.34375 75.84375 97.78125 77.0625 Z "/>
</g>
</svg>
