<?xml version="1.0" encoding="UTF-8"?>
<svg xmlns="http://www.w3.org/2000/svg" xmlns:xlink="http://www.w3.org/1999/xlink" width="480pt" height="480pt" viewBox="0 0 480 480" version="1.1">
<g id="surface1">
<path style=" stroke:none;fill-rule:nonzero;fill:#000000;fill-opacity:1;" d="M 236.84375 47.367188 C 219.386719 47.367188 205.261719 61.492188 205.261719 78.949219 L 205.261719 83.574219 C 159.621094 97.140625 126.316406 139.390625 126.316406 189.472656 L 126.316406 233.019531 C 126.316406 275.945313 109.292969 317.023438 78.949219 347.367188 C 70.25 347.367188 63.15625 354.460938 63.15625 363.15625 C 63.15625 371.855469 70.25 378.949219 78.949219 378.949219 L 394.738281 378.949219 C 403.433594 378.949219 410.527344 371.855469 410.527344 363.15625 C 410.527344 354.460938 403.433594 347.367188 394.738281 347.367188 C 364.390625 317.023438 347.367188 275.945313 347.367188 233.019531 L 347.367188 189.472656 C 347.367188 139.390625 314.0625 97.140625 268.421875 83.574219 L 268.421875 78.949219 C 268.421875 61.492188 254.296875 47.367188 236.84375 47.367188 Z M 62.417969 126.128906 C 56.683594 126.4375 51.5625 129.832031 49.035156 135.074219 C 49.035156 135.074219 31.578125 168.441406 31.578125 205.261719 C 31.578125 242.085938 49.035156 275.515625 49.035156 275.515625 C 52.917969 283.285156 62.417969 286.429688 70.1875 282.546875 C 78.023438 278.660156 81.167969 269.160156 77.28125 261.328125 C 77.28125 261.328125 63.15625 231.597656 63.15625 205.261719 C 63.15625 178.925781 77.28125 149.136719 77.28125 149.136719 C 79.871094 144.140625 79.625 138.097656 76.542969 133.347656 C 73.457031 128.597656 68.09375 125.824219 62.417969 126.128906 Z M 410.773438 126.128906 C 405.222656 126.007813 399.980469 128.84375 397.019531 133.53125 C 394.058594 138.28125 393.875 144.203125 396.402344 149.136719 C 396.402344 149.136719 410.527344 178.925781 410.527344 205.261719 C 410.527344 231.597656 396.402344 261.328125 396.402344 261.328125 C 392.515625 269.160156 395.660156 278.660156 403.433594 282.546875 C 411.265625 286.429688 420.765625 283.285156 424.652344 275.515625 C 424.652344 275.515625 442.105469 242.085938 442.105469 205.261719 C 442.105469 168.441406 424.652344 135.074219 424.652344 135.074219 C 422.058594 129.707031 416.695313 126.253906 410.773438 126.128906 Z M 189.472656 410.527344 C 189.472656 436.675781 210.691406 457.894531 236.84375 457.894531 C 262.992188 457.894531 284.210938 436.675781 284.210938 410.527344 Z "/>
</g>
</svg>
