<?xml version="1.0" encoding="UTF-8"?>
<svg xmlns="http://www.w3.org/2000/svg" xmlns:xlink="http://www.w3.org/1999/xlink" width="512pt" height="512pt" viewBox="0 0 512 512" version="1.1">
<g id="surface1">
<path style=" stroke:none;fill-rule:nonzero;fill:#FFFFFF;fill-opacity:1;" d="M 404 432 L 108 432 C 86 432 68 414 68 392 L 68 120 C 68 98 86 80 108 80 L 404 80 C 426 80 444 98 444 120 L 444 392 C 444 414 426 432 404 432 Z "/>
<path style=" stroke:none;fill-rule:nonzero;fill:#454B54;fill-opacity:1;" d="M 444 180 L 68 180 C 61.199219 180 56 174.800781 56 168 C 56 161.199219 61.199219 156 68 156 L 444 156 C 450.800781 156 456 161.199219 456 168 C 456 174.800781 450.800781 180 444 180 Z "/>
<path style=" stroke:none;fill-rule:nonzero;fill:#454B54;fill-opacity:1;" d="M 148 136 C 144.800781 136 141.601563 134.800781 139.601563 132.398438 C 137.199219 130.398438 136 127.199219 136 124 C 136 120.800781 137.199219 117.601563 139.601563 115.601563 C 144 111.199219 152 111.199219 156.398438 115.601563 C 158.800781 118 160 120.800781 160 124 C 160 127.199219 158.800781 130.398438 156.398438 132.398438 C 154.398438 134.800781 151.199219 136 148 136 Z "/>
<path style=" stroke:none;fill-rule:nonzero;fill:#454B54;fill-opacity:1;" d="M 256 136 C 252.800781 136 249.601563 134.800781 247.601563 132.398438 C 245.199219 130.398438 244 127.199219 244 124 C 244 120.800781 245.199219 117.601563 247.601563 115.601563 C 252 111.199219 260 111.199219 264.398438 115.601563 C 266.800781 118 268 120.800781 268 124 C 268 127.199219 266.800781 130.398438 264.398438 132.398438 C 262.398438 134.800781 259.199219 136 256 136 Z "/>
<path style=" stroke:none;fill-rule:nonzero;fill:#454B54;fill-opacity:1;" d="M 376 136 C 372.800781 136 369.601563 134.800781 367.601563 132.398438 C 365.199219 130.398438 364 127.199219 364 124 C 364 120.800781 365.199219 117.601563 367.601563 115.601563 C 372 111.199219 380 111.199219 384.398438 115.601563 C 386.800781 118 388 120.800781 388 124 C 388 127.199219 386.800781 130.398438 384.398438 132.398438 C 382.398438 134.800781 379.199219 136 376 136 Z "/>
<path style=" stroke:none;fill-rule:nonzero;fill:#454B54;fill-opacity:1;" d="M 404 444 L 108 444 C 79.199219 444 56 420.800781 56 392 L 56 120 C 56 91.199219 79.199219 68 108 68 L 404 68 C 432.800781 68 456 91.199219 456 120 L 456 392 C 456 420.800781 432.800781 444 404 444 Z M 108 92 C 92.398438 92 80 104.398438 80 120 L 80 392 C 80 407.601563 92.398438 420 108 420 L 404 420 C 419.601563 420 432 407.601563 432 392 L 432 120 C 432 104.398438 419.601563 92 404 92 Z "/>
<path style=" stroke:none;fill-rule:nonzero;fill:#DAE7EF;fill-opacity:1;" d="M 216 208 L 296 208 L 296 288 L 216 288 Z "/>
<path style=" stroke:none;fill-rule:nonzero;fill:#C7D7E2;fill-opacity:1;" d="M 108 208 L 188 208 L 188 288 L 108 288 Z "/>
<path style=" stroke:none;fill-rule:nonzero;fill:#DAE7EF;fill-opacity:1;" d="M 324 208 L 404 208 L 404 288 L 324 288 Z "/>
<path style=" stroke:none;fill-rule:nonzero;fill:#C7D7E2;fill-opacity:1;" d="M 216 316 L 296 316 L 296 396 L 216 396 Z "/>
<path style=" stroke:none;fill-rule:nonzero;fill:#C7D7E2;fill-opacity:1;" d="M 108 316 L 188 316 L 188 396 L 108 396 Z "/>
<path style=" stroke:none;fill-rule:nonzero;fill:#98BED8;fill-opacity:1;" d="M 324 316 L 404 316 L 404 396 L 324 396 Z "/>
</g>
</svg>
