<?xml version="1.0" encoding="UTF-8"?>
<svg xmlns="http://www.w3.org/2000/svg" xmlns:xlink="http://www.w3.org/1999/xlink" width="480pt" height="480pt" viewBox="0 0 480 480" version="1.1">
<g id="surface1">
<path style=" stroke:none;fill-rule:nonzero;fill:#000000;fill-opacity:1;" d="M 378.949219 63.15625 L 94.738281 63.15625 C 77.28125 63.15625 63.15625 77.28125 63.15625 94.738281 L 63.15625 378.949219 C 63.15625 396.402344 77.28125 410.527344 94.738281 410.527344 L 378.949219 410.527344 C 396.402344 410.527344 410.527344 396.402344 410.527344 378.949219 L 410.527344 94.738281 C 410.527344 77.28125 396.402344 63.15625 378.949219 63.15625 Z M 110.527344 363.15625 C 101.828125 363.15625 94.738281 356.066406 94.738281 347.367188 C 94.738281 338.671875 101.828125 331.578125 110.527344 331.578125 C 119.222656 331.578125 126.316406 338.671875 126.316406 347.367188 C 126.316406 356.066406 119.222656 363.15625 110.527344 363.15625 Z M 110.527344 300 C 101.828125 300 94.738281 292.90625 94.738281 284.210938 C 94.738281 275.515625 101.828125 268.421875 110.527344 268.421875 C 119.222656 268.421875 126.316406 275.515625 126.316406 284.210938 C 126.316406 292.90625 119.222656 300 110.527344 300 Z M 173.683594 363.15625 C 164.988281 363.15625 157.894531 356.066406 157.894531 347.367188 C 157.894531 338.671875 164.988281 331.578125 173.683594 331.578125 C 182.378906 331.578125 189.472656 338.671875 189.472656 347.367188 C 189.472656 356.066406 182.378906 363.15625 173.683594 363.15625 Z M 173.683594 300 C 164.988281 300 157.894531 292.90625 157.894531 284.210938 C 157.894531 275.515625 164.988281 268.421875 173.683594 268.421875 C 182.378906 268.421875 189.472656 275.515625 189.472656 284.210938 C 189.472656 292.90625 182.378906 300 173.683594 300 Z M 173.683594 236.84375 C 164.988281 236.84375 157.894531 229.75 157.894531 221.050781 C 157.894531 212.355469 164.988281 205.261719 173.683594 205.261719 C 182.378906 205.261719 189.472656 212.355469 189.472656 221.050781 C 189.472656 229.75 182.378906 236.84375 173.683594 236.84375 Z M 236.84375 363.15625 C 228.144531 363.15625 221.050781 356.066406 221.050781 347.367188 C 221.050781 338.671875 228.144531 331.578125 236.84375 331.578125 C 245.539063 331.578125 252.632813 338.671875 252.632813 347.367188 C 252.632813 356.066406 245.539063 363.15625 236.84375 363.15625 Z M 236.84375 300 C 228.144531 300 221.050781 292.90625 221.050781 284.210938 C 221.050781 275.515625 228.144531 268.421875 236.84375 268.421875 C 245.539063 268.421875 252.632813 275.515625 252.632813 284.210938 C 252.632813 292.90625 245.539063 300 236.84375 300 Z M 236.84375 236.84375 C 228.144531 236.84375 221.050781 229.75 221.050781 221.050781 C 221.050781 212.355469 228.144531 205.261719 236.84375 205.261719 C 245.539063 205.261719 252.632813 212.355469 252.632813 221.050781 C 252.632813 229.75 245.539063 236.84375 236.84375 236.84375 Z M 300 363.15625 C 291.304688 363.15625 284.210938 356.066406 284.210938 347.367188 C 284.210938 338.671875 291.304688 331.578125 300 331.578125 C 308.695313 331.578125 315.789063 338.671875 315.789063 347.367188 C 315.789063 356.066406 308.695313 363.15625 300 363.15625 Z M 300 300 C 291.304688 300 284.210938 292.90625 284.210938 284.210938 C 284.210938 275.515625 291.304688 268.421875 300 268.421875 C 308.695313 268.421875 315.789063 275.515625 315.789063 284.210938 C 315.789063 292.90625 308.695313 300 300 300 Z M 284.210938 221.050781 C 284.210938 212.355469 291.304688 205.261719 300 205.261719 C 308.695313 205.261719 315.789063 212.355469 315.789063 221.050781 C 315.789063 229.75 308.695313 236.84375 300 236.84375 C 291.304688 236.84375 284.210938 229.75 284.210938 221.050781 Z M 363.15625 300 C 354.460938 300 347.367188 292.90625 347.367188 284.210938 C 347.367188 275.515625 354.460938 268.421875 363.15625 268.421875 C 371.855469 268.421875 378.949219 275.515625 378.949219 284.210938 C 378.949219 292.90625 371.855469 300 363.15625 300 Z M 363.15625 236.84375 C 354.460938 236.84375 347.367188 229.75 347.367188 221.050781 C 347.367188 212.355469 354.460938 205.261719 363.15625 205.261719 C 371.855469 205.261719 378.949219 212.355469 378.949219 221.050781 C 378.949219 229.75 371.855469 236.84375 363.15625 236.84375 Z M 378.949219 157.894531 L 94.738281 157.894531 L 94.738281 94.738281 L 378.949219 94.738281 Z "/>
</g>
</svg>
