<?xml version="1.0" encoding="UTF-8"?>
<svg xmlns="http://www.w3.org/2000/svg" xmlns:xlink="http://www.w3.org/1999/xlink" width="500pt" height="500pt" viewBox="0 0 500 500" version="1.1">
<g id="surface1">
<path style=" stroke:none;fill-rule:nonzero;fill:#78A0CF;fill-opacity:1;" d="M 75 145 C 75 150.523438 70.523438 155 65 155 C 59.476563 155 55 150.523438 55 145 C 55 139.476563 59.476563 135 65 135 C 70.523438 135 75 139.476563 75 145 Z "/>
<path style=" stroke:none;fill-rule:nonzero;fill:#F1BC19;fill-opacity:1;" d="M 390 65 C 390 67.761719 387.761719 70 385 70 C 382.238281 70 380 67.761719 380 65 C 380 62.238281 382.238281 60 385 60 C 387.761719 60 390 62.238281 390 65 Z "/>
<path style=" stroke:none;fill-rule:nonzero;fill:#CEE1F4;fill-opacity:1;" d="M 435 250 C 435 352.171875 352.171875 435 250 435 C 147.828125 435 65 352.171875 65 250 C 65 147.828125 147.828125 65 250 65 C 352.171875 65 435 147.828125 435 250 Z "/>
<path style=" stroke:none;fill-rule:nonzero;fill:#F1BC19;fill-opacity:1;" d="M 435 75 C 435 86.046875 426.046875 95 415 95 C 403.953125 95 395 86.046875 395 75 C 395 63.953125 403.953125 55 415 55 C 426.046875 55 435 63.953125 435 75 Z "/>
<path style=" stroke:none;fill-rule:nonzero;fill:#78A0CF;fill-opacity:1;" d="M 445 120 C 445 125.523438 440.523438 130 435 130 C 429.476563 130 425 125.523438 425 120 C 425 114.476563 429.476563 110 435 110 C 440.523438 110 445 114.476563 445 120 Z "/>
<path style=" stroke:none;fill-rule:nonzero;fill:#FBCD59;fill-opacity:1;" d="M 415 380 C 415 385.523438 410.523438 390 405 390 C 399.476563 390 395 385.523438 395 380 C 395 374.476563 399.476563 370 405 370 C 410.523438 370 415 374.476563 415 380 Z "/>
<path style=" stroke:none;fill-rule:nonzero;fill:#FBCD59;fill-opacity:1;" d="M 95 315 C 95 326.046875 86.046875 335 75 335 C 63.953125 335 55 326.046875 55 315 C 55 303.953125 63.953125 295 75 295 C 86.046875 295 95 303.953125 95 315 Z "/>
<path style=" stroke:none;fill-rule:nonzero;fill:#78A0CF;fill-opacity:1;" d="M 135 435 C 135 440.523438 130.523438 445 125 445 C 119.476563 445 115 440.523438 115 435 C 115 429.476563 119.476563 425 125 425 C 130.523438 425 135 429.476563 135 435 Z "/>
<path style=" stroke:none;fill-rule:nonzero;fill:#FFFFFF;fill-opacity:1;" d="M 105 267.5 C 105 274.402344 99.402344 280 92.5 280 C 85.597656 280 80 274.402344 80 267.5 C 80 260.597656 85.597656 255 92.5 255 C 99.402344 255 105 260.597656 105 267.5 Z "/>
<path style=" stroke:none;fill-rule:nonzero;fill:#F1BC19;fill-opacity:1;" d="M 110 335 C 110 337.761719 107.761719 340 105 340 C 102.238281 340 100 337.761719 100 335 C 100 332.238281 102.238281 330 105 330 C 107.761719 330 110 332.238281 110 335 Z "/>
<path style=" stroke:none;fill-rule:nonzero;fill:#FFFFFF;fill-opacity:1;" d="M 405 170 C 405 172.761719 402.761719 175 400 175 C 397.238281 175 395 172.761719 395 170 C 395 167.238281 397.238281 165 400 165 C 402.761719 165 405 167.238281 405 170 Z "/>
<path style=" stroke:none;fill-rule:nonzero;fill:#F8E55B;fill-opacity:1;" d="M 192.765625 153.605469 L 205.859375 148.074219 L 211.390625 161.167969 L 198.296875 166.699219 Z "/>
<path style=" stroke:none;fill-rule:nonzero;fill:#472B29;fill-opacity:1;" d="M 196.964844 169.980469 L 189.484375 152.28125 L 207.191406 144.800781 L 214.664063 162.5 Z M 196.039063 154.933594 L 199.625 163.425781 L 208.109375 159.839844 L 204.523438 151.351563 Z "/>
<path style=" stroke:none;fill-rule:nonzero;fill:#F8E55B;fill-opacity:1;" d="M 283.785156 161.167969 L 289.316406 148.074219 L 302.410156 153.605469 L 296.878906 166.699219 Z "/>
<path style=" stroke:none;fill-rule:nonzero;fill:#472B29;fill-opacity:1;" d="M 298.210938 169.980469 L 280.511719 162.5 L 287.984375 144.800781 L 305.691406 152.28125 Z M 287.058594 159.84375 L 295.546875 163.429688 L 299.128906 154.941406 L 290.640625 151.355469 Z "/>
<path style=" stroke:none;fill-rule:nonzero;fill:#F8E55B;fill-opacity:1;" d="M 264.21875 133.726563 C 263.726563 134.90625 263.316406 136.09375 262.960938 137.289063 L 327.800781 164.324219 C 328.398438 163.230469 328.949219 162.101563 329.445313 160.921875 C 336.953125 142.90625 328.441406 122.21875 310.429688 114.710938 C 292.414063 107.199219 271.726563 115.714844 264.21875 133.726563 Z "/>
<path style=" stroke:none;fill-rule:nonzero;fill:#472B29;fill-opacity:1;" d="M 328.910156 167.5 L 259.921875 138.738281 L 260.554688 136.585938 C 260.933594 135.300781 261.378906 134.023438 261.910156 132.761719 C 265.800781 123.433594 273.085938 116.179688 282.429688 112.335938 C 291.78125 108.484375 302.058594 108.515625 311.386719 112.398438 C 330.640625 120.429688 339.773438 142.628906 331.746094 161.878906 C 331.21875 163.140625 330.625 164.351563 329.984375 165.523438 Z M 266.054688 135.878906 L 326.613281 161.128906 C 326.796875 160.746094 326.964844 160.355469 327.136719 159.960938 C 334.101563 143.253906 326.175781 123.996094 309.460938 117.023438 C 301.363281 113.644531 292.441406 113.625 284.328125 116.964844 C 276.21875 120.300781 269.894531 126.59375 266.519531 134.691406 C 266.359375 135.085938 266.203125 135.484375 266.054688 135.878906 Z "/>
<path style=" stroke:none;fill-rule:nonzero;fill:#7782AC;fill-opacity:1;" d="M 305.171875 346.21875 L 324.351563 375.59375 C 325.324219 377.714844 327.800781 378.621094 329.855469 377.613281 C 331.910156 376.609375 332.789063 374.054688 331.816406 371.933594 L 317.085938 335 "/>
<path style=" stroke:none;fill-rule:nonzero;fill:#472B29;fill-opacity:1;" d="M 328.101563 380.523438 C 327.363281 380.523438 326.625 380.398438 325.90625 380.140625 C 324.203125 379.535156 322.851563 378.289063 322.085938 376.636719 L 303.078125 347.585938 L 307.265625 344.851563 L 326.445313 374.21875 C 326.820313 374.960938 327.160156 375.28125 327.578125 375.425781 C 327.96875 375.570313 328.390625 375.539063 328.761719 375.359375 C 329.59375 374.949219 329.953125 373.855469 329.550781 372.96875 L 314.765625 335.921875 L 319.410156 334.066406 L 334.140625 371 C 335.625 374.230469 334.226563 378.25 330.953125 379.855469 C 330.050781 380.304688 329.074219 380.523438 328.101563 380.523438 Z "/>
<path style=" stroke:none;fill-rule:nonzero;fill:#F8E55B;fill-opacity:1;" d="M 184.746094 114.710938 C 166.734375 122.21875 158.21875 142.90625 165.730469 160.921875 C 166.226563 162.101563 166.773438 163.230469 167.375 164.324219 L 232.214844 137.289063 C 231.859375 136.089844 231.445313 134.898438 230.953125 133.726563 C 223.445313 115.714844 202.753906 107.199219 184.746094 114.710938 Z "/>
<path style=" stroke:none;fill-rule:nonzero;fill:#472B29;fill-opacity:1;" d="M 166.265625 167.5 L 165.183594 165.523438 C 164.546875 164.359375 163.953125 163.144531 163.425781 161.886719 C 155.394531 142.625 164.53125 120.429688 183.785156 112.398438 C 203.046875 104.378906 225.234375 113.503906 233.265625 132.761719 C 233.789063 134.023438 234.234375 135.300781 234.613281 136.578125 L 235.253906 138.734375 Z M 198.300781 114.488281 C 194.09375 114.488281 189.824219 115.300781 185.710938 117.019531 C 169 123.988281 161.074219 143.25 168.039063 159.960938 C 168.203125 160.355469 168.375 160.738281 168.558594 161.125 L 229.121094 135.875 C 228.976563 135.480469 228.820313 135.078125 228.65625 134.683594 C 223.394531 122.09375 211.160156 114.488281 198.300781 114.488281 Z "/>
<path style=" stroke:none;fill-rule:nonzero;fill:#7782AC;fill-opacity:1;" d="M 178.085938 335 L 163.355469 371.933594 C 162.378906 374.054688 163.261719 376.605469 165.316406 377.613281 C 167.371094 378.621094 169.84375 377.714844 170.820313 375.59375 L 190 346.21875 "/>
<path style=" stroke:none;fill-rule:nonzero;fill:#472B29;fill-opacity:1;" d="M 167.074219 380.523438 C 166.09375 380.523438 165.121094 380.300781 164.214844 379.855469 C 160.945313 378.253906 159.539063 374.230469 161.085938 370.886719 L 175.765625 334.070313 L 180.410156 335.925781 L 165.679688 372.859375 C 165.21875 373.863281 165.578125 374.953125 166.414063 375.363281 C 166.785156 375.550781 167.210938 375.578125 167.59375 375.429688 C 168.015625 375.285156 168.351563 374.964844 168.546875 374.546875 L 187.90625 344.855469 L 192.089844 347.589844 L 172.910156 376.960938 C 172.328125 378.296875 170.976563 379.539063 169.273438 380.144531 C 168.554688 380.394531 167.816406 380.523438 167.074219 380.523438 Z "/>
<path style=" stroke:none;fill-rule:nonzero;fill:#F27C7D;fill-opacity:1;" d="M 351.5 257.5 C 351.5 314.9375 304.9375 361.5 247.5 361.5 C 190.0625 361.5 143.5 314.9375 143.5 257.5 C 143.5 200.0625 190.0625 153.5 247.5 153.5 C 304.9375 153.5 351.5 200.0625 351.5 257.5 Z "/>
<path style=" stroke:none;fill-rule:nonzero;fill:#472B29;fill-opacity:1;" d="M 247.5 157 C 302.914063 157 348 202.085938 348 257.5 C 348 312.914063 302.914063 358 247.5 358 C 192.085938 358 147 312.914063 147 257.5 C 147 202.085938 192.085938 157 247.5 157 M 247.5 150 C 188.128906 150 140 198.128906 140 257.5 C 140 316.871094 188.128906 365 247.5 365 C 306.871094 365 355 316.871094 355 257.5 C 355 198.128906 306.871094 150 247.5 150 Z "/>
<path style=" stroke:none;fill-rule:nonzero;fill:#FFFEF4;fill-opacity:1;" d="M 335 257.5 C 335 305.824219 295.824219 345 247.5 345 C 199.175781 345 160 305.824219 160 257.5 C 160 209.175781 199.175781 170 247.5 170 C 295.824219 170 335 209.175781 335 257.5 Z "/>
<path style=" stroke:none;fill-rule:nonzero;fill:#472B29;fill-opacity:1;" d="M 333.25 242.511719 C 332.085938 242.511719 331.046875 241.695313 330.800781 240.511719 C 329.699219 235.09375 328.066406 229.769531 325.929688 224.675781 C 325.394531 223.398438 325.996094 221.933594 327.269531 221.40625 C 328.535156 220.875 330.011719 221.476563 330.539063 222.746094 C 332.800781 228.140625 334.539063 233.78125 335.703125 239.515625 C 335.980469 240.871094 335.105469 242.191406 333.75 242.464844 C 333.578125 242.496094 333.414063 242.511719 333.25 242.511719 Z "/>
<path style=" stroke:none;fill-rule:nonzero;fill:#472B29;fill-opacity:1;" d="M 247.5 347.5 C 197.875 347.5 157.5 307.125 157.5 257.5 C 157.5 207.875 197.875 167.5 247.5 167.5 C 279.238281 167.5 308.03125 183.726563 324.515625 210.90625 C 325.230469 212.078125 324.855469 213.621094 323.675781 214.339844 C 322.496094 215.054688 320.960938 214.679688 320.238281 213.496094 C 304.671875 187.824219 277.480469 172.5 247.5 172.5 C 200.628906 172.5 162.5 210.628906 162.5 257.5 C 162.5 304.371094 200.628906 342.5 247.5 342.5 C 294.371094 342.5 332.5 304.371094 332.5 257.5 C 332.5 256.121094 333.621094 255 335 255 C 336.378906 255 337.5 256.121094 337.5 257.5 C 337.5 307.125 297.125 347.5 247.5 347.5 Z "/>
<path style=" stroke:none;fill-rule:nonzero;fill:#FFFFFF;fill-opacity:1;" d="M 255 257.5 C 255 261.640625 251.640625 265 247.5 265 C 243.359375 265 240 261.640625 240 257.5 C 240 253.359375 243.359375 250 247.5 250 C 251.640625 250 255 253.359375 255 257.5 Z "/>
<path style=" stroke:none;fill-rule:nonzero;fill:#472B29;fill-opacity:1;" d="M 247.5 267.5 C 241.984375 267.5 237.5 263.015625 237.5 257.5 C 237.5 251.984375 241.984375 247.5 247.5 247.5 C 253.015625 247.5 257.5 251.984375 257.5 257.5 C 257.5 263.015625 253.015625 267.5 247.5 267.5 Z M 247.5 252.5 C 244.746094 252.5 242.5 254.738281 242.5 257.5 C 242.5 260.261719 244.746094 262.5 247.5 262.5 C 250.253906 262.5 252.5 260.261719 252.5 257.5 C 252.5 254.738281 250.253906 252.5 247.5 252.5 Z "/>
<path style=" stroke:none;fill-rule:nonzero;fill:#472B29;fill-opacity:1;" d="M 247.5 190 C 246.121094 190 245 188.878906 245 187.5 L 245 172.5 C 245 171.121094 246.121094 170 247.5 170 C 248.878906 170 250 171.121094 250 172.5 L 250 187.5 C 250 188.878906 248.878906 190 247.5 190 Z "/>
<path style=" stroke:none;fill-rule:nonzero;fill:#472B29;fill-opacity:1;" d="M 247.5 345 C 246.121094 345 245 343.878906 245 342.5 L 245 327.5 C 245 326.121094 246.121094 325 247.5 325 C 248.878906 325 250 326.121094 250 327.5 L 250 342.5 C 250 343.878906 248.878906 345 247.5 345 Z "/>
<path style=" stroke:none;fill-rule:nonzero;fill:#472B29;fill-opacity:1;" d="M 198.003906 210.503906 C 197.363281 210.503906 196.726563 210.261719 196.234375 209.773438 L 185.625 199.171875 C 184.648438 198.195313 184.648438 196.609375 185.625 195.636719 C 186.601563 194.660156 188.183594 194.660156 189.160156 195.636719 L 199.769531 206.238281 C 200.746094 207.214844 200.746094 208.800781 199.769531 209.773438 C 199.28125 210.261719 198.644531 210.503906 198.003906 210.503906 Z "/>
<path style=" stroke:none;fill-rule:nonzero;fill:#472B29;fill-opacity:1;" d="M 307.605469 320.105469 C 306.964844 320.105469 306.324219 319.859375 305.835938 319.375 L 295.226563 308.769531 C 294.25 307.796875 294.25 306.210938 295.226563 305.234375 C 296.199219 304.261719 297.785156 304.261719 298.761719 305.234375 L 309.371094 315.839844 C 310.34375 316.816406 310.34375 318.398438 309.371094 319.375 C 308.886719 319.859375 308.246094 320.105469 307.605469 320.105469 Z "/>
<path style=" stroke:none;fill-rule:nonzero;fill:#472B29;fill-opacity:1;" d="M 177.5 260 L 162.5 260 C 161.121094 260 160 258.878906 160 257.5 C 160 256.121094 161.121094 255 162.5 255 L 177.5 255 C 178.878906 255 180 256.121094 180 257.5 C 180 258.878906 178.878906 260 177.5 260 Z "/>
<path style=" stroke:none;fill-rule:nonzero;fill:#472B29;fill-opacity:1;" d="M 332.5 260 L 317.5 260 C 316.121094 260 315 258.878906 315 257.5 C 315 256.121094 316.121094 255 317.5 255 L 332.5 255 C 333.878906 255 335 256.121094 335 257.5 C 335 258.878906 333.878906 260 332.5 260 Z "/>
<path style=" stroke:none;fill-rule:nonzero;fill:#472B29;fill-opacity:1;" d="M 302.5 260 L 257.5 260 C 256.121094 260 255 258.878906 255 257.5 C 255 256.121094 256.121094 255 257.5 255 L 302.5 255 C 303.878906 255 305 256.121094 305 257.5 C 305 258.878906 303.878906 260 302.5 260 Z "/>
<path style=" stroke:none;fill-rule:nonzero;fill:#472B29;fill-opacity:1;" d="M 296.996094 210.503906 C 296.355469 210.503906 295.714844 210.261719 295.226563 209.773438 C 294.25 208.800781 294.25 207.214844 295.226563 206.238281 L 305.835938 195.636719 C 306.808594 194.660156 308.394531 194.660156 309.371094 195.636719 C 310.34375 196.609375 310.34375 198.195313 309.371094 199.171875 L 298.761719 209.773438 C 298.273438 210.261719 297.636719 210.503906 296.996094 210.503906 Z "/>
<path style=" stroke:none;fill-rule:nonzero;fill:#472B29;fill-opacity:1;" d="M 187.394531 320.105469 C 186.753906 320.105469 186.113281 319.859375 185.625 319.375 C 184.648438 318.398438 184.648438 316.816406 185.625 315.839844 L 196.234375 305.234375 C 197.210938 304.261719 198.796875 304.261719 199.769531 305.234375 C 200.746094 306.210938 200.746094 307.796875 199.769531 308.769531 L 189.160156 319.375 C 188.675781 319.859375 188.035156 320.105469 187.394531 320.105469 Z "/>
<path style=" stroke:none;fill-rule:nonzero;fill:#472B29;fill-opacity:1;" d="M 247.5 250 C 246.121094 250 245 248.878906 245 247.5 L 245 217.5 C 245 216.121094 246.121094 215 247.5 215 C 248.878906 215 250 216.121094 250 217.5 L 250 247.5 C 250 248.878906 248.878906 250 247.5 250 Z "/>
</g>
</svg>
