<?xml version="1.0" encoding="UTF-8"?>
<svg xmlns="http://www.w3.org/2000/svg" xmlns:xlink="http://www.w3.org/1999/xlink" width="512pt" height="512pt" viewBox="0 0 512 512" version="1.1">
<defs>
<linearGradient id="linear0" gradientUnits="userSpaceOnUse" x1="32" y1="42.3333" x2="32" y2="53.3649" spreadMethod="reflect" gradientTransform="matrix(8,0,0,8,0,0)">
<stop offset="0" style="stop-color:#6DC7FF;stop-opacity:1;"/>
<stop offset="1" style="stop-color:#E6ABFF;stop-opacity:1;"/>
</linearGradient>
<linearGradient id="linear1" gradientUnits="userSpaceOnUse" x1="32" y1="5.5" x2="32" y2="58.7512" spreadMethod="reflect" gradientTransform="matrix(8,0,0,8,0,0)">
<stop offset="0" style="stop-color:#1A6DFF;stop-opacity:1;"/>
<stop offset="1" style="stop-color:#C822FF;stop-opacity:1;"/>
</linearGradient>
<linearGradient id="linear2" gradientUnits="userSpaceOnUse" x1="32" y1="22" x2="32" y2="24.5" spreadMethod="reflect" gradientTransform="matrix(8,0,0,8,0,0)">
<stop offset="0" style="stop-color:#6DC7FF;stop-opacity:1;"/>
<stop offset="1" style="stop-color:#E6ABFF;stop-opacity:1;"/>
</linearGradient>
</defs>
<g id="surface1">
<path style=" stroke:none;fill-rule:nonzero;fill:url(#linear0);" d="M 296 376 L 264 376 L 264 344 L 248 344 L 248 376 L 216 376 L 216 392 L 248 392 L 248 424 L 264 424 L 264 392 L 296 392 Z "/>
<path style=" stroke:none;fill-rule:nonzero;fill:url(#linear1);" d="M 376 80 L 368 80 L 368 72 C 368 58.769531 357.230469 48 344 48 L 320 48 C 306.769531 48 296 58.769531 296 72 L 296 80 L 216 80 L 216 72 C 216 58.769531 205.230469 48 192 48 L 168 48 C 154.769531 48 144 58.769531 144 72 L 144 80 L 136 80 C 113.945313 80 96 97.945313 96 120 L 96 352 C 96 374.054688 113.945313 392 136 392 L 176.40625 392 C 180.433594 432.367188 214.59375 464 256 464 C 297.40625 464 331.566406 432.367188 335.59375 392 L 376 392 C 398.054688 392 416 374.054688 416 352 L 416 120 C 416 97.945313 398.054688 80 376 80 Z M 312 72 C 312 67.585938 315.585938 64 320 64 L 344 64 C 348.414063 64 352 67.585938 352 72 L 352 104 C 352 108.414063 348.414063 112 344 112 L 320 112 C 315.585938 112 312 108.414063 312 104 Z M 160 72 C 160 67.585938 163.585938 64 168 64 L 192 64 C 196.414063 64 200 67.585938 200 72 L 200 104 C 200 108.414063 196.414063 112 192 112 L 168 112 C 163.585938 112 160 108.414063 160 104 Z M 136 96 L 144 96 L 144 104 C 144 117.230469 154.769531 128 168 128 L 192 128 C 205.230469 128 216 117.230469 216 104 L 216 96 L 296 96 L 296 104 C 296 117.230469 306.769531 128 320 128 L 344 128 C 357.230469 128 368 117.230469 368 104 L 368 96 L 376 96 C 389.230469 96 400 106.769531 400 120 L 400 144 L 112 144 L 112 120 C 112 106.769531 122.769531 96 136 96 Z M 256 304 C 226.472656 304 200.679688 320.128906 186.824219 344 L 144 344 L 144 160 L 368 160 L 368 344 L 325.175781 344 C 311.320313 320.128906 285.527344 304 256 304 Z M 112 352 L 112 160 L 128 160 L 128 344 C 128 352.824219 135.175781 360 144 360 L 179.6875 360 C 178.0625 365.136719 176.953125 370.480469 176.398438 376 L 136 376 C 122.769531 376 112 365.230469 112 352 Z M 256 448 C 220.710938 448 192 419.289063 192 384 C 192 348.710938 220.710938 320 256 320 C 291.289063 320 320 348.710938 320 384 C 320 419.289063 291.289063 448 256 448 Z M 376 376 L 335.59375 376 C 335.039063 370.480469 333.929688 365.136719 332.304688 360 L 368 360 C 376.824219 360 384 352.824219 384 344 L 384 160 L 400 160 L 400 352 C 400 365.230469 389.230469 376 376 376 Z "/>
<path style=" stroke:none;fill-rule:nonzero;fill:url(#linear2);" d="M 160 176 L 352 176 L 352 192 L 160 192 Z "/>
</g>
</svg>
