<?xml version="1.0" encoding="UTF-8"?>
<svg xmlns="http://www.w3.org/2000/svg" xmlns:xlink="http://www.w3.org/1999/xlink" width="500pt" height="500pt" viewBox="0 0 500 500" version="1.1">
<g id="surface1">
<path style=" stroke:none;fill-rule:nonzero;fill:#C7EDE6;fill-opacity:1;" d="M 442.363281 280.621094 C 443.859375 277.550781 445.179688 274.324219 446.324219 270.945313 C 459.433594 232.25 439.609375 185.90625 397.859375 174.71875 C 393.34375 118.03125 353.511719 79.144531 308.523438 72.511719 C 257.035156 64.914063 209.859375 97.625 194.164063 149.621094 C 175.246094 142.921875 156.808594 143.734375 139.441406 153.886719 C 131.558594 157.53125 124.351563 162.910156 117.878906 169.984375 C 108.378906 180.371094 102.210938 193.484375 99.695313 207.308594 C 95.96875 207.894531 92.308594 208.484375 88.859375 209.71875 C 68.746094 216.933594 56.050781 231.785156 52.570313 254.148438 C 50.398438 268.074219 54.773438 281.96875 57.214844 287.585938 C 66.851563 309.765625 89.195313 322.34375 111.894531 319.015625 C 113.023438 318.851563 114.664063 319.359375 115.640625 320.175781 C 116.839844 355.628906 134.054688 386.984375 159.878906 404.894531 C 201.316406 433.636719 254.625 424.78125 288.253906 385.371094 C 302.664063 400.109375 319.816406 407.269531 339.964844 404.671875 C 359.996094 402.085938 375.550781 391.03125 386.898438 373.058594 C 392.140625 374.46875 397.113281 376.503906 402.253906 377.066406 C 422.378906 379.265625 438.726563 371.261719 450.714844 353.164063 C 455.304688 346.238281 459.644531 337.261719 459.644531 321.523438 C 459.644531 305.300781 453.203125 290.523438 442.363281 280.621094 Z "/>
<path style=" stroke:none;fill-rule:nonzero;fill:#FDFCEF;fill-opacity:1;" d="M 383.140625 247.609375 C 383.140625 247.609375 441.355469 247.609375 441.710938 247.609375 C 455.15625 247.609375 466.050781 236.710938 466.050781 223.265625 C 466.050781 211.535156 457.753906 201.75 446.710938 199.441406 C 446.835938 198.414063 446.925781 197.375 446.925781 196.316406 C 446.925781 182.390625 435.640625 171.105469 421.714844 171.105469 C 413.496094 171.105469 406.214844 175.058594 401.613281 181.144531 C 400.441406 165.644531 386.59375 153.691406 370.394531 155.671875 C 358.550781 157.121094 348.753906 166.273438 346.574219 178.003906 C 345.875 181.765625 345.949219 185.421875 346.644531 188.84375 C 343.46875 185.425781 338.949219 183.269531 333.914063 183.269531 C 324.699219 183.269531 317.179688 190.445313 316.585938 199.511719 C 312.398438 198.585938 307.851563 198.644531 303.054688 200.445313 C 293.894531 203.886719 287.371094 212.511719 286.984375 222.289063 C 286.445313 236.179688 297.539063 247.609375 311.304688 247.609375 C 312.351563 247.609375 316.023438 247.609375 316.875 247.609375 L 367.421875 247.609375 "/>
<path style=" stroke:none;fill-rule:nonzero;fill:#472B29;fill-opacity:1;" d="M 441.703125 250.109375 L 383.140625 250.109375 C 381.761719 250.109375 380.640625 248.988281 380.640625 247.609375 C 380.640625 246.230469 381.761719 245.109375 383.140625 245.109375 L 441.710938 245.109375 C 453.75 245.109375 463.550781 235.308594 463.550781 223.265625 C 463.550781 212.980469 456.25 203.988281 446.195313 201.890625 C 444.925781 201.625 444.066406 200.429688 444.226563 199.136719 C 444.335938 198.210938 444.421875 197.269531 444.421875 196.316406 C 444.421875 183.789063 434.234375 173.605469 421.710938 173.605469 C 414.550781 173.605469 407.949219 176.90625 403.601563 182.65625 C 402.976563 183.484375 401.890625 183.839844 400.90625 183.546875 C 399.90625 183.25 399.195313 182.375 399.113281 181.339844 C 398.59375 174.484375 395.246094 168.046875 389.910156 163.675781 C 384.523438 159.261719 377.703125 157.304688 370.691406 158.15625 C 359.910156 159.476563 351 167.828125 349.023438 178.46875 C 348.410156 181.804688 348.429688 185.128906 349.089844 188.355469 C 349.316406 189.453125 348.78125 190.566406 347.78125 191.078125 C 346.796875 191.59375 345.574219 191.386719 344.804688 190.558594 C 341.949219 187.480469 338.074219 185.785156 333.90625 185.785156 C 326.09375 185.785156 319.585938 191.890625 319.070313 199.683594 C 319.019531 200.414063 318.660156 201.085938 318.074219 201.519531 C 317.496094 201.953125 316.746094 202.113281 316.035156 201.960938 C 311.859375 201.039063 307.890625 201.308594 303.925781 202.796875 C 295.621094 205.914063 289.816406 213.789063 289.480469 222.394531 C 289.246094 228.40625 291.40625 234.089844 295.558594 238.414063 C 299.714844 242.738281 305.304688 245.113281 311.300781 245.113281 L 367.414063 245.113281 C 368.796875 245.113281 369.914063 246.234375 369.914063 247.613281 C 369.914063 248.996094 368.796875 250.113281 367.414063 250.113281 L 311.304688 250.113281 C 303.933594 250.113281 297.066406 247.191406 291.960938 241.878906 C 286.855469 236.570313 284.195313 229.585938 284.484375 222.199219 C 284.898438 211.609375 292.003906 201.929688 302.171875 198.109375 C 306.15625 196.613281 310.285156 196.121094 314.453125 196.625 C 316.339844 187.550781 324.40625 180.785156 333.910156 180.785156 C 337.316406 180.785156 340.644531 181.675781 343.578125 183.316406 C 343.578125 181.40625 343.761719 179.480469 344.113281 177.558594 C 346.484375 164.800781 357.160156 154.78125 370.085938 153.199219 C 378.453125 152.164063 386.625 154.523438 393.078125 159.816406 C 398.074219 163.910156 401.621094 169.519531 403.226563 175.703125 C 408.265625 171.148438 414.773438 168.613281 421.710938 168.613281 C 436.988281 168.613281 449.421875 181.046875 449.421875 196.324219 C 449.421875 196.738281 449.410156 197.148438 449.386719 197.554688 C 460.609375 200.90625 468.546875 211.390625 468.546875 223.273438 C 468.550781 238.070313 456.503906 250.109375 441.703125 250.109375 Z "/>
<path style=" stroke:none;fill-rule:nonzero;fill:#FDFCEF;fill-opacity:1;" d="M 369.03125 193.988281 C 360.023438 193.398438 352.273438 199.621094 351.71875 207.878906 C 351.648438 208.90625 351.695313 209.914063 351.84375 210.898438 C 350.109375 208.941406 347.535156 207.605469 344.585938 207.414063 C 339.183594 207.058594 334.519531 210.628906 333.839844 215.480469 C 332.855469 215.210938 331.835938 215.03125 330.769531 214.960938 C 322.890625 214.445313 316.109375 219.886719 315.625 227.113281 "/>
<path style=" stroke:none;fill-rule:nonzero;fill:#472B29;fill-opacity:1;" d="M 315.628906 228.359375 C 315.605469 228.359375 315.574219 228.359375 315.546875 228.359375 C 314.855469 228.316406 314.335938 227.71875 314.386719 227.03125 C 314.910156 219.125 322.226563 213.140625 330.859375 213.710938 C 331.53125 213.753906 332.210938 213.839844 332.890625 213.976563 C 334.253906 209.15625 339.128906 205.824219 344.671875 206.164063 C 346.75 206.300781 348.753906 206.976563 350.453125 208.074219 C 350.460938 207.980469 350.464844 207.890625 350.476563 207.796875 C 351.066406 198.859375 359.324219 192.113281 369.113281 192.738281 C 369.804688 192.785156 370.324219 193.378906 370.273438 194.070313 C 370.234375 194.730469 369.683594 195.234375 369.03125 195.234375 C 369.003906 195.234375 368.976563 195.234375 368.945313 195.234375 C 360.65625 194.660156 353.464844 200.398438 352.964844 207.960938 C 352.90625 208.886719 352.945313 209.808594 353.078125 210.703125 C 353.164063 211.25 352.878906 211.789063 352.375 212.023438 C 351.863281 212.261719 351.269531 212.140625 350.90625 211.726563 C 349.324219 209.941406 346.988281 208.820313 344.5 208.65625 C 339.769531 208.328125 335.660156 211.421875 335.078125 215.644531 C 335.023438 216 334.824219 216.320313 334.53125 216.515625 C 334.234375 216.710938 333.855469 216.773438 333.515625 216.679688 C 332.570313 216.421875 331.613281 216.261719 330.695313 216.199219 C 323.378906 215.710938 317.308594 220.660156 316.871094 227.191406 C 316.828125 227.855469 316.28125 228.359375 315.628906 228.359375 Z "/>
<path style=" stroke:none;fill-rule:nonzero;fill:#FDFCEF;fill-opacity:1;" d="M 451.566406 202.300781 C 443.105469 198.308594 433.320313 201.136719 429.710938 208.609375 C 429.261719 209.539063 428.929688 210.496094 428.710938 211.464844 "/>
<path style=" stroke:none;fill-rule:nonzero;fill:#472B29;fill-opacity:1;" d="M 428.710938 212.710938 C 428.621094 212.710938 428.53125 212.699219 428.433594 212.679688 C 427.761719 212.53125 427.335938 211.859375 427.488281 211.183594 C 427.734375 210.109375 428.105469 209.058594 428.589844 208.058594 C 432.484375 199.980469 443.054688 196.898438 452.09375 201.164063 C 452.71875 201.460938 452.988281 202.203125 452.695313 202.828125 C 452.394531 203.453125 451.644531 203.71875 451.03125 203.429688 C 443.210938 199.734375 434.144531 202.304688 430.839844 209.15625 C 430.433594 209.984375 430.128906 210.855469 429.929688 211.746094 C 429.800781 212.320313 429.28125 212.710938 428.710938 212.710938 Z "/>
<path style=" stroke:none;fill-rule:nonzero;fill:#FFFFFF;fill-opacity:1;" d="M 92.136719 240.96875 L 42.191406 240.96875 C 40.808594 240.96875 39.691406 239.851563 39.691406 238.46875 C 39.691406 237.089844 40.808594 235.96875 42.191406 235.96875 L 92.136719 235.96875 C 93.515625 235.96875 94.636719 237.089844 94.636719 238.46875 C 94.636719 239.851563 93.519531 240.96875 92.136719 240.96875 Z "/>
<path style=" stroke:none;fill-rule:nonzero;fill:#FFFFFF;fill-opacity:1;" d="M 106.480469 240.96875 L 99.28125 240.96875 C 97.898438 240.96875 96.78125 239.851563 96.78125 238.46875 C 96.78125 237.089844 97.898438 235.96875 99.28125 235.96875 L 106.480469 235.96875 C 107.859375 235.96875 108.980469 237.089844 108.980469 238.46875 C 108.980469 239.851563 107.863281 240.96875 106.480469 240.96875 Z "/>
<path style=" stroke:none;fill-rule:nonzero;fill:#FFFFFF;fill-opacity:1;" d="M 126.675781 240.96875 L 113.996094 240.96875 C 112.613281 240.96875 111.496094 239.851563 111.496094 238.46875 C 111.496094 237.089844 112.613281 235.96875 113.996094 235.96875 L 126.675781 235.96875 C 128.054688 235.96875 129.175781 237.089844 129.175781 238.46875 C 129.175781 239.851563 128.054688 240.96875 126.675781 240.96875 Z "/>
<path style=" stroke:none;fill-rule:nonzero;fill:#FFFFFF;fill-opacity:1;" d="M 126.675781 250.261719 L 78.789063 250.261719 C 77.410156 250.261719 76.289063 249.140625 76.289063 247.761719 C 76.289063 246.378906 77.410156 245.261719 78.789063 245.261719 L 126.675781 245.261719 C 128.054688 245.261719 129.175781 246.378906 129.175781 247.761719 C 129.175781 249.140625 128.054688 250.261719 126.675781 250.261719 Z "/>
<path style=" stroke:none;fill-rule:nonzero;fill:#FFFFFF;fill-opacity:1;" d="M 70.164063 250.261719 L 67.28125 250.261719 C 65.898438 250.261719 64.78125 249.140625 64.78125 247.761719 C 64.78125 246.378906 65.898438 245.261719 67.28125 245.261719 L 70.164063 245.261719 C 71.546875 245.261719 72.664063 246.378906 72.664063 247.761719 C 72.664063 249.140625 71.546875 250.261719 70.164063 250.261719 Z "/>
<path style=" stroke:none;fill-rule:nonzero;fill:#FFFFFF;fill-opacity:1;" d="M 58.328125 250.261719 L 51.078125 250.261719 C 49.699219 250.261719 48.578125 249.140625 48.578125 247.761719 C 48.578125 246.378906 49.699219 245.261719 51.078125 245.261719 L 58.328125 245.261719 C 59.710938 245.261719 60.828125 246.378906 60.828125 247.761719 C 60.828125 249.140625 59.710938 250.261719 58.328125 250.261719 Z "/>
<path style=" stroke:none;fill-rule:nonzero;fill:#FFFFFF;fill-opacity:1;" d="M 103.820313 231.683594 L 78.785156 231.683594 C 77.40625 231.683594 76.285156 230.566406 76.285156 229.183594 C 76.285156 227.804688 77.40625 226.683594 78.785156 226.683594 L 103.820313 226.683594 C 105.199219 226.683594 106.320313 227.804688 106.320313 229.183594 C 106.320313 230.566406 105.203125 231.683594 103.820313 231.683594 Z "/>
<path style=" stroke:none;fill-rule:nonzero;fill:#FFFFFF;fill-opacity:1;" d="M 103.820313 222.398438 L 97.558594 222.398438 C 96.179688 222.398438 95.058594 221.28125 95.058594 219.898438 C 95.058594 218.519531 96.179688 217.398438 97.558594 217.398438 L 103.820313 217.398438 C 105.199219 217.398438 106.320313 218.519531 106.320313 219.898438 C 106.320313 221.28125 105.203125 222.398438 103.820313 222.398438 Z "/>
<path style=" stroke:none;fill-rule:nonzero;fill:#FFFFFF;fill-opacity:1;" d="M 87.539063 259.546875 L 78.785156 259.546875 C 77.40625 259.546875 76.285156 258.425781 76.285156 257.046875 C 76.285156 255.664063 77.40625 254.546875 78.785156 254.546875 L 87.539063 254.546875 C 88.921875 254.546875 90.039063 255.664063 90.039063 257.046875 C 90.039063 258.425781 88.925781 259.546875 87.539063 259.546875 Z "/>
<path style=" stroke:none;fill-rule:nonzero;fill:#FFFFFF;fill-opacity:1;" d="M 356.933594 110.125 L 306.984375 110.125 C 305.605469 110.125 304.484375 109.003906 304.484375 107.625 C 304.484375 106.246094 305.605469 105.125 306.984375 105.125 L 356.933594 105.125 C 358.316406 105.125 359.433594 106.246094 359.433594 107.625 C 359.433594 109.003906 358.320313 110.125 356.933594 110.125 Z "/>
<path style=" stroke:none;fill-rule:nonzero;fill:#FFFFFF;fill-opacity:1;" d="M 371.28125 110.125 L 364.078125 110.125 C 362.699219 110.125 361.578125 109.003906 361.578125 107.625 C 361.578125 106.246094 362.699219 105.125 364.078125 105.125 L 371.28125 105.125 C 372.660156 105.125 373.78125 106.246094 373.78125 107.625 C 373.78125 109.003906 372.664063 110.125 371.28125 110.125 Z "/>
<path style=" stroke:none;fill-rule:nonzero;fill:#FFFFFF;fill-opacity:1;" d="M 391.476563 110.125 L 378.796875 110.125 C 377.414063 110.125 376.296875 109.003906 376.296875 107.625 C 376.296875 106.246094 377.414063 105.125 378.796875 105.125 L 391.476563 105.125 C 392.855469 105.125 393.976563 106.246094 393.976563 107.625 C 393.976563 109.003906 392.855469 110.125 391.476563 110.125 Z "/>
<path style=" stroke:none;fill-rule:nonzero;fill:#FFFFFF;fill-opacity:1;" d="M 381.386719 91.550781 L 333.5 91.550781 C 332.121094 91.550781 331 90.429688 331 89.050781 C 331 87.671875 332.121094 86.550781 333.5 86.550781 L 381.386719 86.550781 C 382.765625 86.550781 383.886719 87.671875 383.886719 89.050781 C 383.886719 90.429688 382.765625 91.550781 381.386719 91.550781 Z "/>
<path style=" stroke:none;fill-rule:nonzero;fill:#FFFFFF;fill-opacity:1;" d="M 324.875 91.550781 L 321.988281 91.550781 C 320.609375 91.550781 319.488281 90.429688 319.488281 89.050781 C 319.488281 87.671875 320.609375 86.550781 321.988281 86.550781 L 324.875 86.550781 C 326.253906 86.550781 327.375 87.671875 327.375 89.050781 C 327.375 90.429688 326.261719 91.550781 324.875 91.550781 Z "/>
<path style=" stroke:none;fill-rule:nonzero;fill:#FFFFFF;fill-opacity:1;" d="M 313.039063 91.550781 L 305.789063 91.550781 C 304.410156 91.550781 303.289063 90.429688 303.289063 89.050781 C 303.289063 87.671875 304.410156 86.550781 305.789063 86.550781 L 313.039063 86.550781 C 314.421875 86.550781 315.539063 87.671875 315.539063 89.050781 C 315.539063 90.429688 314.421875 91.550781 313.039063 91.550781 Z "/>
<path style=" stroke:none;fill-rule:nonzero;fill:#FFFFFF;fill-opacity:1;" d="M 368.621094 100.839844 L 343.585938 100.839844 C 342.203125 100.839844 341.085938 99.71875 341.085938 98.339844 C 341.085938 96.960938 342.203125 95.839844 343.585938 95.839844 L 368.621094 95.839844 C 370 95.839844 371.121094 96.960938 371.121094 98.339844 C 371.121094 99.71875 370.003906 100.839844 368.621094 100.839844 Z "/>
<path style=" stroke:none;fill-rule:nonzero;fill:#FFFFFF;fill-opacity:1;" d="M 368.621094 91.550781 L 362.359375 91.550781 C 360.980469 91.550781 359.859375 90.429688 359.859375 89.050781 C 359.859375 87.671875 360.980469 86.550781 362.359375 86.550781 L 368.621094 86.550781 C 370 86.550781 371.121094 87.671875 371.121094 89.050781 C 371.121094 90.429688 370.003906 91.550781 368.621094 91.550781 Z "/>
<path style=" stroke:none;fill-rule:nonzero;fill:#FFFFFF;fill-opacity:1;" d="M 336.339844 100.839844 L 327.578125 100.839844 C 326.199219 100.839844 325.078125 99.71875 325.078125 98.339844 C 325.078125 96.960938 326.199219 95.839844 327.578125 95.839844 L 336.339844 95.839844 C 337.71875 95.839844 338.839844 96.960938 338.839844 98.339844 C 338.839844 99.71875 337.726563 100.839844 336.339844 100.839844 Z "/>
<path style=" stroke:none;fill-rule:nonzero;fill:#EE3E54;fill-opacity:1;" d="M 333.230469 365.113281 L 185.554688 365.113281 C 166.726563 365.113281 151.320313 349.710938 151.320313 330.878906 L 151.320313 183.203125 C 151.320313 164.375 166.726563 148.96875 185.554688 148.96875 L 333.230469 148.96875 C 352.058594 148.96875 367.464844 164.375 367.464844 183.203125 L 367.464844 330.878906 C 367.46875 349.710938 352.058594 365.113281 333.230469 365.113281 Z "/>
<path style=" stroke:none;fill-rule:nonzero;fill:#472B29;fill-opacity:1;" d="M 333.230469 368.613281 L 185.554688 368.613281 C 164.75 368.613281 147.820313 351.683594 147.820313 330.878906 L 147.820313 183.203125 C 147.820313 162.394531 164.75 145.46875 185.554688 145.46875 L 333.230469 145.46875 C 354.039063 145.46875 370.96875 162.398438 370.96875 183.203125 L 370.96875 330.878906 C 370.96875 351.691406 354.039063 368.613281 333.230469 368.613281 Z M 185.554688 152.46875 C 168.605469 152.46875 154.824219 166.253906 154.824219 183.203125 L 154.824219 330.878906 C 154.824219 347.828125 168.609375 361.613281 185.554688 361.613281 L 333.230469 361.613281 C 350.179688 361.613281 363.964844 347.828125 363.964844 330.878906 L 363.964844 183.203125 C 363.964844 166.253906 350.175781 152.46875 333.230469 152.46875 Z "/>
<path style=" stroke:none;fill-rule:nonzero;fill:#FDFCEE;fill-opacity:1;" d="M 324.285156 349.679688 L 194.503906 349.679688 C 179.246094 349.679688 166.761719 337.195313 166.761719 321.933594 L 166.761719 192.15625 C 166.761719 176.894531 179.246094 164.410156 194.503906 164.410156 L 324.285156 164.410156 C 339.546875 164.410156 352.03125 176.894531 352.03125 192.15625 L 352.03125 321.933594 C 352.03125 337.195313 339.546875 349.679688 324.285156 349.679688 Z "/>
<path style=" stroke:none;fill-rule:nonzero;fill:#472B29;fill-opacity:1;" d="M 323.875 351.429688 L 194.914063 351.429688 C 178.425781 351.429688 165.015625 338.015625 165.015625 321.523438 L 165.015625 192.566406 C 165.015625 176.074219 178.429688 162.660156 194.914063 162.660156 L 317.71875 162.660156 C 318.683594 162.660156 319.46875 163.445313 319.46875 164.410156 C 319.46875 165.375 318.691406 166.160156 317.71875 166.160156 L 194.914063 166.160156 C 180.355469 166.160156 168.511719 178.003906 168.511719 192.566406 L 168.511719 321.523438 C 168.511719 336.085938 180.355469 347.929688 194.914063 347.929688 L 323.875 347.929688 C 338.433594 347.929688 350.28125 336.085938 350.28125 321.523438 L 350.28125 250.179688 C 350.28125 249.214844 351.058594 248.429688 352.03125 248.429688 C 353 248.429688 353.78125 249.214844 353.78125 250.179688 L 353.78125 321.519531 C 353.773438 338.011719 340.363281 351.429688 323.875 351.429688 Z "/>
<path style=" stroke:none;fill-rule:nonzero;fill:#472B29;fill-opacity:1;" d="M 352.03125 241.640625 C 351.066406 241.640625 350.28125 240.855469 350.28125 239.890625 L 350.28125 226.164063 C 350.28125 225.199219 351.058594 224.414063 352.03125 224.414063 C 353 224.414063 353.78125 225.199219 353.78125 226.164063 L 353.78125 239.890625 C 353.773438 240.855469 352.996094 241.640625 352.03125 241.640625 Z "/>
<path style=" stroke:none;fill-rule:nonzero;fill:#472B29;fill-opacity:1;" d="M 352.03125 221.054688 C 351.066406 221.054688 350.28125 220.269531 350.28125 219.304688 L 350.28125 212.441406 C 350.28125 211.476563 351.058594 210.691406 352.03125 210.691406 C 353 210.691406 353.78125 211.476563 353.78125 212.441406 L 353.78125 219.304688 C 353.773438 220.269531 352.996094 221.054688 352.03125 221.054688 Z "/>
<path style=" stroke:none;fill-rule:nonzero;fill:#F2F0E7;fill-opacity:1;" d="M 308.183594 290.824219 C 308.183594 299.824219 299.949219 307.636719 290.019531 307.636719 L 229.875 307.636719 C 219.945313 307.636719 211.898438 299.824219 211.898438 290.824219 L 211.898438 227.230469 C 211.898438 218.230469 219.949219 211.351563 229.875 211.351563 L 290.019531 211.351563 C 299.949219 211.351563 308.183594 218.230469 308.183594 227.230469 Z "/>
<path style=" stroke:none;fill-rule:nonzero;fill:#472B29;fill-opacity:1;" d="M 290.019531 309.511719 L 229.875 309.511719 C 219.113281 309.511719 210.019531 300.953125 210.019531 290.824219 L 210.019531 227.230469 C 210.019531 217.273438 218.738281 209.476563 229.875 209.476563 L 290.015625 209.476563 C 301.253906 209.476563 310.058594 217.273438 310.058594 227.230469 L 310.058594 290.824219 C 310.058594 300.953125 300.878906 309.511719 290.019531 309.511719 Z M 229.875 213.226563 C 220.84375 213.226563 213.769531 219.375 213.769531 227.230469 L 213.769531 290.824219 C 213.769531 298.921875 221.144531 305.761719 229.875 305.761719 L 290.015625 305.761719 C 298.851563 305.761719 306.308594 298.921875 306.308594 290.824219 L 306.308594 227.230469 C 306.308594 219.375 299.148438 213.226563 290.015625 213.226563 Z "/>
<path style=" stroke:none;fill-rule:nonzero;fill:#F76976;fill-opacity:1;" d="M 214.691406 237.660156 L 306.523438 237.660156 L 306.523438 226.894531 C 306.523438 218.890625 298.574219 212.769531 288.996094 212.769531 L 230.960938 212.769531 C 221.378906 212.769531 213.609375 218.890625 213.609375 226.894531 L 213.609375 237.660156 Z "/>
<path style=" stroke:none;fill-rule:nonzero;fill:#472B29;fill-opacity:1;" d="M 282.554688 238.910156 L 213.070313 238.910156 C 212.378906 238.910156 211.820313 238.351563 211.820313 237.660156 C 211.820313 236.96875 212.378906 236.410156 213.070313 236.410156 L 282.554688 236.410156 C 283.246094 236.410156 283.804688 236.96875 283.804688 237.660156 C 283.804688 238.351563 283.246094 238.910156 282.554688 238.910156 Z "/>
<path style=" stroke:none;fill-rule:nonzero;fill:#472B29;fill-opacity:1;" d="M 235.410156 222.398438 C 234.03125 222.398438 232.910156 221.28125 232.910156 219.898438 L 232.910156 200.488281 C 232.910156 199.109375 234.03125 197.988281 235.410156 197.988281 C 236.789063 197.988281 237.910156 199.109375 237.910156 200.488281 L 237.910156 219.898438 C 237.910156 221.28125 236.789063 222.398438 235.410156 222.398438 Z "/>
<path style=" stroke:none;fill-rule:nonzero;fill:#472B29;fill-opacity:1;" d="M 284.671875 222.398438 C 283.289063 222.398438 282.171875 221.28125 282.171875 219.898438 L 282.171875 200.488281 C 282.171875 199.109375 283.289063 197.988281 284.671875 197.988281 C 286.050781 197.988281 287.171875 199.109375 287.171875 200.488281 L 287.171875 219.898438 C 287.171875 221.28125 286.054688 222.398438 284.671875 222.398438 Z "/>
<path style=" stroke:none;fill-rule:nonzero;fill:#CDCBBD;fill-opacity:1;" d="M 230.765625 263.484375 C 230.816406 256.261719 237.648438 253.136719 243.949219 253.136719 C 250.785156 253.136719 258.210938 255.921875 258.210938 264.023438 C 258.210938 272.714844 251.664063 274.375 244.488281 274.375 C 241.660156 274.375 237.070313 275.105469 237.070313 278.820313 L 237.070313 281.75 L 258.308594 281.75 L 258.308594 287.753906 L 230.625 287.753906 C 230.625 284.773438 230.625 281.800781 230.625 278.769531 C 230.625 270.910156 237.753906 268.566406 244.488281 268.566406 C 247.078125 268.566406 251.816406 268.125 251.816406 264.171875 C 251.816406 260.460938 248.445313 258.699219 244.050781 258.699219 C 240.679688 258.699219 237.214844 260.410156 237.164063 263.484375 Z "/>
<path style=" stroke:none;fill-rule:nonzero;fill:#472B29;fill-opacity:1;" d="M 258.304688 289.003906 L 230.621094 289.003906 C 229.929688 289.003906 229.371094 288.445313 229.371094 287.753906 L 229.371094 278.769531 C 229.371094 271.59375 235.019531 267.316406 244.484375 267.316406 C 248.515625 267.316406 250.558594 266.261719 250.558594 264.171875 C 250.558594 260.359375 246.003906 259.949219 244.046875 259.949219 C 241.300781 259.949219 238.445313 261.28125 238.410156 263.503906 C 238.398438 264.191406 237.84375 264.734375 237.160156 264.734375 L 230.765625 264.734375 C 230.433594 264.734375 230.109375 264.605469 229.875 264.363281 C 229.640625 264.125 229.515625 263.808594 229.515625 263.476563 C 229.570313 255.511719 237.035156 251.878906 243.949219 251.878906 C 251.445313 251.878906 259.460938 255.070313 259.460938 264.019531 C 259.460938 274.421875 250.914063 275.621094 244.488281 275.621094 C 243.039063 275.621094 238.320313 275.851563 238.320313 278.816406 L 238.320313 280.496094 L 258.308594 280.496094 C 259 280.496094 259.558594 281.054688 259.558594 281.746094 L 259.558594 287.75 C 259.554688 288.445313 258.988281 289.003906 258.304688 289.003906 Z M 231.871094 286.503906 L 257.054688 286.503906 L 257.054688 283 L 237.066406 283 C 236.375 283 235.816406 282.441406 235.816406 281.75 L 235.816406 278.820313 C 235.816406 275.253906 239.054688 273.125 244.484375 273.125 C 253.226563 273.125 256.953125 270.40625 256.953125 264.023438 C 256.953125 255.078125 247 254.386719 243.945313 254.386719 C 238.445313 254.386719 232.878906 256.824219 232.105469 262.234375 L 236.074219 262.234375 C 236.890625 259.113281 240.574219 257.449219 244.046875 257.449219 C 249.605469 257.449219 253.058594 260.023438 253.058594 264.171875 C 253.058594 266.273438 251.945313 269.816406 244.484375 269.816406 C 239.773438 269.816406 231.871094 270.980469 231.871094 278.769531 Z "/>
<path style=" stroke:none;fill-rule:nonzero;fill:#CDCBBD;fill-opacity:1;" d="M 287.558594 259.675781 L 269.105469 259.675781 L 269.105469 265.679688 L 275.746094 265.679688 C 283.019531 265.679688 289.515625 268.660156 289.464844 276.664063 C 289.464844 284.429688 282.96875 288.140625 276.085938 288.140625 C 268.566406 288.140625 262.121094 285.453125 262.070313 277.445313 L 268.464844 277.445313 C 268.464844 281.203125 272.761719 282.179688 275.984375 282.179688 C 279.109375 282.179688 283.066406 280.714844 283.066406 276.660156 C 283.113281 272.804688 279.253906 271.679688 275.738281 271.679688 L 262.800781 271.679688 C 262.800781 265.53125 262.800781 259.816406 262.800781 253.613281 L 287.554688 253.613281 L 287.554688 259.675781 Z "/>
<path style=" stroke:none;fill-rule:nonzero;fill:#472B29;fill-opacity:1;" d="M 276.085938 289.394531 C 266.289063 289.394531 260.871094 285.15625 260.820313 277.460938 C 260.820313 277.128906 260.945313 276.808594 261.179688 276.570313 C 261.414063 276.328125 261.734375 276.199219 262.070313 276.199219 L 268.464844 276.199219 C 269.15625 276.199219 269.714844 276.761719 269.714844 277.449219 C 269.714844 280.683594 274.515625 280.933594 275.984375 280.933594 C 278.148438 280.933594 281.816406 280.035156 281.816406 276.664063 C 281.824219 275.738281 281.558594 275.023438 281.011719 274.464844 C 280.050781 273.488281 278.128906 272.933594 275.738281 272.933594 L 262.800781 272.933594 C 262.109375 272.933594 261.550781 272.375 261.550781 271.683594 L 261.550781 253.621094 C 261.550781 252.929688 262.109375 252.371094 262.800781 252.371094 L 287.554688 252.371094 C 288.246094 252.371094 288.804688 252.929688 288.804688 253.621094 L 288.804688 259.675781 C 288.804688 260.363281 288.246094 260.925781 287.554688 260.925781 L 270.351563 260.925781 L 270.351563 264.429688 L 275.738281 264.429688 C 279.339844 264.429688 284.324219 265.125 287.613281 268.441406 C 289.691406 270.523438 290.730469 273.296875 290.710938 276.671875 C 290.714844 285.460938 283.363281 289.394531 276.085938 289.394531 Z M 263.394531 278.699219 C 264.140625 285.429688 270.613281 286.894531 276.085938 286.894531 C 282.121094 286.894531 288.214844 283.734375 288.214844 276.671875 C 288.230469 273.976563 287.433594 271.804688 285.84375 270.210938 C 283.75 268.101563 280.160156 266.933594 275.738281 266.933594 L 269.101563 266.933594 C 268.410156 266.933594 267.851563 266.375 267.851563 265.683594 L 267.851563 259.679688 C 267.851563 258.988281 268.410156 258.429688 269.101563 258.429688 L 286.304688 258.429688 L 286.304688 254.875 L 264.050781 254.875 L 264.050781 270.441406 L 275.738281 270.441406 C 277.929688 270.441406 280.929688 270.835938 282.785156 272.714844 C 283.820313 273.761719 284.335938 275.101563 284.316406 276.683594 C 284.316406 281.320313 280 283.441406 275.984375 283.441406 C 271.214844 283.441406 268.039063 281.660156 267.351563 278.703125 L 263.394531 278.703125 Z "/>
<path style=" stroke:none;fill-rule:nonzero;fill:#472B29;fill-opacity:1;" d="M 298.445313 238.910156 L 289.804688 238.910156 C 289.113281 238.910156 288.554688 238.351563 288.554688 237.660156 C 288.554688 236.96875 289.113281 236.410156 289.804688 236.410156 L 298.445313 236.410156 C 299.136719 236.410156 299.695313 236.96875 299.695313 237.660156 C 299.695313 238.351563 299.136719 238.910156 298.445313 238.910156 Z "/>
<path style=" stroke:none;fill-rule:nonzero;fill:#472B29;fill-opacity:1;" d="M 308.238281 238.910156 L 304.421875 238.910156 C 303.730469 238.910156 303.171875 238.351563 303.171875 237.660156 C 303.171875 236.96875 303.730469 236.410156 304.421875 236.410156 L 308.238281 236.410156 C 308.929688 236.410156 309.488281 236.96875 309.488281 237.660156 C 309.488281 238.351563 308.929688 238.910156 308.238281 238.910156 Z "/>
<path style=" stroke:none;fill-rule:nonzero;fill:#FDFCEF;fill-opacity:1;" d="M 203.058594 378.894531 C 212.441406 378.894531 220.570313 378.894531 220.691406 378.894531 C 231.195313 378.894531 239.714844 370.558594 239.714844 360.273438 C 239.714844 351.304688 233.230469 343.816406 224.601563 342.050781 C 224.699219 341.265625 224.765625 340.46875 224.765625 339.660156 C 224.765625 329.011719 215.945313 320.375 205.058594 320.375 C 198.636719 320.375 192.945313 323.398438 189.351563 328.054688 C 188.429688 316.199219 177.609375 307.054688 164.949219 308.570313 C 155.695313 309.679688 148.035156 316.679688 146.335938 325.65625 C 145.789063 328.535156 145.84375 331.324219 146.390625 333.949219 C 143.910156 331.335938 140.375 329.683594 136.441406 329.683594 C 129.238281 329.683594 123.359375 335.171875 122.894531 342.105469 C 119.625 341.394531 116.070313 341.445313 112.320313 342.820313 C 105.160156 345.449219 100.058594 352.050781 99.761719 359.53125 C 99.335938 370.15625 108.011719 378.894531 118.769531 378.894531 C 119.585938 378.894531 122.460938 378.894531 123.121094 378.894531 L 162.625 378.894531 M 170.804688 378.894531 L 172.59375 378.894531 "/>
<path style=" stroke:none;fill-rule:nonzero;fill:#472B29;fill-opacity:1;" d="M 220.691406 381.394531 L 203.058594 381.394531 C 201.679688 381.394531 200.558594 380.273438 200.558594 378.894531 C 200.558594 377.515625 201.679688 376.394531 203.058594 376.394531 L 220.691406 376.394531 C 229.800781 376.394531 237.214844 369.164063 237.214844 360.273438 C 237.214844 352.683594 231.695313 346.054688 224.09375 344.5 C 222.808594 344.238281 221.945313 343.03125 222.113281 341.726563 C 222.203125 341.050781 222.265625 340.359375 222.265625 339.660156 C 222.265625 330.40625 214.546875 322.875 205.058594 322.875 C 199.625 322.875 194.621094 325.320313 191.328125 329.585938 C 190.699219 330.40625 189.613281 330.75 188.640625 330.453125 C 187.648438 330.160156 186.941406 329.285156 186.863281 328.253906 C 186.46875 323.179688 184.050781 318.578125 180.046875 315.300781 C 175.925781 311.914063 170.660156 310.410156 165.25 311.058594 C 157.054688 312.039063 150.289063 318.238281 148.796875 326.125 C 148.324219 328.59375 148.339844 331.054688 148.839844 333.445313 C 149.070313 334.539063 148.539063 335.648438 147.550781 336.171875 C 146.566406 336.691406 145.355469 336.488281 144.574219 335.675781 C 142.445313 333.429688 139.558594 332.195313 136.441406 332.195313 C 130.625 332.195313 125.769531 336.625 125.390625 342.285156 C 125.339844 343.011719 124.980469 343.675781 124.398438 344.113281 C 123.816406 344.554688 123.058594 344.714844 122.371094 344.558594 C 119.191406 343.871094 116.199219 344.074219 113.191406 345.179688 C 106.90625 347.484375 102.515625 353.300781 102.265625 359.644531 C 102.089844 364 103.671875 368.140625 106.714844 371.308594 C 109.878906 374.601563 114.160156 376.410156 118.773438 376.410156 L 162.628906 376.410156 C 164.011719 376.410156 165.128906 377.53125 165.128906 378.910156 C 165.128906 380.289063 164.011719 381.410156 162.628906 381.410156 L 118.773438 381.410156 C 112.871094 381.410156 107.164063 378.988281 103.109375 374.773438 C 99.109375 370.613281 97.039063 365.171875 97.265625 359.445313 C 97.59375 351.105469 103.304688 343.484375 111.460938 340.488281 C 114.5 339.371094 117.644531 338.960938 120.820313 339.269531 C 122.546875 332.320313 128.941406 327.199219 136.441406 327.199219 C 138.890625 327.199219 141.300781 327.761719 143.46875 328.800781 C 143.515625 327.605469 143.648438 326.40625 143.878906 325.199219 C 145.773438 315.195313 154.316406 307.335938 164.648438 306.101563 C 171.453125 305.300781 178.03125 307.183594 183.210938 311.441406 C 186.929688 314.488281 189.574219 318.449219 190.914063 322.894531 C 194.851563 319.671875 199.800781 317.890625 205.058594 317.890625 C 217.304688 317.890625 227.265625 327.664063 227.265625 339.675781 C 227.265625 339.84375 227.261719 340.011719 227.261719 340.175781 C 236.046875 342.941406 242.210938 351.078125 242.210938 360.289063 C 242.214844 371.925781 232.558594 381.394531 220.691406 381.394531 Z M 172.59375 381.394531 L 170.808594 381.394531 C 169.429688 381.394531 168.308594 380.273438 168.308594 378.894531 C 168.308594 377.515625 169.429688 376.394531 170.808594 376.394531 L 172.59375 376.394531 C 173.976563 376.394531 175.09375 377.515625 175.09375 378.894531 C 175.09375 380.273438 173.976563 381.394531 172.59375 381.394531 Z "/>
<path style=" stroke:none;fill-rule:nonzero;fill:#472B29;fill-opacity:1;" d="M 212.183594 352.496094 C 212.09375 352.496094 212.003906 352.484375 211.910156 352.464844 C 211.234375 352.316406 210.808594 351.644531 210.964844 350.96875 C 211.148438 350.148438 211.433594 349.351563 211.808594 348.585938 C 214.824219 342.480469 223.148438 340.238281 230.351563 343.570313 C 230.980469 343.859375 231.253906 344.605469 230.960938 345.230469 C 230.671875 345.855469 229.914063 346.125 229.304688 345.839844 C 223.304688 343.070313 216.476563 344.804688 214.050781 349.695313 C 213.761719 350.285156 213.539063 350.898438 213.40625 351.519531 C 213.273438 352.101563 212.753906 352.496094 212.183594 352.496094 Z "/>
<path style=" stroke:none;fill-rule:nonzero;fill:#472B29;fill-opacity:1;" d="M 186.496094 381.394531 L 180.980469 381.394531 C 179.601563 381.394531 178.480469 380.273438 178.480469 378.894531 C 178.480469 377.515625 179.601563 376.394531 180.980469 376.394531 L 186.496094 376.394531 C 187.875 376.394531 188.996094 377.515625 188.996094 378.894531 C 188.996094 380.273438 187.878906 381.394531 186.496094 381.394531 Z "/>
</g>
</svg>
