<?xml version="1.0" encoding="UTF-8"?>
<svg xmlns="http://www.w3.org/2000/svg" xmlns:xlink="http://www.w3.org/1999/xlink" width="500pt" height="500pt" viewBox="0 0 500 500" version="1.1">
<g id="surface1">
<path style=" stroke:none;fill-rule:nonzero;fill:#000000;fill-opacity:1;" d="M 248.015625 59.523438 C 231.699219 59.523438 218.253906 72.972656 218.253906 89.285156 L 218.253906 103.238281 C 198.957031 107.769531 182.097656 116.722656 169.117188 129.78125 C 149.738281 149.351563 138.890625 177.058594 138.890625 208.953125 L 138.890625 286.34375 C 138.890625 304.554688 128.929688 327.652344 118.660156 344.78125 L 100.871094 371.480469 C 98.859375 374.542969 98.664063 378.457031 100.367188 381.671875 C 102.113281 384.890625 105.484375 386.90625 109.128906 386.90625 L 198.414063 386.90625 C 198.414063 414.148438 220.773438 436.507813 248.015625 436.507813 C 275.257813 436.507813 297.617188 414.148438 297.617188 386.90625 L 386.90625 386.90625 C 390.546875 386.90625 393.917969 384.890625 395.664063 381.671875 C 397.367188 378.457031 397.175781 374.542969 395.160156 371.480469 L 377.449219 344.898438 L 377.410156 344.859375 C 367.023438 327.535156 357.144531 305.910156 357.144531 287.699219 L 357.144531 210.308594 C 357.144531 157.0625 325.441406 115.832031 277.777344 103.585938 L 277.777344 89.285156 C 277.777344 72.972656 264.332031 59.523438 248.015625 59.523438 Z M 248.015625 79.363281 C 253.519531 79.363281 257.9375 83.78125 257.9375 89.285156 L 257.9375 100.332031 C 255.726563 100.136719 253.558594 99.902344 251.308594 99.828125 C 250.261719 99.4375 249.140625 99.246094 248.015625 99.207031 C 246.929688 99.207031 245.882813 99.398438 244.875 99.789063 C 242.550781 99.828125 240.34375 100.058594 238.09375 100.214844 L 238.09375 89.285156 C 238.09375 83.78125 242.511719 79.363281 248.015625 79.363281 Z M 34.527344 94.011719 C 12.402344 129.976563 0 172.796875 0 218.253906 C 0 263.710938 12.402344 306.53125 34.527344 342.496094 L 51.464844 332.109375 C 31.273438 299.285156 19.839844 260.105469 19.839844 218.253906 C 19.839844 176.402344 31.273438 137.222656 51.464844 104.398438 Z M 461.503906 94.011719 L 444.570313 104.398438 C 464.757813 137.222656 476.191406 176.402344 476.191406 218.253906 C 476.191406 260.105469 464.757813 299.285156 444.570313 332.109375 L 461.503906 342.496094 C 483.632813 306.53125 496.03125 263.710938 496.03125 218.253906 C 496.03125 172.796875 483.632813 129.976563 461.503906 94.011719 Z M 248.015625 119.046875 C 302.695313 119.046875 337.300781 155.4375 337.300781 210.308594 L 337.300781 287.699219 C 337.300781 312.617188 349.238281 336.488281 360.398438 355.128906 C 360.515625 355.242188 360.59375 355.398438 360.667969 355.515625 L 368.34375 367.0625 L 127.6875 367.0625 L 135.363281 355.515625 C 135.441406 355.398438 135.515625 355.242188 135.632813 355.128906 C 146.910156 336.332031 158.730469 311.261719 158.730469 286.34375 L 158.730469 208.953125 C 158.730469 181.515625 167.796875 159.3125 183.222656 143.773438 C 198.605469 128.230469 220.617188 119.046875 248.015625 119.046875 Z M 77.542969 120.441406 C 59.484375 149.625 49.601563 182.097656 49.601563 218.253906 C 49.601563 254.679688 60.800781 288.164063 77.464844 315.949219 L 94.480469 305.71875 C 79.441406 280.605469 69.445313 250.613281 69.445313 218.253906 C 69.445313 185.625 78.085938 157.257813 94.402344 130.867188 Z M 418.488281 120.441406 L 401.628906 130.867188 C 417.945313 157.257813 426.585938 185.625 426.585938 218.253906 C 426.585938 250.613281 416.589844 280.605469 401.515625 305.71875 L 418.566406 315.949219 C 435.230469 288.164063 446.429688 254.679688 446.429688 218.253906 C 446.429688 182.097656 436.546875 149.625 418.488281 120.441406 Z M 218.253906 386.90625 L 277.777344 386.90625 C 277.777344 403.335938 264.445313 416.667969 248.015625 416.667969 C 231.585938 416.667969 218.253906 403.335938 218.253906 386.90625 Z "/>
</g>
</svg>
