<?xml version="1.0" encoding="UTF-8"?>
<svg xmlns="http://www.w3.org/2000/svg" xmlns:xlink="http://www.w3.org/1999/xlink" width="400pt" height="400pt" viewBox="0 0 400 400" version="1.1">
<g id="surface1">
<path style=" stroke:none;fill-rule:nonzero;fill:#000000;fill-opacity:1;" d="M 103.6875 47.84375 C 101.46875 47.84375 99.6875 49.640625 99.6875 51.84375 L 99.6875 59.84375 L 90.75 59.84375 C 71.421875 59.84375 55.6875 75.578125 55.6875 94.921875 L 55.6875 340.890625 C 55.6875 349.140625 62.390625 355.84375 70.640625 355.84375 L 333.734375 355.84375 C 341.421875 355.84375 347.6875 349.59375 347.6875 341.890625 L 347.6875 94.921875 C 347.6875 75.578125 331.953125 59.84375 312.625 59.84375 L 303.6875 59.84375 L 303.6875 51.84375 C 303.6875 49.640625 301.90625 47.84375 299.6875 47.84375 C 297.46875 47.84375 295.6875 49.640625 295.6875 51.84375 L 295.6875 59.84375 L 275.6875 59.84375 L 275.6875 51.84375 C 275.6875 49.640625 273.90625 47.84375 271.6875 47.84375 C 269.46875 47.84375 267.6875 49.640625 267.6875 51.84375 L 267.6875 59.84375 L 247.6875 59.84375 L 247.6875 51.84375 C 247.6875 49.640625 245.90625 47.84375 243.6875 47.84375 C 241.46875 47.84375 239.6875 49.640625 239.6875 51.84375 L 239.6875 59.84375 L 219.6875 59.84375 L 219.6875 51.84375 C 219.6875 49.640625 217.90625 47.84375 215.6875 47.84375 C 213.46875 47.84375 211.6875 49.640625 211.6875 51.84375 L 211.6875 59.84375 L 191.6875 59.84375 L 191.6875 51.84375 C 191.6875 49.640625 189.90625 47.84375 187.6875 47.84375 C 185.46875 47.84375 183.6875 49.640625 183.6875 51.84375 L 183.6875 59.84375 L 163.6875 59.84375 L 163.6875 51.84375 C 163.6875 49.640625 161.90625 47.84375 159.6875 47.84375 C 157.46875 47.84375 155.6875 49.640625 155.6875 51.84375 L 155.6875 59.84375 L 135.6875 59.84375 L 135.6875 51.84375 C 135.6875 49.640625 133.90625 47.84375 131.6875 47.84375 C 129.46875 47.84375 127.6875 49.640625 127.6875 51.84375 L 127.6875 59.84375 L 107.6875 59.84375 L 107.6875 51.84375 C 107.6875 49.640625 105.90625 47.84375 103.6875 47.84375 Z M 90.75 67.84375 L 99.6875 67.84375 L 99.6875 75.84375 C 99.6875 78.046875 101.46875 79.84375 103.6875 79.84375 C 105.90625 79.84375 107.6875 78.046875 107.6875 75.84375 L 107.6875 67.84375 L 127.6875 67.84375 L 127.6875 75.84375 C 127.6875 78.046875 129.46875 79.84375 131.6875 79.84375 C 133.90625 79.84375 135.6875 78.046875 135.6875 75.84375 L 135.6875 67.84375 L 155.6875 67.84375 L 155.6875 75.84375 C 155.6875 78.046875 157.46875 79.84375 159.6875 79.84375 C 161.90625 79.84375 163.6875 78.046875 163.6875 75.84375 L 163.6875 67.84375 L 183.6875 67.84375 L 183.6875 75.84375 C 183.6875 78.046875 185.46875 79.84375 187.6875 79.84375 C 189.90625 79.84375 191.6875 78.046875 191.6875 75.84375 L 191.6875 67.84375 L 211.6875 67.84375 L 211.6875 75.84375 C 211.6875 78.046875 213.46875 79.84375 215.6875 79.84375 C 217.90625 79.84375 219.6875 78.046875 219.6875 75.84375 L 219.6875 67.84375 L 239.6875 67.84375 L 239.6875 75.84375 C 239.6875 78.046875 241.46875 79.84375 243.6875 79.84375 C 245.90625 79.84375 247.6875 78.046875 247.6875 75.84375 L 247.6875 67.84375 L 267.6875 67.84375 L 267.6875 75.84375 C 267.6875 78.046875 269.46875 79.84375 271.6875 79.84375 C 273.90625 79.84375 275.6875 78.046875 275.6875 75.84375 L 275.6875 67.84375 L 295.6875 67.84375 L 295.6875 75.84375 C 295.6875 78.046875 297.46875 79.84375 299.6875 79.84375 C 301.90625 79.84375 303.6875 78.046875 303.6875 75.84375 L 303.6875 67.84375 L 312.609375 67.84375 C 327.53125 67.84375 339.6875 79.984375 339.6875 94.921875 L 339.6875 123.84375 L 325.6875 123.84375 C 324.578125 123.84375 323.6875 124.734375 323.6875 125.84375 C 323.6875 126.953125 324.578125 127.84375 325.6875 127.84375 L 339.6875 127.84375 L 339.6875 341.890625 C 339.6875 345.171875 337.015625 347.84375 333.734375 347.84375 L 70.640625 347.84375 C 66.796875 347.84375 63.6875 344.734375 63.6875 340.890625 L 63.6875 127.84375 L 301.6875 127.84375 C 302.796875 127.84375 303.6875 126.953125 303.6875 125.84375 C 303.6875 124.734375 302.796875 123.84375 301.6875 123.84375 L 63.6875 123.84375 L 63.6875 94.921875 C 63.6875 79.984375 75.828125 67.84375 90.75 67.84375 Z M 97.6875 83.84375 C 92.171875 83.84375 87.6875 88.328125 87.6875 93.84375 C 87.6875 99.359375 92.171875 103.84375 97.6875 103.84375 C 103.203125 103.84375 107.6875 99.359375 107.6875 93.84375 C 107.6875 88.328125 103.203125 83.84375 97.6875 83.84375 Z M 305.6875 83.84375 C 300.171875 83.84375 295.6875 88.328125 295.6875 93.84375 C 295.6875 99.359375 300.171875 103.84375 305.6875 103.84375 C 311.203125 103.84375 315.6875 99.359375 315.6875 93.84375 C 315.6875 88.328125 311.203125 83.84375 305.6875 83.84375 Z M 97.6875 87.84375 C 101 87.84375 103.6875 90.53125 103.6875 93.84375 C 103.6875 97.15625 101 99.84375 97.6875 99.84375 C 94.375 99.84375 91.6875 97.15625 91.6875 93.84375 C 91.6875 90.53125 94.375 87.84375 97.6875 87.84375 Z M 305.6875 87.84375 C 309 87.84375 311.6875 90.53125 311.6875 93.84375 C 311.6875 97.15625 309 99.84375 305.6875 99.84375 C 302.375 99.84375 299.6875 97.15625 299.6875 93.84375 C 299.6875 90.53125 302.375 87.84375 305.6875 87.84375 Z M 309.6875 123.84375 C 308.578125 123.84375 307.6875 124.734375 307.6875 125.84375 C 307.6875 126.953125 308.578125 127.84375 309.6875 127.84375 L 317.6875 127.84375 C 318.796875 127.84375 319.6875 126.953125 319.6875 125.84375 C 319.6875 124.734375 318.796875 123.84375 317.6875 123.84375 Z M 145.6875 163.84375 C 144.578125 163.84375 143.6875 164.734375 143.6875 165.84375 C 143.6875 166.953125 144.578125 167.84375 145.6875 167.84375 L 151.6875 167.84375 L 151.6875 187.84375 L 131.6875 187.84375 L 131.6875 177.84375 C 131.6875 176.734375 130.796875 175.84375 129.6875 175.84375 C 128.578125 175.84375 127.6875 176.734375 127.6875 177.84375 L 127.6875 189.84375 C 127.6875 190.953125 128.578125 191.84375 129.6875 191.84375 L 153.6875 191.84375 C 154.796875 191.84375 155.6875 190.953125 155.6875 189.84375 L 155.6875 165.84375 C 155.6875 164.734375 154.796875 163.84375 153.6875 163.84375 Z M 169.6875 163.84375 C 168.578125 163.84375 167.6875 164.734375 167.6875 165.84375 L 167.6875 189.84375 C 167.6875 190.953125 168.578125 191.84375 169.6875 191.84375 L 193.6875 191.84375 C 194.796875 191.84375 195.6875 190.953125 195.6875 189.84375 L 195.6875 165.84375 C 195.6875 164.734375 194.796875 163.84375 193.6875 163.84375 Z M 209.6875 163.84375 C 208.578125 163.84375 207.6875 164.734375 207.6875 165.84375 L 207.6875 189.84375 C 207.6875 190.953125 208.578125 191.84375 209.6875 191.84375 L 233.6875 191.84375 C 234.796875 191.84375 235.6875 190.953125 235.6875 189.84375 L 235.6875 165.84375 C 235.6875 164.734375 234.796875 163.84375 233.6875 163.84375 Z M 249.6875 163.84375 C 248.578125 163.84375 247.6875 164.734375 247.6875 165.84375 L 247.6875 189.84375 C 247.6875 190.953125 248.578125 191.84375 249.6875 191.84375 L 273.6875 191.84375 C 274.796875 191.84375 275.6875 190.953125 275.6875 189.84375 L 275.6875 165.84375 C 275.6875 164.734375 274.796875 163.84375 273.6875 163.84375 Z M 289.6875 163.84375 C 288.578125 163.84375 287.6875 164.734375 287.6875 165.84375 L 287.6875 189.84375 C 287.6875 190.953125 288.578125 191.84375 289.6875 191.84375 L 313.6875 191.84375 C 314.796875 191.84375 315.6875 190.953125 315.6875 189.84375 L 315.6875 165.84375 C 315.6875 164.734375 314.796875 163.84375 313.6875 163.84375 Z M 171.6875 167.84375 L 191.6875 167.84375 L 191.6875 187.84375 L 171.6875 187.84375 Z M 211.6875 167.84375 L 231.6875 167.84375 L 231.6875 187.84375 L 211.6875 187.84375 Z M 251.6875 167.84375 L 271.6875 167.84375 L 271.6875 187.84375 L 251.6875 187.84375 Z M 291.6875 167.84375 L 311.6875 167.84375 L 311.6875 187.84375 L 291.6875 187.84375 Z M 89.6875 203.84375 C 88.578125 203.84375 87.6875 204.734375 87.6875 205.84375 L 87.6875 229.84375 C 87.6875 230.953125 88.578125 231.84375 89.6875 231.84375 L 113.6875 231.84375 C 114.796875 231.84375 115.6875 230.953125 115.6875 229.84375 L 115.6875 205.84375 C 115.6875 204.734375 114.796875 203.84375 113.6875 203.84375 Z M 129.6875 203.84375 C 128.578125 203.84375 127.6875 204.734375 127.6875 205.84375 L 127.6875 229.84375 C 127.6875 230.953125 128.578125 231.84375 129.6875 231.84375 L 153.6875 231.84375 C 154.796875 231.84375 155.6875 230.953125 155.6875 229.84375 L 155.6875 205.84375 C 155.6875 204.734375 154.796875 203.84375 153.6875 203.84375 Z M 169.6875 203.84375 C 168.578125 203.84375 167.6875 204.734375 167.6875 205.84375 L 167.6875 229.84375 C 167.6875 230.953125 168.578125 231.84375 169.6875 231.84375 L 193.6875 231.84375 C 194.796875 231.84375 195.6875 230.953125 195.6875 229.84375 L 195.6875 205.84375 C 195.6875 204.734375 194.796875 203.84375 193.6875 203.84375 Z M 209.6875 203.84375 C 208.578125 203.84375 207.6875 204.734375 207.6875 205.84375 L 207.6875 229.84375 C 207.6875 230.953125 208.578125 231.84375 209.6875 231.84375 L 233.6875 231.84375 C 234.796875 231.84375 235.6875 230.953125 235.6875 229.84375 L 235.6875 205.84375 C 235.6875 204.734375 234.796875 203.84375 233.6875 203.84375 Z M 249.6875 203.84375 C 248.578125 203.84375 247.6875 204.734375 247.6875 205.84375 L 247.6875 229.84375 C 247.6875 230.953125 248.578125 231.84375 249.6875 231.84375 L 273.6875 231.84375 C 274.796875 231.84375 275.6875 230.953125 275.6875 229.84375 L 275.6875 205.84375 C 275.6875 204.734375 274.796875 203.84375 273.6875 203.84375 Z M 289.6875 203.84375 C 288.578125 203.84375 287.6875 204.734375 287.6875 205.84375 L 287.6875 229.84375 C 287.6875 230.953125 288.578125 231.84375 289.6875 231.84375 L 313.6875 231.84375 C 314.796875 231.84375 315.6875 230.953125 315.6875 229.84375 L 315.6875 205.84375 C 315.6875 204.734375 314.796875 203.84375 313.6875 203.84375 Z M 91.6875 207.84375 L 111.6875 207.84375 L 111.6875 227.84375 L 91.6875 227.84375 Z M 131.6875 207.84375 L 151.6875 207.84375 L 151.6875 227.84375 L 131.6875 227.84375 Z M 171.6875 207.84375 L 191.6875 207.84375 L 191.6875 227.84375 L 171.6875 227.84375 Z M 211.6875 207.84375 L 231.6875 207.84375 L 231.6875 227.84375 L 211.6875 227.84375 Z M 251.6875 207.84375 L 271.6875 207.84375 L 271.6875 227.84375 L 251.6875 227.84375 Z M 291.6875 207.84375 L 311.6875 207.84375 L 311.6875 227.84375 L 291.6875 227.84375 Z M 89.6875 243.84375 C 88.578125 243.84375 87.6875 244.734375 87.6875 245.84375 L 87.6875 269.84375 C 87.6875 270.953125 88.578125 271.84375 89.6875 271.84375 L 113.6875 271.84375 C 114.796875 271.84375 115.6875 270.953125 115.6875 269.84375 L 115.6875 245.84375 C 115.6875 244.734375 114.796875 243.84375 113.6875 243.84375 Z M 129.6875 243.84375 C 128.578125 243.84375 127.6875 244.734375 127.6875 245.84375 L 127.6875 269.84375 C 127.6875 270.953125 128.578125 271.84375 129.6875 271.84375 L 153.6875 271.84375 C 154.796875 271.84375 155.6875 270.953125 155.6875 269.84375 L 155.6875 245.84375 C 155.6875 244.734375 154.796875 243.84375 153.6875 243.84375 Z M 169.6875 243.84375 C 168.578125 243.84375 167.6875 244.734375 167.6875 245.84375 L 167.6875 269.84375 C 167.6875 270.953125 168.578125 271.84375 169.6875 271.84375 L 193.6875 271.84375 C 194.796875 271.84375 195.6875 270.953125 195.6875 269.84375 L 195.6875 245.84375 C 195.6875 244.734375 194.796875 243.84375 193.6875 243.84375 Z M 209.6875 243.84375 C 208.578125 243.84375 207.6875 244.734375 207.6875 245.84375 L 207.6875 269.84375 C 207.6875 270.953125 208.578125 271.84375 209.6875 271.84375 L 233.6875 271.84375 C 234.796875 271.84375 235.6875 270.953125 235.6875 269.84375 L 235.6875 245.84375 C 235.6875 244.734375 234.796875 243.84375 233.6875 243.84375 Z M 249.6875 243.84375 C 248.578125 243.84375 247.6875 244.734375 247.6875 245.84375 L 247.6875 269.84375 C 247.6875 270.953125 248.578125 271.84375 249.6875 271.84375 L 273.6875 271.84375 C 274.796875 271.84375 275.6875 270.953125 275.6875 269.84375 L 275.6875 245.84375 C 275.6875 244.734375 274.796875 243.84375 273.6875 243.84375 Z M 289.6875 243.84375 C 288.578125 243.84375 287.6875 244.734375 287.6875 245.84375 L 287.6875 269.84375 C 287.6875 270.953125 288.578125 271.84375 289.6875 271.84375 L 313.6875 271.84375 C 314.796875 271.84375 315.6875 270.953125 315.6875 269.84375 L 315.6875 245.84375 C 315.6875 244.734375 314.796875 243.84375 313.6875 243.84375 Z M 91.6875 247.84375 L 111.6875 247.84375 L 111.6875 267.84375 L 91.6875 267.84375 Z M 131.6875 247.84375 L 151.6875 247.84375 L 151.6875 267.84375 L 131.6875 267.84375 Z M 171.6875 247.84375 L 191.6875 247.84375 L 191.6875 267.84375 L 171.6875 267.84375 Z M 211.6875 247.84375 L 231.6875 247.84375 L 231.6875 267.84375 L 211.6875 267.84375 Z M 251.6875 247.84375 L 271.6875 247.84375 L 271.6875 267.84375 L 251.6875 267.84375 Z M 291.6875 247.84375 L 311.6875 247.84375 L 311.6875 267.84375 L 291.6875 267.84375 Z M 89.6875 283.84375 C 88.578125 283.84375 87.6875 284.734375 87.6875 285.84375 L 87.6875 309.84375 C 87.6875 310.953125 88.578125 311.84375 89.6875 311.84375 L 113.6875 311.84375 C 114.796875 311.84375 115.6875 310.953125 115.6875 309.84375 L 115.6875 285.84375 C 115.6875 284.734375 114.796875 283.84375 113.6875 283.84375 Z M 129.6875 283.84375 C 128.578125 283.84375 127.6875 284.734375 127.6875 285.84375 L 127.6875 309.84375 C 127.6875 310.953125 128.578125 311.84375 129.6875 311.84375 L 153.6875 311.84375 C 154.796875 311.84375 155.6875 310.953125 155.6875 309.84375 L 155.6875 285.84375 C 155.6875 284.734375 154.796875 283.84375 153.6875 283.84375 Z M 169.6875 283.84375 C 168.578125 283.84375 167.6875 284.734375 167.6875 285.84375 L 167.6875 309.84375 C 167.6875 310.953125 168.578125 311.84375 169.6875 311.84375 L 193.6875 311.84375 C 194.796875 311.84375 195.6875 310.953125 195.6875 309.84375 L 195.6875 285.84375 C 195.6875 284.734375 194.796875 283.84375 193.6875 283.84375 Z M 209.6875 283.84375 C 208.578125 283.84375 207.6875 284.734375 207.6875 285.84375 L 207.6875 309.84375 C 207.6875 310.953125 208.578125 311.84375 209.6875 311.84375 L 229.6875 311.84375 C 230.796875 311.84375 231.6875 310.953125 231.6875 309.84375 C 231.6875 308.734375 230.796875 307.84375 229.6875 307.84375 L 211.6875 307.84375 L 211.6875 287.84375 L 231.6875 287.84375 L 231.6875 301.84375 C 231.6875 302.953125 232.578125 303.84375 233.6875 303.84375 C 234.796875 303.84375 235.6875 302.953125 235.6875 301.84375 L 235.6875 285.84375 C 235.6875 284.734375 234.796875 283.84375 233.6875 283.84375 Z M 91.6875 287.84375 L 111.6875 287.84375 L 111.6875 307.84375 L 91.6875 307.84375 Z M 131.6875 287.84375 L 151.6875 287.84375 L 151.6875 307.84375 L 131.6875 307.84375 Z M 171.6875 287.84375 L 191.6875 287.84375 L 191.6875 307.84375 L 171.6875 307.84375 Z "/>
</g>
</svg>
