<?xml version="1.0" encoding="UTF-8"?>
<svg xmlns="http://www.w3.org/2000/svg" xmlns:xlink="http://www.w3.org/1999/xlink" width="512pt" height="512pt" viewBox="0 0 512 512" version="1.1">
<g id="surface1">
<path style=" stroke:none;fill-rule:nonzero;fill:#F9E3AE;fill-opacity:1;" d="M 95.550781 400 C 89.726563 400 84.617188 396.976563 81.863281 391.894531 L 81.832031 391.839844 C 79.144531 386.777344 79.433594 380.921875 82.625 376.167969 C 82.625 376.167969 82.625 376.167969 114.480469 320.152344 C 119.574219 311.183594 123.976563 301.664063 125.265625 291.441406 L 140.257813 181.265625 C 146.382813 132.65625 188.3125 96 237.785156 96 L 256 96 C 256 96 274.214844 96 274.214844 96 C 323.6875 96 365.609375 132.65625 371.734375 181.265625 L 386.726563 291.441406 C 388.023438 301.664063 392.414063 311.183594 397.511719 320.152344 C 429.367188 376.167969 429.367188 376.167969 429.367188 376.167969 C 432.558594 380.921875 432.847656 386.777344 430.160156 391.839844 L 430.128906 391.894531 C 427.390625 396.976563 422.273438 400 416.449219 400 Z "/>
<path style=" stroke:none;fill-rule:nonzero;fill:#FAEFDE;fill-opacity:1;" d="M 346.910156 128 C 328.816406 108.289063 302.800781 96 274.214844 96 L 237.785156 96 C 209.199219 96 183.183594 108.289063 165.089844 128 L 160 136 L 352 136 Z "/>
<path style=" stroke:none;fill-rule:nonzero;fill:#F6D397;fill-opacity:1;" d="M 397.519531 320.144531 C 397.496094 320.097656 397.472656 320.046875 397.441406 320 L 114.558594 320 C 114.535156 320.046875 114.511719 320.097656 114.480469 320.144531 C 82.625 376.167969 82.625 376.167969 82.625 376.167969 C 79.433594 380.921875 79.144531 386.777344 81.832031 391.839844 L 81.863281 391.894531 C 84.609375 396.976563 89.726563 400 95.550781 400 L 416.449219 400 C 422.273438 400 427.382813 396.976563 430.136719 391.894531 L 430.167969 391.839844 C 432.855469 386.777344 432.566406 380.921875 429.375 376.167969 C 429.382813 376.167969 429.382813 376.167969 397.519531 320.144531 Z "/>
<path style=" stroke:none;fill-rule:nonzero;fill:#C2CDE7;fill-opacity:1;" d="M 304 400 C 304 426.511719 282.511719 448 256 448 C 229.488281 448 208 426.511719 208 400 "/>
<path style=" stroke:none;fill-rule:nonzero;fill:#8D6C9F;fill-opacity:1;" d="M 39.175781 328 C 36.34375 328 33.609375 326.496094 32.160156 323.847656 C -9.632813 247.726563 -9.511719 152.824219 32.457031 76.160156 C 34.574219 72.289063 39.441406 70.855469 43.3125 72.984375 C 47.191406 75.105469 48.617188 79.96875 46.488281 83.839844 C 7.121094 155.761719 7 244.777344 46.183594 316.152344 C 48.3125 320.023438 46.894531 324.886719 43.023438 327.015625 C 41.800781 327.679688 40.480469 328 39.175781 328 Z "/>
<path style=" stroke:none;fill-rule:nonzero;fill:#8D6C9F;fill-opacity:1;" d="M 416.449219 408 L 95.550781 408 C 86.742188 408 79 403.40625 74.832031 395.710938 C 70.664063 387.878906 71.121094 378.953125 75.984375 371.710938 L 107.527344 316.199219 C 111.449219 309.304688 116.105469 300.152344 117.335938 290.441406 L 132.335938 180.191406 C 138.953125 127.664063 184.296875 88 237.785156 88 L 274.222656 88 C 327.710938 88 373.054688 127.664063 379.6875 180.265625 L 394.671875 290.359375 C 395.910156 300.144531 400.566406 309.304688 404.488281 316.191406 L 436.34375 372.214844 C 440.894531 378.953125 441.34375 387.878906 437.246094 395.59375 C 433 403.40625 425.257813 408 416.449219 408 Z M 237.785156 104 C 192.335938 104 153.824219 137.648438 148.199219 182.265625 L 133.199219 292.519531 C 131.632813 304.945313 126.089844 315.9375 121.441406 324.113281 L 89.585938 380.128906 C 87.734375 382.929688 87.601563 385.640625 88.902344 388.097656 C 90.246094 390.574219 92.664063 392 95.550781 392 L 416.449219 392 C 419.328125 392 421.753906 390.574219 423.105469 388.089844 C 424.414063 385.640625 424.273438 382.921875 422.742188 380.632813 L 390.574219 324.105469 C 385.921875 315.9375 380.382813 304.945313 378.800781 292.441406 L 363.816406 182.335938 C 358.175781 137.648438 319.664063 104 274.214844 104 Z "/>
<path style=" stroke:none;fill-rule:nonzero;fill:#8D6C9F;fill-opacity:1;" d="M 291.664063 104 C 288.328125 104 285.207031 101.886719 284.078125 98.550781 L 275.175781 72.160156 C 275.054688 72.121094 274.761719 72 274.335938 72 L 237.671875 72 C 237.257813 72 236.96875 72.113281 236.816406 72.199219 L 227.921875 98.558594 C 226.496094 102.734375 221.984375 104.992188 217.777344 103.585938 C 213.59375 102.167969 211.34375 97.632813 212.753906 93.441406 L 222.320313 65.265625 C 225.015625 59.640625 231.039063 56 237.664063 56 L 274.328125 56 C 280.953125 56 286.976563 59.640625 289.664063 65.265625 L 290.03125 66.160156 L 299.230469 93.449219 C 300.640625 97.632813 298.390625 102.175781 294.207031 103.59375 C 293.367188 103.863281 292.503906 104 291.664063 104 Z "/>
<path style=" stroke:none;fill-rule:nonzero;fill:#8D6C9F;fill-opacity:1;" d="M 288 328 L 120 328 C 115.585938 328 112 324.414063 112 320 C 112 315.585938 115.585938 312 120 312 L 288 312 C 292.414063 312 296 315.585938 296 320 C 296 324.414063 292.414063 328 288 328 Z "/>
<path style=" stroke:none;fill-rule:nonzero;fill:#8D6C9F;fill-opacity:1;" d="M 360 328 L 320 328 C 315.585938 328 312 324.414063 312 320 C 312 315.585938 315.585938 312 320 312 L 360 312 C 364.414063 312 368 315.585938 368 320 C 368 324.414063 364.414063 328 360 328 Z "/>
<path style=" stroke:none;fill-rule:nonzero;fill:#8D6C9F;fill-opacity:1;" d="M 136 376 C 131.585938 376 128 372.414063 128 368 L 128 352 C 128 347.585938 131.585938 344 136 344 C 140.414063 344 144 347.585938 144 352 L 144 368 C 144 372.414063 140.414063 376 136 376 Z "/>
<path style=" stroke:none;fill-rule:nonzero;fill:#8D6C9F;fill-opacity:1;" d="M 176 376 C 171.585938 376 168 372.414063 168 368 L 168 352 C 168 347.585938 171.585938 344 176 344 C 180.414063 344 184 347.585938 184 352 L 184 368 C 184 372.414063 180.414063 376 176 376 Z "/>
<path style=" stroke:none;fill-rule:nonzero;fill:#8D6C9F;fill-opacity:1;" d="M 216 376 C 211.585938 376 208 372.414063 208 368 L 208 352 C 208 347.585938 211.585938 344 216 344 C 220.414063 344 224 347.585938 224 352 L 224 368 C 224 372.414063 220.414063 376 216 376 Z "/>
<path style=" stroke:none;fill-rule:nonzero;fill:#8D6C9F;fill-opacity:1;" d="M 256 376 C 251.585938 376 248 372.414063 248 368 L 248 352 C 248 347.585938 251.585938 344 256 344 C 260.414063 344 264 347.585938 264 352 L 264 368 C 264 372.414063 260.414063 376 256 376 Z "/>
<path style=" stroke:none;fill-rule:nonzero;fill:#8D6C9F;fill-opacity:1;" d="M 296 376 C 291.585938 376 288 372.414063 288 368 L 288 352 C 288 347.585938 291.585938 344 296 344 C 300.414063 344 304 347.585938 304 352 L 304 368 C 304 372.414063 300.414063 376 296 376 Z "/>
<path style=" stroke:none;fill-rule:nonzero;fill:#8D6C9F;fill-opacity:1;" d="M 336 376 C 331.585938 376 328 372.414063 328 368 L 328 352 C 328 347.585938 331.585938 344 336 344 C 340.414063 344 344 347.585938 344 352 L 344 368 C 344 372.414063 340.414063 376 336 376 Z "/>
<path style=" stroke:none;fill-rule:nonzero;fill:#8D6C9F;fill-opacity:1;" d="M 376 376 C 371.585938 376 368 372.414063 368 368 L 368 352 C 368 347.585938 371.585938 344 376 344 C 380.414063 344 384 347.585938 384 352 L 384 368 C 384 372.414063 380.414063 376 376 376 Z "/>
<path style=" stroke:none;fill-rule:nonzero;fill:#8D6C9F;fill-opacity:1;" d="M 256 456 C 225.121094 456 200 430.878906 200 400 C 200 395.585938 203.585938 392 208 392 C 212.414063 392 216 395.585938 216 400 C 216 422.054688 233.945313 440 256 440 C 278.054688 440 296 422.054688 296 400 C 296 395.585938 299.585938 392 304 392 C 308.414063 392 312 395.585938 312 400 C 312 430.878906 286.878906 456 256 456 Z "/>
<path style=" stroke:none;fill-rule:nonzero;fill:#8D6C9F;fill-opacity:1;" d="M 472.679688 328 C 471.351563 328 470.007813 327.671875 468.769531 326.976563 C 464.921875 324.808594 463.542969 319.9375 465.710938 316.089844 C 505.351563 245.542969 505.304688 156.550781 465.574219 83.839844 C 463.457031 79.960938 464.886719 75.105469 468.761719 72.984375 C 472.640625 70.847656 477.496094 72.296875 479.617188 76.167969 C 521.960938 153.671875 521.976563 248.609375 479.65625 323.921875 C 478.191406 326.527344 475.480469 328 472.679688 328 Z "/>
<path style=" stroke:none;fill-rule:nonzero;fill:#8D6C9F;fill-opacity:1;" d="M 431.472656 304 C 430.167969 304 428.855469 303.679688 427.632813 303.015625 C 423.761719 300.886719 422.335938 296.023438 424.464844 292.152344 C 439.855469 264.0625 448 232.199219 448 200 C 448 167.800781 439.855469 135.9375 424.464844 107.847656 C 422.335938 103.976563 423.761719 99.113281 427.632813 96.984375 C 431.511719 94.863281 436.367188 96.28125 438.496094 100.152344 C 455.175781 130.59375 464 165.121094 464 200 C 464 234.878906 455.175781 269.40625 438.496094 299.847656 C 437.03125 302.503906 434.296875 304 431.472656 304 Z "/>
<path style=" stroke:none;fill-rule:nonzero;fill:#8D6C9F;fill-opacity:1;" d="M 80.527344 304 C 77.695313 304 74.960938 302.496094 73.503906 299.847656 C 56.824219 269.40625 48 234.878906 48 200 C 48 165.121094 56.824219 130.59375 73.503906 100.152344 C 75.632813 96.28125 80.480469 94.863281 84.367188 96.984375 C 88.238281 99.113281 89.664063 103.976563 87.535156 107.847656 C 72.144531 135.9375 64 167.800781 64 200 C 64 232.199219 72.144531 264.0625 87.535156 292.152344 C 89.664063 296.023438 88.238281 300.886719 84.367188 303.015625 C 83.152344 303.679688 81.832031 304 80.527344 304 Z "/>
<path style=" stroke:none;fill-rule:nonzero;fill:#8D6C9F;fill-opacity:1;" d="M 303.992188 152.113281 C 302.617188 152.113281 301.214844 151.761719 299.945313 151.007813 C 292.160156 146.425781 283.265625 144 274.214844 144 L 272 144 C 267.585938 144 264 140.414063 264 136 C 264 131.585938 267.585938 128 272 128 L 274.214844 128 C 286.113281 128 297.816406 131.183594 308.054688 137.214844 C 311.863281 139.457031 313.136719 144.367188 310.886719 148.167969 C 309.398438 150.703125 306.734375 152.113281 303.992188 152.113281 Z "/>
<path style=" stroke:none;fill-rule:nonzero;fill:#8D6C9F;fill-opacity:1;" d="M 331.519531 192 C 327.710938 192 324.335938 189.273438 323.648438 185.390625 C 322.742188 180.28125 321.257813 175.632813 319.222656 171.601563 C 317.230469 167.648438 318.824219 162.839844 322.769531 160.855469 C 326.726563 158.855469 331.535156 160.457031 333.511719 164.398438 C 336.246094 169.832031 338.222656 175.953125 339.398438 182.609375 C 340.167969 186.960938 337.265625 191.113281 332.910156 191.878906 C 332.457031 191.960938 331.984375 192 331.519531 192 Z "/>
</g>
</svg>
