<?xml version="1.0" encoding="UTF-8"?>
<svg xmlns="http://www.w3.org/2000/svg" xmlns:xlink="http://www.w3.org/1999/xlink" width="96pt" height="96pt" viewBox="0 0 96 96" version="1.1">
<g id="surface1">
<path style=" stroke:none;fill-rule:nonzero;fill:#000000;fill-opacity:1;" d="M 24 4 L 24 12 L 20 12 C 15.59375 12 12 15.59375 12 20 L 12 76 C 12 80.40625 15.59375 84 20 84 L 76 84 C 80.40625 84 84 80.40625 84 76 L 84 20 C 84 15.59375 80.40625 12 76 12 L 72 12 L 72 4 L 64 4 L 64 12 L 32 12 L 32 4 Z M 20 20 L 76 20 L 76 28 L 20 28 Z M 20 36 L 76 36 L 76 76 L 20 76 Z M 44 44 L 44 52 L 36 52 L 36 60 L 44 60 L 44 68 L 52 68 L 52 60 L 60 60 L 60 52 L 52 52 L 52 44 Z "/>
</g>
</svg>
