<?xml version="1.0" encoding="UTF-8"?>
<svg xmlns="http://www.w3.org/2000/svg" xmlns:xlink="http://www.w3.org/1999/xlink" width="480pt" height="480pt" viewBox="0 0 480 480" version="1.1">
<g id="surface1">
<path style=" stroke:none;fill-rule:nonzero;fill:#000000;fill-opacity:1;" d="M 240 30 C 226.804688 30 216 40.804688 216 54 L 216 62.8125 C 174.46875 72.28125 141.820313 105.703125 133.875 148.265625 C 125.390625 152.8125 118.804688 160.640625 117.726563 170.789063 L 99.257813 341.53125 C 97.757813 355.5 86.039063 366 72 366 L 66 366 L 66 402 L 198 402 C 198 425.132813 216.867188 444 240 444 C 263.132813 444 282 425.132813 282 402 L 414 402 L 414 366 L 408 366 C 393.960938 366 382.242188 355.5 380.742188 341.53125 L 362.273438 170.789063 C 361.195313 160.640625 354.609375 152.8125 346.125 148.265625 C 338.179688 105.703125 305.53125 72.28125 264 62.8125 L 264 54 C 264 40.804688 253.195313 30 240 30 Z M 240 42 C 246.703125 42 252 47.296875 252 54 L 252 60.75 C 248.0625 60.304688 244.054688 60 240 60 C 235.945313 60 231.9375 60.304688 228 60.75 L 228 54 C 228 47.296875 233.296875 42 240 42 Z M 240 72 C 287.554688 72 327.351563 106.546875 334.875 152.507813 L 335.460938 155.929688 L 338.71875 157.148438 C 344.953125 159.46875 349.59375 165.09375 350.34375 172.054688 L 368.8125 342.820313 C 369.023438 344.742188 369.421875 346.570313 369.914063 348.375 C 367.546875 349.265625 366 351.492188 366 354 C 366 357.304688 368.695313 360 372 360 C 372.960938 360 373.921875 359.765625 374.789063 359.320313 C 380.8125 368.578125 390.65625 375.046875 402 376.875 L 402 390 L 78 390 L 78 376.875 C 89.34375 375.046875 99.1875 368.578125 105.210938 359.320313 C 106.078125 359.765625 107.039063 360 108 360 C 111.304688 360 114 357.304688 114 354 C 114 351.492188 112.453125 349.265625 110.085938 348.375 C 110.578125 346.570313 110.976563 344.742188 111.1875 342.820313 L 129.65625 172.054688 C 130.40625 165.09375 135.046875 159.46875 141.28125 157.148438 L 144.539063 155.929688 L 145.125 152.507813 C 152.648438 106.546875 192.445313 72 240 72 Z M 156 144 C 152.695313 144 150 146.695313 150 150 C 150 153.304688 152.695313 156 156 156 C 159.304688 156 162 153.304688 162 150 C 162 146.695313 159.304688 144 156 144 Z M 180 144 C 176.695313 144 174 146.695313 174 150 C 174 153.304688 176.695313 156 180 156 C 183.304688 156 186 153.304688 186 150 C 186 146.695313 183.304688 144 180 144 Z M 204 144 C 200.695313 144 198 146.695313 198 150 C 198 153.304688 200.695313 156 204 156 C 207.304688 156 210 153.304688 210 150 C 210 146.695313 207.304688 144 204 144 Z M 228 144 C 224.695313 144 222 146.695313 222 150 C 222 153.304688 224.695313 156 228 156 C 231.304688 156 234 153.304688 234 150 C 234 146.695313 231.304688 144 228 144 Z M 252 144 C 248.695313 144 246 146.695313 246 150 C 246 153.304688 248.695313 156 252 156 C 255.304688 156 258 153.304688 258 150 C 258 146.695313 255.304688 144 252 144 Z M 276 144 C 272.695313 144 270 146.695313 270 150 C 270 153.304688 272.695313 156 276 156 C 279.304688 156 282 153.304688 282 150 C 282 146.695313 279.304688 144 276 144 Z M 300 144 C 296.695313 144 294 146.695313 294 150 C 294 153.304688 296.695313 156 300 156 C 303.304688 156 306 153.304688 306 150 C 306 146.695313 303.304688 144 300 144 Z M 324 144 C 320.695313 144 318 146.695313 318 150 C 318 153.304688 320.695313 156 324 156 C 327.304688 156 330 153.304688 330 150 C 330 146.695313 327.304688 144 324 144 Z M 74.8125 167.648438 L 70.5 170.882813 L 69.9375 172.898438 L 69.84375 173.507813 L 71.742188 178.523438 L 76.898438 180.046875 L 81.1875 176.8125 L 81.773438 174.796875 L 81.84375 174.1875 L 79.96875 169.148438 Z M 401.8125 168 L 398.296875 172.101563 L 398.15625 174.1875 L 398.226563 174.796875 L 401.132813 179.320313 L 406.5 179.695313 L 409.992188 175.617188 L 410.15625 173.507813 L 410.0625 172.898438 L 407.15625 168.375 Z M 72.1875 192.09375 L 67.875 195.328125 L 67.289063 197.367188 L 67.21875 197.976563 L 69.09375 202.992188 L 74.25 204.492188 L 78.5625 201.28125 L 79.148438 199.242188 L 79.21875 198.65625 L 77.34375 193.617188 Z M 404.4375 192.46875 L 400.945313 196.546875 L 400.78125 198.65625 L 400.851563 199.242188 L 403.78125 203.765625 L 409.125 204.140625 L 412.640625 200.0625 L 412.78125 197.976563 L 412.710938 197.367188 L 409.804688 192.84375 Z M 69.539063 216.5625 L 65.226563 219.773438 L 64.640625 221.8125 L 64.570313 222.421875 L 66.445313 227.4375 L 71.625 228.960938 L 75.914063 225.75 L 76.5 223.710938 L 76.570313 223.125 L 74.695313 218.0625 Z M 407.085938 216.9375 L 403.59375 220.992188 L 403.429688 223.125 L 403.5 223.710938 L 406.40625 228.210938 L 411.773438 228.585938 L 415.289063 224.53125 L 415.429688 222.421875 L 415.359375 221.8125 L 412.453125 217.3125 Z M 66.867188 241.03125 L 62.601563 244.242188 L 61.992188 246.28125 L 61.921875 246.867188 L 63.820313 251.90625 L 68.976563 253.40625 L 73.265625 250.195313 L 73.851563 248.15625 L 73.921875 247.570313 L 72.046875 242.53125 Z M 409.734375 241.382813 L 406.21875 245.460938 L 406.078125 247.570313 L 406.148438 248.15625 L 409.054688 252.679688 L 414.421875 253.054688 L 417.9375 249 L 418.078125 246.867188 L 418.007813 246.28125 L 415.101563 241.757813 Z M 64.242188 265.476563 L 59.953125 268.710938 L 59.34375 270.75 L 59.296875 271.335938 L 61.148438 276.375 L 66.304688 277.875 L 70.617188 274.664063 L 71.226563 272.625 L 71.273438 272.039063 L 69.398438 267 Z M 412.382813 265.851563 L 408.867188 269.90625 L 408.726563 272.039063 L 408.773438 272.625 L 411.703125 277.125 L 417.070313 277.5 L 420.5625 273.445313 L 420.726563 271.335938 L 420.65625 270.75 L 417.75 266.226563 Z M 61.59375 289.945313 L 57.28125 293.15625 L 56.71875 295.195313 L 56.625 295.78125 L 58.5 300.84375 L 63.679688 302.34375 L 67.96875 299.109375 L 68.554688 297.09375 L 68.625 296.484375 L 66.75 291.445313 Z M 415.03125 290.296875 L 411.515625 294.375 L 411.375 296.484375 L 411.445313 297.09375 L 414.351563 301.59375 L 419.71875 301.96875 L 423.210938 297.914063 L 423.375 295.78125 L 423.28125 295.195313 L 420.375 290.671875 Z M 58.96875 314.390625 L 54.65625 317.625 L 54.046875 319.664063 L 54 320.25 L 55.875 325.289063 L 61.03125 326.8125 L 65.34375 323.554688 L 65.929688 321.539063 L 66 320.929688 L 64.125 315.914063 Z M 417.65625 314.742188 L 414.164063 318.84375 L 414 320.929688 L 414.070313 321.539063 L 417 326.0625 L 422.34375 326.4375 L 425.859375 322.359375 L 426 320.25 L 425.929688 319.664063 L 423.023438 315.117188 Z M 132 348 C 128.695313 348 126 350.695313 126 354 C 126 357.304688 128.695313 360 132 360 C 135.304688 360 138 357.304688 138 354 C 138 350.695313 135.304688 348 132 348 Z M 156 348 C 152.695313 348 150 350.695313 150 354 C 150 357.304688 152.695313 360 156 360 C 159.304688 360 162 357.304688 162 354 C 162 350.695313 159.304688 348 156 348 Z M 180 348 C 176.695313 348 174 350.695313 174 354 C 174 357.304688 176.695313 360 180 360 C 183.304688 360 186 357.304688 186 354 C 186 350.695313 183.304688 348 180 348 Z M 204 348 C 200.695313 348 198 350.695313 198 354 C 198 357.304688 200.695313 360 204 360 C 207.304688 360 210 357.304688 210 354 C 210 350.695313 207.304688 348 204 348 Z M 228 348 C 224.695313 348 222 350.695313 222 354 C 222 357.304688 224.695313 360 228 360 C 231.304688 360 234 357.304688 234 354 C 234 350.695313 231.304688 348 228 348 Z M 252 348 C 248.695313 348 246 350.695313 246 354 C 246 357.304688 248.695313 360 252 360 C 255.304688 360 258 357.304688 258 354 C 258 350.695313 255.304688 348 252 348 Z M 276 348 C 272.695313 348 270 350.695313 270 354 C 270 357.304688 272.695313 360 276 360 C 279.304688 360 282 357.304688 282 354 C 282 350.695313 279.304688 348 276 348 Z M 300 348 C 296.695313 348 294 350.695313 294 354 C 294 357.304688 296.695313 360 300 360 C 303.304688 360 306 357.304688 306 354 C 306 350.695313 303.304688 348 300 348 Z M 324 348 C 320.695313 348 318 350.695313 318 354 C 318 357.304688 320.695313 360 324 360 C 327.304688 360 330 357.304688 330 354 C 330 350.695313 327.304688 348 324 348 Z M 348 348 C 344.695313 348 342 350.695313 342 354 C 342 357.304688 344.695313 360 348 360 C 351.304688 360 354 357.304688 354 354 C 354 350.695313 351.304688 348 348 348 Z M 210 402 L 270 402 C 270 418.640625 256.640625 432 240 432 C 223.359375 432 210 418.640625 210 402 Z "/>
</g>
</svg>
