<?xml version="1.0" encoding="UTF-8"?>
<svg xmlns="http://www.w3.org/2000/svg" xmlns:xlink="http://www.w3.org/1999/xlink" width="500pt" height="500pt" viewBox="0 0 500 500" version="1.1">
<g id="surface1">
<path style=" stroke:none;fill-rule:nonzero;fill:#78A0CF;fill-opacity:1;" d="M 75 145 C 75 150.523438 70.523438 155 65 155 C 59.476563 155 55 150.523438 55 145 C 55 139.476563 59.476563 135 65 135 C 70.523438 135 75 139.476563 75 145 Z "/>
<path style=" stroke:none;fill-rule:nonzero;fill:#F1BC19;fill-opacity:1;" d="M 390 65 C 390 67.761719 387.761719 70 385 70 C 382.238281 70 380 67.761719 380 65 C 380 62.238281 382.238281 60 385 60 C 387.761719 60 390 62.238281 390 65 Z "/>
<path style=" stroke:none;fill-rule:nonzero;fill:#CEE1F4;fill-opacity:1;" d="M 435 250 C 435 352.171875 352.171875 435 250 435 C 147.828125 435 65 352.171875 65 250 C 65 147.828125 147.828125 65 250 65 C 352.171875 65 435 147.828125 435 250 Z "/>
<path style=" stroke:none;fill-rule:nonzero;fill:#F1BC19;fill-opacity:1;" d="M 435 75 C 435 86.046875 426.046875 95 415 95 C 403.953125 95 395 86.046875 395 75 C 395 63.953125 403.953125 55 415 55 C 426.046875 55 435 63.953125 435 75 Z "/>
<path style=" stroke:none;fill-rule:nonzero;fill:#78A0CF;fill-opacity:1;" d="M 445 120 C 445 125.523438 440.523438 130 435 130 C 429.476563 130 425 125.523438 425 120 C 425 114.476563 429.476563 110 435 110 C 440.523438 110 445 114.476563 445 120 Z "/>
<path style=" stroke:none;fill-rule:nonzero;fill:#FBCD59;fill-opacity:1;" d="M 415 380 C 415 385.523438 410.523438 390 405 390 C 399.476563 390 395 385.523438 395 380 C 395 374.476563 399.476563 370 405 370 C 410.523438 370 415 374.476563 415 380 Z "/>
<path style=" stroke:none;fill-rule:nonzero;fill:#FBCD59;fill-opacity:1;" d="M 95 315 C 95 326.046875 86.046875 335 75 335 C 63.953125 335 55 326.046875 55 315 C 55 303.953125 63.953125 295 75 295 C 86.046875 295 95 303.953125 95 315 Z "/>
<path style=" stroke:none;fill-rule:nonzero;fill:#78A0CF;fill-opacity:1;" d="M 135 435 C 135 440.523438 130.523438 445 125 445 C 119.476563 445 115 440.523438 115 435 C 115 429.476563 119.476563 425 125 425 C 130.523438 425 135 429.476563 135 435 Z "/>
<path style=" stroke:none;fill-rule:nonzero;fill:#FFFFFF;fill-opacity:1;" d="M 105 267.5 C 105 274.402344 99.402344 280 92.5 280 C 85.597656 280 80 274.402344 80 267.5 C 80 260.597656 85.597656 255 92.5 255 C 99.402344 255 105 260.597656 105 267.5 Z "/>
<path style=" stroke:none;fill-rule:nonzero;fill:#F1BC19;fill-opacity:1;" d="M 110 335 C 110 337.761719 107.761719 340 105 340 C 102.238281 340 100 337.761719 100 335 C 100 332.238281 102.238281 330 105 330 C 107.761719 330 110 332.238281 110 335 Z "/>
<path style=" stroke:none;fill-rule:nonzero;fill:#FFFFFF;fill-opacity:1;" d="M 405 170 C 405 172.761719 402.761719 175 400 175 C 397.238281 175 395 172.761719 395 170 C 395 167.238281 397.238281 165 400 165 C 402.761719 165 405 167.238281 405 170 Z "/>
<path style=" stroke:none;fill-rule:nonzero;fill:#EE3E54;fill-opacity:1;" d="M 175 361.5 C 155 361.5 138.5 345 138.5 325 L 138.5 175 C 138.5 155 155 138.5 175 138.5 L 325 138.5 C 345 138.5 361.5 155 361.5 175 L 361.5 325 C 361.5 345 345 361.5 325 361.5 Z "/>
<path style=" stroke:none;fill-rule:nonzero;fill:#472B29;fill-opacity:1;" d="M 325 142 C 343 142 358 157 358 175 L 358 325 C 358 343 343 358 325 358 L 175 358 C 157 358 142 343 142 325 L 142 175 C 142 157 157 142 175 142 L 325 142 M 325 135 L 175 135 C 153 135 135 153 135 175 L 135 325 C 135 347 153 365 175 365 L 325 365 C 347 365 365 347 365 325 L 365 175 C 365 153 347 135 325 135 Z "/>
<path style=" stroke:none;fill-rule:nonzero;fill:#FDFCEE;fill-opacity:1;" d="M 342.5 239.5 L 342.5 320 C 342.5 332.5 332.5 342.5 320 342.5 L 180 342.5 C 167.5 342.5 157.5 332.5 157.5 320 L 157.5 180 C 157.5 167.5 167.5 157.5 180 157.5 L 320 157.5 C 332.5 157.5 342.5 167.5 342.5 180 L 342.5 239.5 "/>
<path style=" stroke:none;fill-rule:nonzero;fill:#472B29;fill-opacity:1;" d="M 342.5 237 C 341 237 340 236 340 234.5 L 340 215 C 340 213.5 341 212.5 342.5 212.5 C 344 212.5 345 213.5 345 215 L 345 234.5 C 345 236 344 237 342.5 237 Z "/>
<path style=" stroke:none;fill-rule:nonzero;fill:#472B29;fill-opacity:1;" d="M 342.5 202.5 C 341 202.5 340 201.5 340 200 L 340 190 C 340 188.5 341 187.5 342.5 187.5 C 344 187.5 345 188.5 345 190 L 345 200 C 345 201.5 344 202.5 342.5 202.5 Z "/>
<path style=" stroke:none;fill-rule:nonzero;fill:#472B29;fill-opacity:1;" d="M 320 345 L 180 345 C 166 345 155 334 155 320 L 155 180 C 155 166 166 155 180 155 L 307 155 C 308.5 155 309.5 156 309.5 157.5 C 309.5 159 308.5 160 307 160 L 180 160 C 169 160 160 169 160 180 L 160 320 C 160 331 169 340 180 340 L 320 340 C 331 340 340 331 340 320 L 340 248 C 340 246.5 341 245.5 342.5 245.5 C 344 245.5 345 246.5 345 248 L 345 320 C 345 334 334 345 320 345 Z "/>
<path style=" stroke:none;fill-rule:nonzero;fill:#F2F0E7;fill-opacity:1;" d="M 286.5 302.5 L 216 302.5 C 207.5 302.5 200 295.5 200 286.5 L 200 218.5 C 200 210 207 202.5 216 202.5 L 287 202.5 C 295.5 202.5 303 209.5 303 218.5 L 303 287 C 302.5 295.5 295.5 302.5 286.5 302.5 Z "/>
<path style=" stroke:none;fill-rule:nonzero;fill:#F76976;fill-opacity:1;" d="M 286.5 203 L 216 203 C 207.5 203 200 210 200 219 L 200 232.5 L 302.5 232.5 L 302.5 219 C 302.5 210.5 295.5 203 286.5 203 Z "/>
<path style=" stroke:none;fill-rule:nonzero;fill:#472B29;fill-opacity:1;" d="M 286.5 305 L 213.5 305 C 203 305 195 297 195 286.5 L 195 218.5 C 195 208.5 203.5 200 213.5 200 L 286 200 C 296.5 200 304.5 208 304.5 218.5 L 304.5 287 C 305 297 296.5 305 286.5 305 Z M 213.5 205 C 206 205 200 211 200 218.5 L 200 287 C 200 294.5 206 300.5 213.5 300.5 L 286 300.5 C 293.5 300.5 299.5 294.5 299.5 287 L 299.5 218.5 C 299.5 211 293.5 205 286 205 Z "/>
<path style=" stroke:none;fill-rule:nonzero;fill:#CDCBBD;fill-opacity:1;" d="M 221 258 C 221 250.5 228 247.5 234.5 247.5 C 241.5 247.5 249 250.5 249 259 C 249 268 242.5 269.5 235 269.5 C 232 269.5 227.5 270.5 227.5 274 L 227.5 277 L 249.5 277 L 249.5 283 L 221 283 C 221 280 221 277 221 273.5 C 221 265.5 228.5 263 235.5 263 C 238 263 243 262.5 243 258.5 C 243 254.5 239.5 253 235 253 C 231.5 253 228 255 228 258 Z "/>
<path style=" stroke:none;fill-rule:nonzero;fill:#472B29;fill-opacity:1;" d="M 249.5 284.5 L 221 284.5 C 220.5 284.5 219.5 284 219.5 283 L 219.5 273.5 C 219.5 266 225.5 261.5 235 261.5 C 239 261.5 241.5 260.5 241.5 258 C 241.5 254 237 253.5 234.5 253.5 C 231.5 253.5 228.5 255 228.5 257 C 228.5 257.5 228 258 227 258 L 220.5 258 C 220 258 220 258 219.5 257.5 C 219.5 257.5 219 257 219 256.5 C 219 248.5 226.5 244.5 234 244.5 C 241.5 244.5 250 248 250 257 C 250 267.5 241 269 234.5 269 C 233 269 228 269 228 272.5 L 228 274.5 L 248.5 274.5 C 249 274.5 250 275 250 276 L 250 282 C 250.5 284 250 284.5 249.5 284.5 Z M 222 282 L 248 282 L 248 278.5 L 227.5 278.5 C 227 278.5 226 278 226 277 L 226 274 C 226 270.5 229.5 268 235 268 C 244 268 248 265 248 258.5 C 248 249 237.5 248.5 234.5 248.5 C 229 248.5 223 251 222 256.5 L 226 256.5 C 227 253.5 230.5 251.5 234 251.5 C 239.5 251.5 243.5 254 243.5 258.5 C 243.5 260.5 242.5 264.5 234.5 264.5 C 229.5 264.5 221.5 265.5 221.5 274 L 221.5 282 Z "/>
<path style=" stroke:none;fill-rule:nonzero;fill:#CDCBBD;fill-opacity:1;" d="M 279.5 254.5 L 260.5 254.5 L 260.5 260.5 L 267.5 260.5 C 275 260.5 281.5 263.5 281.5 272 C 281.5 280 275 284 267.5 284 C 260 284 253 281 253 273 L 260 273 C 260 277 264.5 278 267.5 278 C 270.5 278 275 276.5 275 272.5 C 275 268.5 271 267.5 267.5 267.5 L 254 267.5 C 254 261 254 255 254 249 L 279.5 249 Z "/>
<path style=" stroke:none;fill-rule:nonzero;fill:#472B29;fill-opacity:1;" d="M 268 285 C 258 285 252.5 280.5 252.5 272.5 C 252.5 272 252.5 272 253 271.5 C 253 271.5 253.5 271 254 271 L 260 271 C 260.5 271 261.5 271.5 261.5 272.5 C 261.5 276 266.5 276 268 276 C 270 276 274 275 274 271.5 C 274 270.5 273.5 270 273 269 C 272 268 270 267.5 267.5 267.5 L 254 267.5 C 253.5 267.5 252.5 267 252.5 266 L 252.5 247.5 C 252.5 247 253 246 254 246 L 279.5 246 C 280 246 281 246.5 281 247.5 L 281 253.5 C 281 254 281 254 280.5 254.5 C 280 255 280 255 279.5 255 L 262 255 L 262 258.5 L 267.5 258.5 C 271 258.5 276.5 259 279.5 262.5 C 281.5 264.5 282.5 267.5 282.5 271 C 283 281 275.5 285 268 285 Z M 254.5 274 C 255 281 262 282.5 267.5 282.5 C 273.5 282.5 280 279 280 272 C 280 269 279 267 277.5 265.5 C 275.5 263.5 271.5 262 267 262 L 260 262 C 259.5 262 258.5 261.5 258.5 260.5 L 258.5 254.5 C 258.5 254 259 253 260 253 L 278 253 L 278 249 L 255 249 L 255 265 L 267 265 C 269 265 272.5 265.5 274 267.5 C 275 268.5 275.5 270 275.5 271.5 C 275.5 276.5 271 278.5 267 278.5 C 262 278.5 259 276.5 258 273.5 L 254.5 273.5 Z "/>
<path style=" stroke:none;fill-rule:nonzero;fill:#472B29;fill-opacity:1;" d="M 252.5 235 L 197.5 235 C 196 235 195 234 195 232.5 C 195 231 196 230 197.5 230 L 252.5 230 C 254 230 255 231 255 232.5 C 255 234 254 235 252.5 235 Z "/>
<path style=" stroke:none;fill-rule:nonzero;fill:#472B29;fill-opacity:1;" d="M 302.5 235 L 293.5 235 C 292 235 291 234 291 232.5 C 291 231 292 230 293.5 230 L 302.5 230 C 304 230 305 231 305 232.5 C 305 234 304 235 302.5 235 Z "/>
<path style=" stroke:none;fill-rule:nonzero;fill:#472B29;fill-opacity:1;" d="M 282.5 235 L 262.5 235 C 261 235 260 234 260 232.5 C 260 231 261 230 262.5 230 L 282.5 230 C 284 230 285 231 285 232.5 C 285 234 284 235 282.5 235 Z "/>
<path style=" stroke:none;fill-rule:nonzero;fill:#472B29;fill-opacity:1;" d="M 227.5 215 C 226 215 225 214 225 212.5 L 225 192.5 C 225 191 226 190 227.5 190 C 229 190 230 191 230 192.5 L 230 212.5 C 230 214 229 215 227.5 215 Z "/>
<path style=" stroke:none;fill-rule:nonzero;fill:#472B29;fill-opacity:1;" d="M 272.5 215 C 271 215 270 214 270 212.5 L 270 192.5 C 270 191 271 190 272.5 190 C 274 190 275 191 275 192.5 L 275 212.5 C 275 214 274 215 272.5 215 Z "/>
</g>
</svg>
