<?xml version="1.0" encoding="UTF-8"?>
<svg xmlns="http://www.w3.org/2000/svg" xmlns:xlink="http://www.w3.org/1999/xlink" width="500pt" height="500pt" viewBox="0 0 500 500" version="1.1">
<g id="surface1">
<path style=" stroke:none;fill-rule:nonzero;fill:#000000;fill-opacity:1;" d="M 119.046875 0 C 108.195313 0 99.207031 8.992188 99.207031 19.839844 L 99.207031 39.683594 L 39.683594 39.683594 C 28.171875 39.683594 19.839844 48.015625 19.839844 59.523438 L 19.839844 128.96875 L 476.191406 128.96875 L 476.191406 59.523438 C 476.191406 48.015625 467.859375 39.683594 456.347656 39.683594 L 396.824219 39.683594 L 396.824219 19.839844 C 396.824219 8.992188 387.835938 0 376.984375 0 L 357.144531 0 C 346.292969 0 337.300781 8.992188 337.300781 19.839844 L 337.300781 39.683594 L 158.730469 39.683594 L 158.730469 19.839844 C 158.730469 8.992188 149.738281 0 138.890625 0 Z M 119.046875 19.839844 L 138.890625 19.839844 L 138.890625 79.363281 L 119.046875 79.363281 Z M 357.144531 19.839844 L 376.984375 19.839844 L 376.984375 79.363281 L 357.144531 79.363281 Z M 19.839844 148.808594 L 19.839844 456.347656 C 19.839844 467.316406 28.714844 476.191406 39.683594 476.191406 L 337.574219 476.191406 C 354.121094 488.589844 374.582031 496.03125 396.824219 496.03125 C 451.542969 496.03125 496.03125 451.542969 496.03125 396.824219 C 496.03125 374.582031 488.589844 354.121094 476.191406 337.574219 L 476.191406 148.808594 Z M 119.046875 208.332031 L 168.652344 208.332031 L 168.652344 257.9375 L 119.046875 257.9375 Z M 188.492188 208.332031 L 238.09375 208.332031 L 238.09375 257.9375 L 188.492188 257.9375 Z M 257.9375 208.332031 L 307.539063 208.332031 L 307.539063 257.9375 L 257.9375 257.9375 Z M 327.382813 208.332031 L 376.984375 208.332031 L 376.984375 257.9375 L 327.382813 257.9375 Z M 119.046875 277.777344 L 168.652344 277.777344 L 168.652344 327.382813 L 119.046875 327.382813 Z M 188.492188 277.777344 L 238.09375 277.777344 L 238.09375 327.382813 L 188.492188 327.382813 Z M 257.9375 277.777344 L 307.539063 277.777344 L 307.539063 327.382813 L 257.9375 327.382813 Z M 327.382813 277.777344 L 376.984375 277.777344 L 376.984375 299.632813 C 357.878906 303.507813 340.789063 312.925781 327.382813 326.101563 Z M 396.824219 317.460938 C 440.578125 317.460938 476.191406 353.074219 476.191406 396.824219 C 476.191406 440.578125 440.578125 476.191406 396.824219 476.191406 C 353.074219 476.191406 317.460938 440.578125 317.460938 396.824219 C 317.460938 353.074219 353.074219 317.460938 396.824219 317.460938 Z M 396.824219 338.269531 C 390.859375 338.269531 386.90625 342.261719 386.90625 348.191406 L 386.90625 386.90625 L 348.191406 386.90625 C 342.261719 386.90625 338.269531 390.859375 338.269531 396.824219 C 338.269531 402.792969 342.261719 406.746094 348.191406 406.746094 L 386.90625 406.746094 L 386.90625 445.460938 C 386.90625 451.390625 390.859375 455.378906 396.824219 455.378906 C 402.792969 455.378906 406.746094 451.390625 406.746094 445.460938 L 406.746094 406.746094 L 445.460938 406.746094 C 451.390625 406.746094 455.378906 402.792969 455.378906 396.824219 C 455.378906 390.859375 451.390625 386.90625 445.460938 386.90625 L 406.746094 386.90625 L 406.746094 348.191406 C 406.746094 342.261719 402.792969 338.269531 396.824219 338.269531 Z M 119.046875 347.222656 L 168.652344 347.222656 L 168.652344 396.824219 L 119.046875 396.824219 Z M 188.492188 347.222656 L 238.09375 347.222656 L 238.09375 396.824219 L 188.492188 396.824219 Z M 257.9375 347.222656 L 307.539063 347.222656 L 307.539063 353.886719 C 301.261719 366.871094 297.617188 381.441406 297.617188 396.824219 L 257.9375 396.824219 Z "/>
</g>
</svg>
