<?xml version="1.0" encoding="UTF-8"?>
<svg xmlns="http://www.w3.org/2000/svg" xmlns:xlink="http://www.w3.org/1999/xlink" width="480pt" height="480pt" viewBox="0 0 480 480" version="1.1">
<g id="surface1">
<path style="fill:none;stroke-width:2;stroke-linecap:butt;stroke-linejoin:miter;stroke:#4788C7;stroke-opacity:1;stroke-miterlimit:4;" d="M 5 5 L 9 9 " transform="matrix(12,0,0,12,0,0)"/>
<path style=" stroke:none;fill-rule:nonzero;fill:#DFF0FE;fill-opacity:1;" d="M 34.824219 135.335938 C 11.160156 107.339844 12.515625 65.269531 38.890625 38.890625 C 52.355469 25.414063 70.273438 18 89.328125 18 C 106.355469 18 122.484375 23.941406 135.335938 34.824219 Z "/>
<path style=" stroke:none;fill-rule:nonzero;fill:#4788C7;fill-opacity:1;" d="M 89.328125 24 C 102.707031 24 115.476563 27.996094 126.265625 35.425781 L 35.4375 126.253906 C 17.988281 100.824219 20.554688 65.699219 43.128906 43.128906 C 55.476563 30.792969 71.878906 24 89.328125 24 M 89.328125 12 C 69.539063 12 49.753906 19.546875 34.644531 34.644531 C 4.453125 64.835938 4.453125 113.796875 34.644531 144 L 144 34.644531 C 128.902344 19.546875 109.117188 12 89.328125 12 Z "/>
<path style=" stroke:none;fill-rule:nonzero;fill:#DFF0FE;fill-opacity:1;" d="M 210 42 L 210 24 C 210 14.074219 218.074219 6 228 6 L 252 6 C 261.925781 6 270 14.074219 270 24 L 270 42 Z "/>
<path style=" stroke:none;fill-rule:nonzero;fill:#4788C7;fill-opacity:1;" d="M 252 12 C 258.613281 12 264 17.386719 264 24 L 264 36 L 216 36 L 216 24 C 216 17.386719 221.386719 12 228 12 L 252 12 M 252 0 L 228 0 C 214.738281 0 204 10.738281 204 24 L 204 48 L 276 48 L 276 24 C 276 10.738281 265.261719 0 252 0 Z "/>
<path style="fill:none;stroke-width:2;stroke-linecap:butt;stroke-linejoin:miter;stroke:#4788C7;stroke-opacity:1;stroke-miterlimit:4;" d="M 35 5 L 31 9 " transform="matrix(12,0,0,12,0,0)"/>
<path style="fill:none;stroke-width:2;stroke-linecap:round;stroke-linejoin:miter;stroke:#4788C7;stroke-opacity:1;stroke-miterlimit:4;" d="M 33 38 L 27.526042 32.526042 " transform="matrix(12,0,0,12,0,0)"/>
<path style="fill:none;stroke-width:2;stroke-linecap:round;stroke-linejoin:miter;stroke:#4788C7;stroke-opacity:1;stroke-miterlimit:4;" d="M 7 38 L 12.473958 32.526042 " transform="matrix(12,0,0,12,0,0)"/>
<path style=" stroke:none;fill-rule:nonzero;fill:#98CCFD;fill-opacity:1;" d="M 240 462 C 124.210938 462 30 367.789063 30 252 C 30 136.210938 124.210938 42 240 42 C 355.789063 42 450 136.210938 450 252 C 450 367.789063 355.789063 462 240 462 Z "/>
<path style=" stroke:none;fill-rule:nonzero;fill:#4788C7;fill-opacity:1;" d="M 240 48 C 352.488281 48 444 139.511719 444 252 C 444 364.488281 352.488281 456 240 456 C 127.511719 456 36 364.488281 36 252 C 36 139.511719 127.511719 48 240 48 M 240 36 C 120.707031 36 24 132.707031 24 252 C 24 371.292969 120.707031 468 240 468 C 359.292969 468 456 371.292969 456 252 C 456 132.707031 359.292969 36 240 36 Z "/>
<path style=" stroke:none;fill-rule:nonzero;fill:#FFFFFF;fill-opacity:1;" d="M 240 426 C 144.058594 426 66 347.941406 66 252 C 66 156.058594 144.058594 78 240 78 C 335.941406 78 414 156.058594 414 252 C 414 347.941406 335.941406 426 240 426 Z "/>
<path style=" stroke:none;fill-rule:nonzero;fill:#4788C7;fill-opacity:1;" d="M 240 84 C 332.640625 84 408 159.359375 408 252 C 408 344.640625 332.640625 420 240 420 C 147.359375 420 72 344.640625 72 252 C 72 159.359375 147.359375 84 240 84 M 240 72 C 140.59375 72 60 152.59375 60 252 C 60 351.40625 140.59375 432 240 432 C 339.40625 432 420 351.40625 420 252 C 420 152.59375 339.40625 72 240 72 Z "/>
<path style=" stroke:none;fill-rule:nonzero;fill:#DFF0FE;fill-opacity:1;" d="M 344.664063 34.824219 C 357.515625 23.941406 373.644531 18 390.683594 18 C 409.726563 18 427.644531 25.414063 441.121094 38.890625 C 467.496094 65.269531 468.851563 107.351563 445.1875 135.347656 Z "/>
<path style=" stroke:none;fill-rule:nonzero;fill:#4788C7;fill-opacity:1;" d="M 390.671875 24 C 408.121094 24 424.523438 30.792969 436.859375 43.128906 C 459.433594 65.699219 462 100.8125 444.5625 126.238281 L 353.734375 35.410156 C 364.535156 27.996094 377.292969 24 390.671875 24 M 390.671875 12 C 370.882813 12 351.097656 19.546875 336 34.644531 L 445.355469 144 C 475.546875 113.808594 475.546875 64.847656 445.355469 34.644531 C 430.246094 19.546875 410.460938 12 390.671875 12 Z "/>
<path style="fill:none;stroke-width:2;stroke-linecap:round;stroke-linejoin:miter;stroke:#4788C7;stroke-opacity:1;stroke-miterlimit:4;" d="M 23 11 L 20 21 L 25.5 26.5 " transform="matrix(12,0,0,12,0,0)"/>
<path style="fill:none;stroke-width:1;stroke-linecap:round;stroke-linejoin:miter;stroke:#98CCFD;stroke-opacity:1;stroke-miterlimit:4;" d="M 20 21 L 12.5 28.5 " transform="matrix(12,0,0,12,0,0)"/>
<path style=" stroke:none;fill-rule:nonzero;fill:#4788C7;fill-opacity:1;" d="M 264 252 C 264 265.253906 253.253906 276 240 276 C 226.746094 276 216 265.253906 216 252 C 216 238.746094 226.746094 228 240 228 C 253.253906 228 264 238.746094 264 252 Z "/>
</g>
</svg>
