<?xml version="1.0" encoding="UTF-8"?>
<svg xmlns="http://www.w3.org/2000/svg" xmlns:xlink="http://www.w3.org/1999/xlink" width="512pt" height="512pt" viewBox="0 0 512 512" version="1.1">
<g id="surface1">
<path style=" stroke:none;fill-rule:nonzero;fill:#000000;fill-opacity:1;" d="M 204.390625 56.859375 C 203.59375 56.890625 202.796875 57 202 57.203125 C 162.40625 66.796875 126 87.59375 97.203125 116.390625 C 92.40625 121.203125 92.40625 128.796875 97.203125 133.203125 C 99.609375 135.609375 102.796875 136.796875 105.609375 136.796875 C 108.40625 136.796875 112 135.609375 114 133.203125 C 140 107.203125 172 89.203125 207.609375 80.390625 C 214 78.796875 218 72.40625 216.390625 66 C 215 60.40625 209.921875 56.640625 204.390625 56.859375 Z M 307.609375 56.859375 C 302.078125 56.640625 297 60.40625 295.609375 66 C 294 72.40625 298 78.796875 304.390625 80.390625 C 339.59375 89.203125 372 107.203125 398 133.203125 C 400.40625 135.609375 403.59375 136.796875 406.40625 136.796875 C 409.203125 136.796875 412.390625 135.609375 414.796875 133.203125 C 419.59375 128.40625 419.59375 120.796875 414.796875 116.390625 C 386 87.59375 349.59375 66.796875 310 57.203125 C 309.203125 57 308.40625 56.890625 307.609375 56.859375 Z M 256.390625 110.390625 C 214.203125 110.390625 172 126.390625 140 158.390625 C 78.40625 220 75.609375 318 131.609375 382.796875 L 99.609375 415.59375 C 94.796875 420.40625 95.203125 428 100 432.40625 C 102.40625 434.796875 105.203125 436 108.390625 436 C 111.59375 436 114.796875 434.796875 116.796875 432.40625 L 148.796875 399.609375 C 178.796875 425.59375 216.390625 439.59375 256.390625 439.59375 C 296.390625 439.59375 334.390625 425.203125 364.390625 399.203125 L 400.40625 432.40625 C 402.796875 434.40625 405.59375 435.59375 408.40625 435.59375 C 411.59375 435.59375 414.796875 434.40625 417.203125 431.59375 C 421.609375 426.796875 421.59375 419.203125 416.40625 414.796875 L 381.203125 382 C 406.796875 352 421.203125 314.390625 421.203125 274.796875 C 421.203125 230.796875 404 189.59375 372.796875 158.390625 C 340.796875 126.390625 298.59375 110.390625 256.390625 110.390625 Z M 256 134.390625 C 292 134.390625 328 148 355.609375 175.609375 C 382 202 396.796875 237.609375 396.796875 275.203125 C 396.796875 312.796875 382 348 355.609375 374.796875 C 329.203125 401.203125 293.59375 416 256 416 C 218.40625 416 183.203125 401.203125 156.390625 374.796875 C 101.59375 319.59375 101.59375 230.40625 156.796875 175.609375 C 184 148 220 134.390625 256 134.390625 Z M 256 191.609375 C 249.203125 191.609375 244 196.796875 244 203.609375 L 244 275.203125 C 244 281.609375 249.203125 287.203125 256 287.203125 L 314.390625 287.203125 C 321.203125 287.203125 326.390625 282 326.390625 275.203125 C 326.390625 268.40625 321.203125 263.203125 314.390625 263.203125 L 268 263.203125 L 268 203.609375 C 268 196.796875 262.796875 191.609375 256 191.609375 Z "/>
</g>
</svg>
