<?xml version="1.0" encoding="UTF-8"?>
<svg xmlns="http://www.w3.org/2000/svg" xmlns:xlink="http://www.w3.org/1999/xlink" width="512pt" height="512pt" viewBox="0 0 512 512" version="1.1">
<g id="surface1">
<path style=" stroke:none;fill-rule:nonzero;fill:#000000;fill-opacity:1;" d="M 237.65625 56 C 231.03125 56 225 59.65625 222.3125 65.25 L 213.625 90.875 C 171.1875 100.71875 137.9375 135.8125 132.34375 180.1875 L 117.34375 290.4375 C 116.125 300.15625 111.4375 309.3125 107.53125 316.21875 L 76 371.71875 C 71.125 378.96875 70.65625 387.875 74.8125 395.71875 C 79 403.40625 86.75 408 95.53125 408 L 200.625 408 C 204.53125 435.09375 227.84375 456 256 456 C 284.15625 456 307.46875 435.09375 311.375 408 L 416.46875 408 C 425.25 408 433 403.40625 437.25 395.59375 C 441.34375 387.875 440.90625 378.96875 436.34375 372.21875 L 404.5 316.1875 C 400.5625 309.3125 395.90625 300.15625 394.65625 290.375 L 379.6875 180.25 C 374.09375 135.8125 340.8125 100.71875 298.375 90.875 L 290.03125 66.15625 L 289.65625 65.25 C 286.96875 59.65625 280.9375 56 274.34375 56 Z M 237.65625 72 L 274.34375 72 C 274.78125 72 275.0625 72.125 275.15625 72.15625 L 280.625 88.28125 C 278.5 88.15625 276.375 88 274.21875 88 L 237.78125 88 C 235.625 88 233.5 88.15625 231.375 88.28125 L 236.8125 72.1875 C 236.96875 72.125 237.25 72 237.65625 72 Z M 40.28125 72.03125 C 37.1875 71.71875 34.03125 73.25 32.4375 76.15625 C -9.5 152.8125 -9.625 247.71875 32.15625 323.84375 C 33.59375 326.5 36.34375 328 39.1875 328 C 40.46875 328 41.8125 327.6875 43.03125 327 C 46.90625 324.875 48.3125 320.03125 46.1875 316.15625 C 7 244.78125 7.125 155.75 46.5 83.84375 C 48.625 79.96875 47.1875 75.09375 43.3125 73 C 42.34375 72.4375 41.3125 72.125 40.28125 72.03125 Z M 471.78125 72.03125 C 470.75 72.125 469.75 72.4375 468.75 73 C 464.90625 75.09375 463.46875 79.96875 465.59375 83.84375 C 505.3125 156.5625 505.34375 245.5625 465.71875 316.09375 C 463.5625 319.9375 464.90625 324.8125 468.75 326.96875 C 470 327.65625 471.375 328 472.6875 328 C 475.5 328 478.1875 326.53125 479.65625 323.90625 C 521.96875 248.625 521.96875 153.6875 479.625 76.1875 C 478.03125 73.28125 474.90625 71.71875 471.78125 72.03125 Z M 81.34375 96.03125 C 78.21875 95.71875 75.09375 97.25 73.5 100.15625 C 56.8125 130.59375 48 165.125 48 200 C 48 234.875 56.8125 269.40625 73.5 299.84375 C 74.96875 302.5 77.6875 304 80.53125 304 C 81.84375 304 83.15625 303.6875 84.375 303 C 88.25 300.875 89.65625 296.03125 87.53125 292.15625 C 72.125 264.0625 64 232.1875 64 200 C 64 167.8125 72.125 135.9375 87.53125 107.84375 C 89.65625 103.96875 88.25 99.125 84.375 97 C 83.40625 96.46875 82.375 96.15625 81.34375 96.03125 Z M 430.65625 96.03125 C 429.625 96.15625 428.59375 96.46875 427.625 97 C 423.75 99.125 422.34375 103.96875 424.46875 107.84375 C 439.875 135.9375 448 167.8125 448 200 C 448 232.1875 439.875 264.0625 424.46875 292.15625 C 422.34375 296.03125 423.75 300.875 427.625 303 C 428.84375 303.6875 430.15625 304 431.46875 304 C 434.28125 304 437.03125 302.5 438.5 299.84375 C 455.1875 269.40625 464 234.875 464 200 C 464 165.125 455.1875 130.59375 438.5 100.15625 C 436.90625 97.25 433.78125 95.71875 430.65625 96.03125 Z M 237.78125 104 L 274.21875 104 C 319.65625 104 358.1875 137.65625 363.8125 182.34375 L 378.78125 292.4375 C 380.375 304.9375 385.9375 315.9375 390.59375 324.125 L 422.75 380.625 C 424.28125 382.90625 424.40625 385.65625 423.125 388.09375 C 421.75 390.59375 419.34375 392 416.46875 392 L 95.53125 392 C 92.65625 392 90.25 390.5625 88.90625 388.09375 C 87.59375 385.625 87.71875 382.9375 89.59375 380.125 L 119.28125 327.875 C 119.53125 327.875 119.75 328 120 328 L 288 328 C 292.40625 328 296 324.40625 296 320 C 296 315.59375 292.40625 312 288 312 L 127.5 312 C 130.09375 306.125 132.3125 299.59375 133.21875 292.5 L 148.21875 182.25 C 153.8125 137.65625 192.34375 104 237.78125 104 Z M 272 128 C 267.59375 128 264 131.59375 264 136 C 264 140.40625 267.59375 144 272 144 L 274.21875 144 C 283.28125 144 292.15625 146.4375 299.9375 151 C 301.21875 151.78125 302.59375 152.125 304 152.125 C 306.71875 152.125 309.40625 150.71875 310.875 148.15625 C 313.125 144.375 311.875 139.46875 308.0625 137.21875 C 297.8125 131.1875 286.125 128 274.21875 128 Z M 325.84375 160 C 324.8125 160.09375 323.75 160.375 322.75 160.875 C 318.8125 162.84375 317.21875 167.65625 319.21875 171.59375 C 321.25 175.625 322.75 180.28125 323.625 185.375 C 324.34375 189.28125 327.71875 192 331.5 192 C 331.96875 192 332.4375 191.96875 332.90625 191.875 C 337.25 191.09375 340.1875 186.96875 339.40625 182.625 C 338.21875 175.96875 336.25 169.84375 333.5 164.40625 C 332.03125 161.4375 328.96875 159.8125 325.84375 160 Z M 320 312 C 315.59375 312 312 315.59375 312 320 C 312 324.40625 315.59375 328 320 328 L 360 328 C 364.40625 328 368 324.40625 368 320 C 368 315.59375 364.40625 312 360 312 Z M 136 344 C 131.59375 344 128 347.59375 128 352 L 128 368 C 128 372.40625 131.59375 376 136 376 C 140.40625 376 144 372.40625 144 368 L 144 352 C 144 347.59375 140.40625 344 136 344 Z M 176 344 C 171.59375 344 168 347.59375 168 352 L 168 368 C 168 372.40625 171.59375 376 176 376 C 180.40625 376 184 372.40625 184 368 L 184 352 C 184 347.59375 180.40625 344 176 344 Z M 216 344 C 211.59375 344 208 347.59375 208 352 L 208 368 C 208 372.40625 211.59375 376 216 376 C 220.40625 376 224 372.40625 224 368 L 224 352 C 224 347.59375 220.40625 344 216 344 Z M 256 344 C 251.59375 344 248 347.59375 248 352 L 248 368 C 248 372.40625 251.59375 376 256 376 C 260.40625 376 264 372.40625 264 368 L 264 352 C 264 347.59375 260.40625 344 256 344 Z M 296 344 C 291.59375 344 288 347.59375 288 352 L 288 368 C 288 372.40625 291.59375 376 296 376 C 300.40625 376 304 372.40625 304 368 L 304 352 C 304 347.59375 300.40625 344 296 344 Z M 336 344 C 331.59375 344 328 347.59375 328 352 L 328 368 C 328 372.40625 331.59375 376 336 376 C 340.40625 376 344 372.40625 344 368 L 344 352 C 344 347.59375 340.40625 344 336 344 Z M 376 344 C 371.59375 344 368 347.59375 368 352 L 368 368 C 368 372.40625 371.59375 376 376 376 C 380.40625 376 384 372.40625 384 368 L 384 352 C 384 347.59375 380.40625 344 376 344 Z M 216.8125 408 L 295.1875 408 C 291.46875 426.21875 275.3125 440 256 440 C 236.6875 440 220.53125 426.21875 216.8125 408 Z "/>
</g>
</svg>
