<?xml version="1.0" encoding="UTF-8"?>
<svg xmlns="http://www.w3.org/2000/svg" xmlns:xlink="http://www.w3.org/1999/xlink" width="500pt" height="500pt" viewBox="0 0 500 500" version="1.1">
<g id="surface1">
<path style=" stroke:none;fill-rule:nonzero;fill:#000000;fill-opacity:1;" d="M 319.628906 20.460938 L 311.878906 23.5625 L 283.976563 34.414063 L 276.226563 37.511719 L 278.085938 45.574219 L 283.976563 75.335938 C 281.070313 78.242188 277.972656 81.652344 274.675781 85.253906 L 245.226563 78.746094 L 237.164063 76.886719 L 234.066406 84.324219 L 221.972656 112.226563 L 218.875 119.667969 L 225.695313 124.316406 L 251.117188 141.367188 C 250.804688 146.214844 250.84375 151.097656 251.117188 155.941406 L 225.074219 172.0625 L 217.945313 176.402344 L 221.042969 184.152344 L 231.894531 212.054688 L 234.996094 219.804688 L 243.054688 217.945313 L 272.816406 212.054688 C 275.839844 215.65625 279.171875 218.914063 282.738281 221.972656 L 275.917969 251.734375 L 274.058594 259.796875 L 281.808594 263.207031 L 309.710938 274.988281 L 317.148438 278.085938 L 321.800781 271.265625 L 338.851563 245.847656 C 343.695313 246.15625 348.578125 246.117188 353.421875 245.847656 L 369.542969 272.199219 L 373.882813 279.019531 L 381.632813 276.226563 L 417.285156 261.964844 L 415.425781 253.90625 L 408.605469 221.355469 C 412.328125 218.214844 415.699219 214.84375 418.835938 211.125 L 448.910156 218.875 L 457.277344 221.042969 L 460.378906 213.292969 L 472.46875 185.390625 L 475.878906 177.640625 L 468.441406 172.992188 L 442.398438 157.179688 C 442.707031 152.335938 442.667969 147.453125 442.398438 142.609375 L 468.441406 126.488281 L 475.570313 122.148438 L 472.46875 114.398438 L 461.621094 86.496094 L 458.519531 78.746094 L 450.148438 80.605469 L 419.765625 87.425781 C 416.746094 83.820313 413.410156 80.566406 409.847656 77.503906 L 416.355469 47.742188 L 418.214844 39.683594 L 410.777344 36.582031 L 382.875 24.492188 L 375.125 21.390625 L 370.472656 28.523438 L 354.664063 53.632813 C 350.089844 53.167969 345.128906 53.59375 340.089844 53.945313 L 323.972656 27.589844 Z M 311.261719 44.953125 L 325.832031 68.824219 L 329.550781 74.714844 L 336.371094 73.164063 C 343.386719 71.613281 350.011719 72.46875 359.003906 73.476563 L 365.203125 74.09375 L 368.613281 68.824219 L 382.875 46.191406 L 395.273438 51.464844 L 389.074219 78.125 L 387.523438 84.636719 L 393.105469 88.355469 C 399.1875 92.695313 404.265625 97.773438 408.605469 103.855469 L 412.328125 109.4375 L 418.835938 107.886719 L 446.117188 101.6875 L 451.078125 114.085938 L 427.207031 128.347656 L 421.9375 131.757813 L 422.558594 137.957031 C 423.488281 146.25 423.488281 153.226563 422.558594 161.519531 L 421.9375 167.722656 L 427.207031 171.132813 L 450.769531 185.703125 L 445.808594 197.484375 L 418.214844 190.664063 L 411.394531 189.113281 L 407.675781 194.691406 C 403.335938 200.777344 398.257813 205.851563 392.175781 210.195313 L 386.90625 213.914063 L 388.144531 220.425781 L 394.34375 249.875 L 381.945313 254.527344 L 367.683594 230.964844 L 364.273438 225.695313 L 358.074219 226.316406 C 349.78125 227.246094 342.804688 227.246094 334.511719 226.316406 L 328.3125 225.695313 L 325.210938 230.65625 L 310.019531 253.597656 L 297.308594 248.015625 L 303.199219 221.355469 L 304.75 215.152344 L 299.480469 211.125 C 293.394531 206.785156 288.320313 201.707031 283.976563 195.621094 L 280.257813 190.351563 L 273.746094 191.59375 L 247.085938 197.171875 L 242.433594 184.773438 L 265.996094 170.199219 L 271.578125 166.789063 L 270.648438 160.589844 C 269.71875 152.296875 269.71875 145.320313 270.648438 137.027344 L 271.578125 131.136719 L 266.308594 127.726563 L 243.367188 112.539063 L 248.636719 99.828125 L 275.609375 106.027344 L 281.496094 107.265625 L 285.21875 102.617188 C 290.875 96.027344 296.6875 90.214844 301.648438 85.253906 L 305.371094 81.535156 L 304.441406 76.574219 L 298.859375 49.914063 Z M 347.222656 99.207031 C 319.941406 99.207031 297.617188 121.527344 297.617188 148.808594 C 297.617188 176.089844 319.941406 198.414063 347.222656 198.414063 C 374.503906 198.414063 396.824219 176.089844 396.824219 148.808594 C 396.824219 121.527344 374.503906 99.207031 347.222656 99.207031 Z M 347.222656 119.046875 C 363.769531 119.046875 376.984375 132.261719 376.984375 148.808594 C 376.984375 165.355469 363.769531 178.570313 347.222656 178.570313 C 330.675781 178.570313 317.460938 165.355469 317.460938 148.808594 C 317.460938 132.261719 330.675781 119.046875 347.222656 119.046875 Z M 134.238281 198.414063 L 133 206.785156 L 128.039063 239.023438 C 122.652344 240.730469 117.457031 243.210938 112.539063 245.847656 L 78.433594 221.042969 L 43.710938 255.765625 L 48.363281 262.585938 L 67.273438 289.867188 C 64.601563 295.175781 62.238281 300.488281 60.453125 305.679688 L 27.902344 311.570313 L 19.839844 313.121094 L 19.839844 361.484375 L 27.902344 363.035156 L 60.453125 368.921875 C 62.199219 374.347656 64.601563 379.425781 67.273438 384.425781 L 47.742188 410.777344 L 42.472656 417.597656 L 77.195313 452.320313 L 84.015625 447.667969 L 111.296875 428.757813 C 116.605469 431.429688 121.914063 433.796875 127.109375 435.578125 L 132.070313 467.820313 L 133.308594 476.191406 L 181.980469 476.191406 L 183.222656 468.128906 L 189.421875 435.578125 C 194.808594 433.871094 200 431.394531 204.921875 428.757813 L 239.023438 453.558594 L 273.746094 418.835938 L 269.097656 412.015625 L 249.257813 384.425781 C 251.851563 379.191406 254.332031 374.039063 256.078125 368.921875 L 289.558594 363.035156 L 297.617188 361.484375 L 297.617188 312.808594 L 255.765625 306.609375 C 254.0625 301.261719 251.890625 296.03125 249.257813 291.109375 L 269.097656 263.828125 L 273.746094 257.007813 L 268.167969 251.117188 L 245.226563 227.246094 L 239.335938 221.042969 L 232.203125 226.003906 L 204.921875 245.847656 C 199.691406 243.25 194.539063 240.769531 189.421875 239.023438 L 184.460938 206.785156 L 183.222656 198.414063 Z M 151.289063 218.253906 L 166.171875 218.253906 L 171.75 253.597656 L 177.332031 255.457031 C 186.246094 258.441406 194.578125 261.230469 201.203125 265.378906 L 206.785156 268.789063 L 212.054688 265.066406 L 236.855469 247.085938 L 248.015625 258.867188 L 230.035156 283.976563 L 226.003906 289.25 L 229.726563 294.828125 C 234.179688 301.960938 237.667969 310.214844 239.335938 317.769531 L 240.886719 324.28125 L 247.394531 325.210938 L 277.777344 329.859375 L 277.777344 345.050781 L 247.394531 350.324219 L 241.503906 351.253906 L 239.644531 356.832031 C 236.660156 365.746094 233.871094 374.078125 229.726563 380.703125 L 226.003906 386.285156 L 230.035156 391.554688 L 248.015625 416.667969 L 236.855469 427.515625 L 212.054688 409.535156 L 206.785156 405.816406 L 201.203125 409.226563 C 194.074219 413.683594 185.816406 417.171875 178.261719 418.835938 L 172.0625 420.386719 L 170.820313 426.898438 L 165.550781 456.347656 L 150.359375 456.347656 L 144.777344 421.007813 L 139.199219 419.148438 C 130.285156 416.164063 121.953125 413.371094 115.328125 409.226563 L 109.746094 405.816406 L 104.476563 409.535156 L 79.363281 426.585938 L 68.515625 415.738281 L 86.183594 391.863281 L 90.527344 386.285156 L 86.804688 380.703125 C 82.347656 373.574219 78.859375 365.628906 77.195313 358.074219 L 75.644531 351.5625 L 69.132813 350.324219 L 39.683594 345.050781 L 39.683594 329.550781 L 69.132813 324.28125 L 75.023438 323.039063 L 76.886719 317.769531 C 79.867188 308.855469 82.660156 300.527344 86.804688 293.898438 L 90.214844 288.320313 L 86.496094 283.046875 L 69.445313 257.9375 L 80.605469 247.085938 L 105.40625 265.066406 L 110.675781 268.789063 L 116.257813 265.378906 C 123.386719 260.921875 131.640625 257.433594 139.199219 255.765625 L 145.710938 254.214844 L 146.640625 247.707031 Z M 158.730469 287.699219 C 131.488281 287.699219 109.128906 310.058594 109.128906 337.300781 C 109.128906 364.542969 131.488281 386.90625 158.730469 386.90625 C 185.972656 386.90625 208.332031 364.542969 208.332031 337.300781 C 208.332031 310.058594 185.972656 287.699219 158.730469 287.699219 Z M 158.730469 307.539063 C 175.160156 307.539063 188.492188 320.871094 188.492188 337.300781 C 188.492188 353.734375 175.160156 367.0625 158.730469 367.0625 C 142.300781 367.0625 128.96875 353.734375 128.96875 337.300781 C 128.96875 320.871094 142.300781 307.539063 158.730469 307.539063 Z "/>
</g>
</svg>
