<?xml version="1.0" encoding="UTF-8"?>
<svg xmlns="http://www.w3.org/2000/svg" xmlns:xlink="http://www.w3.org/1999/xlink" width="512pt" height="512pt" viewBox="0 0 512 512" version="1.1">
<g id="surface1">
<path style=" stroke:none;fill-rule:nonzero;fill:#000000;fill-opacity:1;" d="M 96 32 L 96 64 L 80 64 C 53.625 64 32 85.625 32 112 L 32 400 C 32 426.375 53.625 448 80 448 L 400 448 C 426.375 448 448 426.375 448 400 L 448 112 C 448 85.625 426.375 64 400 64 L 384 64 L 384 32 L 352 32 L 352 64 L 128 64 L 128 32 Z M 80 96 L 96 96 L 96 128 L 128 128 L 128 96 L 352 96 L 352 128 L 384 128 L 384 96 L 400 96 C 409 96 416 103 416 112 L 416 160 L 64 160 L 64 112 C 64 103 71 96 80 96 Z M 64 192 L 416 192 L 416 400 C 416 409 409 416 400 416 L 80 416 C 71 416 64 409 64 400 Z M 224 224 L 224 288 L 160 288 L 160 320 L 224 320 L 224 384 L 256 384 L 256 320 L 320 320 L 320 288 L 256 288 L 256 224 Z "/>
</g>
</svg>
