<?xml version="1.0" encoding="UTF-8"?>
<svg xmlns="http://www.w3.org/2000/svg" xmlns:xlink="http://www.w3.org/1999/xlink" width="500pt" height="500pt" viewBox="0 0 500 500" version="1.1">
<g id="surface1">
<path style=" stroke:none;fill-rule:nonzero;fill:#000000;fill-opacity:1;" d="M 119.046875 0 C 108.195313 0 99.207031 8.992188 99.207031 19.839844 L 99.207031 39.683594 L 39.683594 39.683594 C 28.171875 39.683594 19.839844 48.015625 19.839844 59.523438 L 19.839844 128.96875 L 476.191406 128.96875 L 476.191406 59.523438 C 476.191406 48.015625 467.859375 39.683594 456.347656 39.683594 L 396.824219 39.683594 L 396.824219 19.839844 C 396.824219 8.992188 387.835938 0 376.984375 0 L 357.144531 0 C 346.292969 0 337.300781 8.992188 337.300781 19.839844 L 337.300781 39.683594 L 158.730469 39.683594 L 158.730469 19.839844 C 158.730469 8.992188 149.738281 0 138.890625 0 Z M 119.046875 19.839844 L 138.890625 19.839844 L 138.890625 79.363281 L 119.046875 79.363281 Z M 357.144531 19.839844 L 376.984375 19.839844 L 376.984375 79.363281 L 357.144531 79.363281 Z M 19.839844 148.808594 L 19.839844 456.347656 C 19.839844 467.859375 28.171875 476.191406 39.683594 476.191406 L 456.347656 476.191406 C 467.859375 476.191406 476.191406 467.859375 476.191406 456.347656 L 476.191406 148.808594 Z M 119.046875 208.332031 L 168.652344 208.332031 L 168.652344 257.9375 L 119.046875 257.9375 Z M 188.492188 208.332031 L 238.09375 208.332031 L 238.09375 257.9375 L 188.492188 257.9375 Z M 257.9375 208.332031 L 307.539063 208.332031 L 307.539063 257.9375 L 257.9375 257.9375 Z M 327.382813 208.332031 L 376.984375 208.332031 L 376.984375 257.9375 L 327.382813 257.9375 Z M 119.046875 277.777344 L 168.652344 277.777344 L 168.652344 327.382813 L 119.046875 327.382813 Z M 188.492188 277.777344 L 238.09375 277.777344 L 238.09375 327.382813 L 188.492188 327.382813 Z M 257.9375 277.777344 L 307.539063 277.777344 L 307.539063 327.382813 L 257.9375 327.382813 Z M 327.382813 277.777344 L 376.984375 277.777344 L 376.984375 327.382813 L 327.382813 327.382813 Z M 119.046875 347.222656 L 168.652344 347.222656 L 168.652344 396.824219 L 119.046875 396.824219 Z M 188.492188 347.222656 L 238.09375 347.222656 L 238.09375 396.824219 L 188.492188 396.824219 Z M 257.9375 347.222656 L 307.539063 347.222656 L 307.539063 396.824219 L 257.9375 396.824219 Z M 327.382813 347.222656 L 376.984375 347.222656 L 376.984375 396.824219 L 327.382813 396.824219 Z "/>
</g>
</svg>
