<?xml version="1.0" encoding="UTF-8"?>
<svg xmlns="http://www.w3.org/2000/svg" xmlns:xlink="http://www.w3.org/1999/xlink" width="512pt" height="512pt" viewBox="0 0 512 512" version="1.1">
<g id="surface1">
<path style=" stroke:none;fill-rule:nonzero;fill:#000000;fill-opacity:1;" d="M 120 32 C 106.78125 32 96 42.78125 96 56 L 96 80 L 56 80 C 42.40625 80 32 91.125 32 104.09375 L 32 439.65625 C 32 452.625 42.40625 463.75 56 463.75 L 440 463.75 C 453.59375 463.75 464 452.625 464 439.65625 L 464 104.09375 C 464 91.125 453.59375 80 440 80 L 400 80 L 400 56 C 400 42.78125 389.21875 32 376 32 C 362.78125 32 352 42.78125 352 56 L 352 80 L 272 80 L 272 56 C 272 42.78125 261.21875 32 248 32 C 234.78125 32 224 42.78125 224 56 L 224 80 L 144 80 L 144 56 C 144 42.78125 133.21875 32 120 32 Z M 120 48 C 124.40625 48 128 51.59375 128 56 L 128 120 C 128 124.40625 124.40625 128 120 128 C 115.59375 128 112 124.40625 112 120 L 112 56 C 112 51.59375 115.59375 48 120 48 Z M 248 48 C 252.40625 48 256 51.59375 256 56 L 256 120 C 256 124.40625 252.40625 128 248 128 C 243.59375 128 240 124.40625 240 120 L 240 56 C 240 51.59375 243.59375 48 248 48 Z M 376 48 C 380.40625 48 384 51.59375 384 56 L 384 120 C 384 124.40625 380.40625 128 376 128 C 371.59375 128 368 124.40625 368 120 L 368 56 C 368 51.59375 371.59375 48 376 48 Z M 56 95.75 L 96 95.75 L 96 120 C 96 133.21875 106.78125 144 120 144 C 133.21875 144 144 133.21875 144 120 L 144 95.75 L 224 95.75 L 224 120 C 224 133.21875 234.78125 144 248 144 C 261.21875 144 272 133.21875 272 120 L 272 95.75 L 352 95.75 L 352 120 C 352 133.21875 362.78125 144 376 144 C 389.21875 144 400 133.21875 400 120 L 400 95.75 L 440 95.75 C 444.8125 95.75 448 99.4375 448 104.09375 L 448 160 C 443.1875 160 440 163.5625 440 168 L 440 184 C 440 188.4375 443.1875 192 448 192 L 448 439.65625 C 448 444.28125 444.8125 448 440 448 L 56 448 C 51.1875 448 48 444.28125 48 439.65625 L 48 192 C 52.8125 192 56 188.4375 56 184 L 56 168 C 56 163.5625 52.8125 160 48 160 L 48 104.09375 C 48 99.4375 51.1875 95.75 56 95.75 Z M 88 160 C 83.1875 160 80 163.5625 80 168 L 80 184 C 80 188.40625 83.1875 192 88 192 C 92.8125 192 96 188.4375 96 184 L 96 168 C 96 163.5625 92.8125 160 88 160 Z M 128 160 C 123.1875 160 120 163.5625 120 168 L 120 184 C 120 188.40625 123.1875 192 128 192 C 132.8125 192 136 188.4375 136 184 L 136 168 C 136 163.5625 132.8125 160 128 160 Z M 168 160 C 163.1875 160 160 163.5625 160 168 L 160 184 C 160 188.40625 163.1875 192 168 192 C 172.8125 192 176 188.4375 176 184 L 176 168 C 176 163.5625 172.8125 160 168 160 Z M 208 160 C 203.1875 160 200 163.5625 200 168 L 200 184 C 200 188.40625 203.1875 192 208 192 C 212.8125 192 216 188.4375 216 184 L 216 168 C 216 163.5625 212.8125 160 208 160 Z M 248 160 C 243.1875 160 240 163.5625 240 168 L 240 184 C 240 188.40625 243.1875 192 248 192 C 252.8125 192 256 188.4375 256 184 L 256 168 C 256 163.5625 252.8125 160 248 160 Z M 288 160 C 283.1875 160 280 163.5625 280 168 L 280 184 C 280 188.40625 283.1875 192 288 192 C 292.8125 192 296 188.4375 296 184 L 296 168 C 296 163.5625 292.8125 160 288 160 Z M 328 160 C 323.1875 160 320 163.5625 320 168 L 320 184 C 320 188.40625 323.1875 192 328 192 C 332.8125 192 336 188.4375 336 184 L 336 168 C 336 163.5625 332.8125 160 328 160 Z M 368 160 C 363.1875 160 360 163.5625 360 168 L 360 184 C 360 188.40625 363.1875 192 368 192 C 372.8125 192 376 188.4375 376 184 L 376 168 C 376 163.5625 372.8125 160 368 160 Z M 408 160 C 403.1875 160 400 163.5625 400 168 L 400 184 C 400 188.40625 403.1875 192 408 192 C 412.8125 192 416 188.4375 416 184 L 416 168 C 416 163.5625 412.8125 160 408 160 Z M 248 216 C 243.59375 216 240 219.59375 240 224 L 240 288 L 176 288 C 171.59375 288 168 291.59375 168 296 C 168 300.40625 171.59375 304 176 304 L 240 304 L 240 368 C 240 372.40625 243.59375 376 248 376 C 252.40625 376 256 372.40625 256 368 L 256 304 L 320 304 C 324.40625 304 328 300.40625 328 296 C 328 291.59375 324.40625 288 320 288 L 256 288 L 256 224 C 256 219.59375 252.40625 216 248 216 Z M 72 400 C 67.59375 400 64 403.59375 64 408 C 64 412.40625 67.59375 416 72 416 L 424 416 C 428.40625 416 432 412.40625 432 408 C 432 403.59375 428.40625 400 424 400 Z "/>
</g>
</svg>
