<?xml version="1.0" encoding="UTF-8"?>
<svg xmlns="http://www.w3.org/2000/svg" xmlns:xlink="http://www.w3.org/1999/xlink" width="512pt" height="512pt" viewBox="0 0 512 512" version="1.1">
<g id="surface1">
<path style=" stroke:none;fill-rule:nonzero;fill:#000000;fill-opacity:1;" d="M 256 64 C 174.1875 64 105.875 114.5625 78 186 L 107.5 198 C 130.8125 138.25 187.375 96 256 96 C 307.875 96 354.125 121.4375 383 160 L 320 160 L 320 192 L 432 192 L 432 80 L 400 80 L 400 129.5 C 364.9375 89.3125 313.125 64 256 64 Z M 404.5 314 C 381.1875 373.75 324.625 416 256 416 C 203.5625 416 157.5 390.1875 128.5 352 L 192 352 L 192 320 L 80 320 L 80 432 L 112 432 L 112 382.5 C 147 422.1875 198.3125 448 256 448 C 337.8125 448 406.125 397.4375 434 326 Z "/>
</g>
</svg>
