<?xml version="1.0" encoding="UTF-8"?>
<svg xmlns="http://www.w3.org/2000/svg" xmlns:xlink="http://www.w3.org/1999/xlink" width="500pt" height="500pt" viewBox="0 0 500 500" version="1.1">
<g id="surface1">
<path style=" stroke:none;fill-rule:nonzero;fill:#EE3E54;fill-opacity:1;" d="M 75 145 C 75 150.523438 70.523438 155 65 155 C 59.476563 155 55 150.523438 55 145 C 55 139.476563 59.476563 135 65 135 C 70.523438 135 75 139.476563 75 145 Z "/>
<path style=" stroke:none;fill-rule:nonzero;fill:#F1BC19;fill-opacity:1;" d="M 390 65 C 390 67.761719 387.761719 70 385 70 C 382.238281 70 380 67.761719 380 65 C 380 62.238281 382.238281 60 385 60 C 387.761719 60 390 62.238281 390 65 Z "/>
<path style=" stroke:none;fill-rule:nonzero;fill:#FCE0A2;fill-opacity:1;" d="M 435 250 C 435 352.171875 352.171875 435 250 435 C 147.828125 435 65 352.171875 65 250 C 65 147.828125 147.828125 65 250 65 C 352.171875 65 435 147.828125 435 250 Z "/>
<path style=" stroke:none;fill-rule:nonzero;fill:#F1BC19;fill-opacity:1;" d="M 435 75 C 435 86.046875 426.046875 95 415 95 C 403.953125 95 395 86.046875 395 75 C 395 63.953125 403.953125 55 415 55 C 426.046875 55 435 63.953125 435 75 Z "/>
<path style=" stroke:none;fill-rule:nonzero;fill:#EE3E54;fill-opacity:1;" d="M 445 120 C 445 125.523438 440.523438 130 435 130 C 429.476563 130 425 125.523438 425 120 C 425 114.476563 429.476563 110 435 110 C 440.523438 110 445 114.476563 445 120 Z "/>
<path style=" stroke:none;fill-rule:nonzero;fill:#FBCD59;fill-opacity:1;" d="M 415 380 C 415 385.523438 410.523438 390 405 390 C 399.476563 390 395 385.523438 395 380 C 395 374.476563 399.476563 370 405 370 C 410.523438 370 415 374.476563 415 380 Z "/>
<path style=" stroke:none;fill-rule:nonzero;fill:#FBCD59;fill-opacity:1;" d="M 95 315 C 95 326.046875 86.046875 335 75 335 C 63.953125 335 55 326.046875 55 315 C 55 303.953125 63.953125 295 75 295 C 86.046875 295 95 303.953125 95 315 Z "/>
<path style=" stroke:none;fill-rule:nonzero;fill:#EE3E54;fill-opacity:1;" d="M 135 435 C 135 440.523438 130.523438 445 125 445 C 119.476563 445 115 440.523438 115 435 C 115 429.476563 119.476563 425 125 425 C 130.523438 425 135 429.476563 135 435 Z "/>
<path style=" stroke:none;fill-rule:nonzero;fill:#FFFFFF;fill-opacity:1;" d="M 105 267.5 C 105 274.402344 99.402344 280 92.5 280 C 85.597656 280 80 274.402344 80 267.5 C 80 260.597656 85.597656 255 92.5 255 C 99.402344 255 105 260.597656 105 267.5 Z "/>
<path style=" stroke:none;fill-rule:nonzero;fill:#F1BC19;fill-opacity:1;" d="M 110 335 C 110 337.761719 107.761719 340 105 340 C 102.238281 340 100 337.761719 100 335 C 100 332.238281 102.238281 330 105 330 C 107.761719 330 110 332.238281 110 335 Z "/>
<path style=" stroke:none;fill-rule:nonzero;fill:#FFFFFF;fill-opacity:1;" d="M 405 170 C 405 172.761719 402.761719 175 400 175 C 397.238281 175 395 172.761719 395 170 C 395 167.238281 397.238281 165 400 165 C 402.761719 165 405 167.238281 405 170 Z "/>
<path style=" stroke:none;fill-rule:nonzero;fill:#A9C439;fill-opacity:1;" d="M 175 361.5 C 154.875 361.5 138.5 345.128906 138.5 325 L 138.5 175 C 138.5 154.875 154.871094 138.5 175 138.5 L 325 138.5 C 345.125 138.5 361.5 154.871094 361.5 175 L 361.5 325 C 361.5 345.125 345.128906 361.5 325 361.5 Z "/>
<path style=" stroke:none;fill-rule:nonzero;fill:#472B29;fill-opacity:1;" d="M 325 142 C 343.195313 142 358 156.804688 358 175 L 358 325 C 358 343.195313 343.195313 358 325 358 L 175 358 C 156.804688 358 142 343.195313 142 325 L 142 175 C 142 156.804688 156.804688 142 175 142 L 325 142 M 325 135 L 175 135 C 153 135 135 153 135 175 L 135 325 C 135 347 153 365 175 365 L 325 365 C 347 365 365 347 365 325 L 365 175 C 365 153 347 135 325 135 Z "/>
<path style=" stroke:none;fill-rule:nonzero;fill:#FDFCEE;fill-opacity:1;" d="M 311.953125 345 L 188.046875 345 C 169.871094 345 155 330.128906 155 311.953125 L 155 188.046875 C 155 169.871094 169.871094 155 188.046875 155 L 311.960938 155 C 330.128906 155 345 169.871094 345 188.046875 L 345 311.960938 C 345 330.128906 330.128906 345 311.953125 345 Z "/>
<path style=" stroke:none;fill-rule:nonzero;fill:#472B29;fill-opacity:1;" d="M 342.5 236.875 C 341.121094 236.875 340 235.753906 340 234.375 L 340 215 C 340 213.621094 341.121094 212.5 342.5 212.5 C 343.878906 212.5 345 213.621094 345 215 L 345 234.375 C 345 235.753906 343.878906 236.875 342.5 236.875 Z "/>
<path style=" stroke:none;fill-rule:nonzero;fill:#472B29;fill-opacity:1;" d="M 342.5 202.5 C 341.121094 202.5 340 201.378906 340 200 L 340 190 C 340 188.621094 341.121094 187.5 342.5 187.5 C 343.878906 187.5 345 188.621094 345 190 L 345 200 C 345 201.378906 343.878906 202.5 342.5 202.5 Z "/>
<path style=" stroke:none;fill-rule:nonzero;fill:#472B29;fill-opacity:1;" d="M 320 345 L 180 345 C 166.214844 345 155 333.785156 155 320 L 155 180 C 155 166.214844 166.214844 155 180 155 L 306.875 155 C 308.253906 155 309.375 156.121094 309.375 157.5 C 309.375 158.878906 308.253906 160 306.875 160 L 180 160 C 168.96875 160 160 168.96875 160 180 L 160 320 C 160 331.03125 168.96875 340 180 340 L 320 340 C 331.03125 340 340 331.03125 340 320 L 340 248.125 C 340 246.746094 341.121094 245.625 342.5 245.625 C 343.878906 245.625 345 246.746094 345 248.125 L 345 320 C 345 333.785156 333.785156 345 320 345 Z "/>
<path style=" stroke:none;fill-rule:nonzero;fill:#F1BC19;fill-opacity:1;" d="M 296 275.894531 L 291.710938 237.835938 C 291.710938 215.941406 273.796875 198.023438 251.898438 198.023438 L 248.109375 198.023438 C 226.214844 198.023438 208.300781 215.941406 208.300781 237.835938 L 204.011719 275.894531 C 199.503906 275.894531 195.824219 279.578125 195.824219 284.078125 C 195.824219 288.585938 199.511719 292.265625 204.011719 292.265625 L 296.003906 292.265625 C 300.511719 292.265625 304.191406 288.578125 304.191406 284.078125 C 304.183594 279.578125 300.5 275.894531 296 275.894531 Z "/>
<path style=" stroke:none;fill-rule:nonzero;fill:#472B29;fill-opacity:1;" d="M 296 294.144531 L 204 294.144531 C 198.453125 294.144531 193.941406 289.628906 193.941406 284.078125 C 193.941406 279.109375 197.566406 274.96875 202.308594 274.160156 L 206.429688 237.625 C 206.421875 214.851563 225.113281 196.148438 248.101563 196.148438 L 251.890625 196.148438 C 274.875 196.148438 293.574219 214.851563 293.574219 237.835938 L 297.683594 274.160156 C 302.429688 274.964844 306.054688 279.109375 306.054688 284.078125 C 306.058594 289.628906 301.546875 294.144531 296 294.144531 Z M 248.101563 199.898438 C 227.179688 199.898438 210.164063 216.914063 210.164063 237.835938 L 205.859375 276.105469 C 205.753906 277.050781 204.949219 277.769531 203.996094 277.769531 C 200.515625 277.769531 197.683594 280.601563 197.683594 284.078125 C 197.683594 287.558594 200.515625 290.394531 203.996094 290.394531 L 295.988281 290.394531 C 299.46875 290.394531 302.300781 287.566406 302.300781 284.078125 C 302.300781 280.601563 299.46875 277.769531 295.988281 277.769531 C 295.035156 277.769531 294.234375 277.050781 294.125 276.105469 L 289.835938 238.046875 C 289.824219 216.914063 272.804688 199.898438 251.890625 199.898438 Z "/>
<path style=" stroke:none;fill-rule:nonzero;fill:#FBCD59;fill-opacity:1;" d="M 257.65625 196.976563 C 257.050781 193.289063 253.859375 190.476563 250.003906 190.476563 C 246.148438 190.476563 242.960938 193.289063 242.355469 196.976563 Z "/>
<path style=" stroke:none;fill-rule:nonzero;fill:#472B29;fill-opacity:1;" d="M 257.648438 198.230469 L 242.34375 198.230469 C 241.980469 198.230469 241.628906 198.070313 241.394531 197.789063 C 241.15625 197.511719 241.054688 197.140625 241.113281 196.78125 C 241.835938 192.40625 245.570313 189.230469 250 189.230469 C 254.433594 189.230469 258.171875 192.40625 258.886719 196.78125 C 258.945313 197.144531 258.839844 197.511719 258.605469 197.796875 C 258.363281 198.066406 258.019531 198.230469 257.648438 198.230469 Z M 243.996094 195.730469 L 256.003906 195.730469 C 255.019531 193.339844 252.683594 191.730469 250 191.730469 C 247.316406 191.730469 244.984375 193.339844 243.996094 195.730469 Z "/>
<path style=" stroke:none;fill-rule:nonzero;fill:#FBCD59;fill-opacity:1;" d="M 234.589844 293.316406 C 235.484375 301.039063 242.039063 307.035156 250.003906 307.035156 C 257.96875 307.035156 264.523438 301.035156 265.421875 293.316406 Z "/>
<path style=" stroke:none;fill-rule:nonzero;fill:#472B29;fill-opacity:1;" d="M 250 308.910156 C 241.171875 308.910156 233.746094 302.300781 232.726563 293.53125 C 232.664063 293 232.828125 292.46875 233.191406 292.070313 C 233.546875 291.671875 234.054688 291.445313 234.589844 291.445313 L 265.421875 291.445313 C 265.953125 291.445313 266.464844 291.675781 266.820313 292.070313 C 267.175781 292.46875 267.34375 293.003906 267.285156 293.53125 C 266.261719 302.300781 258.835938 308.910156 250 308.910156 Z M 236.859375 295.191406 C 238.476563 301 243.796875 305.160156 250 305.160156 C 256.203125 305.160156 261.53125 301 263.144531 295.191406 Z "/>
<path style=" stroke:none;fill-rule:nonzero;fill:#472B29;fill-opacity:1;" d="M 280.800781 277.34375 L 275.070313 277.34375 C 274.378906 277.34375 273.820313 276.785156 273.820313 276.09375 C 273.820313 275.40625 274.378906 274.84375 275.070313 274.84375 L 280.800781 274.84375 C 281.488281 274.84375 282.050781 275.40625 282.050781 276.09375 C 282.050781 276.785156 281.496094 277.34375 280.800781 277.34375 Z "/>
<path style=" stroke:none;fill-rule:nonzero;fill:#472B29;fill-opacity:1;" d="M 270.265625 277.34375 L 268.980469 277.34375 C 268.289063 277.34375 267.730469 276.785156 267.730469 276.09375 C 267.730469 275.40625 268.289063 274.84375 268.980469 274.84375 L 270.265625 274.84375 C 270.953125 274.84375 271.515625 275.40625 271.515625 276.09375 C 271.515625 276.785156 270.953125 277.34375 270.265625 277.34375 Z "/>
<path style=" stroke:none;fill-rule:nonzero;fill:#472B29;fill-opacity:1;" d="M 264.851563 277.34375 L 203.894531 277.34375 C 203.203125 277.34375 202.644531 276.785156 202.644531 276.09375 C 202.644531 275.40625 203.203125 274.84375 203.894531 274.84375 L 264.851563 274.84375 C 265.539063 274.84375 266.101563 275.40625 266.101563 276.09375 C 266.101563 276.785156 265.539063 277.34375 264.851563 277.34375 Z "/>
</g>
</svg>
