<?xml version="1.0" encoding="UTF-8"?>
<svg xmlns="http://www.w3.org/2000/svg" xmlns:xlink="http://www.w3.org/1999/xlink" width="480pt" height="480pt" viewBox="0 0 480 480" version="1.1">
<g id="surface1">
<path style=" stroke:none;fill-rule:nonzero;fill:#CFD8DC;fill-opacity:1;" d="M 50 380 L 50 140 L 430 140 L 430 380 C 430 402 412 420 390 420 L 90 420 C 68 420 50 402 50 380 Z "/>
<path style=" stroke:none;fill-rule:nonzero;fill:#F44336;fill-opacity:1;" d="M 430 100 L 430 160 L 50 160 L 50 100 C 50 78 68 60 90 60 L 390 60 C 412 60 430 78 430 100 Z "/>
<path style=" stroke:none;fill-rule:nonzero;fill:#B71C1C;fill-opacity:1;" d="M 360 100 C 360 116.570313 346.570313 130 330 130 C 313.429688 130 300 116.570313 300 100 C 300 83.429688 313.429688 70 330 70 C 346.570313 70 360 83.429688 360 100 Z "/>
<path style=" stroke:none;fill-rule:nonzero;fill:#B71C1C;fill-opacity:1;" d="M 180 100 C 180 116.570313 166.570313 130 150 130 C 133.429688 130 120 116.570313 120 100 C 120 83.429688 133.429688 70 150 70 C 166.570313 70 180 83.429688 180 100 Z "/>
<path style=" stroke:none;fill-rule:nonzero;fill:#B0BEC5;fill-opacity:1;" d="M 330 30 C 319 30 310 39 310 50 L 310 100 C 310 111 319 120 330 120 C 341 120 350 111 350 100 L 350 50 C 350 39 341 30 330 30 Z "/>
<path style=" stroke:none;fill-rule:nonzero;fill:#B0BEC5;fill-opacity:1;" d="M 150 30 C 139 30 130 39 130 50 L 130 100 C 130 111 139 120 150 120 C 161 120 170 111 170 100 L 170 50 C 170 39 161 30 150 30 Z "/>
<path style=" stroke:none;fill-rule:nonzero;fill:#90A4AE;fill-opacity:1;" d="M 130 200 L 170 200 L 170 240 L 130 240 Z "/>
<path style=" stroke:none;fill-rule:nonzero;fill:#90A4AE;fill-opacity:1;" d="M 190 200 L 230 200 L 230 240 L 190 240 Z "/>
<path style=" stroke:none;fill-rule:nonzero;fill:#90A4AE;fill-opacity:1;" d="M 250 200 L 290 200 L 290 240 L 250 240 Z "/>
<path style=" stroke:none;fill-rule:nonzero;fill:#90A4AE;fill-opacity:1;" d="M 310 200 L 350 200 L 350 240 L 310 240 Z "/>
<path style=" stroke:none;fill-rule:nonzero;fill:#90A4AE;fill-opacity:1;" d="M 130 260 L 170 260 L 170 300 L 130 300 Z "/>
<path style=" stroke:none;fill-rule:nonzero;fill:#90A4AE;fill-opacity:1;" d="M 190 260 L 230 260 L 230 300 L 190 300 Z "/>
<path style=" stroke:none;fill-rule:nonzero;fill:#90A4AE;fill-opacity:1;" d="M 250 260 L 290 260 L 290 300 L 250 300 Z "/>
<path style=" stroke:none;fill-rule:nonzero;fill:#90A4AE;fill-opacity:1;" d="M 310 260 L 350 260 L 350 300 L 310 300 Z "/>
<path style=" stroke:none;fill-rule:nonzero;fill:#90A4AE;fill-opacity:1;" d="M 130 320 L 170 320 L 170 360 L 130 360 Z "/>
<path style=" stroke:none;fill-rule:nonzero;fill:#90A4AE;fill-opacity:1;" d="M 190 320 L 230 320 L 230 360 L 190 360 Z "/>
<path style=" stroke:none;fill-rule:nonzero;fill:#90A4AE;fill-opacity:1;" d="M 250 320 L 290 320 L 290 360 L 250 360 Z "/>
<path style=" stroke:none;fill-rule:nonzero;fill:#90A4AE;fill-opacity:1;" d="M 310 320 L 350 320 L 350 360 L 310 360 Z "/>
</g>
</svg>
