<?xml version="1.0" encoding="UTF-8"?>
<svg xmlns="http://www.w3.org/2000/svg" xmlns:xlink="http://www.w3.org/1999/xlink" width="480pt" height="480pt" viewBox="0 0 480 480" version="1.1">
<g id="surface1">
<path style=" stroke:none;fill-rule:nonzero;fill:#37474F;fill-opacity:1;" d="M 385 446 L 345 406 L 366 385 L 406 425 C 412 431 412 440 406 446 C 401 451 391 451 385 446 Z "/>
<path style=" stroke:none;fill-rule:nonzero;fill:#37474F;fill-opacity:1;" d="M 95 446 L 135 406 L 114 385 L 74 425 C 68 431 68 440 74 446 C 79 451 89 451 95 446 Z "/>
<path style=" stroke:none;fill-rule:nonzero;fill:#C62828;fill-opacity:1;" d="M 440 240 C 440 350.457031 350.457031 440 240 440 C 129.542969 440 40 350.457031 40 240 C 40 129.542969 129.542969 40 240 40 C 350.457031 40 440 129.542969 440 240 Z "/>
<path style=" stroke:none;fill-rule:nonzero;fill:#EEEEEE;fill-opacity:1;" d="M 400 240 C 400 328.367188 328.367188 400 240 400 C 151.632813 400 80 328.367188 80 240 C 80 151.632813 151.632813 80 240 80 C 328.367188 80 400 151.632813 400 240 Z "/>
<path style=" stroke:none;fill-rule:nonzero;fill:#E53935;fill-opacity:1;" d="M 150.957031 334.753906 L 145.300781 329.097656 L 237.222656 237.175781 L 242.882813 242.832031 Z "/>
<path style=" stroke:none;fill-rule:nonzero;fill:#000000;fill-opacity:1;" d="M 230 110 L 250 110 L 250 240 L 230 240 Z "/>
<path style=" stroke:none;fill-rule:nonzero;fill:#000000;fill-opacity:1;" d="M 312.808594 296.542969 L 296.542969 312.804688 L 231.492188 247.75 L 247.753906 231.488281 Z "/>
<path style=" stroke:none;fill-rule:nonzero;fill:#000000;fill-opacity:1;" d="M 260 240 C 260 251.046875 251.046875 260 240 260 C 228.953125 260 220 251.046875 220 240 C 220 228.953125 228.953125 220 240 220 C 251.046875 220 260 228.953125 260 240 Z "/>
<path style=" stroke:none;fill-rule:nonzero;fill:#C62828;fill-opacity:1;" d="M 250 240 C 250 245.523438 245.523438 250 240 250 C 234.476563 250 230 245.523438 230 240 C 230 234.476563 234.476563 230 240 230 C 245.523438 230 250 234.476563 250 240 Z "/>
<path style=" stroke:none;fill-rule:nonzero;fill:#37474F;fill-opacity:1;" d="M 220 10 L 260 10 L 260 40 L 220 40 Z "/>
<path style=" stroke:none;fill-rule:nonzero;fill:#37474F;fill-opacity:1;" d="M 444 162 C 469 127 465 78 434 47 C 403 16 354 12 319 37 Z "/>
<path style=" stroke:none;fill-rule:nonzero;fill:#37474F;fill-opacity:1;" d="M 36 162 C 11 127 15 78 46 47 C 77 16 126 12 161 37 Z "/>
</g>
</svg>
