<?xml version="1.0" encoding="UTF-8"?>
<svg xmlns="http://www.w3.org/2000/svg" xmlns:xlink="http://www.w3.org/1999/xlink" width="512pt" height="512pt" viewBox="0 0 512 512" version="1.1">
<g id="surface1">
<path style=" stroke:none;fill-rule:nonzero;fill:#49A0AE;fill-opacity:1;" d="M 7.898438 256 C 7.898438 119 119 7.898438 256 7.898438 C 393 7.898438 504.101563 119 504.101563 256 C 504.101563 393 393 504.101563 256 504.101563 C 119 504.101563 7.898438 393 7.898438 256 Z "/>
<path style=" stroke:none;fill-rule:nonzero;fill:#F06668;fill-opacity:1;" d="M 117 302.898438 C 117 224.398438 180.699219 160.699219 259.199219 160.699219 C 337.699219 160.699219 401.398438 224.398438 401.398438 302.898438 C 401.398438 381.5 337.699219 445.101563 259.199219 445.101563 C 180.699219 445.101563 117 381.5 117 302.898438 Z "/>
<path style=" stroke:none;fill-rule:nonzero;fill:#F6A2A3;fill-opacity:1;" d="M 130.699219 302.898438 C 130.699219 231.898438 188.199219 174.398438 259.199219 174.398438 C 330.199219 174.398438 387.699219 231.898438 387.699219 302.898438 C 387.699219 373.898438 330.199219 431.398438 259.199219 431.398438 C 188.199219 431.398438 130.699219 373.898438 130.699219 302.898438 Z "/>
<path style=" stroke:none;fill-rule:nonzero;fill:#E9E9EA;fill-opacity:1;" d="M 137 302.898438 C 137 237 191.699219 183.5 259.199219 183.5 C 326.699219 183.5 381.398438 237 381.398438 302.898438 C 381.398438 368.800781 326.699219 422.300781 259.199219 422.300781 C 191.699219 422.300781 137 368.898438 137 302.898438 Z "/>
<path style=" stroke:none;fill-rule:nonzero;fill:#626463;fill-opacity:1;" d="M 246.199219 287.898438 C 253.898438 280.199219 266.398438 280.199219 274.101563 287.898438 C 281.800781 295.601563 281.800781 308.101563 274.101563 315.800781 C 266.398438 323.5 253.898438 323.5 246.199219 315.800781 C 238.5 308.101563 238.5 295.601563 246.199219 287.898438 Z "/>
<path style=" stroke:none;fill-rule:nonzero;fill:#626463;fill-opacity:1;" d="M 261.398438 305.101563 C 259.800781 306.699219 257.199219 306.699219 255.601563 305.101563 C 254 303.5 254 300.898438 255.601563 299.300781 L 308.101563 246.800781 C 309.699219 245.199219 312.300781 245.199219 313.898438 246.800781 C 315.5 248.398438 315.5 251 313.898438 252.601563 Z "/>
<path style=" stroke:none;fill-rule:nonzero;fill:#626463;fill-opacity:1;" d="M 255.601563 304.5 C 254 302.898438 254 300.300781 255.601563 298.699219 C 257.199219 297.101563 259.800781 297.101563 261.398438 298.699219 L 327.898438 365.199219 C 329.5 366.800781 329.5 369.398438 327.898438 371 C 326.300781 372.601563 323.699219 372.601563 322.101563 371 Z "/>
<path style=" stroke:none;fill-rule:nonzero;fill:#626463;fill-opacity:1;" d="M 187.101563 187.699219 C 189.300781 190 186.601563 196.300781 181 201.898438 C 175.398438 207.5 169 210.199219 166.800781 208 L 143.800781 185 C 141.601563 182.699219 144.300781 176.398438 149.898438 170.800781 C 155.5 165.199219 161.898438 162.5 164.101563 164.699219 Z "/>
<path style=" stroke:none;fill-rule:nonzero;fill:#626463;fill-opacity:1;" d="M 273.300781 165.800781 C 273.300781 169 266.898438 171.601563 259 171.601563 C 251.101563 171.601563 244.601563 169 244.601563 165.800781 L 244.601563 133.300781 C 244.601563 130.101563 251 127.5 259 127.5 C 266.898438 127.5 273.300781 130.101563 273.300781 133.300781 Z "/>
<path style=" stroke:none;fill-rule:nonzero;fill:#626463;fill-opacity:1;" d="M 275.199219 125.398438 C 278.398438 125.398438 281 128.800781 281 133.101563 C 281 137.300781 278.398438 140.800781 275.199219 140.800781 L 242.699219 140.800781 C 239.5 140.800781 236.898438 137.398438 236.898438 133.101563 C 236.898438 128.800781 239.5 125.398438 242.699219 125.398438 Z "/>
<path style=" stroke:none;fill-rule:nonzero;fill:#626463;fill-opacity:1;" d="M 352 208.101563 C 349.800781 210.300781 343.398438 207.601563 337.800781 202 C 332.199219 196.398438 329.5 190 331.699219 187.800781 L 354.699219 164.800781 C 357 162.601563 363.300781 165.300781 368.898438 170.898438 C 374.5 176.5 377.199219 182.898438 375 185.101563 Z "/>
<path style=" stroke:none;fill-rule:nonzero;fill:#626463;fill-opacity:1;" d="M 375.199219 420.300781 C 377.398438 422.601563 374.699219 428.898438 369.101563 434.5 C 363.5 440.101563 357.101563 442.800781 354.898438 440.601563 L 331.898438 417.601563 C 329.601563 415.398438 332.398438 409 338 403.398438 C 343.601563 397.800781 350 395.101563 352.199219 397.300781 Z "/>
<path style=" stroke:none;fill-rule:nonzero;fill:#626463;fill-opacity:1;" d="M 161.699219 440.199219 C 159.5 442.5 153.101563 439.699219 147.5 434.101563 C 141.898438 428.5 139.199219 422.101563 141.398438 419.898438 L 164.398438 396.898438 C 166.601563 394.601563 173 397.398438 178.601563 403 C 184.199219 408.601563 186.898438 415 184.699219 417.199219 Z "/>
<path style=" stroke:none;fill-rule:nonzero;fill:#DB4A4B;fill-opacity:1;" d="M 190.699219 132.101563 C 214.199219 154.898438 131.601563 240.199219 108.101563 217.300781 C 84.601563 194.5 84 156.898438 106.800781 133.398438 C 129.601563 109.898438 167.101563 109.300781 190.699219 132.101563 Z "/>
<path style=" stroke:none;fill-rule:nonzero;fill:#DB4A4B;fill-opacity:1;" d="M 411.300781 216.601563 C 388.5 240.101563 303.199219 157.5 326.101563 134 C 348.898438 110.5 386.5 109.898438 410 132.699219 C 433.5 155.5 434.101563 193 411.300781 216.601563 Z "/>
<path style=" stroke:none;fill-rule:nonzero;fill:#626463;fill-opacity:1;" d="M 126.699219 136.800781 C 126.699219 144.398438 120.601563 150.5 113 150.5 C 105.398438 150.5 99.300781 144.398438 99.300781 136.800781 C 99.300781 129.199219 105.398438 123.101563 113 123.101563 C 120.601563 123.101563 126.699219 129.300781 126.699219 136.800781 Z "/>
<path style=" stroke:none;fill-rule:nonzero;fill:#626463;fill-opacity:1;" d="M 406.199219 130.898438 C 393.898438 130.898438 379.300781 118.199219 362.5 103.398438 C 336.601563 80.800781 304.398438 52.601563 260 52.601563 C 259.898438 52.601563 259.800781 52.601563 259.699219 52.601563 C 259.601563 52.601563 259.5 52.601563 259.398438 52.601563 C 215 52.601563 182.699219 80.800781 156.898438 103.398438 C 140.101563 118.101563 125.5 130.898438 113.199219 130.898438 C 109.898438 130.898438 107.300781 133.5 107.300781 136.800781 C 107.300781 140.101563 109.898438 142.699219 113.199219 142.699219 C 129.898438 142.699219 146 128.601563 164.601563 112.300781 C 190.300781 89.800781 219.398438 64.398438 259.398438 64.398438 C 259.5 64.398438 259.601563 64.398438 259.699219 64.398438 C 259.800781 64.398438 259.898438 64.398438 260 64.398438 C 300 64.398438 329.101563 89.898438 354.800781 112.300781 C 373.398438 128.601563 389.5 142.699219 406.199219 142.699219 C 409.398438 142.699219 412.101563 140.101563 412.101563 136.800781 C 412.101563 133.601563 409.398438 130.898438 406.199219 130.898438 Z "/>
<path style=" stroke:none;fill-rule:nonzero;fill:#626463;fill-opacity:1;" d="M 392.5 136.800781 C 392.5 144.398438 398.601563 150.5 406.199219 150.5 C 413.800781 150.5 419.898438 144.398438 419.898438 136.800781 C 419.898438 129.199219 413.800781 123.101563 406.199219 123.101563 C 398.601563 123.101563 392.5 129.300781 392.5 136.800781 Z "/>
</g>
</svg>
