<?xml version="1.0" encoding="UTF-8"?>
<svg xmlns="http://www.w3.org/2000/svg" xmlns:xlink="http://www.w3.org/1999/xlink" width="500pt" height="500pt" viewBox="0 0 500 500" version="1.1">
<g id="surface1">
<path style=" stroke:none;fill-rule:nonzero;fill:#C7EDE6;fill-opacity:1;" d="M 442.46875 279.988281 C 443.964844 276.921875 445.285156 273.695313 446.429688 270.316406 C 459.539063 231.621094 439.714844 185.273438 397.964844 174.089844 C 393.449219 117.398438 353.613281 78.515625 308.628906 71.878906 C 257.140625 64.285156 209.964844 97 194.269531 148.988281 C 175.351563 142.289063 156.914063 143.105469 139.546875 153.253906 C 131.664063 156.898438 124.453125 162.28125 117.984375 169.355469 C 108.484375 179.738281 102.316406 192.855469 99.800781 206.679688 C 96.074219 207.265625 92.414063 207.855469 88.964844 209.089844 C 68.851563 216.304688 56.15625 231.15625 52.675781 253.519531 C 50.503906 267.445313 54.878906 281.339844 57.320313 286.953125 C 66.953125 309.136719 89.300781 321.714844 112 318.386719 C 113.128906 318.21875 114.769531 318.730469 115.746094 319.546875 C 116.945313 355 134.160156 386.355469 159.984375 404.265625 C 201.421875 433.003906 254.730469 424.148438 288.359375 384.738281 C 302.769531 399.480469 319.921875 406.640625 340.070313 404.039063 C 360.101563 401.453125 375.65625 390.398438 387.003906 372.429688 C 392.246094 373.839844 397.21875 375.875 402.359375 376.433594 C 422.484375 378.636719 438.828125 370.628906 450.820313 352.535156 C 455.410156 345.609375 459.75 336.628906 459.75 320.894531 C 459.75 304.671875 453.308594 289.894531 442.46875 279.988281 Z "/>
<path style=" stroke:none;fill-rule:nonzero;fill:#FDFCEF;fill-opacity:1;" d="M 383.238281 246.980469 C 383.238281 246.980469 441.453125 246.980469 441.808594 246.980469 C 455.253906 246.980469 466.148438 236.078125 466.148438 222.636719 C 466.148438 210.90625 457.855469 201.121094 446.808594 198.808594 C 446.933594 197.785156 447.023438 196.746094 447.023438 195.683594 C 447.023438 181.761719 435.738281 170.476563 421.816406 170.476563 C 413.59375 170.476563 406.316406 174.429688 401.714844 180.515625 C 400.539063 165.015625 386.695313 153.058594 370.496094 155.039063 C 358.648438 156.488281 348.855469 165.644531 346.675781 177.375 C 345.976563 181.136719 346.050781 184.789063 346.746094 188.214844 C 343.570313 184.796875 339.050781 182.640625 334.015625 182.640625 C 324.800781 182.640625 317.28125 189.816406 316.683594 198.878906 C 312.5 197.953125 307.949219 198.015625 303.15625 199.816406 C 293.996094 203.253906 287.46875 211.878906 287.085938 221.660156 C 286.546875 235.550781 297.640625 246.980469 311.40625 246.980469 C 312.449219 246.980469 316.125 246.980469 316.976563 246.980469 L 367.519531 246.980469 "/>
<path style=" stroke:none;fill-rule:nonzero;fill:#472B29;fill-opacity:1;" d="M 441.808594 249.480469 L 383.238281 249.480469 C 381.859375 249.480469 380.738281 248.359375 380.738281 246.980469 C 380.738281 245.601563 381.859375 244.480469 383.238281 244.480469 L 441.808594 244.480469 C 453.855469 244.480469 463.65625 234.679688 463.65625 222.636719 C 463.65625 212.351563 456.359375 203.359375 446.304688 201.261719 C 445.03125 200.996094 444.175781 199.800781 444.335938 198.503906 C 444.449219 197.578125 444.53125 196.640625 444.53125 195.683594 C 444.53125 183.160156 434.339844 172.976563 421.820313 172.976563 C 414.660156 172.976563 408.058594 176.273438 403.714844 182.023438 C 403.089844 182.859375 402.03125 183.21875 401.015625 182.914063 C 400.019531 182.621094 399.304688 181.746094 399.230469 180.710938 C 398.710938 173.855469 395.355469 167.414063 390.019531 163.046875 C 384.628906 158.628906 377.820313 156.679688 370.804688 157.523438 C 360.023438 158.84375 351.113281 167.199219 349.140625 177.835938 C 348.519531 181.164063 348.539063 184.488281 349.199219 187.71875 C 349.425781 188.820313 348.890625 189.929688 347.894531 190.445313 C 346.898438 190.953125 345.679688 190.746094 344.921875 189.925781 C 342.058594 186.84375 338.191406 185.148438 334.019531 185.148438 C 326.214844 185.148438 319.699219 191.253906 319.183594 199.050781 C 319.136719 199.78125 318.769531 200.449219 318.191406 200.886719 C 317.605469 201.320313 316.855469 201.476563 316.148438 201.324219 C 311.96875 200.398438 308.003906 200.671875 304.039063 202.160156 C 295.734375 205.28125 289.925781 213.15625 289.589844 221.761719 C 289.355469 227.769531 291.515625 233.453125 295.671875 237.773438 C 299.824219 242.101563 305.421875 244.480469 311.410156 244.480469 L 367.523438 244.480469 C 368.90625 244.480469 370.023438 245.601563 370.023438 246.980469 C 370.023438 248.359375 368.90625 249.480469 367.523438 249.480469 L 311.410156 249.480469 C 304.039063 249.480469 297.171875 246.554688 292.066406 241.246094 C 286.960938 235.933594 284.304688 228.949219 284.589844 221.566406 C 285.003906 210.976563 292.109375 201.296875 302.273438 197.476563 C 306.253906 195.984375 310.375 195.488281 314.558594 195.988281 C 316.441406 186.914063 324.515625 180.148438 334.015625 180.148438 C 337.421875 180.148438 340.75 181.039063 343.683594 182.679688 C 343.683594 180.769531 343.859375 178.84375 344.214844 176.925781 C 346.589844 164.164063 357.269531 154.144531 370.191406 152.566406 C 378.558594 151.53125 386.730469 153.890625 393.183594 159.179688 C 398.179688 163.273438 401.726563 168.886719 403.328125 175.066406 C 408.371094 170.511719 414.875 167.980469 421.816406 167.980469 C 437.09375 167.980469 449.523438 180.410156 449.523438 195.691406 C 449.523438 196.105469 449.515625 196.515625 449.488281 196.921875 C 460.714844 200.269531 468.648438 210.753906 468.648438 222.640625 C 468.648438 237.441406 456.609375 249.480469 441.808594 249.480469 Z "/>
<path style=" stroke:none;fill-rule:nonzero;fill:#FDFCEF;fill-opacity:1;" d="M 369.136719 193.359375 C 360.128906 192.769531 352.378906 198.988281 351.824219 207.25 C 351.753906 208.273438 351.800781 209.285156 351.949219 210.269531 C 350.214844 208.308594 347.640625 206.976563 344.691406 206.785156 C 339.289063 206.429688 334.625 210 333.945313 214.851563 C 332.960938 214.578125 331.941406 214.398438 330.875 214.328125 C 322.996094 213.816406 316.214844 219.253906 315.730469 226.484375 "/>
<path style=" stroke:none;fill-rule:nonzero;fill:#472B29;fill-opacity:1;" d="M 315.730469 227.730469 C 315.699219 227.730469 315.671875 227.730469 315.644531 227.730469 C 314.953125 227.683594 314.433594 227.089844 314.480469 226.398438 C 315.011719 218.496094 322.324219 212.515625 330.953125 213.078125 C 331.625 213.125 332.304688 213.210938 332.984375 213.339844 C 334.351563 208.523438 339.304688 205.214844 344.765625 205.53125 C 346.878906 205.671875 348.863281 206.324219 350.554688 207.429688 C 350.558594 207.339844 350.566406 207.25 350.570313 207.164063 C 351.171875 198.230469 359.488281 191.53125 369.210938 192.109375 C 369.898438 192.15625 370.421875 192.75 370.375 193.441406 C 370.328125 194.125 369.800781 194.65625 369.046875 194.605469 C 360.746094 194.046875 353.570313 199.769531 353.066406 207.328125 C 353.003906 208.246094 353.046875 209.171875 353.179688 210.074219 C 353.265625 210.625 352.976563 211.160156 352.476563 211.394531 C 351.980469 211.628906 351.378906 211.503906 351.011719 211.089844 C 349.398438 209.273438 347.125 208.183594 344.605469 208.019531 C 339.890625 207.703125 335.769531 210.78125 335.179688 215.011719 C 335.128906 215.363281 334.929688 215.683594 334.628906 215.878906 C 334.328125 216.074219 333.964844 216.140625 333.609375 216.046875 C 332.664063 215.785156 331.714844 215.625 330.789063 215.566406 C 323.699219 215.070313 317.410156 220.023438 316.96875 226.554688 C 316.933594 227.226563 316.386719 227.730469 315.730469 227.730469 Z "/>
<path style=" stroke:none;fill-rule:nonzero;fill:#FDFCEF;fill-opacity:1;" d="M 451.664063 201.671875 C 443.203125 197.679688 433.421875 200.503906 429.808594 207.980469 C 429.359375 208.910156 429.03125 209.863281 428.808594 210.835938 "/>
<path style=" stroke:none;fill-rule:nonzero;fill:#472B29;fill-opacity:1;" d="M 428.808594 212.078125 C 428.71875 212.078125 428.625 212.070313 428.53125 212.050781 C 427.855469 211.894531 427.433594 211.226563 427.589844 210.554688 C 427.835938 209.46875 428.203125 208.421875 428.683594 207.429688 C 432.589844 199.355469 443.140625 196.265625 452.195313 200.535156 C 452.820313 200.828125 453.089844 201.574219 452.796875 202.199219 C 452.5 202.828125 451.746094 203.089844 451.128906 202.800781 C 443.300781 199.109375 434.238281 201.675781 430.933594 208.523438 C 430.535156 209.34375 430.230469 210.214844 430.023438 211.113281 C 429.894531 211.691406 429.378906 212.078125 428.808594 212.078125 Z "/>
<path style=" stroke:none;fill-rule:nonzero;fill:#FFFFFF;fill-opacity:1;" d="M 92.238281 240.339844 L 42.289063 240.339844 C 40.910156 240.339844 39.789063 239.21875 39.789063 237.839844 C 39.789063 236.460938 40.910156 235.339844 42.289063 235.339844 L 92.234375 235.339844 C 93.613281 235.339844 94.734375 236.460938 94.734375 237.839844 C 94.734375 239.21875 93.621094 240.339844 92.238281 240.339844 Z "/>
<path style=" stroke:none;fill-rule:nonzero;fill:#FFFFFF;fill-opacity:1;" d="M 106.585938 240.339844 L 99.386719 240.339844 C 98.003906 240.339844 96.886719 239.21875 96.886719 237.839844 C 96.886719 236.460938 98.003906 235.339844 99.386719 235.339844 L 106.585938 235.339844 C 107.964844 235.339844 109.085938 236.460938 109.085938 237.839844 C 109.085938 239.21875 107.964844 240.339844 106.585938 240.339844 Z "/>
<path style=" stroke:none;fill-rule:nonzero;fill:#FFFFFF;fill-opacity:1;" d="M 126.773438 240.339844 L 114.09375 240.339844 C 112.714844 240.339844 111.59375 239.21875 111.59375 237.839844 C 111.59375 236.460938 112.714844 235.339844 114.09375 235.339844 L 126.773438 235.339844 C 128.15625 235.339844 129.273438 236.460938 129.273438 237.839844 C 129.273438 239.21875 128.15625 240.339844 126.773438 240.339844 Z "/>
<path style=" stroke:none;fill-rule:nonzero;fill:#FFFFFF;fill-opacity:1;" d="M 126.773438 249.628906 L 78.890625 249.628906 C 77.511719 249.628906 76.390625 248.511719 76.390625 247.128906 C 76.390625 245.75 77.511719 244.628906 78.890625 244.628906 L 126.773438 244.628906 C 128.15625 244.628906 129.273438 245.75 129.273438 247.128906 C 129.273438 248.511719 128.15625 249.628906 126.773438 249.628906 Z "/>
<path style=" stroke:none;fill-rule:nonzero;fill:#FFFFFF;fill-opacity:1;" d="M 70.269531 249.628906 L 67.378906 249.628906 C 66 249.628906 64.878906 248.511719 64.878906 247.128906 C 64.878906 245.75 66 244.628906 67.378906 244.628906 L 70.269531 244.628906 C 71.648438 244.628906 72.769531 245.75 72.769531 247.128906 C 72.769531 248.511719 71.648438 249.628906 70.269531 249.628906 Z "/>
<path style=" stroke:none;fill-rule:nonzero;fill:#FFFFFF;fill-opacity:1;" d="M 58.429688 249.628906 L 51.179688 249.628906 C 49.800781 249.628906 48.679688 248.511719 48.679688 247.128906 C 48.679688 245.75 49.800781 244.628906 51.179688 244.628906 L 58.429688 244.628906 C 59.808594 244.628906 60.929688 245.75 60.929688 247.128906 C 60.929688 248.511719 59.816406 249.628906 58.429688 249.628906 Z "/>
<path style=" stroke:none;fill-rule:nonzero;fill:#FFFFFF;fill-opacity:1;" d="M 103.925781 231.054688 L 78.890625 231.054688 C 77.511719 231.054688 76.390625 229.933594 76.390625 228.554688 C 76.390625 227.175781 77.511719 226.054688 78.890625 226.054688 L 103.925781 226.054688 C 105.304688 226.054688 106.425781 227.175781 106.425781 228.554688 C 106.425781 229.933594 105.304688 231.054688 103.925781 231.054688 Z "/>
<path style=" stroke:none;fill-rule:nonzero;fill:#FFFFFF;fill-opacity:1;" d="M 103.925781 221.769531 L 97.664063 221.769531 C 96.285156 221.769531 95.164063 220.648438 95.164063 219.269531 C 95.164063 217.890625 96.285156 216.769531 97.664063 216.769531 L 103.925781 216.769531 C 105.304688 216.769531 106.425781 217.890625 106.425781 219.269531 C 106.425781 220.648438 105.304688 221.769531 103.925781 221.769531 Z "/>
<path style=" stroke:none;fill-rule:nonzero;fill:#FFFFFF;fill-opacity:1;" d="M 87.644531 258.914063 L 78.890625 258.914063 C 77.511719 258.914063 76.390625 257.796875 76.390625 256.414063 C 76.390625 255.035156 77.511719 253.914063 78.890625 253.914063 L 87.644531 253.914063 C 89.023438 253.914063 90.144531 255.035156 90.144531 256.414063 C 90.144531 257.796875 89.03125 258.914063 87.644531 258.914063 Z "/>
<path style=" stroke:none;fill-rule:nonzero;fill:#FFFFFF;fill-opacity:1;" d="M 357.039063 109.496094 L 307.089844 109.496094 C 305.710938 109.496094 304.589844 108.375 304.589844 106.996094 C 304.589844 105.613281 305.710938 104.496094 307.089844 104.496094 L 357.039063 104.496094 C 358.421875 104.496094 359.539063 105.613281 359.539063 106.996094 C 359.539063 108.375 358.421875 109.496094 357.039063 109.496094 Z "/>
<path style=" stroke:none;fill-rule:nonzero;fill:#FFFFFF;fill-opacity:1;" d="M 371.386719 109.496094 L 364.183594 109.496094 C 362.804688 109.496094 361.683594 108.375 361.683594 106.996094 C 361.683594 105.613281 362.804688 104.496094 364.183594 104.496094 L 371.386719 104.496094 C 372.765625 104.496094 373.886719 105.613281 373.886719 106.996094 C 373.886719 108.375 372.765625 109.496094 371.386719 109.496094 Z "/>
<path style=" stroke:none;fill-rule:nonzero;fill:#FFFFFF;fill-opacity:1;" d="M 391.574219 109.496094 L 378.894531 109.496094 C 377.515625 109.496094 376.394531 108.375 376.394531 106.996094 C 376.394531 105.613281 377.515625 104.496094 378.894531 104.496094 L 391.574219 104.496094 C 392.953125 104.496094 394.074219 105.613281 394.074219 106.996094 C 394.074219 108.375 392.953125 109.496094 391.574219 109.496094 Z "/>
<path style=" stroke:none;fill-rule:nonzero;fill:#FFFFFF;fill-opacity:1;" d="M 381.484375 90.921875 L 333.601563 90.921875 C 332.21875 90.921875 331.101563 89.800781 331.101563 88.421875 C 331.101563 87.039063 332.21875 85.921875 333.601563 85.921875 L 381.484375 85.921875 C 382.863281 85.921875 383.984375 87.039063 383.984375 88.421875 C 383.984375 89.800781 382.871094 90.921875 381.484375 90.921875 Z "/>
<path style=" stroke:none;fill-rule:nonzero;fill:#FFFFFF;fill-opacity:1;" d="M 324.980469 90.921875 L 322.089844 90.921875 C 320.710938 90.921875 319.589844 89.800781 319.589844 88.421875 C 319.589844 87.039063 320.710938 85.921875 322.089844 85.921875 L 324.980469 85.921875 C 326.359375 85.921875 327.480469 87.039063 327.480469 88.421875 C 327.480469 89.800781 326.359375 90.921875 324.980469 90.921875 Z "/>
<path style=" stroke:none;fill-rule:nonzero;fill:#FFFFFF;fill-opacity:1;" d="M 313.144531 90.921875 L 305.894531 90.921875 C 304.515625 90.921875 303.394531 89.800781 303.394531 88.421875 C 303.394531 87.039063 304.515625 85.921875 305.894531 85.921875 L 313.144531 85.921875 C 314.523438 85.921875 315.644531 87.039063 315.644531 88.421875 C 315.644531 89.800781 314.523438 90.921875 313.144531 90.921875 Z "/>
<path style=" stroke:none;fill-rule:nonzero;fill:#FFFFFF;fill-opacity:1;" d="M 368.726563 100.210938 L 343.691406 100.210938 C 342.308594 100.210938 341.191406 99.089844 341.191406 97.710938 C 341.191406 96.328125 342.308594 95.210938 343.691406 95.210938 L 368.726563 95.210938 C 370.105469 95.210938 371.226563 96.328125 371.226563 97.710938 C 371.226563 99.089844 370.105469 100.210938 368.726563 100.210938 Z "/>
<path style=" stroke:none;fill-rule:nonzero;fill:#FFFFFF;fill-opacity:1;" d="M 368.726563 90.921875 L 362.464844 90.921875 C 361.085938 90.921875 359.964844 89.800781 359.964844 88.421875 C 359.964844 87.039063 361.085938 85.921875 362.464844 85.921875 L 368.726563 85.921875 C 370.105469 85.921875 371.226563 87.039063 371.226563 88.421875 C 371.226563 89.800781 370.105469 90.921875 368.726563 90.921875 Z "/>
<path style=" stroke:none;fill-rule:nonzero;fill:#FFFFFF;fill-opacity:1;" d="M 336.445313 100.210938 L 327.691406 100.210938 C 326.308594 100.210938 325.191406 99.089844 325.191406 97.710938 C 325.191406 96.328125 326.308594 95.210938 327.691406 95.210938 L 336.445313 95.210938 C 337.824219 95.210938 338.945313 96.328125 338.945313 97.710938 C 338.945313 99.089844 337.824219 100.210938 336.445313 100.210938 Z "/>
<path style=" stroke:none;fill-rule:nonzero;fill:#F1BC19;fill-opacity:1;" d="M 333.335938 364.484375 L 185.660156 364.484375 C 166.828125 364.484375 151.425781 349.078125 151.425781 330.25 L 151.425781 182.574219 C 151.425781 163.746094 166.828125 148.339844 185.660156 148.339844 L 333.335938 148.339844 C 352.164063 148.339844 367.570313 163.746094 367.570313 182.574219 L 367.570313 330.25 C 367.570313 349.078125 352.164063 364.484375 333.335938 364.484375 Z "/>
<path style=" stroke:none;fill-rule:nonzero;fill:#472B29;fill-opacity:1;" d="M 333.335938 367.984375 L 185.660156 367.984375 C 164.851563 367.984375 147.925781 351.054688 147.925781 330.25 L 147.925781 182.574219 C 147.925781 161.765625 164.855469 144.839844 185.660156 144.839844 L 333.335938 144.839844 C 354.144531 144.839844 371.070313 161.769531 371.070313 182.574219 L 371.070313 330.25 C 371.070313 351.058594 354.144531 367.984375 333.335938 367.984375 Z M 185.660156 151.839844 C 168.710938 151.839844 154.925781 165.625 154.925781 182.574219 L 154.925781 330.25 C 154.925781 347.199219 168.710938 360.984375 185.660156 360.984375 L 333.335938 360.984375 C 350.285156 360.984375 364.070313 347.199219 364.070313 330.25 L 364.070313 182.574219 C 364.070313 165.625 350.285156 151.839844 333.335938 151.839844 Z "/>
<path style=" stroke:none;fill-rule:nonzero;fill:#FDFCEE;fill-opacity:1;" d="M 324.390625 349.050781 L 194.605469 349.050781 C 179.34375 349.050781 166.859375 336.566406 166.859375 321.304688 L 166.859375 191.523438 C 166.859375 176.265625 179.34375 163.78125 194.605469 163.78125 L 324.386719 163.78125 C 339.644531 163.78125 352.128906 176.265625 352.128906 191.523438 L 352.128906 321.304688 C 352.128906 336.566406 339.644531 349.050781 324.390625 349.050781 Z "/>
<path style=" stroke:none;fill-rule:nonzero;fill:#472B29;fill-opacity:1;" d="M 323.976563 350.796875 L 195.015625 350.796875 C 178.523438 350.796875 165.109375 337.378906 165.109375 320.890625 L 165.109375 191.933594 C 165.109375 175.445313 178.523438 162.03125 195.015625 162.03125 L 317.820313 162.03125 C 318.785156 162.03125 319.570313 162.816406 319.570313 163.78125 C 319.570313 164.746094 318.785156 165.53125 317.820313 165.53125 L 195.015625 165.53125 C 180.453125 165.53125 168.609375 177.375 168.609375 191.933594 L 168.609375 320.894531 C 168.609375 335.453125 180.453125 347.300781 195.015625 347.300781 L 323.976563 347.300781 C 338.535156 347.300781 350.378906 335.453125 350.378906 320.894531 L 350.378906 249.550781 C 350.378906 248.585938 351.164063 247.800781 352.128906 247.800781 C 353.09375 247.800781 353.878906 248.585938 353.878906 249.550781 L 353.878906 320.890625 C 353.878906 337.378906 340.464844 350.796875 323.976563 350.796875 Z "/>
<path style=" stroke:none;fill-rule:nonzero;fill:#472B29;fill-opacity:1;" d="M 352.128906 241.011719 C 351.164063 241.011719 350.378906 240.226563 350.378906 239.261719 L 350.378906 225.535156 C 350.378906 224.570313 351.164063 223.785156 352.128906 223.785156 C 353.09375 223.785156 353.878906 224.570313 353.878906 225.535156 L 353.878906 239.261719 C 353.878906 240.226563 353.101563 241.011719 352.128906 241.011719 Z "/>
<path style=" stroke:none;fill-rule:nonzero;fill:#472B29;fill-opacity:1;" d="M 352.128906 220.425781 C 351.164063 220.425781 350.378906 219.640625 350.378906 218.675781 L 350.378906 211.808594 C 350.378906 210.84375 351.164063 210.058594 352.128906 210.058594 C 353.09375 210.058594 353.878906 210.84375 353.878906 211.808594 L 353.878906 218.675781 C 353.878906 219.640625 353.101563 220.425781 352.128906 220.425781 Z "/>
<path style=" stroke:none;fill-rule:nonzero;fill:#A1A1CA;fill-opacity:1;" d="M 260.78125 195.640625 L 258.46875 195.640625 C 256.289063 195.640625 254.578125 197.058594 254.578125 198.871094 L 254.578125 213.070313 C 254.578125 213.65625 255.054688 214.128906 255.640625 214.128906 L 263.609375 214.128906 C 264.195313 214.128906 264.664063 213.65625 264.664063 213.074219 L 264.664063 198.875 C 264.671875 197.058594 262.960938 195.640625 260.78125 195.640625 Z "/>
<path style=" stroke:none;fill-rule:nonzero;fill:#472B29;fill-opacity:1;" d="M 263.609375 215.75 L 255.640625 215.75 C 254.160156 215.75 252.953125 214.546875 252.953125 213.066406 L 252.953125 198.863281 C 252.953125 196.144531 255.375 194.011719 258.46875 194.011719 L 260.78125 194.011719 C 263.871094 194.011719 266.296875 196.144531 266.296875 198.863281 L 266.296875 213.066406 C 266.296875 214.546875 265.089844 215.75 263.609375 215.75 Z M 256.210938 212.5 L 263.039063 212.5 L 263.039063 198.871094 C 263.039063 197.984375 262.023438 197.265625 260.78125 197.265625 L 258.46875 197.265625 C 257.21875 197.265625 256.210938 197.984375 256.210938 198.871094 Z "/>
<path style=" stroke:none;fill-rule:nonzero;fill:#472B29;fill-opacity:1;" d="M 265.378906 206.253906 C 264.933594 206.253906 264.5 206.015625 264.273438 205.59375 C 263.949219 204.984375 264.179688 204.230469 264.789063 203.90625 C 268.246094 202.066406 270.390625 198.550781 270.390625 194.726563 C 270.390625 188.953125 265.558594 184.265625 259.625 184.265625 C 253.691406 184.265625 248.859375 188.953125 248.859375 194.726563 C 248.859375 198.433594 250.910156 201.898438 254.210938 203.769531 C 254.808594 204.109375 255.023438 204.875 254.683594 205.476563 C 254.335938 206.078125 253.566406 206.285156 252.980469 205.949219 C 248.894531 203.640625 246.359375 199.339844 246.359375 194.730469 C 246.359375 187.585938 252.308594 181.769531 259.625 181.769531 C 266.941406 181.769531 272.890625 187.585938 272.890625 194.730469 C 272.890625 199.480469 270.234375 203.84375 265.964844 206.113281 C 265.78125 206.203125 265.578125 206.253906 265.378906 206.253906 Z "/>
<path style=" stroke:none;fill-rule:nonzero;fill:#A1A1CA;fill-opacity:1;" d="M 230.304688 219.628906 C 230.5 219.476563 230.636719 219.25 230.664063 219 C 230.695313 218.75 230.628906 218.5 230.476563 218.300781 L 227.089844 213.914063 C 226.90625 213.675781 226.625 213.546875 226.339844 213.546875 C 226.140625 213.546875 225.933594 213.609375 225.765625 213.738281 L 218.378906 219.433594 C 218.179688 219.585938 218.050781 219.816406 218.019531 220.066406 C 217.988281 220.316406 218.054688 220.566406 218.210938 220.765625 L 221.59375 225.148438 C 221.90625 225.550781 222.515625 225.636719 222.921875 225.320313 Z "/>
<path style=" stroke:none;fill-rule:nonzero;fill:#472B29;fill-opacity:1;" d="M 222.34375 227.144531 C 221.574219 227.144531 220.816406 226.804688 220.308594 226.15625 L 216.921875 221.765625 C 216.503906 221.21875 216.320313 220.550781 216.40625 219.871094 C 216.488281 219.191406 216.851563 218.570313 217.390625 218.15625 L 224.769531 212.460938 C 225.851563 211.625 227.539063 211.839844 228.378906 212.929688 L 231.761719 217.308594 C 232.179688 217.855469 232.363281 218.53125 232.273438 219.203125 C 232.191406 219.875 231.835938 220.496094 231.300781 220.910156 C 231.300781 220.910156 231.296875 220.914063 231.296875 220.914063 L 223.910156 226.609375 C 223.445313 226.96875 222.894531 227.144531 222.34375 227.144531 Z M 219.910156 220.316406 L 222.464844 223.625 L 228.773438 218.761719 L 226.21875 215.445313 Z M 219.375 220.726563 Z M 230.304688 219.628906 L 230.34375 219.628906 Z "/>
<path style=" stroke:none;fill-rule:nonzero;fill:#A1A1CA;fill-opacity:1;" d="M 228.535156 212.558594 C 228.671875 211.535156 228.394531 210.519531 227.765625 209.699219 C 227.136719 208.886719 226.226563 208.359375 225.195313 208.230469 C 225.023438 208.210938 224.855469 208.195313 224.683594 208.195313 C 223.835938 208.195313 223.015625 208.476563 222.335938 209 L 214.65625 214.921875 C 212.964844 216.226563 212.648438 218.660156 213.953125 220.351563 C 214.695313 221.304688 215.808594 221.855469 217.023438 221.855469 C 217.886719 221.855469 218.699219 221.574219 219.386719 221.050781 L 227.058594 215.128906 C 227.878906 214.5 228.40625 213.589844 228.535156 212.558594 Z "/>
<path style=" stroke:none;fill-rule:nonzero;fill:#472B29;fill-opacity:1;" d="M 217.03125 223.480469 C 215.304688 223.480469 213.714844 222.699219 212.671875 221.339844 C 210.820313 218.945313 211.265625 215.488281 213.664063 213.628906 L 221.34375 207.710938 C 222.511719 206.816406 223.941406 206.421875 225.425781 206.621094 C 226.859375 206.804688 228.15625 207.546875 229.054688 208.703125 C 229.949219 209.871094 230.335938 211.308594 230.148438 212.765625 C 229.964844 214.226563 229.21875 215.519531 228.066406 216.414063 L 220.386719 222.335938 C 219.414063 223.085938 218.253906 223.480469 217.03125 223.480469 Z M 224.855469 209.839844 C 224.140625 209.839844 223.703125 210 223.328125 210.285156 L 215.648438 216.203125 C 214.671875 216.960938 214.488281 218.375 215.246094 219.355469 C 215.976563 220.296875 217.433594 220.496094 218.394531 219.765625 L 226.074219 213.84375 C 226.546875 213.480469 226.84375 212.949219 226.925781 212.355469 C 227 211.761719 226.839844 211.171875 226.480469 210.691406 C 226.121094 210.21875 225.589844 209.921875 224.988281 209.84375 C 224.945313 209.84375 224.898438 209.839844 224.855469 209.839844 Z "/>
<path style=" stroke:none;fill-rule:nonzero;fill:#A1A1CA;fill-opacity:1;" d="M 301.445313 220.070313 C 301.414063 219.824219 301.28125 219.59375 301.085938 219.445313 L 293.699219 213.75 C 293.535156 213.621094 293.328125 213.550781 293.125 213.550781 C 293.085938 213.550781 293.046875 213.554688 293 213.558594 C 292.75 213.59375 292.523438 213.71875 292.371094 213.921875 L 288.984375 218.304688 C 288.828125 218.503906 288.765625 218.753906 288.796875 219.003906 C 288.824219 219.25 288.960938 219.480469 289.15625 219.628906 L 296.539063 225.324219 C 296.941406 225.636719 297.554688 225.554688 297.863281 225.15625 L 301.25 220.769531 C 301.410156 220.570313 301.476563 220.320313 301.445313 220.070313 Z "/>
<path style=" stroke:none;fill-rule:nonzero;fill:#472B29;fill-opacity:1;" d="M 297.105469 227.136719 C 296.558594 227.136719 296.003906 226.964844 295.550781 226.613281 L 288.164063 220.914063 C 287.628906 220.503906 287.269531 219.878906 287.183594 219.210938 C 287.101563 218.53125 287.28125 217.855469 287.699219 217.316406 L 291.085938 212.929688 C 291.503906 212.386719 292.113281 212.035156 292.796875 211.949219 C 293.640625 211.875 294.238281 212.113281 294.695313 212.46875 L 302.074219 218.160156 C 302.609375 218.574219 302.964844 219.195313 303.054688 219.855469 C 303.148438 220.546875 302.964844 221.21875 302.535156 221.769531 L 299.15625 226.148438 C 298.65625 226.796875 297.878906 227.136719 297.105469 227.136719 Z M 290.691406 218.761719 L 297 223.628906 L 299.554688 220.316406 L 293.246094 215.449219 Z M 299.96875 219.773438 Z M 290.148438 218.339844 C 290.148438 218.34375 290.148438 218.339844 290.148438 218.339844 Z M 292.703125 215.035156 Z "/>
<path style=" stroke:none;fill-rule:nonzero;fill:#A1A1CA;fill-opacity:1;" d="M 304.800781 214.925781 L 297.125 209 C 296.445313 208.476563 295.625 208.195313 294.773438 208.195313 C 294.605469 208.195313 294.441406 208.203125 294.269531 208.230469 C 293.246094 208.363281 292.328125 208.886719 291.699219 209.699219 C 291.070313 210.515625 290.796875 211.535156 290.929688 212.558594 C 291.066406 213.589844 291.585938 214.5 292.398438 215.128906 L 300.074219 221.050781 C 300.753906 221.574219 301.570313 221.855469 302.433594 221.855469 C 303.648438 221.855469 304.769531 221.304688 305.503906 220.351563 C 306.804688 218.660156 306.488281 216.226563 304.800781 214.925781 Z "/>
<path style=" stroke:none;fill-rule:nonzero;fill:#472B29;fill-opacity:1;" d="M 302.433594 223.484375 C 301.210938 223.484375 300.050781 223.089844 299.085938 222.339844 L 291.40625 216.414063 C 290.25 215.53125 289.503906 214.230469 289.316406 212.769531 C 289.125 211.308594 289.519531 209.863281 290.410156 208.710938 C 291.304688 207.550781 292.601563 206.808594 294.054688 206.621094 C 295.558594 206.429688 296.960938 206.824219 298.113281 207.714844 L 305.796875 213.640625 C 306.953125 214.535156 307.695313 215.828125 307.886719 217.285156 C 308.074219 218.746094 307.683594 220.183594 306.789063 221.34375 C 305.738281 222.699219 304.15625 223.484375 302.433594 223.484375 Z M 294.773438 209.824219 C 293.878906 209.921875 293.351563 210.226563 292.984375 210.695313 C 292.621094 211.164063 292.464844 211.753906 292.539063 212.355469 C 292.621094 212.953125 292.921875 213.480469 293.390625 213.839844 L 301.074219 219.765625 C 302.023438 220.496094 303.488281 220.304688 304.21875 219.355469 C 304.585938 218.878906 304.746094 218.296875 304.664063 217.695313 C 304.589844 217.101563 304.285156 216.570313 303.808594 216.203125 L 296.128906 210.28125 C 295.734375 209.984375 295.265625 209.824219 294.773438 209.824219 Z "/>
<path style=" stroke:none;fill-rule:nonzero;fill:#8889B9;fill-opacity:1;" d="M 259.5 212.019531 C 229.984375 212.019531 205.976563 236.03125 205.976563 265.539063 C 205.976563 295.050781 229.984375 319.066406 259.5 319.066406 C 289.011719 319.066406 313.019531 295.054688 313.019531 265.539063 C 313.019531 236.023438 289.011719 212.019531 259.5 212.019531 Z "/>
<path style=" stroke:none;fill-rule:nonzero;fill:#472B29;fill-opacity:1;" d="M 259.5 320.941406 C 228.953125 320.941406 204.101563 296.089844 204.101563 265.539063 C 204.101563 234.988281 228.953125 210.140625 259.5 210.140625 C 290.046875 210.140625 314.894531 234.988281 314.894531 265.539063 C 314.894531 296.089844 290.046875 320.941406 259.5 320.941406 Z M 259.5 213.894531 C 231.019531 213.894531 207.851563 237.066406 207.851563 265.546875 C 207.851563 294.023438 231.019531 317.195313 259.5 317.195313 C 287.976563 317.195313 311.144531 294.023438 311.144531 265.546875 C 311.144531 237.066406 287.976563 213.894531 259.5 213.894531 Z "/>
<path style=" stroke:none;fill-rule:nonzero;fill:#E1E0D8;fill-opacity:1;" d="M 303.746094 262.164063 C 304.550781 271.511719 302.429688 281.15625 297.054688 289.640625 C 283.96875 310.285156 256.546875 316.238281 235.804688 302.929688 C 215.066406 289.625 208.859375 262.101563 221.945313 241.449219 C 235.03125 220.804688 262.453125 214.851563 283.195313 228.160156 C 290.570313 232.890625 296.105469 239.414063 299.589844 246.796875 "/>
<path style=" stroke:none;fill-rule:nonzero;fill:#472B29;fill-opacity:1;" d="M 259.824219 311.285156 C 251.15625 311.285156 242.636719 308.800781 235.125 303.980469 C 213.839844 290.324219 207.449219 261.96875 220.886719 240.78125 C 227.355469 230.570313 237.429688 223.5 249.25 220.886719 C 261.199219 218.238281 273.496094 220.449219 283.859375 227.105469 C 291.183594 231.800781 297.011719 238.425781 300.710938 246.253906 C 301.003906 246.878906 300.734375 247.625 300.113281 247.921875 C 299.496094 248.21875 298.746094 247.949219 298.449219 247.324219 C 294.949219 239.921875 289.441406 233.65625 282.511719 229.210938 C 272.703125 222.921875 261.089844 220.835938 249.785156 223.328125 C 238.621094 225.800781 229.105469 232.476563 222.988281 242.121094 C 210.289063 262.15625 216.335938 288.960938 236.46875 301.878906 C 246.273438 308.175781 257.898438 310.273438 269.195313 307.761719 C 280.359375 305.289063 289.875 298.621094 295.988281 288.976563 C 301.058594 280.976563 303.308594 271.738281 302.488281 262.28125 C 302.429688 261.589844 302.941406 260.984375 303.628906 260.925781 C 304.265625 260.855469 304.921875 261.371094 304.984375 262.066406 C 305.851563 272.078125 303.46875 281.851563 298.105469 290.316406 C 291.636719 300.523438 281.558594 307.589844 269.738281 310.203125 C 266.445313 310.925781 263.125 311.285156 259.824219 311.285156 Z "/>
<path style=" stroke:none;fill-rule:nonzero;fill:#E1E0D8;fill-opacity:1;" d="M 302.179688 254.945313 C 302.433594 255.988281 302.65625 257.046875 302.835938 258.105469 "/>
<path style=" stroke:none;fill-rule:nonzero;fill:#472B29;fill-opacity:1;" d="M 302.828125 259.355469 C 302.230469 259.355469 301.703125 258.925781 301.601563 258.316406 C 301.425781 257.28125 301.214844 256.261719 300.964844 255.246094 C 300.800781 254.574219 301.210938 253.894531 301.878906 253.734375 C 302.570313 253.570313 303.230469 253.980469 303.390625 254.648438 C 303.65625 255.726563 303.878906 256.804688 304.066406 257.894531 C 304.179688 258.574219 303.726563 259.21875 303.039063 259.339844 C 302.976563 259.351563 302.898438 259.355469 302.828125 259.355469 Z "/>
<path style=" stroke:none;fill-rule:nonzero;fill:#472B29;fill-opacity:1;" d="M 259.824219 227.039063 C 259.136719 227.039063 258.574219 226.480469 258.574219 225.789063 L 258.574219 221.5 C 258.574219 220.808594 259.136719 220.25 259.824219 220.25 C 260.515625 220.25 261.074219 220.808594 261.074219 221.5 L 261.074219 225.789063 C 261.074219 226.484375 260.515625 227.039063 259.824219 227.039063 Z "/>
<path style=" stroke:none;fill-rule:nonzero;fill:#472B29;fill-opacity:1;" d="M 259.824219 309.800781 C 259.136719 309.800781 258.574219 309.238281 258.574219 308.550781 L 258.574219 304.261719 C 258.574219 303.570313 259.136719 303.011719 259.824219 303.011719 C 260.515625 303.011719 261.074219 303.570313 261.074219 304.261719 L 261.074219 308.550781 C 261.074219 309.238281 260.515625 309.800781 259.824219 309.800781 Z "/>
<path style=" stroke:none;fill-rule:nonzero;fill:#472B29;fill-opacity:1;" d="M 303.910156 266.878906 L 298.453125 266.878906 C 297.765625 266.878906 297.203125 266.320313 297.203125 265.628906 C 297.203125 264.941406 297.765625 264.378906 298.453125 264.378906 L 303.910156 264.378906 C 304.601563 264.378906 305.160156 264.941406 305.160156 265.628906 C 305.160156 266.320313 304.601563 266.878906 303.910156 266.878906 Z "/>
<path style=" stroke:none;fill-rule:nonzero;fill:#472B29;fill-opacity:1;" d="M 219.253906 266.878906 L 215.300781 266.878906 C 214.609375 266.878906 214.050781 266.320313 214.050781 265.628906 C 214.050781 264.941406 214.609375 264.378906 215.300781 264.378906 L 219.253906 264.378906 C 219.945313 264.378906 220.503906 264.941406 220.503906 265.628906 C 220.503906 266.320313 219.945313 266.878906 219.253906 266.878906 Z "/>
<path style=" stroke:none;fill-rule:nonzero;fill:#472B29;fill-opacity:1;" d="M 284.503906 266.796875 L 265.191406 266.796875 C 264.5 266.796875 263.941406 266.234375 263.941406 265.546875 C 263.941406 264.855469 264.5 264.296875 265.191406 264.296875 L 284.503906 264.296875 C 285.195313 264.296875 285.753906 264.855469 285.753906 265.546875 C 285.753906 266.234375 285.195313 266.796875 284.503906 266.796875 Z "/>
<path style=" stroke:none;fill-rule:nonzero;fill:#472B29;fill-opacity:1;" d="M 259.824219 261.515625 C 259.136719 261.515625 258.574219 260.953125 258.574219 260.265625 L 258.574219 232.363281 C 258.574219 231.675781 259.136719 231.113281 259.824219 231.113281 C 260.515625 231.113281 261.074219 231.675781 261.074219 232.363281 L 261.074219 260.265625 C 261.074219 260.953125 260.515625 261.515625 259.824219 261.515625 Z "/>
<path style=" stroke:none;fill-rule:nonzero;fill:#FBCD59;fill-opacity:1;" d="M 264.113281 265.628906 C 264.113281 268 262.195313 269.921875 259.824219 269.921875 C 257.457031 269.921875 255.535156 268 255.535156 265.628906 C 255.535156 263.261719 257.457031 261.339844 259.824219 261.339844 C 262.195313 261.339844 264.113281 263.261719 264.113281 265.628906 Z "/>
<path style=" stroke:none;fill-rule:nonzero;fill:#472B29;fill-opacity:1;" d="M 259.824219 271.171875 C 256.769531 271.171875 254.285156 268.683594 254.285156 265.628906 C 254.285156 262.574219 256.769531 260.089844 259.824219 260.089844 C 262.878906 260.089844 265.363281 262.574219 265.363281 265.628906 C 265.363281 268.683594 262.886719 271.171875 259.824219 271.171875 Z M 259.824219 262.585938 C 258.148438 262.585938 256.785156 263.949219 256.785156 265.625 C 256.785156 267.300781 258.148438 268.664063 259.824219 268.664063 C 261.5 268.664063 262.863281 267.300781 262.863281 265.625 C 262.863281 263.949219 261.503906 262.585938 259.824219 262.585938 Z "/>
<path style=" stroke:none;fill-rule:nonzero;fill:#FDFCEF;fill-opacity:1;" d="M 203.164063 378.265625 C 212.546875 378.265625 220.675781 378.265625 220.796875 378.265625 C 231.300781 378.265625 239.820313 369.929688 239.820313 359.644531 C 239.820313 350.675781 233.335938 343.183594 224.703125 341.421875 C 224.804688 340.636719 224.871094 339.839844 224.871094 339.03125 C 224.871094 328.378906 216.050781 319.746094 205.164063 319.746094 C 198.738281 319.746094 193.050781 322.769531 189.453125 327.425781 C 188.535156 315.570313 177.714844 306.425781 165.054688 307.941406 C 155.800781 309.050781 148.140625 316.050781 146.441406 325.023438 C 145.894531 327.90625 145.949219 330.695313 146.496094 333.320313 C 144.015625 330.703125 140.480469 329.054688 136.546875 329.054688 C 129.34375 329.054688 123.464844 334.539063 123 341.476563 C 119.730469 340.765625 116.175781 340.816406 112.425781 342.191406 C 105.265625 344.820313 100.164063 351.421875 99.863281 358.898438 C 99.441406 369.523438 108.113281 378.265625 118.875 378.265625 C 119.691406 378.265625 122.566406 378.265625 123.226563 378.265625 L 162.730469 378.265625 M 170.910156 378.265625 L 172.699219 378.265625 "/>
<path style=" stroke:none;fill-rule:nonzero;fill:#472B29;fill-opacity:1;" d="M 220.796875 380.765625 L 203.164063 380.765625 C 201.785156 380.765625 200.664063 379.644531 200.664063 378.265625 C 200.664063 376.886719 201.785156 375.765625 203.164063 375.765625 L 220.796875 375.765625 C 229.90625 375.765625 237.320313 368.535156 237.320313 359.644531 C 237.320313 352.054688 231.804688 345.425781 224.203125 343.871094 C 222.925781 343.609375 222.058594 342.40625 222.226563 341.105469 C 222.316406 340.425781 222.375 339.734375 222.375 339.03125 C 222.375 329.773438 214.660156 322.246094 205.171875 322.246094 C 199.734375 322.246094 194.730469 324.691406 191.441406 328.953125 C 190.804688 329.773438 189.734375 330.121094 188.746094 329.820313 C 187.753906 329.523438 187.050781 328.648438 186.96875 327.621094 C 186.574219 322.550781 184.15625 317.945313 180.15625 314.664063 C 176.03125 311.28125 170.761719 309.75 165.359375 310.425781 C 157.164063 311.40625 150.398438 317.605469 148.898438 325.496094 C 148.433594 327.953125 148.449219 330.414063 148.945313 332.816406 C 149.171875 333.910156 148.644531 335.019531 147.65625 335.539063 C 146.671875 336.050781 145.453125 335.859375 144.683594 335.039063 C 142.554688 332.796875 139.671875 331.558594 136.550781 331.558594 C 130.730469 331.558594 125.878906 335.988281 125.5 341.644531 C 125.449219 342.371094 125.089844 343.039063 124.511719 343.476563 C 123.929688 343.914063 123.191406 344.070313 122.480469 343.921875 C 119.296875 343.234375 116.296875 343.441406 113.300781 344.539063 C 107.019531 346.84375 102.628906 352.660156 102.375 359.003906 C 102.199219 363.359375 103.78125 367.5 106.828125 370.671875 C 109.988281 373.960938 114.269531 375.769531 118.890625 375.769531 L 162.746094 375.769531 C 164.125 375.769531 165.246094 376.890625 165.246094 378.269531 C 165.246094 379.648438 164.125 380.769531 162.746094 380.769531 L 118.890625 380.769531 C 112.984375 380.769531 107.273438 378.351563 103.226563 374.136719 C 99.230469 369.976563 97.15625 364.535156 97.386719 358.804688 C 97.714844 350.464844 103.421875 342.84375 111.578125 339.851563 C 114.613281 338.734375 117.769531 338.328125 120.933594 338.628906 C 122.65625 331.679688 129.054688 326.558594 136.558594 326.558594 C 139.011719 326.558594 141.414063 327.121094 143.589844 328.160156 C 143.636719 326.960938 143.773438 325.761719 144 324.558594 C 145.894531 314.554688 154.441406 306.695313 164.773438 305.460938 C 171.578125 304.660156 178.148438 306.546875 183.335938 310.800781 C 187.054688 313.851563 189.695313 317.808594 191.035156 322.253906 C 194.976563 319.03125 199.925781 317.25 205.183594 317.25 C 217.429688 317.25 227.390625 327.023438 227.390625 339.035156 C 227.390625 339.199219 227.390625 339.371094 227.386719 339.535156 C 236.171875 342.300781 242.339844 350.433594 242.339844 359.648438 C 242.316406 371.296875 232.660156 380.765625 220.796875 380.765625 Z M 172.699219 380.765625 L 170.910156 380.765625 C 169.53125 380.765625 168.410156 379.644531 168.410156 378.265625 C 168.410156 376.886719 169.53125 375.765625 170.910156 375.765625 L 172.699219 375.765625 C 174.078125 375.765625 175.199219 376.886719 175.199219 378.265625 C 175.199219 379.644531 174.078125 380.765625 172.699219 380.765625 Z "/>
<path style=" stroke:none;fill-rule:nonzero;fill:#472B29;fill-opacity:1;" d="M 212.289063 351.863281 C 212.199219 351.863281 212.109375 351.855469 212.015625 351.835938 C 211.339844 351.683594 210.921875 351.015625 211.070313 350.339844 C 211.253906 349.515625 211.539063 348.714844 211.914063 347.953125 C 214.925781 341.855469 223.230469 339.605469 230.453125 342.941406 C 231.078125 343.230469 231.355469 343.976563 231.066406 344.601563 C 230.769531 345.226563 230.035156 345.496094 229.40625 345.210938 C 223.421875 342.445313 216.574219 344.171875 214.15625 349.066406 C 213.871094 349.644531 213.648438 350.261719 213.511719 350.890625 C 213.378906 351.46875 212.863281 351.863281 212.289063 351.863281 Z "/>
<path style=" stroke:none;fill-rule:nonzero;fill:#472B29;fill-opacity:1;" d="M 186.601563 380.765625 L 181.085938 380.765625 C 179.703125 380.765625 178.585938 379.644531 178.585938 378.265625 C 178.585938 376.886719 179.703125 375.765625 181.085938 375.765625 L 186.601563 375.765625 C 187.980469 375.765625 189.101563 376.886719 189.101563 378.265625 C 189.101563 379.644531 187.984375 380.765625 186.601563 380.765625 Z "/>
</g>
</svg>
