<?xml version="1.0" encoding="UTF-8"?>
<svg xmlns="http://www.w3.org/2000/svg" xmlns:xlink="http://www.w3.org/1999/xlink" width="96pt" height="96pt" viewBox="0 0 96 96" version="1.1">
<g id="surface1">
<path style=" stroke:none;fill-rule:nonzero;fill:#000000;fill-opacity:1;" d="M 42 8 L 42 16.78125 C 31.65625 19.453125 24 28.8125 24 40 L 24 64 L 16 72 L 16 76 L 80 76 L 80 72 L 72 64 L 72 40 C 72 28.8125 64.34375 19.453125 54 16.78125 L 54 8 Z M 23.625 8.328125 C 14.140625 15.640625 8 27.09375 8 40 L 16 40 C 16 29.671875 20.921875 20.515625 28.5 14.65625 Z M 72.375 8.328125 L 67.5 14.65625 C 75.078125 20.515625 80 29.671875 80 40 L 88 40 C 88 27.09375 81.859375 15.640625 72.375 8.328125 Z M 40 80 C 40 84.40625 43.59375 88 48 88 C 52.40625 88 56 84.40625 56 80 Z "/>
</g>
</svg>
