<?xml version="1.0" encoding="UTF-8"?>
<svg xmlns="http://www.w3.org/2000/svg" xmlns:xlink="http://www.w3.org/1999/xlink" width="400pt" height="400pt" viewBox="0 0 400 400" version="1.1">
<g id="surface1">
<path style=" stroke:none;fill-rule:nonzero;fill:#000000;fill-opacity:1;" d="M 250.125 70.21875 C 245.21875 70.203125 240.3125 71.15625 235.625 73.078125 C 226.28125 76.9375 218.984375 84.203125 215.109375 93.515625 C 214.578125 94.78125 214.125 96.0625 213.75 97.34375 L 214.890625 99.75 L 239.71875 110.109375 L 235.75 119.484375 C 224.3125 115.4375 212.03125 113.234375 199.234375 113.234375 C 188.46875 113.234375 178.078125 114.8125 168.234375 117.703125 L 165.015625 110.109375 L 189.84375 99.75 L 190.984375 97.34375 C 190.59375 96.0625 190.15625 94.78125 189.625 93.515625 C 181.609375 74.25 159.390625 65.109375 140.125 73.140625 C 120.875 81.1875 111.71875 103.390625 119.75 122.65625 C 120.28125 123.921875 120.890625 125.125 121.515625 126.296875 L 124.046875 127.1875 L 148.015625 117.1875 L 151.0625 124.375 C 114.484375 142.265625 89.234375 179.84375 89.234375 223.234375 C 89.234375 255.578125 103.28125 284.71875 125.59375 304.875 L 112.296875 337.203125 C 111.609375 338.640625 111.53125 340.265625 112.0625 341.78125 C 112.609375 343.296875 113.703125 344.5 115.140625 345.1875 C 115.984375 345.59375 116.875 345.78125 117.75 345.78125 C 119.96875 345.78125 122.078125 344.5625 122.984375 342.609375 L 140.703125 316.296875 C 157.671875 327 177.734375 333.234375 199.234375 333.234375 C 221.1875 333.234375 241.640625 326.734375 258.828125 315.609375 L 276.875 342.359375 C 277.90625 344.515625 280.046875 345.78125 282.296875 345.765625 C 283.15625 345.765625 284.046875 345.59375 284.875 345.1875 C 286.3125 344.515625 287.390625 343.296875 287.9375 341.78125 C 288.46875 340.265625 288.390625 338.640625 287.75 337.296875 L 273.984375 303.828125 C 295.640625 283.71875 309.234375 255.046875 309.234375 223.234375 C 309.234375 181.921875 286.328125 145.859375 252.5625 127.0625 L 256.734375 117.1875 L 280.703125 127.1875 L 283.234375 126.296875 C 283.859375 125.125 284.453125 123.921875 284.984375 122.65625 C 288.875 113.328125 288.890625 103.046875 285.046875 93.6875 C 281.203125 84.328125 273.9375 77.03125 264.609375 73.140625 C 259.9375 71.203125 255.046875 70.234375 250.125 70.21875 Z M 154.625 74.21875 C 159 74.203125 163.390625 75.0625 167.578125 76.78125 C 175.9375 80.21875 182.46875 86.71875 185.9375 95.0625 C 186.1875 95.625 186.40625 96.203125 186.609375 96.765625 L 161.8125 107.109375 L 161.5625 107 L 148.265625 112.625 L 148.1875 112.78125 L 124.203125 122.78125 C 123.9375 122.234375 123.6875 121.6875 123.4375 121.125 C 116.265625 103.890625 124.4375 84.03125 141.671875 76.84375 C 145.84375 75.109375 150.234375 74.234375 154.625 74.21875 Z M 250.125 74.21875 C 254.515625 74.234375 258.890625 75.109375 263.0625 76.84375 C 271.421875 80.328125 277.90625 86.84375 281.359375 95.203125 C 284.796875 103.578125 284.765625 112.765625 281.296875 121.125 C 281.046875 121.6875 280.796875 122.25 280.546875 122.796875 L 256.546875 112.796875 L 256.484375 112.625 L 243.1875 107.015625 L 242.9375 107.125 L 218.125 96.78125 C 218.34375 96.203125 218.5625 95.625 218.796875 95.0625 C 222.28125 86.71875 228.796875 80.21875 237.15625 76.78125 C 241.34375 75.0625 245.734375 74.203125 250.125 74.21875 Z M 161.328125 111.640625 L 164.40625 118.921875 C 161.09375 120.015625 157.84375 121.28125 154.6875 122.6875 L 151.703125 115.640625 Z M 243.40625 111.640625 L 253.03125 115.640625 L 249.03125 125.125 L 248.34375 124.84375 C 245.46875 123.40625 242.515625 122.09375 239.5 120.890625 Z M 199.234375 121.234375 C 255.46875 121.234375 301.234375 166.984375 301.234375 223.234375 C 301.234375 279.46875 255.46875 325.234375 199.234375 325.234375 C 142.984375 325.234375 97.234375 279.46875 97.234375 223.234375 C 97.234375 166.984375 142.984375 121.234375 199.234375 121.234375 Z M 197.453125 130.484375 C 191.40625 130.59375 185.3125 131.328125 179.265625 132.65625 C 155.34375 137.953125 134.96875 152.25 121.875 172.921875 C 94.6875 215.796875 107.609375 273.1875 150.6875 300.8125 C 165.890625 310.578125 183.125 315.609375 200.6875 315.609375 C 207.359375 315.609375 214.078125 314.875 220.75 313.40625 C 244.65625 308.109375 265.046875 293.8125 278.140625 273.140625 C 289 256.015625 293.8125 236.25 292.0625 215.984375 C 291.96875 214.875 291.015625 214.015625 289.890625 214.15625 C 288.796875 214.25 287.984375 215.21875 288.078125 216.3125 C 288.21875 217.953125 288.25 219.59375 288.3125 221.234375 L 277.625 221.234375 C 276.515625 221.234375 275.625 222.125 275.625 223.234375 C 275.625 224.328125 276.515625 225.234375 277.625 225.234375 L 288.359375 225.234375 C 288.15625 241.46875 283.546875 257.140625 274.765625 271 C 271.78125 275.71875 268.359375 280.0625 264.625 284.0625 L 258.171875 277.5625 C 257.390625 276.78125 256.109375 276.78125 255.328125 277.5625 C 254.546875 278.328125 254.546875 279.59375 255.328125 280.375 L 261.78125 286.875 C 250.296875 298.0625 235.953125 305.9375 219.875 309.5 C 213.359375 310.9375 206.8125 311.546875 200.296875 311.515625 C 200.3125 311.421875 200.359375 311.328125 200.359375 311.234375 L 200.359375 303.234375 C 200.359375 302.125 199.46875 301.234375 198.375 301.234375 C 197.28125 301.234375 196.390625 302.125 196.390625 303.234375 L 196.390625 311.234375 C 196.390625 311.296875 196.421875 311.34375 196.4375 311.40625 C 181.125 310.65625 166.15625 305.984375 152.84375 297.4375 C 147.953125 294.296875 143.484375 290.734375 139.421875 286.875 L 146.203125 280.046875 C 146.984375 279.265625 146.984375 278 146.1875 277.21875 C 145.421875 276.4375 144.140625 276.453125 143.375 277.234375 L 136.625 284 C 121.171875 267.890625 112.484375 246.828125 111.703125 225.234375 L 119.125 225.234375 C 120.234375 225.234375 121.125 224.328125 121.125 223.234375 C 121.125 222.125 120.21875 221.234375 119.125 221.234375 L 111.734375 221.234375 C 111.875 205.34375 116.171875 189.359375 125.25 175.0625 C 128.546875 169.84375 132.34375 165.09375 136.5625 160.765625 L 143.703125 167.953125 C 144.09375 168.34375 144.609375 168.546875 145.125 168.546875 C 145.625 168.546875 146.140625 168.359375 146.53125 167.953125 C 147.3125 167.1875 147.3125 165.921875 146.546875 165.125 L 139.453125 158.015625 C 150.734375 147.453125 164.625 140 180.125 136.5625 C 185.578125 135.359375 191.0625 134.71875 196.53125 134.546875 C 196.453125 134.765625 196.390625 134.984375 196.390625 135.234375 L 196.390625 143.234375 C 196.390625 144.328125 197.28125 145.234375 198.375 145.234375 C 199.46875 145.234375 200.359375 144.328125 200.359375 143.234375 L 200.359375 135.234375 C 200.359375 134.984375 200.296875 134.765625 200.21875 134.5625 C 216.6875 134.734375 232.875 139.4375 247.15625 148.609375 C 252.09375 151.78125 256.65625 155.421875 260.828125 159.4375 L 253.578125 166.734375 C 252.796875 167.515625 252.796875 168.78125 253.578125 169.5625 C 253.96875 169.9375 254.484375 170.125 255 170.125 C 255.5 170.125 256.03125 169.9375 256.421875 169.546875 L 263.640625 162.265625 C 270.21875 169.15625 275.703125 177.03125 279.8125 185.71875 C 280.28125 186.71875 281.46875 187.140625 282.46875 186.671875 C 283.46875 186.203125 283.890625 185 283.421875 184 C 275.9375 168.15625 264.140625 154.75 249.3125 145.25 C 233.578125 135.140625 215.640625 130.109375 197.453125 130.484375 Z M 198.375 153.234375 C 196.171875 153.234375 194.375 155.015625 194.375 157.234375 L 194.375 210.546875 C 191.328125 212.25 189.234375 215.484375 189.234375 219.234375 C 189.234375 224.734375 193.71875 229.234375 199.234375 229.234375 C 202.484375 229.234375 205.359375 227.640625 207.1875 225.234375 L 249.234375 225.234375 C 251.4375 225.234375 253.234375 223.4375 253.234375 221.234375 C 253.234375 219.015625 251.4375 217.234375 249.234375 217.234375 L 209.234375 217.234375 C 209.15625 217.234375 209.109375 217.265625 209.03125 217.265625 C 208.328125 213.734375 205.734375 210.90625 202.375 209.78125 L 202.375 157.234375 C 202.375 155.015625 200.578125 153.234375 198.375 153.234375 Z M 287.203125 199.484375 C 286.953125 199.4375 286.6875 199.453125 286.421875 199.515625 C 285.34375 199.78125 284.6875 200.859375 284.9375 201.9375 C 285.453125 204.015625 285.890625 206.109375 286.25 208.234375 C 286.40625 209.203125 287.265625 209.890625 288.21875 209.890625 C 288.328125 209.890625 288.4375 209.890625 288.5625 209.875 C 289.640625 209.6875 290.375 208.65625 290.1875 207.5625 C 289.828125 205.359375 289.359375 203.15625 288.828125 200.984375 C 288.625 200.1875 287.984375 199.609375 287.203125 199.484375 Z M 199.234375 213.234375 C 202.53125 213.234375 205.234375 215.921875 205.234375 219.234375 C 205.234375 222.53125 202.53125 225.234375 199.234375 225.234375 C 195.921875 225.234375 193.234375 222.53125 193.234375 219.234375 C 193.234375 215.921875 195.921875 213.234375 199.234375 213.234375 Z M 270.8125 306.640625 L 284.09375 338.921875 C 284.328125 339.390625 284.34375 339.9375 284.171875 340.4375 C 283.984375 340.953125 283.609375 341.359375 283.140625 341.578125 C 282.140625 342.046875 280.953125 341.625 280.328125 340.375 L 262.140625 313.375 C 265.15625 311.265625 268.03125 309.03125 270.8125 306.640625 Z M 128.765625 307.625 C 131.515625 309.9375 134.390625 312.09375 137.359375 314.125 L 119.515625 340.625 C 119.046875 341.625 117.84375 342.046875 116.859375 341.578125 C 116.375 341.359375 116.015625 340.953125 115.828125 340.4375 C 115.640625 339.9375 115.671875 339.390625 115.9375 338.8125 Z "/>
</g>
</svg>
