<?xml version="1.0" encoding="UTF-8"?>
<svg xmlns="http://www.w3.org/2000/svg" xmlns:xlink="http://www.w3.org/1999/xlink" width="400pt" height="400pt" viewBox="0 0 400 400" version="1.1">
<g id="surface1">
<path style=" stroke:none;fill-rule:nonzero;fill:#FEFDEF;fill-opacity:1;" d="M 333.734375 351.84375 L 70.640625 351.84375 C 64.617188 351.84375 59.683594 346.910156 59.683594 340.886719 L 59.683594 94.910156 C 59.683594 77.824219 73.664063 63.84375 90.753906 63.84375 L 312.613281 63.84375 C 329.699219 63.84375 343.679688 77.824219 343.679688 94.910156 L 343.679688 341.890625 C 343.683594 347.363281 339.207031 351.84375 333.734375 351.84375 Z "/>
<path style=" stroke:none;fill-rule:nonzero;fill:#1F212B;fill-opacity:1;" d="M 333.734375 355.84375 L 70.644531 355.84375 C 62.394531 355.84375 55.6875 349.136719 55.6875 340.886719 L 55.6875 94.910156 C 55.6875 75.574219 71.425781 59.84375 90.761719 59.84375 L 312.621094 59.84375 C 331.957031 59.84375 347.691406 75.574219 347.691406 94.910156 L 347.691406 341.894531 C 347.683594 349.585938 341.429688 355.84375 333.734375 355.84375 Z M 90.757813 67.84375 C 75.832031 67.84375 63.683594 79.988281 63.683594 94.910156 L 63.683594 340.886719 C 63.683594 344.722656 66.804688 347.84375 70.640625 347.84375 L 333.730469 347.84375 C 337.011719 347.84375 339.679688 345.175781 339.679688 341.894531 L 339.679688 94.910156 C 339.679688 79.988281 327.535156 67.84375 312.609375 67.84375 Z "/>
<path style=" stroke:none;fill-rule:nonzero;fill:#F37E98;fill-opacity:1;" d="M 312.261719 67.84375 L 91.988281 67.710938 C 75.378906 67.710938 63.683594 81.273438 63.683594 97.84375 L 63.683594 127.84375 L 339.683594 127.84375 L 339.683594 97.84375 C 339.683594 81.269531 328.863281 67.84375 312.261719 67.84375 Z "/>
<path style=" stroke:none;fill-rule:nonzero;fill:#1F212B;fill-opacity:1;" d="M 317.683594 127.84375 L 309.683594 127.84375 C 308.578125 127.84375 307.683594 126.949219 307.683594 125.84375 C 307.683594 124.738281 308.578125 123.84375 309.683594 123.84375 L 317.683594 123.84375 C 318.789063 123.84375 319.683594 124.738281 319.683594 125.84375 C 319.683594 126.949219 318.792969 127.84375 317.683594 127.84375 Z "/>
<path style=" stroke:none;fill-rule:nonzero;fill:#1F212B;fill-opacity:1;" d="M 301.683594 127.84375 L 61.683594 127.84375 C 60.578125 127.84375 59.683594 126.949219 59.683594 125.84375 C 59.683594 124.738281 60.578125 123.84375 61.683594 123.84375 L 301.683594 123.84375 C 302.789063 123.84375 303.683594 124.738281 303.683594 125.84375 C 303.683594 126.949219 302.792969 127.84375 301.683594 127.84375 Z "/>
<path style=" stroke:none;fill-rule:nonzero;fill:#FEFDEF;fill-opacity:1;" d="M 105.683594 93.84375 C 105.683594 98.261719 102.101563 101.84375 97.683594 101.84375 C 93.265625 101.84375 89.683594 98.261719 89.683594 93.84375 C 89.683594 89.425781 93.265625 85.84375 97.683594 85.84375 C 102.101563 85.84375 105.683594 89.425781 105.683594 93.84375 Z "/>
<path style=" stroke:none;fill-rule:nonzero;fill:#1F212B;fill-opacity:1;" d="M 97.683594 103.84375 C 92.167969 103.84375 87.683594 99.355469 87.683594 93.84375 C 87.683594 88.332031 92.167969 83.84375 97.683594 83.84375 C 103.199219 83.84375 107.683594 88.332031 107.683594 93.84375 C 107.683594 99.355469 103.199219 103.84375 97.683594 103.84375 Z M 97.683594 87.84375 C 94.375 87.84375 91.683594 90.535156 91.683594 93.84375 C 91.683594 97.152344 94.375 99.84375 97.683594 99.84375 C 100.992188 99.84375 103.683594 97.152344 103.683594 93.84375 C 103.683594 90.535156 100.992188 87.84375 97.683594 87.84375 Z "/>
<path style=" stroke:none;fill-rule:nonzero;fill:#FEFDEF;fill-opacity:1;" d="M 313.683594 93.84375 C 313.683594 98.261719 310.101563 101.84375 305.683594 101.84375 C 301.265625 101.84375 297.683594 98.261719 297.683594 93.84375 C 297.683594 89.425781 301.265625 85.84375 305.683594 85.84375 C 310.101563 85.84375 313.683594 89.425781 313.683594 93.84375 Z "/>
<path style=" stroke:none;fill-rule:nonzero;fill:#1F212B;fill-opacity:1;" d="M 305.683594 103.84375 C 300.167969 103.84375 295.683594 99.355469 295.683594 93.84375 C 295.683594 88.332031 300.167969 83.84375 305.683594 83.84375 C 311.199219 83.84375 315.683594 88.332031 315.683594 93.84375 C 315.683594 99.355469 311.199219 103.84375 305.683594 103.84375 Z M 305.683594 87.84375 C 302.375 87.84375 299.683594 90.535156 299.683594 93.84375 C 299.683594 97.152344 302.375 99.84375 305.683594 99.84375 C 308.992188 99.84375 311.683594 97.152344 311.683594 93.84375 C 311.683594 90.535156 308.992188 87.84375 305.683594 87.84375 Z "/>
<path style=" stroke:none;fill-rule:nonzero;fill:#1F212B;fill-opacity:1;" d="M 299.683594 79.84375 C 297.472656 79.84375 295.683594 78.050781 295.683594 75.84375 L 295.683594 51.84375 C 295.683594 49.636719 297.472656 47.84375 299.683594 47.84375 C 301.894531 47.84375 303.683594 49.636719 303.683594 51.84375 L 303.683594 75.84375 C 303.683594 78.050781 301.894531 79.84375 299.683594 79.84375 Z "/>
<path style=" stroke:none;fill-rule:nonzero;fill:#1F212B;fill-opacity:1;" d="M 271.683594 79.84375 C 269.472656 79.84375 267.683594 78.050781 267.683594 75.84375 L 267.683594 51.84375 C 267.683594 49.636719 269.472656 47.84375 271.683594 47.84375 C 273.894531 47.84375 275.683594 49.636719 275.683594 51.84375 L 275.683594 75.84375 C 275.683594 78.050781 273.894531 79.84375 271.683594 79.84375 Z "/>
<path style=" stroke:none;fill-rule:nonzero;fill:#1F212B;fill-opacity:1;" d="M 243.683594 79.84375 C 241.472656 79.84375 239.683594 78.050781 239.683594 75.84375 L 239.683594 51.84375 C 239.683594 49.636719 241.472656 47.84375 243.683594 47.84375 C 245.894531 47.84375 247.683594 49.636719 247.683594 51.84375 L 247.683594 75.84375 C 247.683594 78.050781 245.894531 79.84375 243.683594 79.84375 Z "/>
<path style=" stroke:none;fill-rule:nonzero;fill:#1F212B;fill-opacity:1;" d="M 215.683594 79.84375 C 213.472656 79.84375 211.683594 78.050781 211.683594 75.84375 L 211.683594 51.84375 C 211.683594 49.636719 213.472656 47.84375 215.683594 47.84375 C 217.894531 47.84375 219.683594 49.636719 219.683594 51.84375 L 219.683594 75.84375 C 219.683594 78.050781 217.894531 79.84375 215.683594 79.84375 Z "/>
<path style=" stroke:none;fill-rule:nonzero;fill:#1F212B;fill-opacity:1;" d="M 187.683594 79.84375 C 185.472656 79.84375 183.683594 78.050781 183.683594 75.84375 L 183.683594 51.84375 C 183.683594 49.636719 185.472656 47.84375 187.683594 47.84375 C 189.894531 47.84375 191.683594 49.636719 191.683594 51.84375 L 191.683594 75.84375 C 191.683594 78.050781 189.894531 79.84375 187.683594 79.84375 Z "/>
<path style=" stroke:none;fill-rule:nonzero;fill:#1F212B;fill-opacity:1;" d="M 159.683594 79.84375 C 157.472656 79.84375 155.683594 78.050781 155.683594 75.84375 L 155.683594 51.84375 C 155.683594 49.636719 157.472656 47.84375 159.683594 47.84375 C 161.894531 47.84375 163.683594 49.636719 163.683594 51.84375 L 163.683594 75.84375 C 163.683594 78.050781 161.894531 79.84375 159.683594 79.84375 Z "/>
<path style=" stroke:none;fill-rule:nonzero;fill:#1F212B;fill-opacity:1;" d="M 131.683594 79.84375 C 129.472656 79.84375 127.683594 78.050781 127.683594 75.84375 L 127.683594 51.84375 C 127.683594 49.636719 129.472656 47.84375 131.683594 47.84375 C 133.894531 47.84375 135.683594 49.636719 135.683594 51.84375 L 135.683594 75.84375 C 135.683594 78.050781 133.894531 79.84375 131.683594 79.84375 Z "/>
<path style=" stroke:none;fill-rule:nonzero;fill:#1F212B;fill-opacity:1;" d="M 103.683594 79.84375 C 101.472656 79.84375 99.683594 78.050781 99.683594 75.84375 L 99.683594 51.84375 C 99.683594 49.636719 101.472656 47.84375 103.683594 47.84375 C 105.894531 47.84375 107.683594 49.636719 107.683594 51.84375 L 107.683594 75.84375 C 107.683594 78.050781 105.894531 79.84375 103.683594 79.84375 Z "/>
<path style=" stroke:none;fill-rule:nonzero;fill:#1F212B;fill-opacity:1;" d="M 341.683594 127.84375 L 325.683594 127.84375 C 324.578125 127.84375 323.683594 126.949219 323.683594 125.84375 C 323.683594 124.738281 324.578125 123.84375 325.683594 123.84375 L 341.683594 123.84375 C 342.789063 123.84375 343.683594 124.738281 343.683594 125.84375 C 343.683594 126.949219 342.792969 127.84375 341.683594 127.84375 Z "/>
<path style=" stroke:none;fill-rule:nonzero;fill:#FEF6AA;fill-opacity:1;" d="M 145.683594 165.84375 L 153.683594 165.84375 L 153.683594 189.84375 L 129.683594 189.84375 L 129.683594 177.84375 "/>
<path style=" stroke:none;fill-rule:nonzero;fill:#1F212B;fill-opacity:1;" d="M 153.683594 191.84375 L 129.683594 191.84375 C 128.578125 191.84375 127.683594 190.949219 127.683594 189.84375 L 127.683594 177.84375 C 127.683594 176.738281 128.578125 175.84375 129.683594 175.84375 C 130.789063 175.84375 131.683594 176.738281 131.683594 177.84375 L 131.683594 187.84375 L 151.683594 187.84375 L 151.683594 167.84375 L 145.683594 167.84375 C 144.578125 167.84375 143.683594 166.949219 143.683594 165.84375 C 143.683594 164.738281 144.578125 163.84375 145.683594 163.84375 L 153.683594 163.84375 C 154.789063 163.84375 155.683594 164.738281 155.683594 165.84375 L 155.683594 189.84375 C 155.683594 190.949219 154.792969 191.84375 153.683594 191.84375 Z "/>
<path style=" stroke:none;fill-rule:nonzero;fill:#FEF6AA;fill-opacity:1;" d="M 169.683594 165.84375 L 193.683594 165.84375 L 193.683594 189.84375 L 169.683594 189.84375 Z "/>
<path style=" stroke:none;fill-rule:nonzero;fill:#1F212B;fill-opacity:1;" d="M 193.683594 191.84375 L 169.683594 191.84375 C 168.578125 191.84375 167.683594 190.949219 167.683594 189.84375 L 167.683594 165.84375 C 167.683594 164.738281 168.578125 163.84375 169.683594 163.84375 L 193.683594 163.84375 C 194.789063 163.84375 195.683594 164.738281 195.683594 165.84375 L 195.683594 189.84375 C 195.683594 190.949219 194.792969 191.84375 193.683594 191.84375 Z M 171.683594 187.84375 L 191.683594 187.84375 L 191.683594 167.84375 L 171.683594 167.84375 Z "/>
<path style=" stroke:none;fill-rule:nonzero;fill:#FEF6AA;fill-opacity:1;" d="M 209.683594 165.84375 L 233.683594 165.84375 L 233.683594 189.84375 L 209.683594 189.84375 Z "/>
<path style=" stroke:none;fill-rule:nonzero;fill:#1F212B;fill-opacity:1;" d="M 233.683594 191.84375 L 209.683594 191.84375 C 208.578125 191.84375 207.683594 190.949219 207.683594 189.84375 L 207.683594 165.84375 C 207.683594 164.738281 208.578125 163.84375 209.683594 163.84375 L 233.683594 163.84375 C 234.789063 163.84375 235.683594 164.738281 235.683594 165.84375 L 235.683594 189.84375 C 235.683594 190.949219 234.792969 191.84375 233.683594 191.84375 Z M 211.683594 187.84375 L 231.683594 187.84375 L 231.683594 167.84375 L 211.683594 167.84375 Z "/>
<path style=" stroke:none;fill-rule:nonzero;fill:#FEF6AA;fill-opacity:1;" d="M 249.683594 165.84375 L 273.683594 165.84375 L 273.683594 189.84375 L 249.683594 189.84375 Z "/>
<path style=" stroke:none;fill-rule:nonzero;fill:#1F212B;fill-opacity:1;" d="M 273.683594 191.84375 L 249.683594 191.84375 C 248.578125 191.84375 247.683594 190.949219 247.683594 189.84375 L 247.683594 165.84375 C 247.683594 164.738281 248.578125 163.84375 249.683594 163.84375 L 273.683594 163.84375 C 274.789063 163.84375 275.683594 164.738281 275.683594 165.84375 L 275.683594 189.84375 C 275.683594 190.949219 274.792969 191.84375 273.683594 191.84375 Z M 251.683594 187.84375 L 271.683594 187.84375 L 271.683594 167.84375 L 251.683594 167.84375 Z "/>
<path style=" stroke:none;fill-rule:nonzero;fill:#FEF6AA;fill-opacity:1;" d="M 289.683594 165.84375 L 313.683594 165.84375 L 313.683594 189.84375 L 289.683594 189.84375 Z "/>
<path style=" stroke:none;fill-rule:nonzero;fill:#1F212B;fill-opacity:1;" d="M 313.683594 191.84375 L 289.683594 191.84375 C 288.578125 191.84375 287.683594 190.949219 287.683594 189.84375 L 287.683594 165.84375 C 287.683594 164.738281 288.578125 163.84375 289.683594 163.84375 L 313.683594 163.84375 C 314.789063 163.84375 315.683594 164.738281 315.683594 165.84375 L 315.683594 189.84375 C 315.683594 190.949219 314.792969 191.84375 313.683594 191.84375 Z M 291.683594 187.84375 L 311.683594 187.84375 L 311.683594 167.84375 L 291.683594 167.84375 Z "/>
<path style=" stroke:none;fill-rule:nonzero;fill:#FEF6AA;fill-opacity:1;" d="M 129.683594 205.84375 L 153.683594 205.84375 L 153.683594 229.84375 L 129.683594 229.84375 Z "/>
<path style=" stroke:none;fill-rule:nonzero;fill:#1F212B;fill-opacity:1;" d="M 153.683594 231.84375 L 129.683594 231.84375 C 128.578125 231.84375 127.683594 230.949219 127.683594 229.84375 L 127.683594 205.84375 C 127.683594 204.738281 128.578125 203.84375 129.683594 203.84375 L 153.683594 203.84375 C 154.789063 203.84375 155.683594 204.738281 155.683594 205.84375 L 155.683594 229.84375 C 155.683594 230.949219 154.792969 231.84375 153.683594 231.84375 Z M 131.683594 227.84375 L 151.683594 227.84375 L 151.683594 207.84375 L 131.683594 207.84375 Z "/>
<path style=" stroke:none;fill-rule:nonzero;fill:#FEF6AA;fill-opacity:1;" d="M 169.683594 205.84375 L 193.683594 205.84375 L 193.683594 229.84375 L 169.683594 229.84375 Z "/>
<path style=" stroke:none;fill-rule:nonzero;fill:#1F212B;fill-opacity:1;" d="M 193.683594 231.84375 L 169.683594 231.84375 C 168.578125 231.84375 167.683594 230.949219 167.683594 229.84375 L 167.683594 205.84375 C 167.683594 204.738281 168.578125 203.84375 169.683594 203.84375 L 193.683594 203.84375 C 194.789063 203.84375 195.683594 204.738281 195.683594 205.84375 L 195.683594 229.84375 C 195.683594 230.949219 194.792969 231.84375 193.683594 231.84375 Z M 171.683594 227.84375 L 191.683594 227.84375 L 191.683594 207.84375 L 171.683594 207.84375 Z "/>
<path style=" stroke:none;fill-rule:nonzero;fill:#FEF6AA;fill-opacity:1;" d="M 209.683594 205.84375 L 233.683594 205.84375 L 233.683594 229.84375 L 209.683594 229.84375 Z "/>
<path style=" stroke:none;fill-rule:nonzero;fill:#1F212B;fill-opacity:1;" d="M 233.683594 231.84375 L 209.683594 231.84375 C 208.578125 231.84375 207.683594 230.949219 207.683594 229.84375 L 207.683594 205.84375 C 207.683594 204.738281 208.578125 203.84375 209.683594 203.84375 L 233.683594 203.84375 C 234.789063 203.84375 235.683594 204.738281 235.683594 205.84375 L 235.683594 229.84375 C 235.683594 230.949219 234.792969 231.84375 233.683594 231.84375 Z M 211.683594 227.84375 L 231.683594 227.84375 L 231.683594 207.84375 L 211.683594 207.84375 Z "/>
<path style=" stroke:none;fill-rule:nonzero;fill:#FEF6AA;fill-opacity:1;" d="M 249.683594 205.84375 L 273.683594 205.84375 L 273.683594 229.84375 L 249.683594 229.84375 Z "/>
<path style=" stroke:none;fill-rule:nonzero;fill:#1F212B;fill-opacity:1;" d="M 273.683594 231.84375 L 249.683594 231.84375 C 248.578125 231.84375 247.683594 230.949219 247.683594 229.84375 L 247.683594 205.84375 C 247.683594 204.738281 248.578125 203.84375 249.683594 203.84375 L 273.683594 203.84375 C 274.789063 203.84375 275.683594 204.738281 275.683594 205.84375 L 275.683594 229.84375 C 275.683594 230.949219 274.792969 231.84375 273.683594 231.84375 Z M 251.683594 227.84375 L 271.683594 227.84375 L 271.683594 207.84375 L 251.683594 207.84375 Z "/>
<path style=" stroke:none;fill-rule:nonzero;fill:#FEF6AA;fill-opacity:1;" d="M 289.683594 205.84375 L 313.683594 205.84375 L 313.683594 229.84375 L 289.683594 229.84375 Z "/>
<path style=" stroke:none;fill-rule:nonzero;fill:#1F212B;fill-opacity:1;" d="M 313.683594 231.84375 L 289.683594 231.84375 C 288.578125 231.84375 287.683594 230.949219 287.683594 229.84375 L 287.683594 205.84375 C 287.683594 204.738281 288.578125 203.84375 289.683594 203.84375 L 313.683594 203.84375 C 314.789063 203.84375 315.683594 204.738281 315.683594 205.84375 L 315.683594 229.84375 C 315.683594 230.949219 314.792969 231.84375 313.683594 231.84375 Z M 291.683594 227.84375 L 311.683594 227.84375 L 311.683594 207.84375 L 291.683594 207.84375 Z "/>
<path style=" stroke:none;fill-rule:nonzero;fill:#FEF6AA;fill-opacity:1;" d="M 89.683594 205.84375 L 113.683594 205.84375 L 113.683594 229.84375 L 89.683594 229.84375 Z "/>
<path style=" stroke:none;fill-rule:nonzero;fill:#1F212B;fill-opacity:1;" d="M 113.683594 231.84375 L 89.683594 231.84375 C 88.578125 231.84375 87.683594 230.949219 87.683594 229.84375 L 87.683594 205.84375 C 87.683594 204.738281 88.578125 203.84375 89.683594 203.84375 L 113.683594 203.84375 C 114.789063 203.84375 115.683594 204.738281 115.683594 205.84375 L 115.683594 229.84375 C 115.683594 230.949219 114.792969 231.84375 113.683594 231.84375 Z M 91.683594 227.84375 L 111.683594 227.84375 L 111.683594 207.84375 L 91.683594 207.84375 Z "/>
<path style=" stroke:none;fill-rule:nonzero;fill:#FEF6AA;fill-opacity:1;" d="M 129.683594 245.84375 L 153.683594 245.84375 L 153.683594 269.84375 L 129.683594 269.84375 Z "/>
<path style=" stroke:none;fill-rule:nonzero;fill:#1F212B;fill-opacity:1;" d="M 153.683594 271.84375 L 129.683594 271.84375 C 128.578125 271.84375 127.683594 270.949219 127.683594 269.84375 L 127.683594 245.84375 C 127.683594 244.738281 128.578125 243.84375 129.683594 243.84375 L 153.683594 243.84375 C 154.789063 243.84375 155.683594 244.738281 155.683594 245.84375 L 155.683594 269.84375 C 155.683594 270.949219 154.792969 271.84375 153.683594 271.84375 Z M 131.683594 267.84375 L 151.683594 267.84375 L 151.683594 247.84375 L 131.683594 247.84375 Z "/>
<path style=" stroke:none;fill-rule:nonzero;fill:#FEF6AA;fill-opacity:1;" d="M 169.683594 245.84375 L 193.683594 245.84375 L 193.683594 269.84375 L 169.683594 269.84375 Z "/>
<path style=" stroke:none;fill-rule:nonzero;fill:#1F212B;fill-opacity:1;" d="M 193.683594 271.84375 L 169.683594 271.84375 C 168.578125 271.84375 167.683594 270.949219 167.683594 269.84375 L 167.683594 245.84375 C 167.683594 244.738281 168.578125 243.84375 169.683594 243.84375 L 193.683594 243.84375 C 194.789063 243.84375 195.683594 244.738281 195.683594 245.84375 L 195.683594 269.84375 C 195.683594 270.949219 194.792969 271.84375 193.683594 271.84375 Z M 171.683594 267.84375 L 191.683594 267.84375 L 191.683594 247.84375 L 171.683594 247.84375 Z "/>
<path style=" stroke:none;fill-rule:nonzero;fill:#FEF6AA;fill-opacity:1;" d="M 209.683594 245.84375 L 233.683594 245.84375 L 233.683594 269.84375 L 209.683594 269.84375 Z "/>
<path style=" stroke:none;fill-rule:nonzero;fill:#1F212B;fill-opacity:1;" d="M 233.683594 271.84375 L 209.683594 271.84375 C 208.578125 271.84375 207.683594 270.949219 207.683594 269.84375 L 207.683594 245.84375 C 207.683594 244.738281 208.578125 243.84375 209.683594 243.84375 L 233.683594 243.84375 C 234.789063 243.84375 235.683594 244.738281 235.683594 245.84375 L 235.683594 269.84375 C 235.683594 270.949219 234.792969 271.84375 233.683594 271.84375 Z M 211.683594 267.84375 L 231.683594 267.84375 L 231.683594 247.84375 L 211.683594 247.84375 Z "/>
<path style=" stroke:none;fill-rule:nonzero;fill:#FEF6AA;fill-opacity:1;" d="M 249.683594 245.84375 L 273.683594 245.84375 L 273.683594 269.84375 L 249.683594 269.84375 Z "/>
<path style=" stroke:none;fill-rule:nonzero;fill:#1F212B;fill-opacity:1;" d="M 273.683594 271.84375 L 249.683594 271.84375 C 248.578125 271.84375 247.683594 270.949219 247.683594 269.84375 L 247.683594 245.84375 C 247.683594 244.738281 248.578125 243.84375 249.683594 243.84375 L 273.683594 243.84375 C 274.789063 243.84375 275.683594 244.738281 275.683594 245.84375 L 275.683594 269.84375 C 275.683594 270.949219 274.792969 271.84375 273.683594 271.84375 Z M 251.683594 267.84375 L 271.683594 267.84375 L 271.683594 247.84375 L 251.683594 247.84375 Z "/>
<path style=" stroke:none;fill-rule:nonzero;fill:#FEF6AA;fill-opacity:1;" d="M 289.683594 245.84375 L 313.683594 245.84375 L 313.683594 269.84375 L 289.683594 269.84375 Z "/>
<path style=" stroke:none;fill-rule:nonzero;fill:#1F212B;fill-opacity:1;" d="M 313.683594 271.84375 L 289.683594 271.84375 C 288.578125 271.84375 287.683594 270.949219 287.683594 269.84375 L 287.683594 245.84375 C 287.683594 244.738281 288.578125 243.84375 289.683594 243.84375 L 313.683594 243.84375 C 314.789063 243.84375 315.683594 244.738281 315.683594 245.84375 L 315.683594 269.84375 C 315.683594 270.949219 314.792969 271.84375 313.683594 271.84375 Z M 291.683594 267.84375 L 311.683594 267.84375 L 311.683594 247.84375 L 291.683594 247.84375 Z "/>
<path style=" stroke:none;fill-rule:nonzero;fill:#FEF6AA;fill-opacity:1;" d="M 89.683594 245.84375 L 113.683594 245.84375 L 113.683594 269.84375 L 89.683594 269.84375 Z "/>
<path style=" stroke:none;fill-rule:nonzero;fill:#1F212B;fill-opacity:1;" d="M 113.683594 271.84375 L 89.683594 271.84375 C 88.578125 271.84375 87.683594 270.949219 87.683594 269.84375 L 87.683594 245.84375 C 87.683594 244.738281 88.578125 243.84375 89.683594 243.84375 L 113.683594 243.84375 C 114.789063 243.84375 115.683594 244.738281 115.683594 245.84375 L 115.683594 269.84375 C 115.683594 270.949219 114.792969 271.84375 113.683594 271.84375 Z M 91.683594 267.84375 L 111.683594 267.84375 L 111.683594 247.84375 L 91.683594 247.84375 Z "/>
<path style=" stroke:none;fill-rule:nonzero;fill:#FEF6AA;fill-opacity:1;" d="M 129.683594 285.84375 L 153.683594 285.84375 L 153.683594 309.84375 L 129.683594 309.84375 Z "/>
<path style=" stroke:none;fill-rule:nonzero;fill:#1F212B;fill-opacity:1;" d="M 153.683594 311.84375 L 129.683594 311.84375 C 128.578125 311.84375 127.683594 310.949219 127.683594 309.84375 L 127.683594 285.84375 C 127.683594 284.738281 128.578125 283.84375 129.683594 283.84375 L 153.683594 283.84375 C 154.789063 283.84375 155.683594 284.738281 155.683594 285.84375 L 155.683594 309.84375 C 155.683594 310.949219 154.792969 311.84375 153.683594 311.84375 Z M 131.683594 307.84375 L 151.683594 307.84375 L 151.683594 287.84375 L 131.683594 287.84375 Z "/>
<path style=" stroke:none;fill-rule:nonzero;fill:#FEF6AA;fill-opacity:1;" d="M 169.683594 285.84375 L 193.683594 285.84375 L 193.683594 309.84375 L 169.683594 309.84375 Z "/>
<path style=" stroke:none;fill-rule:nonzero;fill:#1F212B;fill-opacity:1;" d="M 193.683594 311.84375 L 169.683594 311.84375 C 168.578125 311.84375 167.683594 310.949219 167.683594 309.84375 L 167.683594 285.84375 C 167.683594 284.738281 168.578125 283.84375 169.683594 283.84375 L 193.683594 283.84375 C 194.789063 283.84375 195.683594 284.738281 195.683594 285.84375 L 195.683594 309.84375 C 195.683594 310.949219 194.792969 311.84375 193.683594 311.84375 Z M 171.683594 307.84375 L 191.683594 307.84375 L 191.683594 287.84375 L 171.683594 287.84375 Z "/>
<path style=" stroke:none;fill-rule:nonzero;fill:#FEF6AA;fill-opacity:1;" d="M 229.683594 309.84375 L 209.683594 309.84375 L 209.683594 285.84375 L 233.683594 285.84375 L 233.683594 301.84375 "/>
<path style=" stroke:none;fill-rule:nonzero;fill:#1F212B;fill-opacity:1;" d="M 229.683594 311.84375 L 209.683594 311.84375 C 208.578125 311.84375 207.683594 310.949219 207.683594 309.84375 L 207.683594 285.84375 C 207.683594 284.738281 208.578125 283.84375 209.683594 283.84375 L 233.683594 283.84375 C 234.789063 283.84375 235.683594 284.738281 235.683594 285.84375 L 235.683594 301.84375 C 235.683594 302.949219 234.789063 303.84375 233.683594 303.84375 C 232.578125 303.84375 231.683594 302.949219 231.683594 301.84375 L 231.683594 287.84375 L 211.683594 287.84375 L 211.683594 307.84375 L 229.683594 307.84375 C 230.789063 307.84375 231.683594 308.738281 231.683594 309.84375 C 231.683594 310.949219 230.792969 311.84375 229.683594 311.84375 Z "/>
<path style=" stroke:none;fill-rule:nonzero;fill:#FEF6AA;fill-opacity:1;" d="M 89.683594 285.84375 L 113.683594 285.84375 L 113.683594 309.84375 L 89.683594 309.84375 Z "/>
<path style=" stroke:none;fill-rule:nonzero;fill:#1F212B;fill-opacity:1;" d="M 113.683594 311.84375 L 89.683594 311.84375 C 88.578125 311.84375 87.683594 310.949219 87.683594 309.84375 L 87.683594 285.84375 C 87.683594 284.738281 88.578125 283.84375 89.683594 283.84375 L 113.683594 283.84375 C 114.789063 283.84375 115.683594 284.738281 115.683594 285.84375 L 115.683594 309.84375 C 115.683594 310.949219 114.792969 311.84375 113.683594 311.84375 Z M 91.683594 307.84375 L 111.683594 307.84375 L 111.683594 287.84375 L 91.683594 287.84375 Z "/>
</g>
</svg>
