<?xml version="1.0" encoding="UTF-8"?>
<svg xmlns="http://www.w3.org/2000/svg" xmlns:xlink="http://www.w3.org/1999/xlink" width="512pt" height="512pt" viewBox="0 0 512 512" version="1.1">
<g id="surface1">
<path style=" stroke:none;fill-rule:nonzero;fill:#000000;fill-opacity:1;" d="M 144 80 L 144 96 L 80 96 L 80 448 L 432 448 L 432 96 L 368 96 L 368 80 L 336 80 L 336 96 L 176 96 L 176 80 Z M 112 128 L 144 128 L 144 144 L 176 144 L 176 128 L 336 128 L 336 144 L 368 144 L 368 128 L 400 128 L 400 160 L 112 160 Z M 112 192 L 400 192 L 400 416 L 112 416 Z M 240 224 L 240 288 L 176 288 L 176 320 L 240 320 L 240 384 L 272 384 L 272 320 L 336 320 L 336 288 L 272 288 L 272 224 Z "/>
</g>
</svg>
