<?xml version="1.0" encoding="UTF-8"?>
<svg xmlns="http://www.w3.org/2000/svg" xmlns:xlink="http://www.w3.org/1999/xlink" width="500pt" height="500pt" viewBox="0 0 500 500" version="1.1">
<g id="surface1">
<path style=" stroke:none;fill-rule:nonzero;fill:#C7EDE6;fill-opacity:1;" d="M 441.671875 280.609375 C 443.164063 277.539063 444.484375 274.316406 445.628906 270.933594 C 458.738281 232.238281 438.914063 185.894531 397.164063 174.710938 C 392.648438 118.019531 352.816406 79.136719 307.828125 72.5 C 256.339844 64.90625 209.164063 97.613281 193.46875 149.609375 C 174.550781 142.910156 156.113281 143.726563 138.746094 153.875 C 130.863281 157.519531 123.65625 162.898438 117.183594 169.976563 C 107.683594 180.359375 101.515625 193.476563 99 207.300781 C 95.273438 207.886719 91.613281 208.476563 88.164063 209.710938 C 68.050781 216.925781 55.355469 231.773438 51.875 254.140625 C 49.703125 268.066406 54.078125 281.960938 56.519531 287.574219 C 66.15625 309.753906 88.5 322.335938 111.199219 319.003906 C 112.328125 318.839844 113.96875 319.351563 114.945313 320.164063 C 116.144531 355.621094 133.359375 386.976563 159.183594 404.886719 C 200.621094 433.625 253.929688 424.769531 287.558594 385.359375 C 301.96875 400.101563 319.125 407.261719 339.269531 404.660156 C 359.300781 402.074219 374.855469 391.019531 386.203125 373.050781 C 391.445313 374.460938 396.421875 376.496094 401.558594 377.054688 C 421.683594 379.253906 438.03125 371.25 450.019531 353.15625 C 454.609375 346.230469 458.949219 337.25 458.949219 321.515625 C 458.949219 305.289063 452.511719 290.515625 441.671875 280.609375 Z "/>
<path style=" stroke:none;fill-rule:nonzero;fill:#FDFCEF;fill-opacity:1;" d="M 382.441406 247.601563 C 382.441406 247.601563 440.65625 247.601563 441.011719 247.601563 C 454.453125 247.601563 465.351563 236.699219 465.351563 223.253906 C 465.351563 211.523438 457.054688 201.738281 446.011719 199.429688 C 446.136719 198.40625 446.226563 197.363281 446.226563 196.304688 C 446.226563 182.378906 434.941406 171.09375 421.015625 171.09375 C 412.796875 171.09375 405.515625 175.050781 400.914063 181.136719 C 399.738281 165.636719 385.894531 153.679688 369.695313 155.660156 C 357.851563 157.109375 348.054688 166.265625 345.875 177.996094 C 345.175781 181.753906 345.25 185.410156 345.945313 188.835938 C 342.769531 185.414063 338.25 183.261719 333.214844 183.261719 C 324 183.261719 316.480469 190.433594 315.886719 199.5 C 311.699219 198.574219 307.148438 198.636719 302.355469 200.433594 C 293.195313 203.875 286.671875 212.5 286.285156 222.28125 C 285.746094 236.171875 296.839844 247.601563 310.605469 247.601563 C 311.648438 247.601563 315.324219 247.601563 316.175781 247.601563 L 366.71875 247.601563 "/>
<path style=" stroke:none;fill-rule:nonzero;fill:#472B29;fill-opacity:1;" d="M 441.011719 250.101563 L 382.445313 250.101563 C 381.066406 250.101563 379.945313 248.980469 379.945313 247.601563 C 379.945313 246.21875 381.066406 245.101563 382.445313 245.101563 L 441.015625 245.101563 C 453.058594 245.101563 462.855469 235.304688 462.855469 223.261719 C 462.855469 212.976563 455.558594 203.984375 445.503906 201.886719 C 444.230469 201.621094 443.375 200.425781 443.535156 199.128906 C 443.648438 198.203125 443.730469 197.265625 443.730469 196.308594 C 443.730469 183.785156 433.539063 173.601563 421.019531 173.601563 C 413.859375 173.601563 407.261719 176.898438 402.910156 182.648438 C 402.285156 183.484375 401.214844 183.855469 400.210938 183.539063 C 399.214844 183.246094 398.5 182.371094 398.425781 181.335938 C 397.90625 174.476563 394.550781 168.039063 389.214844 163.671875 C 383.824219 159.25 376.996094 157.296875 370 158.148438 C 359.21875 159.46875 350.308594 167.820313 348.335938 178.460938 C 347.714844 181.78125 347.738281 185.109375 348.398438 188.351563 C 348.621094 189.449219 348.089844 190.558594 347.089844 191.070313 C 346.09375 191.578125 344.875 191.371094 344.113281 190.550781 C 341.253906 187.46875 337.386719 185.773438 333.214844 185.773438 C 325.40625 185.773438 318.894531 191.878906 318.386719 199.675781 C 318.335938 200.40625 317.976563 201.074219 317.390625 201.511719 C 316.804688 201.945313 316.050781 202.101563 315.351563 201.949219 C 311.160156 201.023438 307.199219 201.296875 303.238281 202.785156 C 294.929688 205.898438 289.125 213.78125 288.789063 222.386719 C 288.554688 228.394531 290.714844 234.078125 294.871094 238.40625 C 299.023438 242.730469 304.613281 245.105469 310.609375 245.105469 L 366.726563 245.105469 C 368.105469 245.105469 369.226563 246.226563 369.226563 247.605469 C 369.226563 248.984375 368.105469 250.105469 366.726563 250.105469 L 310.609375 250.105469 C 303.238281 250.105469 296.371094 247.179688 291.261719 241.871094 C 286.15625 236.558594 283.5 229.574219 283.789063 222.191406 C 284.203125 211.601563 291.308594 201.921875 301.480469 198.105469 C 305.464844 196.609375 309.585938 196.105469 313.765625 196.613281 C 315.644531 187.539063 323.714844 180.773438 333.214844 180.773438 C 336.621094 180.773438 339.949219 181.664063 342.890625 183.304688 C 342.890625 181.390625 343.066406 179.464844 343.421875 177.550781 C 345.796875 164.785156 356.476563 154.769531 369.394531 153.191406 C 377.75 152.148438 385.929688 154.515625 392.386719 159.804688 C 397.378906 163.898438 400.925781 169.511719 402.535156 175.695313 C 407.574219 171.140625 414.078125 168.609375 421.019531 168.609375 C 436.300781 168.609375 448.730469 181.039063 448.730469 196.320313 C 448.730469 196.734375 448.71875 197.144531 448.695313 197.550781 C 459.921875 200.898438 467.855469 211.386719 467.855469 223.269531 C 467.855469 238.058594 455.808594 250.101563 441.011719 250.101563 Z "/>
<path style=" stroke:none;fill-rule:nonzero;fill:#FDFCEF;fill-opacity:1;" d="M 368.335938 193.980469 C 359.328125 193.390625 351.578125 199.609375 351.023438 207.871094 C 350.953125 208.894531 351 209.90625 351.148438 210.890625 C 349.414063 208.929688 346.839844 207.59375 343.890625 207.40625 C 338.488281 207.050781 333.824219 210.621094 333.144531 215.46875 C 332.160156 215.199219 331.140625 215.019531 330.074219 214.949219 C 322.195313 214.433594 315.414063 219.875 314.929688 227.105469 "/>
<path style=" stroke:none;fill-rule:nonzero;fill:#472B29;fill-opacity:1;" d="M 314.933594 228.34375 C 314.90625 228.34375 314.875 228.34375 314.851563 228.34375 C 314.160156 228.300781 313.640625 227.703125 313.683594 227.015625 C 314.214844 219.105469 321.503906 213.109375 330.160156 213.695313 C 330.828125 213.738281 331.511719 213.828125 332.191406 213.960938 C 333.554688 209.140625 338.480469 205.835938 343.96875 206.148438 C 346.085938 206.289063 348.066406 206.945313 349.761719 208.050781 C 349.765625 207.960938 349.769531 207.871094 349.773438 207.78125 C 350.378906 198.84375 358.683594 192.109375 368.414063 192.726563 C 369.105469 192.769531 369.625 193.363281 369.578125 194.054688 C 369.535156 194.738281 368.980469 195.289063 368.25 195.21875 C 359.949219 194.675781 352.773438 200.386719 352.269531 207.945313 C 352.210938 208.859375 352.25 209.785156 352.386719 210.695313 C 352.46875 211.246094 352.179688 211.78125 351.679688 212.015625 C 351.175781 212.25 350.578125 212.125 350.214844 211.710938 C 348.609375 209.898438 346.335938 208.804688 343.808594 208.644531 C 339.046875 208.320313 334.976563 211.40625 334.386719 215.636719 C 334.335938 215.988281 334.136719 216.304688 333.835938 216.503906 C 333.535156 216.703125 333.160156 216.765625 332.820313 216.671875 C 331.875 216.414063 330.921875 216.253906 329.996094 216.191406 C 322.878906 215.695313 316.621094 220.648438 316.179688 227.179688 C 316.136719 227.839844 315.585938 228.34375 314.933594 228.34375 Z "/>
<path style=" stroke:none;fill-rule:nonzero;fill:#FDFCEF;fill-opacity:1;" d="M 450.863281 202.285156 C 442.40625 198.296875 432.621094 201.121094 429.011719 208.59375 C 428.558594 209.523438 428.230469 210.480469 428.011719 211.449219 "/>
<path style=" stroke:none;fill-rule:nonzero;fill:#472B29;fill-opacity:1;" d="M 428.011719 212.699219 C 427.921875 212.699219 427.824219 212.691406 427.730469 212.671875 C 427.054688 212.515625 426.636719 211.84375 426.789063 211.175781 C 427.035156 210.09375 427.40625 209.046875 427.886719 208.050781 C 431.785156 199.980469 442.339844 196.890625 451.398438 201.160156 C 452.023438 201.453125 452.296875 202.199219 452 202.824219 C 451.703125 203.449219 450.960938 203.710938 450.335938 203.425781 C 442.5 199.734375 433.445313 202.300781 430.136719 209.144531 C 429.738281 209.964844 429.429688 210.835938 429.226563 211.734375 C 429.101563 212.308594 428.585938 212.699219 428.011719 212.699219 Z "/>
<path style=" stroke:none;fill-rule:nonzero;fill:#FFFFFF;fill-opacity:1;" d="M 91.441406 240.960938 L 41.496094 240.960938 C 40.113281 240.960938 38.996094 239.839844 38.996094 238.460938 C 38.996094 237.078125 40.113281 235.960938 41.496094 235.960938 L 91.441406 235.960938 C 92.820313 235.960938 93.941406 237.078125 93.941406 238.460938 C 93.941406 239.839844 92.820313 240.960938 91.441406 240.960938 Z "/>
<path style=" stroke:none;fill-rule:nonzero;fill:#FFFFFF;fill-opacity:1;" d="M 105.785156 240.960938 L 98.589844 240.960938 C 97.210938 240.960938 96.089844 239.839844 96.089844 238.460938 C 96.089844 237.078125 97.210938 235.960938 98.589844 235.960938 L 105.785156 235.960938 C 107.164063 235.960938 108.285156 237.078125 108.285156 238.460938 C 108.285156 239.839844 107.164063 240.960938 105.785156 240.960938 Z "/>
<path style=" stroke:none;fill-rule:nonzero;fill:#FFFFFF;fill-opacity:1;" d="M 125.976563 240.960938 L 113.296875 240.960938 C 111.914063 240.960938 110.796875 239.839844 110.796875 238.460938 C 110.796875 237.078125 111.914063 235.960938 113.296875 235.960938 L 125.976563 235.960938 C 127.355469 235.960938 128.476563 237.078125 128.476563 238.460938 C 128.476563 239.839844 127.355469 240.960938 125.976563 240.960938 Z "/>
<path style=" stroke:none;fill-rule:nonzero;fill:#FFFFFF;fill-opacity:1;" d="M 125.976563 250.246094 L 78.089844 250.246094 C 76.710938 250.246094 75.589844 249.125 75.589844 247.746094 C 75.589844 246.363281 76.710938 245.246094 78.089844 245.246094 L 125.976563 245.246094 C 127.355469 245.246094 128.476563 246.363281 128.476563 247.746094 C 128.476563 249.125 127.355469 250.246094 125.976563 250.246094 Z "/>
<path style=" stroke:none;fill-rule:nonzero;fill:#FFFFFF;fill-opacity:1;" d="M 69.46875 250.246094 L 66.578125 250.246094 C 65.199219 250.246094 64.078125 249.125 64.078125 247.746094 C 64.078125 246.363281 65.199219 245.246094 66.578125 245.246094 L 69.46875 245.246094 C 70.851563 245.246094 71.96875 246.363281 71.96875 247.746094 C 71.96875 249.125 70.851563 250.246094 69.46875 250.246094 Z "/>
<path style=" stroke:none;fill-rule:nonzero;fill:#FFFFFF;fill-opacity:1;" d="M 57.636719 250.246094 L 50.386719 250.246094 C 49.003906 250.246094 47.886719 249.125 47.886719 247.746094 C 47.886719 246.363281 49.003906 245.246094 50.386719 245.246094 L 57.636719 245.246094 C 59.015625 245.246094 60.136719 246.363281 60.136719 247.746094 C 60.136719 249.125 59.015625 250.246094 57.636719 250.246094 Z "/>
<path style=" stroke:none;fill-rule:nonzero;fill:#FFFFFF;fill-opacity:1;" d="M 103.125 231.675781 L 78.089844 231.675781 C 76.710938 231.675781 75.589844 230.554688 75.589844 229.175781 C 75.589844 227.796875 76.710938 226.675781 78.089844 226.675781 L 103.125 226.675781 C 104.503906 226.675781 105.625 227.796875 105.625 229.175781 C 105.625 230.554688 104.511719 231.675781 103.125 231.675781 Z "/>
<path style=" stroke:none;fill-rule:nonzero;fill:#FFFFFF;fill-opacity:1;" d="M 103.125 222.390625 L 96.863281 222.390625 C 95.484375 222.390625 94.363281 221.269531 94.363281 219.890625 C 94.363281 218.511719 95.484375 217.390625 96.863281 217.390625 L 103.125 217.390625 C 104.503906 217.390625 105.625 218.511719 105.625 219.890625 C 105.625 221.269531 104.511719 222.390625 103.125 222.390625 Z "/>
<path style=" stroke:none;fill-rule:nonzero;fill:#FFFFFF;fill-opacity:1;" d="M 86.851563 259.535156 L 78.09375 259.535156 C 76.714844 259.535156 75.59375 258.414063 75.59375 257.035156 C 75.59375 255.65625 76.714844 254.535156 78.09375 254.535156 L 86.851563 254.535156 C 88.230469 254.535156 89.351563 255.65625 89.351563 257.035156 C 89.351563 258.414063 88.230469 259.535156 86.851563 259.535156 Z "/>
<path style=" stroke:none;fill-rule:nonzero;fill:#FFFFFF;fill-opacity:1;" d="M 356.238281 110.113281 L 306.296875 110.113281 C 304.914063 110.113281 303.796875 108.996094 303.796875 107.613281 C 303.796875 106.234375 304.914063 105.113281 306.296875 105.113281 L 356.238281 105.113281 C 357.621094 105.113281 358.738281 106.234375 358.738281 107.613281 C 358.738281 108.996094 357.621094 110.113281 356.238281 110.113281 Z "/>
<path style=" stroke:none;fill-rule:nonzero;fill:#FFFFFF;fill-opacity:1;" d="M 370.585938 110.113281 L 363.386719 110.113281 C 362.003906 110.113281 360.886719 108.996094 360.886719 107.613281 C 360.886719 106.234375 362.003906 105.113281 363.386719 105.113281 L 370.585938 105.113281 C 371.964844 105.113281 373.085938 106.234375 373.085938 107.613281 C 373.085938 108.996094 371.964844 110.113281 370.585938 110.113281 Z "/>
<path style=" stroke:none;fill-rule:nonzero;fill:#FFFFFF;fill-opacity:1;" d="M 390.773438 110.113281 L 378.09375 110.113281 C 376.714844 110.113281 375.59375 108.996094 375.59375 107.613281 C 375.59375 106.234375 376.714844 105.113281 378.09375 105.113281 L 390.773438 105.113281 C 392.15625 105.113281 393.273438 106.234375 393.273438 107.613281 C 393.273438 108.996094 392.15625 110.113281 390.773438 110.113281 Z "/>
<path style=" stroke:none;fill-rule:nonzero;fill:#FFFFFF;fill-opacity:1;" d="M 380.683594 91.546875 L 332.800781 91.546875 C 331.421875 91.546875 330.300781 90.425781 330.300781 89.046875 C 330.300781 87.664063 331.421875 86.546875 332.800781 86.546875 L 380.683594 86.546875 C 382.066406 86.546875 383.183594 87.664063 383.183594 89.046875 C 383.183594 90.425781 382.070313 91.546875 380.683594 91.546875 Z "/>
<path style=" stroke:none;fill-rule:nonzero;fill:#FFFFFF;fill-opacity:1;" d="M 324.179688 91.546875 L 321.289063 91.546875 C 319.910156 91.546875 318.789063 90.425781 318.789063 89.046875 C 318.789063 87.664063 319.910156 86.546875 321.289063 86.546875 L 324.179688 86.546875 C 325.558594 86.546875 326.679688 87.664063 326.679688 89.046875 C 326.679688 90.425781 325.566406 91.546875 324.179688 91.546875 Z "/>
<path style=" stroke:none;fill-rule:nonzero;fill:#FFFFFF;fill-opacity:1;" d="M 312.34375 91.546875 L 305.09375 91.546875 C 303.714844 91.546875 302.59375 90.425781 302.59375 89.046875 C 302.59375 87.664063 303.714844 86.546875 305.09375 86.546875 L 312.34375 86.546875 C 313.726563 86.546875 314.84375 87.664063 314.84375 89.046875 C 314.84375 90.425781 313.726563 91.546875 312.34375 91.546875 Z "/>
<path style=" stroke:none;fill-rule:nonzero;fill:#FFFFFF;fill-opacity:1;" d="M 367.925781 100.828125 L 342.890625 100.828125 C 341.511719 100.828125 340.390625 99.710938 340.390625 98.328125 C 340.390625 96.949219 341.511719 95.828125 342.890625 95.828125 L 367.925781 95.828125 C 369.304688 95.828125 370.425781 96.949219 370.425781 98.328125 C 370.425781 99.710938 369.304688 100.828125 367.925781 100.828125 Z "/>
<path style=" stroke:none;fill-rule:nonzero;fill:#FFFFFF;fill-opacity:1;" d="M 367.925781 91.546875 L 361.664063 91.546875 C 360.285156 91.546875 359.164063 90.425781 359.164063 89.046875 C 359.164063 87.664063 360.285156 86.546875 361.664063 86.546875 L 367.925781 86.546875 C 369.304688 86.546875 370.425781 87.664063 370.425781 89.046875 C 370.425781 90.425781 369.304688 91.546875 367.925781 91.546875 Z "/>
<path style=" stroke:none;fill-rule:nonzero;fill:#FFFFFF;fill-opacity:1;" d="M 335.644531 100.828125 L 326.890625 100.828125 C 325.511719 100.828125 324.390625 99.710938 324.390625 98.328125 C 324.390625 96.949219 325.511719 95.828125 326.890625 95.828125 L 335.644531 95.828125 C 337.023438 95.828125 338.144531 96.949219 338.144531 98.328125 C 338.144531 99.710938 337.023438 100.828125 335.644531 100.828125 Z "/>
<path style=" stroke:none;fill-rule:nonzero;fill:#A9C439;fill-opacity:1;" d="M 332 365.105469 L 184.324219 365.105469 C 165.496094 365.105469 150.089844 349.699219 150.089844 330.871094 L 150.089844 183.195313 C 150.089844 164.363281 165.496094 148.960938 184.324219 148.960938 L 332 148.960938 C 350.828125 148.960938 366.234375 164.363281 366.234375 183.195313 L 366.234375 330.871094 C 366.234375 349.699219 350.828125 365.105469 332 365.105469 Z "/>
<path style=" stroke:none;fill-rule:nonzero;fill:#472B29;fill-opacity:1;" d="M 332 368.609375 L 184.320313 368.609375 C 163.511719 368.609375 146.585938 351.679688 146.585938 330.875 L 146.585938 183.195313 C 146.585938 162.386719 163.515625 145.460938 184.320313 145.460938 L 332 145.460938 C 352.808594 145.460938 369.734375 162.390625 369.734375 183.195313 L 369.734375 330.871094 C 369.734375 351.679688 352.804688 368.609375 332 368.609375 Z M 184.320313 152.460938 C 167.371094 152.460938 153.585938 166.246094 153.585938 183.195313 L 153.585938 330.871094 C 153.585938 347.820313 167.371094 361.605469 184.320313 361.605469 L 332 361.605469 C 348.949219 361.605469 362.734375 347.820313 362.734375 330.871094 L 362.734375 183.195313 C 362.734375 166.246094 348.949219 152.460938 332 152.460938 Z "/>
<path style=" stroke:none;fill-rule:nonzero;fill:#FDFCEE;fill-opacity:1;" d="M 323.050781 349.671875 L 193.269531 349.671875 C 178.011719 349.671875 165.523438 337.183594 165.523438 321.925781 L 165.523438 192.144531 C 165.523438 176.886719 178.011719 164.398438 193.269531 164.398438 L 323.050781 164.398438 C 338.308594 164.398438 350.796875 176.886719 350.796875 192.144531 L 350.796875 321.925781 C 350.796875 337.183594 338.308594 349.671875 323.050781 349.671875 Z "/>
<path style=" stroke:none;fill-rule:nonzero;fill:#472B29;fill-opacity:1;" d="M 322.644531 351.421875 L 193.679688 351.421875 C 177.191406 351.421875 163.773438 338.003906 163.773438 321.515625 L 163.773438 192.554688 C 163.773438 176.066406 177.191406 162.648438 193.679688 162.648438 L 316.488281 162.648438 C 317.453125 162.648438 318.238281 163.433594 318.238281 164.398438 C 318.238281 165.363281 317.453125 166.148438 316.488281 166.148438 L 193.679688 166.148438 C 179.121094 166.148438 167.273438 177.996094 167.273438 192.554688 L 167.273438 321.515625 C 167.273438 336.074219 179.121094 347.921875 193.679688 347.921875 L 322.640625 347.921875 C 337.199219 347.921875 349.046875 336.074219 349.046875 321.515625 L 349.046875 250.171875 C 349.046875 249.203125 349.828125 248.421875 350.796875 248.421875 C 351.761719 248.421875 352.546875 249.203125 352.546875 250.171875 L 352.546875 321.515625 C 352.546875 338.003906 339.128906 351.421875 322.644531 351.421875 Z "/>
<path style=" stroke:none;fill-rule:nonzero;fill:#472B29;fill-opacity:1;" d="M 350.796875 241.628906 C 349.828125 241.628906 349.046875 240.84375 349.046875 239.878906 L 349.046875 226.15625 C 349.046875 225.191406 349.828125 224.40625 350.796875 224.40625 C 351.761719 224.40625 352.546875 225.191406 352.546875 226.15625 L 352.546875 239.878906 C 352.546875 240.84375 351.765625 241.628906 350.796875 241.628906 Z "/>
<path style=" stroke:none;fill-rule:nonzero;fill:#472B29;fill-opacity:1;" d="M 350.796875 221.039063 C 349.828125 221.039063 349.046875 220.253906 349.046875 219.289063 L 349.046875 212.429688 C 349.046875 211.464844 349.828125 210.679688 350.796875 210.679688 C 351.761719 210.679688 352.546875 211.464844 352.546875 212.429688 L 352.546875 219.289063 C 352.546875 220.261719 351.765625 221.039063 350.796875 221.039063 Z "/>
<path style=" stroke:none;fill-rule:nonzero;fill:#F1BC19;fill-opacity:1;" d="M 304.160156 285.894531 L 299.871094 247.835938 C 299.871094 225.941406 281.953125 208.023438 260.058594 208.023438 L 256.269531 208.023438 C 234.375 208.023438 216.460938 225.941406 216.460938 247.835938 L 212.171875 285.894531 C 207.664063 285.894531 203.984375 289.578125 203.984375 294.078125 C 203.984375 298.585938 207.671875 302.265625 212.171875 302.265625 L 304.164063 302.265625 C 308.671875 302.265625 312.351563 298.578125 312.351563 294.078125 C 312.34375 289.578125 308.660156 285.894531 304.160156 285.894531 Z "/>
<path style=" stroke:none;fill-rule:nonzero;fill:#472B29;fill-opacity:1;" d="M 304.160156 304.144531 L 212.164063 304.144531 C 206.621094 304.144531 202.105469 299.628906 202.105469 294.078125 C 202.105469 289.109375 205.730469 284.96875 210.476563 284.160156 L 214.59375 247.625 C 214.585938 224.851563 233.28125 206.148438 256.265625 206.148438 L 260.054688 206.148438 C 283.039063 206.148438 301.738281 224.851563 301.738281 247.835938 L 305.851563 284.160156 C 310.59375 284.964844 314.21875 289.109375 314.21875 294.078125 C 314.21875 299.628906 309.703125 304.144531 304.160156 304.144531 Z M 256.265625 209.898438 C 235.34375 209.898438 218.328125 226.914063 218.328125 247.835938 L 214.023438 286.105469 C 213.921875 287.050781 213.113281 287.769531 212.160156 287.769531 C 208.679688 287.769531 205.851563 290.601563 205.851563 294.078125 C 205.851563 297.558594 208.679688 300.394531 212.160156 300.394531 L 304.15625 300.394531 C 307.636719 300.394531 310.464844 297.566406 310.464844 294.078125 C 310.464844 290.601563 307.636719 287.769531 304.15625 287.769531 C 303.199219 287.769531 302.398438 287.050781 302.289063 286.105469 L 298 248.046875 C 297.988281 226.914063 280.96875 209.898438 260.054688 209.898438 Z "/>
<path style=" stroke:none;fill-rule:nonzero;fill:#FBCD59;fill-opacity:1;" d="M 265.816406 206.976563 C 265.210938 203.289063 262.019531 200.476563 258.164063 200.476563 C 254.308594 200.476563 251.121094 203.289063 250.515625 206.976563 Z "/>
<path style=" stroke:none;fill-rule:nonzero;fill:#472B29;fill-opacity:1;" d="M 265.808594 208.230469 L 250.503906 208.230469 C 250.140625 208.230469 249.789063 208.070313 249.554688 207.789063 C 249.316406 207.511719 249.214844 207.140625 249.273438 206.78125 C 249.996094 202.40625 253.730469 199.230469 258.160156 199.230469 C 262.59375 199.230469 266.328125 202.40625 267.046875 206.78125 C 267.105469 207.144531 267 207.511719 266.765625 207.796875 C 266.523438 208.066406 266.179688 208.230469 265.808594 208.230469 Z M 252.15625 205.730469 L 264.164063 205.730469 C 263.179688 203.339844 260.84375 201.730469 258.160156 201.730469 C 255.476563 201.730469 253.144531 203.339844 252.15625 205.730469 Z "/>
<path style=" stroke:none;fill-rule:nonzero;fill:#FBCD59;fill-opacity:1;" d="M 242.75 303.316406 C 243.644531 311.039063 250.199219 317.035156 258.164063 317.035156 C 266.128906 317.035156 272.683594 311.035156 273.578125 303.316406 Z "/>
<path style=" stroke:none;fill-rule:nonzero;fill:#472B29;fill-opacity:1;" d="M 258.160156 318.910156 C 249.328125 318.910156 241.90625 312.300781 240.886719 303.53125 C 240.824219 303 240.988281 302.46875 241.351563 302.070313 C 241.703125 301.671875 242.214844 301.445313 242.75 301.445313 L 273.578125 301.445313 C 274.113281 301.445313 274.625 301.675781 274.980469 302.070313 C 275.335938 302.46875 275.503906 303.003906 275.445313 303.53125 C 274.421875 312.300781 266.996094 318.910156 258.160156 318.910156 Z M 245.019531 305.191406 C 246.636719 311 251.953125 315.160156 258.160156 315.160156 C 264.363281 315.160156 269.691406 311 271.304688 305.191406 Z "/>
<path style=" stroke:none;fill-rule:nonzero;fill:#472B29;fill-opacity:1;" d="M 288.964844 287.34375 L 283.234375 287.34375 C 282.546875 287.34375 281.984375 286.785156 281.984375 286.09375 C 281.984375 285.40625 282.546875 284.84375 283.234375 284.84375 L 288.964844 284.84375 C 289.65625 284.84375 290.214844 285.40625 290.214844 286.09375 C 290.214844 286.785156 289.65625 287.34375 288.964844 287.34375 Z "/>
<path style=" stroke:none;fill-rule:nonzero;fill:#472B29;fill-opacity:1;" d="M 278.425781 287.34375 L 277.140625 287.34375 C 276.449219 287.34375 275.890625 286.785156 275.890625 286.09375 C 275.890625 285.40625 276.449219 284.84375 277.140625 284.84375 L 278.425781 284.84375 C 279.113281 284.84375 279.675781 285.40625 279.675781 286.09375 C 279.675781 286.785156 279.113281 287.34375 278.425781 287.34375 Z "/>
<path style=" stroke:none;fill-rule:nonzero;fill:#472B29;fill-opacity:1;" d="M 273.011719 287.34375 L 212.054688 287.34375 C 211.363281 287.34375 210.804688 286.785156 210.804688 286.09375 C 210.804688 285.40625 211.363281 284.84375 212.054688 284.84375 L 273.011719 284.84375 C 273.699219 284.84375 274.261719 285.40625 274.261719 286.09375 C 274.261719 286.785156 273.699219 287.34375 273.011719 287.34375 Z "/>
<path style=" stroke:none;fill-rule:nonzero;fill:#FDFCEF;fill-opacity:1;" d="M 202.363281 378.886719 C 211.746094 378.886719 219.875 378.886719 219.996094 378.886719 C 230.5 378.886719 239.019531 370.550781 239.019531 360.265625 C 239.019531 351.296875 232.535156 343.804688 223.90625 342.039063 C 224.003906 341.253906 224.070313 340.460938 224.070313 339.648438 C 224.070313 329 215.25 320.363281 204.363281 320.363281 C 197.941406 320.363281 192.25 323.390625 188.65625 328.046875 C 187.734375 316.191406 176.914063 307.046875 164.253906 308.558594 C 155 309.671875 147.339844 316.671875 145.640625 325.644531 C 145.09375 328.523438 145.148438 331.316406 145.695313 333.941406 C 143.214844 331.324219 139.679688 329.675781 135.746094 329.675781 C 128.546875 329.675781 122.664063 335.160156 122.199219 342.09375 C 118.929688 341.386719 115.375 341.433594 111.625 342.808594 C 104.464844 345.441406 99.363281 352.039063 99.066406 359.519531 C 98.640625 370.144531 107.316406 378.886719 118.074219 378.886719 C 118.890625 378.886719 121.765625 378.886719 122.425781 378.886719 L 161.929688 378.886719 M 170.109375 378.886719 L 171.898438 378.886719 "/>
<path style=" stroke:none;fill-rule:nonzero;fill:#472B29;fill-opacity:1;" d="M 219.996094 381.386719 L 202.363281 381.386719 C 200.984375 381.386719 199.863281 380.265625 199.863281 378.886719 C 199.863281 377.503906 200.984375 376.386719 202.363281 376.386719 L 219.996094 376.386719 C 229.105469 376.386719 236.519531 369.15625 236.519531 360.265625 C 236.519531 352.679688 231.003906 346.046875 223.40625 344.488281 C 222.125 344.230469 221.261719 343.023438 221.425781 341.726563 C 221.515625 341.039063 221.574219 340.355469 221.574219 339.644531 C 221.574219 330.390625 213.859375 322.859375 204.371094 322.859375 C 198.933594 322.859375 193.929688 325.304688 190.640625 329.570313 C 190.003906 330.390625 188.933594 330.730469 187.945313 330.433594 C 186.953125 330.140625 186.25 329.265625 186.171875 328.234375 C 185.773438 323.164063 183.359375 318.566406 179.355469 315.28125 C 175.234375 311.894531 169.980469 310.386719 164.558594 311.035156 C 156.363281 312.015625 149.601563 318.214844 148.101563 326.105469 C 147.628906 328.566406 147.648438 331.03125 148.144531 333.425781 C 148.371094 334.519531 147.84375 335.628906 146.855469 336.144531 C 145.863281 336.664063 144.648438 336.460938 143.878906 335.648438 C 141.75 333.40625 138.859375 332.164063 135.746094 332.164063 C 129.929688 332.164063 125.074219 336.59375 124.695313 342.253906 C 124.644531 342.980469 124.285156 343.644531 123.703125 344.085938 C 123.125 344.519531 122.390625 344.683594 121.671875 344.53125 C 118.503906 343.839844 115.496094 344.039063 112.488281 345.144531 C 106.210938 347.453125 101.820313 353.265625 101.566406 359.609375 C 101.390625 363.964844 102.976563 368.109375 106.019531 371.28125 C 109.179688 374.566406 113.460938 376.378906 118.078125 376.378906 L 161.933594 376.378906 C 163.316406 376.378906 164.433594 377.5 164.433594 378.878906 C 164.433594 380.261719 163.316406 381.378906 161.933594 381.378906 L 118.078125 381.378906 C 112.175781 381.378906 106.464844 378.964844 102.414063 374.746094 C 98.421875 370.585938 96.34375 365.140625 96.574219 359.410156 C 96.90625 351.070313 102.609375 343.453125 110.769531 340.453125 C 113.808594 339.339844 116.949219 338.929688 120.128906 339.234375 C 121.851563 332.285156 128.25 327.164063 135.75 327.164063 C 138.199219 327.164063 140.605469 327.726563 142.78125 328.765625 C 142.824219 327.570313 142.964844 326.363281 143.191406 325.164063 C 145.085938 315.15625 153.628906 307.300781 163.964844 306.066406 C 170.75 305.261719 177.34375 307.15625 182.53125 311.410156 C 186.25 314.460938 188.890625 318.421875 190.230469 322.859375 C 194.171875 319.636719 199.113281 317.855469 204.378906 317.855469 C 216.625 317.855469 226.585938 327.628906 226.585938 339.640625 C 226.585938 339.808594 226.585938 339.976563 226.578125 340.144531 C 235.363281 342.910156 241.535156 351.046875 241.535156 360.253906 C 241.515625 371.910156 231.859375 381.386719 219.996094 381.386719 Z M 171.898438 381.386719 L 170.109375 381.386719 C 168.730469 381.386719 167.609375 380.265625 167.609375 378.886719 C 167.609375 377.503906 168.730469 376.386719 170.109375 376.386719 L 171.898438 376.386719 C 173.28125 376.386719 174.398438 377.503906 174.398438 378.886719 C 174.398438 380.265625 173.28125 381.386719 171.898438 381.386719 Z "/>
<path style=" stroke:none;fill-rule:nonzero;fill:#472B29;fill-opacity:1;" d="M 211.488281 352.484375 C 211.398438 352.484375 211.308594 352.476563 211.214844 352.453125 C 210.539063 352.304688 210.121094 351.636719 210.269531 350.960938 C 210.453125 350.136719 210.738281 349.328125 211.113281 348.570313 C 214.128906 342.46875 222.441406 340.226563 229.65625 343.554688 C 230.28125 343.84375 230.554688 344.589844 230.265625 345.214844 C 229.976563 345.839844 229.234375 346.109375 228.605469 345.824219 C 222.621094 343.054688 215.773438 344.785156 213.355469 349.675781 C 213.070313 350.253906 212.851563 350.871094 212.710938 351.503906 C 212.578125 352.089844 212.066406 352.484375 211.488281 352.484375 Z "/>
<path style=" stroke:none;fill-rule:nonzero;fill:#472B29;fill-opacity:1;" d="M 185.800781 381.386719 L 180.285156 381.386719 C 178.90625 381.386719 177.785156 380.265625 177.785156 378.886719 C 177.785156 377.503906 178.90625 376.386719 180.285156 376.386719 L 185.800781 376.386719 C 187.179688 376.386719 188.300781 377.503906 188.300781 378.886719 C 188.300781 380.265625 187.183594 381.386719 185.800781 381.386719 Z "/>
</g>
</svg>
