<?xml version="1.0" encoding="UTF-8"?>
<svg xmlns="http://www.w3.org/2000/svg" xmlns:xlink="http://www.w3.org/1999/xlink" width="480pt" height="480pt" viewBox="0 0 480 480" version="1.1">
<g id="surface1">
<path style=" stroke:none;fill-rule:nonzero;fill:#000000;fill-opacity:1;" d="M 144 30 C 137.4375 30 132 35.4375 132 42 L 132 60 L 90 60 C 73.5 60 60 73.5 60 90 L 60 390 C 60 406.5 73.5 420 90 420 L 295.054688 420 C 309.328125 455.132813 343.78125 480 384 480 C 436.945313 480 480 436.945313 480 384 C 480 343.78125 455.132813 309.328125 420 295.054688 L 420 90 C 420 73.5 406.5 60 390 60 L 348 60 L 348 42 C 348 35.4375 342.5625 30 336 30 L 324 30 C 317.4375 30 312 35.4375 312 42 L 312 60 L 168 60 L 168 42 C 168 35.4375 162.5625 30 156 30 Z M 144 42 L 156 42 L 156 90 L 144 90 Z M 324 42 L 336 42 L 336 90 L 324 90 Z M 90 72 L 132 72 L 132 90 C 132 96.5625 137.4375 102 144 102 L 156 102 C 162.5625 102 168 96.5625 168 90 L 168 72 L 312 72 L 312 90 C 312 96.5625 317.4375 102 324 102 L 336 102 C 342.5625 102 348 96.5625 348 90 L 348 72 L 390 72 C 400.007813 72 408 79.992188 408 90 L 408 132 L 72 132 L 72 90 C 72 79.992188 79.992188 72 90 72 Z M 72 144 L 408 144 L 408 291.164063 C 400.3125 289.171875 392.296875 288 384 288 C 331.054688 288 288 331.054688 288 384 C 288 392.296875 289.171875 400.3125 291.164063 408 L 90 408 C 79.992188 408 72 400.007813 72 390 Z M 144 192 C 140.695313 192 138 194.695313 138 198 C 138 201.304688 140.695313 204 144 204 C 147.304688 204 150 201.304688 150 198 C 150 194.695313 147.304688 192 144 192 Z M 168 192 C 164.695313 192 162 194.695313 162 198 C 162 201.304688 164.695313 204 168 204 C 171.304688 204 174 201.304688 174 198 C 174 194.695313 171.304688 192 168 192 Z M 192 192 C 188.695313 192 186 194.695313 186 198 C 186 201.304688 188.695313 204 192 204 C 195.304688 204 198 201.304688 198 198 C 198 194.695313 195.304688 192 192 192 Z M 216 192 C 212.695313 192 210 194.695313 210 198 C 210 201.304688 212.695313 204 216 204 C 219.304688 204 222 201.304688 222 198 C 222 194.695313 219.304688 192 216 192 Z M 240 192 C 236.695313 192 234 194.695313 234 198 C 234 201.304688 236.695313 204 240 204 C 243.304688 204 246 201.304688 246 198 C 246 194.695313 243.304688 192 240 192 Z M 264 192 C 260.695313 192 258 194.695313 258 198 C 258 201.304688 260.695313 204 264 204 C 267.304688 204 270 201.304688 270 198 C 270 194.695313 267.304688 192 264 192 Z M 288 192 C 284.695313 192 282 194.695313 282 198 C 282 201.304688 284.695313 204 288 204 C 291.304688 204 294 201.304688 294 198 C 294 194.695313 291.304688 192 288 192 Z M 312 192 C 308.695313 192 306 194.695313 306 198 C 306 201.304688 308.695313 204 312 204 C 315.304688 204 318 201.304688 318 198 C 318 194.695313 315.304688 192 312 192 Z M 336 192 C 332.695313 192 330 194.695313 330 198 C 330 201.304688 332.695313 204 336 204 C 339.304688 204 342 201.304688 342 198 C 342 194.695313 339.304688 192 336 192 Z M 144 216 C 140.695313 216 138 218.695313 138 222 C 138 225.304688 140.695313 228 144 228 C 147.304688 228 150 225.304688 150 222 C 150 218.695313 147.304688 216 144 216 Z M 192 216 C 188.695313 216 186 218.695313 186 222 C 186 225.304688 188.695313 228 192 228 C 195.304688 228 198 225.304688 198 222 C 198 218.695313 195.304688 216 192 216 Z M 240 216 C 236.695313 216 234 218.695313 234 222 C 234 225.304688 236.695313 228 240 228 C 243.304688 228 246 225.304688 246 222 C 246 218.695313 243.304688 216 240 216 Z M 288 216 C 284.695313 216 282 218.695313 282 222 C 282 225.304688 284.695313 228 288 228 C 291.304688 228 294 225.304688 294 222 C 294 218.695313 291.304688 216 288 216 Z M 336 216 C 332.695313 216 330 218.695313 330 222 C 330 225.304688 332.695313 228 336 228 C 339.304688 228 342 225.304688 342 222 C 342 218.695313 339.304688 216 336 216 Z M 144 240 C 140.695313 240 138 242.695313 138 246 C 138 249.304688 140.695313 252 144 252 C 147.304688 252 150 249.304688 150 246 C 150 242.695313 147.304688 240 144 240 Z M 168 240 C 164.695313 240 162 242.695313 162 246 C 162 249.304688 164.695313 252 168 252 C 171.304688 252 174 249.304688 174 246 C 174 242.695313 171.304688 240 168 240 Z M 192 240 C 188.695313 240 186 242.695313 186 246 C 186 249.304688 188.695313 252 192 252 C 195.304688 252 198 249.304688 198 246 C 198 242.695313 195.304688 240 192 240 Z M 216 240 C 212.695313 240 210 242.695313 210 246 C 210 249.304688 212.695313 252 216 252 C 219.304688 252 222 249.304688 222 246 C 222 242.695313 219.304688 240 216 240 Z M 240 240 C 236.695313 240 234 242.695313 234 246 C 234 249.304688 236.695313 252 240 252 C 243.304688 252 246 249.304688 246 246 C 246 242.695313 243.304688 240 240 240 Z M 264 240 C 260.695313 240 258 242.695313 258 246 C 258 249.304688 260.695313 252 264 252 C 267.304688 252 270 249.304688 270 246 C 270 242.695313 267.304688 240 264 240 Z M 288 240 C 284.695313 240 282 242.695313 282 246 C 282 249.304688 284.695313 252 288 252 C 291.304688 252 294 249.304688 294 246 C 294 242.695313 291.304688 240 288 240 Z M 312 240 C 308.695313 240 306 242.695313 306 246 C 306 249.304688 308.695313 252 312 252 C 315.304688 252 318 249.304688 318 246 C 318 242.695313 315.304688 240 312 240 Z M 336 240 C 332.695313 240 330 242.695313 330 246 C 330 249.304688 332.695313 252 336 252 C 339.304688 252 342 249.304688 342 246 C 342 242.695313 339.304688 240 336 240 Z M 144 264 C 140.695313 264 138 266.695313 138 270 C 138 273.304688 140.695313 276 144 276 C 147.304688 276 150 273.304688 150 270 C 150 266.695313 147.304688 264 144 264 Z M 192 264 C 188.695313 264 186 266.695313 186 270 C 186 273.304688 188.695313 276 192 276 C 195.304688 276 198 273.304688 198 270 C 198 266.695313 195.304688 264 192 264 Z M 240 264 C 236.695313 264 234 266.695313 234 270 C 234 273.304688 236.695313 276 240 276 C 243.304688 276 246 273.304688 246 270 C 246 266.695313 243.304688 264 240 264 Z M 288 264 C 284.695313 264 282 266.695313 282 270 C 282 273.304688 284.695313 276 288 276 C 291.304688 276 294 273.304688 294 270 C 294 266.695313 291.304688 264 288 264 Z M 336 264 C 332.695313 264 330 266.695313 330 270 C 330 273.304688 332.695313 276 336 276 C 339.304688 276 342 273.304688 342 270 C 342 266.695313 339.304688 264 336 264 Z M 144 288 C 140.695313 288 138 290.695313 138 294 C 138 297.304688 140.695313 300 144 300 C 147.304688 300 150 297.304688 150 294 C 150 290.695313 147.304688 288 144 288 Z M 168 288 C 164.695313 288 162 290.695313 162 294 C 162 297.304688 164.695313 300 168 300 C 171.304688 300 174 297.304688 174 294 C 174 290.695313 171.304688 288 168 288 Z M 192 288 C 188.695313 288 186 290.695313 186 294 C 186 297.304688 188.695313 300 192 300 C 195.304688 300 198 297.304688 198 294 C 198 290.695313 195.304688 288 192 288 Z M 216 288 C 212.695313 288 210 290.695313 210 294 C 210 297.304688 212.695313 300 216 300 C 219.304688 300 222 297.304688 222 294 C 222 290.695313 219.304688 288 216 288 Z M 240 288 C 236.695313 288 234 290.695313 234 294 C 234 297.304688 236.695313 300 240 300 C 243.304688 300 246 297.304688 246 294 C 246 290.695313 243.304688 288 240 288 Z M 264 288 C 260.695313 288 258 290.695313 258 294 C 258 297.304688 260.695313 300 264 300 C 267.304688 300 270 297.304688 270 294 C 270 290.695313 267.304688 288 264 288 Z M 288 288 C 284.695313 288 282 290.695313 282 294 C 282 297.304688 284.695313 300 288 300 C 291.304688 300 294 297.304688 294 294 C 294 290.695313 291.304688 288 288 288 Z M 312 288 C 308.695313 288 306 290.695313 306 294 C 306 297.304688 308.695313 300 312 300 C 315.304688 300 318 297.304688 318 294 C 318 290.695313 315.304688 288 312 288 Z M 384 300 C 430.453125 300 468 337.546875 468 384 C 468 430.453125 430.453125 468 384 468 C 337.546875 468 300 430.453125 300 384 C 300 337.546875 337.546875 300 384 300 Z M 144 312 C 140.695313 312 138 314.695313 138 318 C 138 321.304688 140.695313 324 144 324 C 147.304688 324 150 321.304688 150 318 C 150 314.695313 147.304688 312 144 312 Z M 192 312 C 188.695313 312 186 314.695313 186 318 C 186 321.304688 188.695313 324 192 324 C 195.304688 324 198 321.304688 198 318 C 198 314.695313 195.304688 312 192 312 Z M 240 312 C 236.695313 312 234 314.695313 234 318 C 234 321.304688 236.695313 324 240 324 C 243.304688 324 246 321.304688 246 318 C 246 314.695313 243.304688 312 240 312 Z M 288 312 C 284.695313 312 282 314.695313 282 318 C 282 321.304688 284.695313 324 288 324 C 291.304688 324 294 321.304688 294 318 C 294 314.695313 291.304688 312 288 312 Z M 144 336 C 140.695313 336 138 338.695313 138 342 C 138 345.304688 140.695313 348 144 348 C 147.304688 348 150 345.304688 150 342 C 150 338.695313 147.304688 336 144 336 Z M 168 336 C 164.695313 336 162 338.695313 162 342 C 162 345.304688 164.695313 348 168 348 C 171.304688 348 174 345.304688 174 342 C 174 338.695313 171.304688 336 168 336 Z M 192 336 C 188.695313 336 186 338.695313 186 342 C 186 345.304688 188.695313 348 192 348 C 195.304688 348 198 345.304688 198 342 C 198 338.695313 195.304688 336 192 336 Z M 216 336 C 212.695313 336 210 338.695313 210 342 C 210 345.304688 212.695313 348 216 348 C 219.304688 348 222 345.304688 222 342 C 222 338.695313 219.304688 336 216 336 Z M 240 336 C 236.695313 336 234 338.695313 234 342 C 234 345.304688 236.695313 348 240 348 C 243.304688 348 246 345.304688 246 342 C 246 338.695313 243.304688 336 240 336 Z M 264 336 C 260.695313 336 258 338.695313 258 342 C 258 345.304688 260.695313 348 264 348 C 267.304688 348 270 345.304688 270 342 C 270 338.695313 267.304688 336 264 336 Z M 378 342 L 378 378 L 342 378 L 342 390 L 378 390 L 378 426 L 390 426 L 390 390 L 426 390 L 426 378 L 390 378 L 390 342 Z "/>
</g>
</svg>
