<?xml version="1.0" encoding="UTF-8"?>
<svg xmlns="http://www.w3.org/2000/svg" xmlns:xlink="http://www.w3.org/1999/xlink" width="512pt" height="512pt" viewBox="0 0 512 512" version="1.1">
<g id="surface1">
<path style=" stroke:none;fill-rule:nonzero;fill:#000000;fill-opacity:1;" d="M 144 64 L 144 80 L 80 80 L 80 432 L 432 432 L 432 80 L 368 80 L 368 64 L 336 64 L 336 80 L 176 80 L 176 64 Z M 112 112 L 144 112 L 144 128 L 176 128 L 176 112 L 336 112 L 336 128 L 368 128 L 368 112 L 400 112 L 400 144 L 112 144 Z M 112 176 L 400 176 L 400 400 L 112 400 Z M 208 208 L 208 240 L 240 240 L 240 208 Z M 272 208 L 272 240 L 304 240 L 304 208 Z M 336 208 L 336 240 L 368 240 L 368 208 Z M 144 272 L 144 304 L 176 304 L 176 272 Z M 208 272 L 208 304 L 240 304 L 240 272 Z M 272 272 L 272 304 L 304 304 L 304 272 Z M 336 272 L 336 304 L 368 304 L 368 272 Z M 144 336 L 144 368 L 176 368 L 176 336 Z M 208 336 L 208 368 L 240 368 L 240 336 Z M 272 336 L 272 368 L 304 368 L 304 336 Z "/>
</g>
</svg>
