<?xml version="1.0" encoding="UTF-8"?>
<svg xmlns="http://www.w3.org/2000/svg" xmlns:xlink="http://www.w3.org/1999/xlink" width="512pt" height="512pt" viewBox="0 0 512 512" version="1.1">
<g id="surface1">
<path style=" stroke:none;fill-rule:nonzero;fill:#000000;fill-opacity:1;" d="M 128 40 C 114.75 40 104 50.75 104 64 L 104 88 L 64 88 C 50.75 88 40 98.75 40 112 L 40 448 C 40 461.25 50.75 472 64 472 L 448 472 C 461.25 472 472 461.25 472 448 L 472 112 C 472 98.75 461.25 88 448 88 L 408 88 L 408 64 C 408 50.75 397.25 40 384 40 C 370.75 40 360 50.75 360 64 L 360 88 L 280 88 L 280 64 C 280 50.75 269.25 40 256 40 C 242.75 40 232 50.75 232 64 L 232 88 L 152 88 L 152 64 C 152 50.75 141.25 40 128 40 Z M 128 56 C 132.40625 56 136 59.59375 136 64 L 136 128 C 136 132.40625 132.40625 136 128 136 C 123.59375 136 120 132.40625 120 128 L 120 64 C 120 59.59375 123.59375 56 128 56 Z M 256 56 C 260.40625 56 264 59.59375 264 64 L 264 128 C 264 132.40625 260.40625 136 256 136 C 251.59375 136 248 132.40625 248 128 L 248 64 C 248 59.59375 251.59375 56 256 56 Z M 384 56 C 388.40625 56 392 59.59375 392 64 L 392 128 C 392 132.40625 388.40625 136 384 136 C 379.59375 136 376 132.40625 376 128 L 376 64 C 376 59.59375 379.59375 56 384 56 Z M 64 104 L 104 104 L 104 128 C 104 141.25 114.75 152 128 152 C 141.25 152 152 141.25 152 128 L 152 104 L 232 104 L 232 128 C 232 141.25 242.75 152 256 152 C 269.25 152 280 141.25 280 128 L 280 104 L 360 104 L 360 128 C 360 141.25 370.75 152 384 152 C 397.25 152 408 141.25 408 128 L 408 104 L 448 104 C 452.40625 104 456 107.59375 456 112 L 456 168 C 451.59375 168 448 171.59375 448 176 L 448 192 C 448 196.40625 451.59375 200 456 200 L 456 448 C 456 452.40625 452.40625 456 448 456 L 64 456 C 59.59375 456 56 452.40625 56 448 L 56 200 C 60.40625 200 64 196.40625 64 192 L 64 176 C 64 171.59375 60.40625 168 56 168 L 56 112 C 56 107.59375 59.59375 104 64 104 Z M 96 168 C 91.59375 168 88 171.59375 88 176 L 88 192 C 88 196.40625 91.59375 200 96 200 C 100.40625 200 104 196.40625 104 192 L 104 176 C 104 171.59375 100.40625 168 96 168 Z M 136 168 C 131.59375 168 128 171.59375 128 176 L 128 192 C 128 196.40625 131.59375 200 136 200 C 140.40625 200 144 196.40625 144 192 L 144 176 C 144 171.59375 140.40625 168 136 168 Z M 176 168 C 171.59375 168 168 171.59375 168 176 L 168 192 C 168 196.40625 171.59375 200 176 200 C 180.40625 200 184 196.40625 184 192 L 184 176 C 184 171.59375 180.40625 168 176 168 Z M 216 168 C 211.59375 168 208 171.59375 208 176 L 208 192 C 208 196.40625 211.59375 200 216 200 C 220.40625 200 224 196.40625 224 192 L 224 176 C 224 171.59375 220.40625 168 216 168 Z M 256 168 C 251.59375 168 248 171.59375 248 176 L 248 192 C 248 196.40625 251.59375 200 256 200 C 260.40625 200 264 196.40625 264 192 L 264 176 C 264 171.59375 260.40625 168 256 168 Z M 296 168 C 291.59375 168 288 171.59375 288 176 L 288 192 C 288 196.40625 291.59375 200 296 200 C 300.40625 200 304 196.40625 304 192 L 304 176 C 304 171.59375 300.40625 168 296 168 Z M 336 168 C 331.59375 168 328 171.59375 328 176 L 328 192 C 328 196.40625 331.59375 200 336 200 C 340.40625 200 344 196.40625 344 192 L 344 176 C 344 171.59375 340.40625 168 336 168 Z M 376 168 C 371.59375 168 368 171.59375 368 176 L 368 192 C 368 196.40625 371.59375 200 376 200 C 380.40625 200 384 196.40625 384 192 L 384 176 C 384 171.59375 380.40625 168 376 168 Z M 416 168 C 411.59375 168 408 171.59375 408 176 L 408 192 C 408 196.40625 411.59375 200 416 200 C 420.40625 200 424 196.40625 424 192 L 424 176 C 424 171.59375 420.40625 168 416 168 Z M 112 224 C 107.59375 224 104 227.59375 104 232 L 104 376 C 104 380.40625 107.59375 384 112 384 L 400 384 C 404.40625 384 408 380.40625 408 376 L 408 232 C 408 227.59375 404.40625 224 400 224 Z M 120 240 L 176 240 L 176 296 L 120 296 Z M 192 240 L 248 240 L 248 296 L 192 296 Z M 264 240 L 320 240 L 320 296 L 264 296 Z M 336 240 L 392 240 L 392 296 L 336 296 Z M 120 312 L 176 312 L 176 368 L 120 368 Z M 192 312 L 248 312 L 248 368 L 192 368 Z M 264 312 L 320 312 L 320 368 L 264 368 Z M 336 312 L 392 312 L 392 368 L 336 368 Z M 80 408 C 75.59375 408 72 411.59375 72 416 C 72 420.40625 75.59375 424 80 424 L 432 424 C 436.40625 424 440 420.40625 440 416 C 440 411.59375 436.40625 408 432 408 Z "/>
</g>
</svg>
