<?xml version="1.0" encoding="UTF-8"?>
<svg xmlns="http://www.w3.org/2000/svg" xmlns:xlink="http://www.w3.org/1999/xlink" width="500pt" height="500pt" viewBox="0 0 500 500" version="1.1">
<g id="surface1">
<path style=" stroke:none;fill-rule:nonzero;fill:#000000;fill-opacity:1;" d="M 380.125 19.917969 C 376.636719 19.800781 373.1875 19.878906 369.699219 20.152344 C 360.4375 20.808594 351.253906 22.785156 342.457031 26.042969 L 342.417969 26.042969 L 342.339844 26.082031 C 341.214844 26.507813 340.828125 26.699219 341.175781 26.585938 L 326.914063 32.046875 L 463.90625 169 L 469.410156 154.855469 C 469.484375 154.621094 469.953125 153.691406 470.570313 152.027344 C 482.816406 117.148438 474.949219 76.730469 447.085938 48.90625 C 428.5625 30.382813 404.460938 20.695313 380.125 19.917969 Z M 114.824219 19.917969 C 90.835938 20.964844 67.15625 30.652344 48.90625 48.90625 C 20.65625 77.15625 12.980469 118.3125 26.042969 153.574219 L 26.042969 153.652344 C 26.507813 154.816406 26.699219 155.164063 26.546875 154.816406 L 32.007813 169.078125 L 169 32.085938 L 154.816406 26.585938 C 154.582031 26.507813 153.691406 26.042969 152.027344 25.460938 C 143.269531 22.398438 134.238281 20.578125 125.09375 20.035156 C 121.683594 19.839844 118.234375 19.800781 114.824219 19.917969 Z M 115.675781 39.761719 C 118.425781 39.644531 121.179688 39.644531 123.890625 39.835938 C 126.527344 39.992188 129.046875 40.960938 131.640625 41.386719 L 41.386719 131.640625 C 37.433594 107.382813 44.140625 81.730469 62.933594 62.933594 C 77.621094 48.246094 96.53125 40.535156 115.675781 39.761719 Z M 379.464844 39.761719 C 398.878906 40.339844 418.179688 48.054688 433.097656 62.933594 C 451.855469 81.730469 458.558594 107.382813 454.644531 131.679688 L 364.3125 41.386719 C 366.597656 41 368.808594 40.070313 371.09375 39.914063 C 373.882813 39.722656 376.675781 39.644531 379.464844 39.761719 Z M 248.015625 59.523438 C 133.074219 59.523438 39.683594 152.917969 39.683594 267.855469 C 39.683594 324.28125 62.273438 375.433594 98.78125 412.984375 L 52.507813 459.253906 C 49.914063 461.734375 48.867188 465.457031 49.796875 468.90625 C 50.6875 472.394531 53.402344 475.105469 56.886719 475.996094 C 60.335938 476.925781 64.058594 475.878906 66.539063 473.285156 L 113.3125 426.546875 C 149.660156 457.433594 196.628906 476.191406 248.015625 476.191406 C 299.402344 476.191406 346.371094 457.433594 382.71875 426.546875 L 429.492188 473.285156 C 431.972656 475.878906 435.695313 476.925781 439.144531 475.996094 C 442.628906 475.105469 445.34375 472.394531 446.234375 468.90625 C 447.164063 465.457031 446.117188 461.734375 443.523438 459.253906 L 397.25 412.984375 C 433.757813 375.433594 456.347656 324.28125 456.347656 267.855469 C 456.347656 152.917969 362.957031 59.523438 248.015625 59.523438 Z M 248.015625 79.363281 C 352.222656 79.363281 436.507813 163.652344 436.507813 267.855469 C 436.507813 372.0625 352.222656 456.347656 248.015625 456.347656 C 143.808594 456.347656 59.523438 372.0625 59.523438 267.855469 C 59.523438 163.652344 143.808594 79.363281 248.015625 79.363281 Z M 247.859375 118.894531 C 242.398438 119.007813 238.019531 123.503906 238.09375 128.96875 L 238.09375 257.9375 L 168.652344 257.9375 C 165.085938 257.898438 161.753906 259.757813 159.929688 262.859375 C 158.148438 265.957031 158.148438 269.757813 159.929688 272.855469 C 161.753906 275.957031 165.085938 277.816406 168.652344 277.777344 L 246.347656 277.777344 C 249.566406 278.320313 252.859375 277.234375 255.144531 274.910156 C 255.144531 274.910156 255.144531 274.871094 255.144531 274.871094 C 255.183594 274.832031 255.222656 274.832031 255.261719 274.792969 C 255.261719 274.753906 255.300781 274.753906 255.300781 274.714844 C 257.472656 272.46875 258.441406 269.367188 257.9375 266.308594 L 257.9375 128.96875 C 257.976563 126.292969 256.929688 123.699219 255.03125 121.800781 C 253.132813 119.898438 250.535156 118.855469 247.859375 118.894531 Z "/>
</g>
</svg>
