<?xml version="1.0" encoding="UTF-8"?>
<svg xmlns="http://www.w3.org/2000/svg" xmlns:xlink="http://www.w3.org/1999/xlink" width="512pt" height="512pt" viewBox="0 0 512 512" version="1.1">
<g id="surface1">
<path style=" stroke:none;fill-rule:nonzero;fill:#85CBF8;fill-opacity:1;" d="M 40 88 L 456 88 L 456 456 L 40 456 Z "/>
<path style=" stroke:none;fill-rule:nonzero;fill:#ED7899;fill-opacity:1;" d="M 72 408 L 424 408 C 441.671875 408 456 422.328125 456 440 L 456 448 C 456 452.417969 452.417969 456 448 456 L 48 456 C 43.582031 456 40 452.417969 40 448 L 40 440 C 40 422.328125 54.328125 408 72 408 Z "/>
<path style=" stroke:none;fill-rule:nonzero;fill:#ACE3FF;fill-opacity:1;" d="M 64 88 L 432 88 C 445.253906 88 456 98.746094 456 112 L 456 152 C 456 165.253906 445.253906 176 432 176 L 64 176 C 50.746094 176 40 165.253906 40 152 L 40 112 C 40 98.746094 50.746094 88 64 88 Z "/>
<path style=" stroke:none;fill-rule:nonzero;fill:#FFEFB8;fill-opacity:1;" d="M 120 40 C 128.835938 40 136 47.164063 136 56 L 136 120 C 136 128.835938 128.835938 136 120 136 C 111.164063 136 104 128.835938 104 120 L 104 56 C 104 47.164063 111.164063 40 120 40 Z "/>
<path style=" stroke:none;fill-rule:nonzero;fill:#FFEFB8;fill-opacity:1;" d="M 248 40 C 256.835938 40 264 47.164063 264 56 L 264 120 C 264 128.835938 256.835938 136 248 136 C 239.164063 136 232 128.835938 232 120 L 232 56 C 232 47.164063 239.164063 40 248 40 Z "/>
<path style=" stroke:none;fill-rule:nonzero;fill:#FFEFB8;fill-opacity:1;" d="M 376 40 C 384.835938 40 392 47.164063 392 56 L 392 120 C 392 128.835938 384.835938 136 376 136 C 367.164063 136 360 128.835938 360 120 L 360 56 C 360 47.164063 367.164063 40 376 40 Z "/>
<path style=" stroke:none;fill-rule:nonzero;fill:#8D6C9F;fill-opacity:1;" d="M 88 192 C 92.417969 192 96 188.417969 96 184 L 96 168 C 96 163.582031 92.417969 160 88 160 C 83.582031 160 80 163.582031 80 168 L 80 184 C 80 188.417969 83.582031 192 88 192 Z "/>
<path style=" stroke:none;fill-rule:nonzero;fill:#8D6C9F;fill-opacity:1;" d="M 128 192 C 132.417969 192 136 188.417969 136 184 L 136 168 C 136 163.582031 132.417969 160 128 160 C 123.582031 160 120 163.582031 120 168 L 120 184 C 120 188.417969 123.582031 192 128 192 Z "/>
<path style=" stroke:none;fill-rule:nonzero;fill:#8D6C9F;fill-opacity:1;" d="M 168 192 C 172.417969 192 176 188.417969 176 184 L 176 168 C 176 163.582031 172.417969 160 168 160 C 163.582031 160 160 163.582031 160 168 L 160 184 C 160 188.417969 163.582031 192 168 192 Z "/>
<path style=" stroke:none;fill-rule:nonzero;fill:#8D6C9F;fill-opacity:1;" d="M 208 192 C 212.417969 192 216 188.417969 216 184 L 216 168 C 216 163.582031 212.417969 160 208 160 C 203.582031 160 200 163.582031 200 168 L 200 184 C 200 188.417969 203.582031 192 208 192 Z "/>
<path style=" stroke:none;fill-rule:nonzero;fill:#8D6C9F;fill-opacity:1;" d="M 248 192 C 252.417969 192 256 188.417969 256 184 L 256 168 C 256 163.582031 252.417969 160 248 160 C 243.582031 160 240 163.582031 240 168 L 240 184 C 240 188.417969 243.582031 192 248 192 Z "/>
<path style=" stroke:none;fill-rule:nonzero;fill:#8D6C9F;fill-opacity:1;" d="M 288 192 C 292.417969 192 296 188.417969 296 184 L 296 168 C 296 163.582031 292.417969 160 288 160 C 283.582031 160 280 163.582031 280 168 L 280 184 C 280 188.417969 283.582031 192 288 192 Z "/>
<path style=" stroke:none;fill-rule:nonzero;fill:#8D6C9F;fill-opacity:1;" d="M 328 192 C 332.417969 192 336 188.417969 336 184 L 336 168 C 336 163.582031 332.417969 160 328 160 C 323.582031 160 320 163.582031 320 168 L 320 184 C 320 188.417969 323.582031 192 328 192 Z "/>
<path style=" stroke:none;fill-rule:nonzero;fill:#8D6C9F;fill-opacity:1;" d="M 368 192 C 372.417969 192 376 188.417969 376 184 L 376 168 C 376 163.582031 372.417969 160 368 160 C 363.582031 160 360 163.582031 360 168 L 360 184 C 360 188.417969 363.582031 192 368 192 Z "/>
<path style=" stroke:none;fill-rule:nonzero;fill:#8D6C9F;fill-opacity:1;" d="M 408 192 C 412.417969 192 416 188.417969 416 184 L 416 168 C 416 163.582031 412.417969 160 408 160 C 403.582031 160 400 163.582031 400 168 L 400 184 C 400 188.417969 403.582031 192 408 192 Z "/>
<path style=" stroke:none;fill-rule:nonzero;fill:#8D6C9F;fill-opacity:1;" d="M 424 400 L 72 400 C 67.582031 400 64 403.582031 64 408 C 64 412.417969 67.582031 416 72 416 L 424 416 C 428.417969 416 432 412.417969 432 408 C 432 403.582031 428.417969 400 424 400 Z "/>
<path style=" stroke:none;fill-rule:nonzero;fill:#8D6C9F;fill-opacity:1;" d="M 440 80 L 400 80 L 400 56 C 400 42.746094 389.253906 32 376 32 C 362.746094 32 352 42.746094 352 56 L 352 80 L 272 80 L 272 56 C 272 42.746094 261.253906 32 248 32 C 234.746094 32 224 42.746094 224 56 L 224 80 L 144 80 L 144 56 C 144 42.746094 133.253906 32 120 32 C 106.746094 32 96 42.746094 96 56 L 96 80 L 56 80 C 42.746094 80 32 90.746094 32 104 L 32 440 C 32 453.253906 42.746094 464 56 464 L 440 464 C 453.253906 464 464 453.253906 464 440 L 464 104 C 464 90.746094 453.253906 80 440 80 Z M 368 56 C 368 51.582031 371.582031 48 376 48 C 380.417969 48 384 51.582031 384 56 L 384 120 C 384 124.417969 380.417969 128 376 128 C 371.582031 128 368 124.417969 368 120 Z M 240 56 C 240 51.582031 243.582031 48 248 48 C 252.417969 48 256 51.582031 256 56 L 256 120 C 256 124.417969 252.417969 128 248 128 C 243.582031 128 240 124.417969 240 120 Z M 112 56 C 112 51.582031 115.582031 48 120 48 C 124.417969 48 128 51.582031 128 56 L 128 120 C 128 124.417969 124.417969 128 120 128 C 115.582031 128 112 124.417969 112 120 Z M 448 440 C 448 444.417969 444.417969 448 440 448 L 56 448 C 51.582031 448 48 444.417969 48 440 L 48 192 C 52.417969 192 56 188.417969 56 184 L 56 168 C 56 163.582031 52.417969 160 48 160 L 48 104 C 48 99.582031 51.582031 96 56 96 L 96 96 L 96 120 C 96 133.253906 106.746094 144 120 144 C 133.253906 144 144 133.253906 144 120 L 144 96 L 224 96 L 224 120 C 224 133.253906 234.746094 144 248 144 C 261.253906 144 272 133.253906 272 120 L 272 96 L 352 96 L 352 120 C 352 133.253906 362.746094 144 376 144 C 389.253906 144 400 133.253906 400 120 L 400 96 L 440 96 C 444.417969 96 448 99.582031 448 104 L 448 160 C 443.582031 160 440 163.582031 440 168 L 440 184 C 440 188.417969 443.582031 192 448 192 Z "/>
<path style=" stroke:none;fill-rule:nonzero;fill:#9FDDFF;fill-opacity:1;" d="M 124 216 L 133.921875 234.078125 L 152 244 L 133.921875 253.921875 L 124 272 L 114.078125 253.921875 L 96 244 L 114.078125 234.078125 Z "/>
<path style=" stroke:none;fill-rule:nonzero;fill:#9FDDFF;fill-opacity:1;" d="M 379.359375 240 L 386.160156 252.480469 L 398.71875 259.359375 L 386.160156 266.160156 L 379.359375 278.71875 L 372.480469 266.160156 L 360 259.359375 L 372.480469 252.480469 Z "/>
<path style=" stroke:none;fill-rule:nonzero;fill:#9FDDFF;fill-opacity:1;" d="M 314.800781 344 L 319.519531 352.480469 L 328 357.199219 L 319.519531 361.839844 L 314.800781 370.398438 L 310.160156 361.839844 L 301.601563 357.199219 L 310.160156 352.480469 Z "/>
<path style=" stroke:none;fill-rule:nonzero;fill:#FFFFFF;fill-opacity:1;" d="M 320 288 L 256 288 L 256 224 C 256 219.582031 252.417969 216 248 216 C 243.582031 216 240 219.582031 240 224 L 240 288 L 176 288 C 171.582031 288 168 291.582031 168 296 C 168 300.417969 171.582031 304 176 304 L 240 304 L 240 368 C 240 372.417969 243.582031 376 248 376 C 252.417969 376 256 372.417969 256 368 L 256 304 L 320 304 C 324.417969 304 328 300.417969 328 296 C 328 291.582031 324.417969 288 320 288 Z "/>
</g>
</svg>
