<?xml version="1.0" encoding="UTF-8"?>
<svg xmlns="http://www.w3.org/2000/svg" xmlns:xlink="http://www.w3.org/1999/xlink" width="480pt" height="480pt" viewBox="0 0 480 480" version="1.1">
<g id="surface1">
<path style=" stroke:none;fill-rule:nonzero;fill:#000000;fill-opacity:1;" d="M 94.738281 63.15625 C 77.28125 63.15625 63.15625 77.28125 63.15625 94.738281 L 63.15625 378.949219 C 63.15625 396.402344 77.28125 410.527344 94.738281 410.527344 L 229.316406 410.527344 C 224.074219 395.660156 221.050781 379.8125 221.050781 363.15625 C 221.050781 358.902344 221.300781 354.707031 221.667969 350.515625 C 221.421875 349.464844 221.050781 348.480469 221.050781 347.367188 C 221.050781 344.65625 221.917969 342.25 223.089844 340.027344 C 225.433594 325.78125 229.8125 312.335938 236.101563 299.816406 C 227.714844 299.445313 221.050781 292.660156 221.050781 284.210938 C 221.050781 275.515625 228.144531 268.421875 236.84375 268.421875 C 242.824219 268.421875 247.820313 271.875 250.472656 276.746094 C 263.363281 260.03125 279.832031 246.277344 298.765625 236.59375 C 290.625 235.917969 284.210938 229.316406 284.210938 221.050781 C 284.210938 212.355469 291.304688 205.261719 300 205.261719 C 308.695313 205.261719 315.789063 212.355469 315.789063 221.050781 C 315.789063 224.691406 314.308594 227.898438 312.273438 230.613281 C 323.4375 226.296875 335.21875 223.273438 347.554688 221.976563 C 347.492188 221.609375 347.367188 221.359375 347.367188 221.050781 C 347.367188 212.355469 354.460938 205.261719 363.15625 205.261719 C 371.855469 205.261719 378.949219 212.355469 378.949219 221.050781 C 378.949219 221.359375 378.761719 221.609375 378.761719 221.976563 C 389.800781 223.148438 400.410156 225.738281 410.527344 229.316406 L 410.527344 94.738281 C 410.527344 77.28125 396.402344 63.15625 378.949219 63.15625 Z M 94.738281 94.738281 L 378.949219 94.738281 L 378.949219 157.894531 L 94.738281 157.894531 Z M 173.683594 205.261719 C 182.378906 205.261719 189.472656 212.355469 189.472656 221.050781 C 189.472656 229.75 182.378906 236.84375 173.683594 236.84375 C 164.988281 236.84375 157.894531 229.75 157.894531 221.050781 C 157.894531 212.355469 164.988281 205.261719 173.683594 205.261719 Z M 236.84375 205.261719 C 245.539063 205.261719 252.632813 212.355469 252.632813 221.050781 C 252.632813 229.75 245.539063 236.84375 236.84375 236.84375 C 228.144531 236.84375 221.050781 229.75 221.050781 221.050781 C 221.050781 212.355469 228.144531 205.261719 236.84375 205.261719 Z M 363.15625 252.632813 C 302.097656 252.632813 252.632813 302.097656 252.632813 363.15625 C 252.632813 424.21875 302.097656 473.683594 363.15625 473.683594 C 424.21875 473.683594 473.683594 424.21875 473.683594 363.15625 C 473.683594 302.097656 424.21875 252.632813 363.15625 252.632813 Z M 110.527344 268.421875 C 119.222656 268.421875 126.316406 275.515625 126.316406 284.210938 C 126.316406 292.90625 119.222656 300 110.527344 300 C 101.828125 300 94.738281 292.90625 94.738281 284.210938 C 94.738281 275.515625 101.828125 268.421875 110.527344 268.421875 Z M 173.683594 268.421875 C 182.378906 268.421875 189.472656 275.515625 189.472656 284.210938 C 189.472656 292.90625 182.378906 300 173.683594 300 C 164.988281 300 157.894531 292.90625 157.894531 284.210938 C 157.894531 275.515625 164.988281 268.421875 173.683594 268.421875 Z M 363.15625 300 C 371.855469 300 378.949219 307.03125 378.949219 315.789063 L 378.949219 347.367188 L 410.527344 347.367188 C 419.222656 347.367188 426.316406 354.398438 426.316406 363.15625 C 426.316406 371.917969 419.222656 378.949219 410.527344 378.949219 L 378.949219 378.949219 L 378.949219 410.527344 C 378.949219 419.285156 371.855469 426.316406 363.15625 426.316406 C 354.460938 426.316406 347.367188 419.285156 347.367188 410.527344 L 347.367188 378.949219 L 315.789063 378.949219 C 307.09375 378.949219 300 371.917969 300 363.15625 C 300 354.398438 307.09375 347.367188 315.789063 347.367188 L 347.367188 347.367188 L 347.367188 315.789063 C 347.367188 307.03125 354.460938 300 363.15625 300 Z M 110.527344 331.578125 C 119.222656 331.578125 126.316406 338.671875 126.316406 347.367188 C 126.316406 356.066406 119.222656 363.15625 110.527344 363.15625 C 101.828125 363.15625 94.738281 356.066406 94.738281 347.367188 C 94.738281 338.671875 101.828125 331.578125 110.527344 331.578125 Z M 173.683594 331.578125 C 182.378906 331.578125 189.472656 338.671875 189.472656 347.367188 C 189.472656 356.066406 182.378906 363.15625 173.683594 363.15625 C 164.988281 363.15625 157.894531 356.066406 157.894531 347.367188 C 157.894531 338.671875 164.988281 331.578125 173.683594 331.578125 Z "/>
</g>
</svg>
