<?xml version="1.0" encoding="UTF-8"?>
<svg xmlns="http://www.w3.org/2000/svg" xmlns:xlink="http://www.w3.org/1999/xlink" width="512pt" height="512pt" viewBox="0 0 512 512" version="1.1">
<defs>
<radialGradient id="radial0" gradientUnits="userSpaceOnUse" cx="30.1667" cy="32.5729" fx="30.1667" fy="32.5729" r="40.1611" spreadMethod="reflect" gradientTransform="matrix(8,0,0,8,0,0)">
<stop offset="0" style="stop-color:#AFEEFF;stop-opacity:1;"/>
<stop offset="0.1927" style="stop-color:#BBF1FF;stop-opacity:1;"/>
<stop offset="0.7025" style="stop-color:#D7F8FF;stop-opacity:1;"/>
<stop offset="1" style="stop-color:#E1FAFF;stop-opacity:1;"/>
</radialGradient>
<radialGradient id="radial1" gradientUnits="userSpaceOnUse" cx="30.1667" cy="39.3333" fx="30.1667" fy="39.3333" r="41.4836" spreadMethod="reflect" gradientTransform="matrix(8,0,0,8,0,0)">
<stop offset="0" style="stop-color:#AFEEFF;stop-opacity:1;"/>
<stop offset="0.1927" style="stop-color:#BBF1FF;stop-opacity:1;"/>
<stop offset="0.7025" style="stop-color:#D7F8FF;stop-opacity:1;"/>
<stop offset="1" style="stop-color:#E1FAFF;stop-opacity:1;"/>
</radialGradient>
<linearGradient id="linear0" gradientUnits="userSpaceOnUse" x1="32" y1="55" x2="32" y2="20" spreadMethod="reflect" gradientTransform="matrix(8,0,0,8,0,0)">
<stop offset="0" style="stop-color:#FFC662;stop-opacity:1;"/>
<stop offset="0.0036" style="stop-color:#FFC662;stop-opacity:1;"/>
<stop offset="0.6085" style="stop-color:#FFC582;stop-opacity:1;"/>
<stop offset="1" style="stop-color:#FFC491;stop-opacity:1;"/>
<stop offset="1" style="stop-color:#FFC491;stop-opacity:1;"/>
</linearGradient>
<linearGradient id="linear1" gradientUnits="userSpaceOnUse" x1="32" y1="23" x2="32" y2="10" spreadMethod="reflect" gradientTransform="matrix(8,0,0,8,0,0)">
<stop offset="0" style="stop-color:#FF634D;stop-opacity:1;"/>
<stop offset="0.2083" style="stop-color:#FD6464;stop-opacity:1;"/>
<stop offset="0.5223" style="stop-color:#FC6582;stop-opacity:1;"/>
<stop offset="0.7935" style="stop-color:#FA6694;stop-opacity:1;"/>
<stop offset="0.9892" style="stop-color:#FA669A;stop-opacity:1;"/>
<stop offset="1" style="stop-color:#FA669A;stop-opacity:1;"/>
</linearGradient>
<linearGradient id="linear2" gradientUnits="userSpaceOnUse" x1="21.5" y1="20" x2="21.5" y2="10" spreadMethod="reflect" gradientTransform="matrix(8,0,0,8,0,0)">
<stop offset="0" style="stop-color:#FF5840;stop-opacity:1;"/>
<stop offset="0.0072" style="stop-color:#FF5840;stop-opacity:1;"/>
<stop offset="0.9892" style="stop-color:#FA528C;stop-opacity:1;"/>
<stop offset="1" style="stop-color:#FA528C;stop-opacity:1;"/>
</linearGradient>
<linearGradient id="linear3" gradientUnits="userSpaceOnUse" x1="21.5" y1="6" x2="21.5" y2="17" spreadMethod="reflect" gradientTransform="matrix(8,0,0,8,0,0)">
<stop offset="0" style="stop-color:#A4A4A4;stop-opacity:1;"/>
<stop offset="0.6301" style="stop-color:#7F7F7F;stop-opacity:1;"/>
<stop offset="1" style="stop-color:#6F6F6F;stop-opacity:1;"/>
<stop offset="1" style="stop-color:#6F6F6F;stop-opacity:1;"/>
</linearGradient>
<linearGradient id="linear4" gradientUnits="userSpaceOnUse" x1="42.5" y1="20" x2="42.5" y2="10" spreadMethod="reflect" gradientTransform="matrix(8,0,0,8,0,0)">
<stop offset="0" style="stop-color:#FF5840;stop-opacity:1;"/>
<stop offset="0.0072" style="stop-color:#FF5840;stop-opacity:1;"/>
<stop offset="0.9892" style="stop-color:#FA528C;stop-opacity:1;"/>
<stop offset="1" style="stop-color:#FA528C;stop-opacity:1;"/>
</linearGradient>
<linearGradient id="linear5" gradientUnits="userSpaceOnUse" x1="42.5" y1="6" x2="42.5" y2="17" spreadMethod="reflect" gradientTransform="matrix(8,0,0,8,0,0)">
<stop offset="0" style="stop-color:#A4A4A4;stop-opacity:1;"/>
<stop offset="0.6301" style="stop-color:#7F7F7F;stop-opacity:1;"/>
<stop offset="1" style="stop-color:#6F6F6F;stop-opacity:1;"/>
<stop offset="1" style="stop-color:#6F6F6F;stop-opacity:1;"/>
</linearGradient>
<linearGradient id="linear6" gradientUnits="userSpaceOnUse" x1="17.5" y1="54.125" x2="17.5" y2="21.8711" spreadMethod="reflect" gradientTransform="matrix(8,0,0,8,0,0)">
<stop offset="0" style="stop-color:#FFCE76;stop-opacity:1;"/>
<stop offset="0.0036" style="stop-color:#FFCE76;stop-opacity:1;"/>
<stop offset="0.6054" style="stop-color:#FFCD92;stop-opacity:1;"/>
<stop offset="1" style="stop-color:#FFCCA0;stop-opacity:1;"/>
<stop offset="1" style="stop-color:#FFCCA0;stop-opacity:1;"/>
</linearGradient>
<linearGradient id="linear7" gradientUnits="userSpaceOnUse" x1="18" y1="58.25" x2="18" y2="25.8647" spreadMethod="reflect" gradientTransform="matrix(8,0,0,8,0,0)">
<stop offset="0" style="stop-color:#FFCE76;stop-opacity:1;"/>
<stop offset="0.0036" style="stop-color:#FFCE76;stop-opacity:1;"/>
<stop offset="0.6054" style="stop-color:#FFCD92;stop-opacity:1;"/>
<stop offset="1" style="stop-color:#FFCCA0;stop-opacity:1;"/>
<stop offset="1" style="stop-color:#FFCCA0;stop-opacity:1;"/>
</linearGradient>
<linearGradient id="linear8" gradientUnits="userSpaceOnUse" x1="32" y1="48" x2="32" y2="29" spreadMethod="reflect" gradientTransform="matrix(8,0,0,8,0,0)">
<stop offset="0" style="stop-color:#FFE79F;stop-opacity:1;"/>
<stop offset="0.1186" style="stop-color:#FFE9A6;stop-opacity:1;"/>
<stop offset="1" style="stop-color:#FFF5D5;stop-opacity:1;"/>
</linearGradient>
<linearGradient id="linear9" gradientUnits="userSpaceOnUse" x1="52" y1="40" x2="52" y2="64" spreadMethod="reflect" gradientTransform="matrix(8,0,0,8,0,0)">
<stop offset="0" style="stop-color:#42D778;stop-opacity:1;"/>
<stop offset="0.4284" style="stop-color:#3DCA76;stop-opacity:1;"/>
<stop offset="1" style="stop-color:#34B171;stop-opacity:1;"/>
</linearGradient>
</defs>
<g id="surface1">
<path style=" stroke:none;fill-rule:nonzero;fill:url(#radial0);" d="M 472 248.519531 L 482.414063 248.519531 C 497.585938 248.519531 511.175781 237.160156 511.960938 222.015625 C 512.800781 205.871094 499.953125 192.519531 484 192.519531 L 464.785156 192.519531 C 456.929688 192.519531 449.648438 187.207031 448.265625 179.472656 C 448.089844 178.464844 448 177.464844 448 176.488281 C 448.015625 167.816406 454.9375 160.761719 463.550781 160.527344 C 475.640625 160.199219 486.464844 151.359375 487.832031 139.335938 C 487.945313 138.375 487.992188 137.433594 487.992188 136.496094 C 487.984375 123.257813 477.238281 112.519531 463.992188 112.519531 L 445.574219 112.519531 C 443.847656 112.519531 426.128906 112.367188 424.457031 112.089844 C 424.3125 112.054688 424.152344 112.03125 424 112 L 424 184 L 256 184 L 256 112 L 358.863281 112 C 360.609375 105.246094 361.007813 97.960938 355.078125 89.121094 C 347.726563 78.152344 334.984375 72 321.785156 72 L 284 72 C 277.375 72 272 66.625 272 60 C 272 53.375 277.375 48 284 48 L 286.648438 48 C 299.648438 48 311.289063 38.265625 311.96875 25.289063 C 312.6875 11.441406 301.6875 0 288 0 L 57.351563 0 C 44.351563 0 32.710938 9.734375 32.03125 22.710938 C 31.3125 36.550781 42.3125 48 56 48 L 116 48 C 122.625 48 128 53.375 128 60 C 128 66.625 122.625 72 116 72 L 48 72 C 30.328125 72 16 86.328125 16 104 C 16 121.671875 30.328125 136 48 136 L 152 136 L 152 184 L 96 184 L 104 268.433594 C 99.710938 271.640625 96.664063 276.351563 96.105469 281.9375 C 95.367188 289.304688 98.648438 295.9375 104 299.960938 L 104 320.136719 C 103.886719 320.726563 103.832031 321.328125 103.894531 321.9375 C 105.097656 333.910156 95.726563 344 84 344 L 25.359375 344 C 13.414063 344 2.320313 352.089844 0.351563 363.863281 C -0.625 369.710938 0.527344 375.246094 3.097656 379.902344 C 7.382813 387.664063 16.03125 392 24.894531 392 L 37.542969 392 C 47.046875 392 54.375 397.3125 55.742188 405.078125 C 55.910156 406.0625 56 407.023438 56 407.976563 C 56.007813 416.824219 48.847656 424 40.007813 424 L 40 424 C 30.921875 424 22.113281 428.816406 18.40625 437.105469 C 10.488281 454.816406 23.238281 472 40 472 L 288 472 C 301.257813 472 312 461.257813 312 448 C 312 434.742188 301.257813 424 288 424 L 248 424 L 248 344 L 432 344.519531 L 470.640625 344.519531 C 483.199219 344.519531 495.3125 334.351563 495.960938 321.808594 C 496.679688 307.96875 485.671875 296.519531 471.992188 296.519531 L 471.886719 296.519531 C 471.839844 296.519531 471.800781 296.519531 471.753906 296.519531 C 465.535156 296.519531 459.441406 294.488281 455.128906 290.375 C 453.769531 289.078125 452.585938 287.574219 451.625 285.863281 C 441.328125 267.3125 454.472656 248.519531 472 248.519531 Z "/>
<path style=" stroke:none;fill-rule:nonzero;fill:url(#radial1);" d="M 36 320 C 47.046875 320 56 311.046875 56 300 C 56 288.953125 47.046875 280 36 280 C 24.953125 280 16 288.953125 16 300 C 16 311.046875 24.953125 320 36 320 Z "/>
<path style=" stroke:none;fill-rule:nonzero;fill:url(#linear0);" d="M 72 400 L 72 160 L 440 160 L 440 400 C 440 422.089844 422.089844 440 400 440 L 112 440 C 89.910156 440 72 422.089844 72 400 Z "/>
<path style=" stroke:none;fill-rule:nonzero;fill:url(#linear1);" d="M 440 118.398438 L 440 184 L 72 184 L 72 118.398438 C 72 97.175781 89.328125 80 110.734375 80 L 401.265625 80 C 422.671875 80 440 97.175781 440 118.398438 "/>
<path style=" stroke:none;fill-rule:nonzero;fill:url(#linear2);" d="M 197.238281 80 L 146.753906 80 C 135.425781 87.960938 128 101.105469 128 116 C 128 140.289063 147.710938 160 172 160 C 196.289063 160 216 140.289063 216 116 C 216 101.105469 208.574219 87.960938 197.238281 80 Z "/>
<path style=" stroke:none;fill-rule:nonzero;fill:url(#linear3);" d="M 172 136 C 161 136 152 127 152 116 L 152 68 C 152 57 161 48 172 48 C 183 48 192 57 192 68 L 192 116 C 192 127 183 136 172 136 Z "/>
<path style=" stroke:none;fill-rule:nonzero;fill:url(#linear4);" d="M 365.238281 80 L 314.753906 80 C 303.425781 87.960938 296 101.105469 296 116 C 296 140.289063 315.710938 160 340 160 C 364.289063 160 384 140.289063 384 116 C 384 101.105469 376.574219 87.960938 365.238281 80 Z "/>
<path style=" stroke:none;fill-rule:nonzero;fill:url(#linear5);" d="M 340 136 C 329 136 320 127 320 116 L 320 68 C 320 57 329 48 340 48 C 351 48 360 57 360 68 L 360 116 C 360 127 351 136 340 136 Z "/>
<path style=" stroke:none;fill-rule:nonzero;fill:#FFB86A;fill-opacity:1;" d="M 352 328 C 352 341.257813 362.742188 352 376 352 L 380 352 C 391.046875 352 400 360.953125 400 372 C 400 383.046875 391.046875 392 380 392 L 344 392 C 330.742188 392 320 402.742188 320 416 C 320 429.257813 330.742188 440 344 440 L 400 440 C 422.089844 440 440 422.089844 440 400 L 440 304 L 376 304 C 362.742188 304 352 314.742188 352 328 Z "/>
<path style=" stroke:none;fill-rule:nonzero;fill:url(#linear6);" d="M 72 272 L 143.144531 272 C 151.113281 272 158.503906 266.550781 159.785156 258.6875 C 161.40625 248.664063 153.71875 240 144 240 L 132 240 C 125.375 240 120 234.625 120 228 C 120 221.375 125.375 216 132 216 L 191.144531 216 C 199.113281 216 206.503906 210.550781 207.785156 202.6875 C 209.40625 192.664063 201.71875 184 192 184 L 72 184 Z "/>
<path style=" stroke:none;fill-rule:nonzero;fill:url(#linear7);" d="M 160 336 C 160 344.835938 152.835938 352 144 352 C 135.164063 352 128 344.835938 128 336 C 128 327.164063 135.164063 320 144 320 C 152.835938 320 160 327.164063 160 336 Z "/>
<path style=" stroke:none;fill-rule:nonzero;fill:#FFB977;fill-opacity:1;" d="M 392 248 C 392 261.253906 381.253906 272 368 272 C 354.746094 272 344 261.253906 344 248 C 344 234.746094 354.746094 224 368 224 C 381.253906 224 392 234.746094 392 248 Z "/>
<path style=" stroke:none;fill-rule:nonzero;fill:url(#linear8);" d="M 163.433594 232 L 180.574219 232 C 186.878906 232 192 237.121094 192 243.433594 L 192 260.574219 C 192 266.878906 186.878906 272 180.566406 272 L 163.425781 272 C 157.121094 272 152 266.878906 152 260.566406 L 152 243.425781 C 152 237.121094 157.121094 232 163.433594 232 Z M 163.433594 288 L 180.574219 288 C 186.878906 288 192 293.121094 192 299.433594 L 192 316.574219 C 192 322.878906 186.878906 328 180.566406 328 L 163.425781 328 C 157.121094 328 152 322.878906 152 316.566406 L 152 299.425781 C 152 293.121094 157.121094 288 163.433594 288 Z M 163.433594 344 L 180.574219 344 C 186.878906 344 192 349.121094 192 355.433594 L 192 372.574219 C 192 378.878906 186.878906 384 180.566406 384 L 163.425781 384 C 157.121094 384 152 378.878906 152 372.566406 L 152 355.425781 C 152 349.121094 157.121094 344 163.433594 344 Z M 219.433594 232 L 236.574219 232 C 242.878906 232 248 237.121094 248 243.433594 L 248 260.574219 C 248 266.878906 242.878906 272 236.566406 272 L 219.425781 272 C 213.121094 272 208 266.878906 208 260.566406 L 208 243.425781 C 208 237.121094 213.121094 232 219.433594 232 Z M 219.433594 288 L 236.574219 288 C 242.878906 288 248 293.121094 248 299.433594 L 248 316.574219 C 248 322.878906 242.878906 328 236.566406 328 L 219.425781 328 C 213.121094 328 208 322.878906 208 316.566406 L 208 299.425781 C 208 293.121094 213.121094 288 219.433594 288 Z M 219.433594 344 L 236.574219 344 C 242.878906 344 248 349.121094 248 355.433594 L 248 372.574219 C 248 378.878906 242.878906 384 236.566406 384 L 219.425781 384 C 213.121094 384 208 378.878906 208 372.566406 L 208 355.425781 C 208 349.121094 213.121094 344 219.433594 344 Z M 275.433594 232 L 292.574219 232 C 298.878906 232 304 237.121094 304 243.433594 L 304 260.574219 C 304 266.878906 298.878906 272 292.566406 272 L 275.425781 272 C 269.121094 272 264 266.878906 264 260.566406 L 264 243.425781 C 264 237.121094 269.121094 232 275.433594 232 Z M 275.433594 288 L 292.574219 288 C 298.878906 288 304 293.121094 304 299.433594 L 304 316.574219 C 304 322.878906 298.878906 328 292.566406 328 L 275.425781 328 C 269.121094 328 264 322.878906 264 316.566406 L 264 299.425781 C 264 293.121094 269.121094 288 275.433594 288 Z M 275.433594 344 L 292.574219 344 C 298.878906 344 304 349.121094 304 355.433594 L 304 372.574219 C 304 378.878906 298.878906 384 292.566406 384 L 275.425781 384 C 269.121094 384 264 378.878906 264 372.566406 L 264 355.425781 C 264 349.121094 269.121094 344 275.433594 344 Z M 331.433594 232 L 348.574219 232 C 354.878906 232 360 237.121094 360 243.433594 L 360 260.574219 C 360 266.878906 354.878906 272 348.566406 272 L 331.425781 272 C 325.121094 272 320 266.878906 320 260.566406 L 320 243.425781 C 320 237.121094 325.121094 232 331.433594 232 Z M 331.433594 288 L 348.574219 288 C 354.878906 288 360 293.121094 360 299.433594 L 360 316.574219 C 360 322.878906 354.878906 328 348.566406 328 L 331.425781 328 C 325.121094 328 320 322.878906 320 316.566406 L 320 299.425781 C 320 293.121094 325.121094 288 331.433594 288 Z M 331.433594 344 L 348.574219 344 C 354.878906 344 360 349.121094 360 355.433594 L 360 372.574219 C 360 378.878906 354.878906 384 348.566406 384 L 331.425781 384 C 325.121094 384 320 378.878906 320 372.566406 L 320 355.425781 C 320 349.121094 325.121094 344 331.433594 344 Z "/>
<path style=" stroke:none;fill-rule:nonzero;fill:url(#linear9);" d="M 512 416 C 512 469.019531 469.019531 512 416 512 C 362.980469 512 320 469.019531 320 416 C 320 362.980469 362.980469 320 416 320 C 469.019531 320 512 362.980469 512 416 Z "/>
<path style=" stroke:none;fill-rule:nonzero;fill:#FFFFFF;fill-opacity:1;" d="M 456 432 L 376 432 C 367.199219 432 360 424.800781 360 416 C 360 407.199219 367.199219 400 376 400 L 456 400 C 464.800781 400 472 407.199219 472 416 C 472 424.800781 464.800781 432 456 432 Z "/>
<path style=" stroke:none;fill-rule:nonzero;fill:#FFFFFF;fill-opacity:1;" d="M 432 376 L 432 456 C 432 464.800781 424.800781 472 416 472 C 407.199219 472 400 464.800781 400 456 L 400 376 C 400 367.199219 407.199219 360 416 360 C 424.800781 360 432 367.199219 432 376 Z "/>
</g>
</svg>
