<?xml version="1.0" encoding="UTF-8"?>
<svg xmlns="http://www.w3.org/2000/svg" xmlns:xlink="http://www.w3.org/1999/xlink" width="400pt" height="400pt" viewBox="0 0 400 400" version="1.1">
<g id="surface1">
<path style=" stroke:none;fill-rule:nonzero;fill:#F8E55B;fill-opacity:1;" d="M 154.644531 129.339844 L 149.035156 116.054688 L 162.320313 110.441406 L 167.933594 123.726563 Z "/>
<path style=" stroke:none;fill-rule:nonzero;fill:#1F212B;fill-opacity:1;" d="M 155.429688 131.183594 L 152.808594 130.121094 L 147.195313 116.832031 L 148.261719 114.210938 L 161.546875 108.601563 L 164.167969 109.664063 L 169.78125 122.953125 L 168.714844 125.570313 Z M 151.660156 117.121094 L 155.714844 126.722656 L 165.316406 122.667969 L 161.261719 113.0625 Z "/>
<path style=" stroke:none;fill-rule:nonzero;fill:#F8E55B;fill-opacity:1;" d="M 140.898438 76.585938 C 122.625 84.203125 113.984375 105.195313 121.605469 123.476563 C 122.105469 124.671875 122.664063 125.820313 123.273438 126.933594 L 189.066406 99.5 C 188.707031 98.285156 188.289063 97.074219 187.789063 95.878906 C 180.167969 77.605469 159.175781 68.964844 140.898438 76.585938 Z "/>
<path style=" stroke:none;fill-rule:nonzero;fill:#1F212B;fill-opacity:1;" d="M 124.039063 128.777344 L 121.515625 127.886719 C 120.875 126.714844 120.285156 125.503906 119.757813 124.242188 C 111.722656 104.976563 120.863281 82.769531 140.128906 74.738281 C 149.460938 70.847656 159.746094 70.824219 169.101563 74.671875 C 178.453125 78.519531 185.742188 85.78125 189.632813 95.113281 C 190.15625 96.371094 190.605469 97.648438 190.984375 98.929688 L 189.835938 101.34375 Z M 154.695313 75.808594 C 150.28125 75.808594 145.867188 76.683594 141.667969 78.433594 C 124.4375 85.617188 116.265625 105.476563 123.449219 122.703125 C 123.6875 123.273438 123.941406 123.828125 124.203125 124.375 L 186.601563 98.363281 C 186.398438 97.792969 186.179688 97.21875 185.945313 96.652344 C 182.464844 88.304688 175.945313 81.816406 167.578125 78.371094 C 163.425781 76.660156 159.058594 75.808594 154.695313 75.808594 Z M 140.898438 76.585938 L 140.941406 76.585938 Z "/>
<path style=" stroke:none;fill-rule:nonzero;fill:#F8E55B;fill-opacity:1;" d="M 236.804688 124.9375 L 242.417969 111.652344 L 255.703125 117.261719 L 250.09375 130.550781 Z "/>
<path style=" stroke:none;fill-rule:nonzero;fill:#1F212B;fill-opacity:1;" d="M 249.3125 132.390625 L 236.023438 126.78125 L 234.960938 124.160156 L 240.570313 110.871094 L 243.191406 109.808594 L 256.480469 115.421875 L 257.542969 118.039063 L 251.933594 131.328125 Z M 239.421875 123.871094 L 249.023438 127.929688 L 253.078125 118.324219 L 243.476563 114.269531 Z "/>
<path style=" stroke:none;fill-rule:nonzero;fill:#F8E55B;fill-opacity:1;" d="M 263.839844 77.792969 C 282.117188 85.410156 290.757813 106.402344 283.136719 124.683594 C 282.636719 125.878906 282.074219 127.027344 281.46875 128.140625 L 215.667969 100.707031 C 216.027344 99.492188 216.449219 98.285156 216.949219 97.089844 C 224.570313 78.8125 245.5625 70.171875 263.839844 77.792969 Z "/>
<path style=" stroke:none;fill-rule:nonzero;fill:#1F212B;fill-opacity:1;" d="M 280.699219 129.984375 L 214.898438 102.554688 L 213.753906 100.140625 C 214.132813 98.855469 214.574219 97.578125 215.105469 96.320313 C 218.996094 86.988281 226.285156 79.730469 235.636719 75.882813 C 244.984375 72.035156 255.277344 72.058594 264.609375 75.953125 C 273.941406 79.84375 281.199219 87.132813 285.046875 96.484375 C 288.894531 105.835938 288.875 116.125 284.980469 125.457031 C 284.457031 126.714844 283.863281 127.929688 283.222656 129.101563 Z M 218.140625 99.570313 L 280.539063 125.585938 C 280.804688 125.035156 281.054688 124.484375 281.292969 123.914063 C 284.773438 115.566406 284.792969 106.367188 281.351563 98.003906 C 277.90625 89.644531 271.421875 83.121094 263.070313 79.640625 C 254.726563 76.160156 245.527344 76.140625 237.160156 79.578125 C 228.800781 83.019531 222.277344 89.511719 218.796875 97.859375 C 218.558594 98.425781 218.339844 98.996094 218.140625 99.570313 Z "/>
<path style=" stroke:none;fill-rule:nonzero;fill:#F27C7D;fill-opacity:1;" d="M 305.226563 223.226563 C 305.226563 281.769531 257.769531 329.226563 199.226563 329.226563 C 140.6875 329.226563 93.226563 281.769531 93.226563 223.226563 C 93.226563 164.6875 140.6875 117.226563 199.226563 117.226563 C 257.769531 117.226563 305.226563 164.6875 305.226563 223.226563 Z "/>
<path style=" stroke:none;fill-rule:nonzero;fill:#1F212B;fill-opacity:1;" d="M 199.226563 333.226563 C 138.570313 333.226563 89.226563 283.882813 89.226563 223.226563 C 89.226563 162.570313 138.570313 113.226563 199.226563 113.226563 C 259.882813 113.226563 309.226563 162.570313 309.226563 223.226563 C 309.226563 283.882813 259.882813 333.226563 199.226563 333.226563 Z M 199.226563 121.226563 C 142.984375 121.226563 97.226563 166.984375 97.226563 223.226563 C 97.226563 279.472656 142.984375 325.226563 199.226563 325.226563 C 255.472656 325.226563 301.226563 279.472656 301.226563 223.226563 C 301.226563 166.984375 255.472656 121.226563 199.226563 121.226563 Z "/>
<path style=" stroke:none;fill-rule:nonzero;fill:#7782AC;fill-opacity:1;" d="M 128.355469 303.398438 L 114.101563 338.058594 C 113.15625 340.046875 114.007813 342.445313 115.996094 343.386719 C 117.984375 344.332031 120.378906 343.480469 121.324219 341.492188 L 139.886719 313.929688 "/>
<path style=" stroke:none;fill-rule:nonzero;fill:#1F212B;fill-opacity:1;" d="M 117.738281 345.78125 C 116.867188 345.78125 115.980469 345.597656 115.136719 345.195313 C 113.695313 344.511719 112.605469 343.300781 112.0625 341.785156 C 111.523438 340.273438 111.609375 338.644531 112.292969 337.199219 L 126.503906 302.636719 C 126.929688 301.613281 128.097656 301.132813 129.113281 301.546875 C 130.132813 301.96875 130.621094 303.136719 130.199219 304.15625 L 115.949219 338.820313 C 115.679688 339.394531 115.652344 339.941406 115.832031 340.445313 C 116.011719 340.949219 116.375 341.355469 116.851563 341.578125 C 117.84375 342.046875 119.042969 341.628906 119.519531 340.632813 L 138.230469 312.8125 C 138.847656 311.890625 140.09375 311.652344 141.007813 312.273438 C 141.925781 312.886719 142.167969 314.132813 141.546875 315.046875 L 122.984375 342.613281 C 122.070313 344.570313 119.960938 345.78125 117.738281 345.78125 Z "/>
<path style=" stroke:none;fill-rule:nonzero;fill:#7782AC;fill-opacity:1;" d="M 271.644531 303.398438 L 285.898438 338.058594 C 286.84375 340.046875 285.992188 342.445313 284.003906 343.386719 C 282.015625 344.332031 279.621094 343.480469 278.675781 341.492188 L 260.113281 313.929688 "/>
<path style=" stroke:none;fill-rule:nonzero;fill:#1F212B;fill-opacity:1;" d="M 282.296875 345.777344 C 280.050781 345.777344 277.890625 344.511719 276.867188 342.355469 L 258.453125 315.050781 C 257.835938 314.136719 258.074219 312.890625 258.992188 312.277344 C 259.902344 311.65625 261.152344 311.894531 261.769531 312.816406 L 280.332031 340.378906 C 280.953125 341.628906 282.144531 342.058594 283.144531 341.585938 C 283.625 341.355469 283.984375 340.953125 284.164063 340.449219 C 284.34375 339.945313 284.320313 339.398438 284.089844 338.925781 L 269.792969 304.164063 C 269.371094 303.144531 269.859375 301.976563 270.878906 301.554688 C 271.894531 301.144531 273.070313 301.625 273.488281 302.644531 L 287.738281 337.308594 C 288.382813 338.652344 288.464844 340.28125 287.929688 341.792969 C 287.386719 343.304688 286.296875 344.515625 284.851563 345.203125 C 284.03125 345.589844 283.160156 345.777344 282.296875 345.777344 Z "/>
<path style=" stroke:none;fill-rule:nonzero;fill:#FDFCEE;fill-opacity:1;" d="M 290.066406 216.152344 C 291.710938 235.171875 287.394531 254.808594 276.449219 272.078125 C 249.808594 314.113281 193.980469 326.222656 151.761719 299.136719 C 109.539063 272.046875 96.90625 216.015625 123.546875 173.984375 C 150.1875 131.953125 206.015625 119.839844 248.238281 146.929688 C 263.246094 156.554688 274.515625 169.84375 281.613281 184.859375 "/>
<path style=" stroke:none;fill-rule:nonzero;fill:#1F212B;fill-opacity:1;" d="M 200.671875 315.609375 C 183.128906 315.609375 165.882813 310.574219 150.679688 300.820313 C 107.601563 273.179688 94.675781 215.804688 121.859375 172.910156 C 134.960938 152.242188 155.347656 137.953125 179.265625 132.660156 C 203.449219 127.316406 228.328125 131.777344 249.316406 145.242188 C 264.136719 154.753906 275.929688 168.15625 283.421875 184.003906 C 283.890625 185.003906 283.464844 186.191406 282.46875 186.667969 C 281.464844 187.144531 280.277344 186.710938 279.804688 185.714844 C 272.636719 170.542969 261.347656 157.714844 247.15625 148.613281 C 227.070313 135.722656 203.261719 131.453125 180.128906 136.566406 C 157.257813 141.628906 137.765625 155.296875 125.234375 175.054688 C 99.222656 216.09375 111.609375 271 152.835938 297.457031 C 172.921875 310.339844 196.726563 314.621094 219.863281 309.5 C 242.734375 304.441406 262.226563 290.773438 274.757813 271.011719 C 285.144531 254.625 289.746094 235.714844 288.074219 216.328125 C 287.980469 215.226563 288.796875 214.257813 289.894531 214.164063 C 291.019531 214.023438 291.964844 214.882813 292.058594 215.984375 C 293.8125 236.253906 288.996094 256.019531 278.136719 273.152344 C 265.035156 293.820313 244.648438 308.113281 220.730469 313.402344 C 214.066406 314.875 207.34375 315.605469 200.671875 315.609375 Z "/>
<path style=" stroke:none;fill-rule:nonzero;fill:#FDFCEE;fill-opacity:1;" d="M 286.886719 201.460938 C 287.40625 203.589844 287.851563 205.730469 288.21875 207.890625 "/>
<path style=" stroke:none;fill-rule:nonzero;fill:#1F212B;fill-opacity:1;" d="M 288.214844 209.894531 C 287.257813 209.894531 286.410156 209.207031 286.242188 208.226563 C 285.886719 206.117188 285.457031 204.015625 284.945313 201.9375 C 284.683594 200.863281 285.339844 199.78125 286.410156 199.515625 C 287.492188 199.253906 288.566406 199.910156 288.832031 200.984375 C 289.363281 203.15625 289.820313 205.351563 290.191406 207.558594 C 290.375 208.648438 289.640625 209.679688 288.550781 209.867188 C 288.441406 209.882813 288.324219 209.894531 288.214844 209.894531 Z "/>
<path style=" stroke:none;fill-rule:nonzero;fill:#1F212B;fill-opacity:1;" d="M 199.226563 145.226563 C 198.125 145.226563 197.226563 144.332031 197.226563 143.226563 L 197.226563 135.226563 C 197.226563 134.125 198.125 133.226563 199.226563 133.226563 C 200.332031 133.226563 201.226563 134.125 201.226563 135.226563 L 201.226563 143.226563 C 201.226563 144.332031 200.332031 145.226563 199.226563 145.226563 Z "/>
<path style=" stroke:none;fill-rule:nonzero;fill:#1F212B;fill-opacity:1;" d="M 199.226563 313.226563 C 198.125 313.226563 197.226563 312.332031 197.226563 311.226563 L 197.226563 303.226563 C 197.226563 302.125 198.125 301.226563 199.226563 301.226563 C 200.332031 301.226563 201.226563 302.125 201.226563 303.226563 L 201.226563 311.226563 C 201.226563 312.332031 200.332031 313.226563 199.226563 313.226563 Z "/>
<path style=" stroke:none;fill-rule:nonzero;fill:#1F212B;fill-opacity:1;" d="M 290 225.03125 L 278 225.03125 C 276.894531 225.03125 276 224.136719 276 223.03125 C 276 221.929688 276.894531 221.03125 278 221.03125 L 290 221.03125 C 291.105469 221.03125 292 221.929688 292 223.03125 C 292 224.136719 291.105469 225.03125 290 225.03125 Z "/>
<path style=" stroke:none;fill-rule:nonzero;fill:#1F212B;fill-opacity:1;" d="M 118 225.03125 L 110 225.03125 C 108.894531 225.03125 108 224.136719 108 223.03125 C 108 221.929688 108.894531 221.03125 110 221.03125 L 118 221.03125 C 119.105469 221.03125 120 221.929688 120 223.03125 C 120 224.136719 119.105469 225.03125 118 225.03125 Z "/>
<path style=" stroke:none;fill-rule:nonzero;fill:#1F212B;fill-opacity:1;" d="M 254.992188 170.140625 C 254.484375 170.140625 253.972656 169.949219 253.578125 169.554688 C 252.796875 168.777344 252.792969 167.511719 253.570313 166.726563 L 260.921875 159.34375 C 261.699219 158.5625 262.972656 158.558594 263.746094 159.335938 C 264.53125 160.117188 264.535156 161.378906 263.757813 162.164063 L 256.40625 169.546875 C 256.019531 169.941406 255.507813 170.140625 254.992188 170.140625 Z "/>
<path style=" stroke:none;fill-rule:nonzero;fill:#1F212B;fill-opacity:1;" d="M 137.433594 288.027344 C 136.925781 288.027344 136.410156 287.835938 136.019531 287.445313 C 135.234375 286.664063 135.230469 285.398438 136.011719 284.617188 L 143.359375 277.230469 C 144.140625 276.453125 145.410156 276.445313 146.1875 277.222656 C 146.972656 278.003906 146.976563 279.269531 146.195313 280.050781 L 138.847656 287.4375 C 138.460938 287.828125 137.949219 288.027344 137.433594 288.027344 Z "/>
<path style=" stroke:none;fill-rule:nonzero;fill:#1F212B;fill-opacity:1;" d="M 264.09375 288.359375 C 263.578125 288.359375 263.0625 288.164063 262.675781 287.773438 L 255.328125 280.382813 C 254.546875 279.601563 254.550781 278.335938 255.335938 277.554688 C 256.117188 276.777344 257.382813 276.78125 258.164063 277.5625 L 265.511719 284.953125 C 266.292969 285.734375 266.289063 287 265.503906 287.78125 C 265.113281 288.164063 264.605469 288.359375 264.09375 288.359375 Z "/>
<path style=" stroke:none;fill-rule:nonzero;fill:#1F212B;fill-opacity:1;" d="M 145.121094 168.546875 C 144.609375 168.546875 144.09375 168.351563 143.703125 167.960938 L 136.355469 160.574219 C 135.574219 159.792969 135.578125 158.527344 136.363281 157.746094 C 137.144531 156.964844 138.410156 156.972656 139.191406 157.757813 L 146.539063 165.140625 C 147.320313 165.925781 147.316406 167.1875 146.53125 167.96875 C 146.140625 168.355469 145.628906 168.546875 145.121094 168.546875 Z "/>
<path style=" stroke:none;fill-rule:nonzero;fill:#1F212B;fill-opacity:1;" d="M 249.226563 225.226563 L 209.226563 225.226563 C 207.019531 225.226563 205.226563 223.4375 205.226563 221.226563 C 205.226563 219.019531 207.019531 217.226563 209.226563 217.226563 L 249.226563 217.226563 C 251.4375 217.226563 253.226563 219.019531 253.226563 221.226563 C 253.226563 223.4375 251.4375 225.226563 249.226563 225.226563 Z "/>
<path style=" stroke:none;fill-rule:nonzero;fill:#1F212B;fill-opacity:1;" d="M 199.226563 217.226563 C 197.019531 217.226563 195.226563 215.4375 195.226563 213.226563 L 195.226563 157.226563 C 195.226563 155.019531 197.019531 153.226563 199.226563 153.226563 C 201.4375 153.226563 203.226563 155.019531 203.226563 157.226563 L 203.226563 213.226563 C 203.226563 215.4375 201.4375 217.226563 199.226563 217.226563 Z "/>
<path style=" stroke:none;fill-rule:nonzero;fill:#FFFFFF;fill-opacity:1;" d="M 207.53125 221.226563 C 207.53125 225.644531 203.949219 229.226563 199.53125 229.226563 C 195.113281 229.226563 191.53125 225.644531 191.53125 221.226563 C 191.53125 216.808594 195.113281 213.226563 199.53125 213.226563 C 203.949219 213.226563 207.53125 216.808594 207.53125 221.226563 Z "/>
<path style=" stroke:none;fill-rule:nonzero;fill:#1F212B;fill-opacity:1;" d="M 199.53125 231.226563 C 194.019531 231.226563 189.53125 226.738281 189.53125 221.226563 C 189.53125 215.714844 194.019531 211.226563 199.53125 211.226563 C 205.042969 211.226563 209.53125 215.714844 209.53125 221.226563 C 209.53125 226.738281 205.042969 231.226563 199.53125 231.226563 Z M 199.53125 215.226563 C 196.222656 215.226563 193.53125 217.921875 193.53125 221.226563 C 193.53125 224.535156 196.222656 227.226563 199.53125 227.226563 C 202.839844 227.226563 205.53125 224.535156 205.53125 221.226563 C 205.53125 217.921875 202.839844 215.226563 199.53125 215.226563 Z "/>
</g>
</svg>
